<svg width="354" height="336" viewBox="0 0 354 336" fill="none"
	xmlns="http://www.w3.org/2000/svg">
	<g id="Icons">
		<g id="Icons / Instagram">
			<path id="Icons/instagram" fill-rule="evenodd" clip-rule="evenodd" d="M13.8041 33.116C13.2081 33.116 12.7251 33.599 12.7251 34.195C12.7251 34.792 13.2081 35.275 13.8041 35.275C14.4011 35.275 14.8841 34.792 14.8841 34.195C14.8841 33.599 14.4011 33.116 13.8041 33.116ZM9 42C7.343 42 6 40.657 6 39C6 37.343 7.343 36 9 36C10.658 36 12 37.343 12 39C12 40.657 10.658 42 9 42ZM8.99993 34.378C6.44793 34.378 4.37793 36.447 4.37793 39C4.37793 41.553 6.44793 43.622 8.99993 43.622C11.5529 43.622 13.6209 41.553 13.6209 39C13.6209 36.447 11.5529 34.378 8.99993 34.378ZM9 30C6.556 30 6.249 30.011 5.289 30.053C4.331 30.097 3.677 30.25 3.105 30.472C2.513 30.702 2.011 31.01 1.511 31.511C1.01 32.011 0.702 32.512 0.473 33.104C0.25 33.677 0.098 34.331 0.054 35.289C0.011 36.249 0 36.555 0 39C0 41.444 0.011 41.751 0.054 42.711C0.098 43.669 0.25 44.323 0.473 44.895C0.702 45.487 1.01 45.989 1.511 46.489C2.011 46.99 2.513 47.298 3.105 47.527C3.677 47.75 4.331 47.902 5.289 47.946C6.249 47.989 6.556 48 9 48C11.445 48 11.751 47.989 12.711 47.946C13.669 47.902 14.324 47.75 14.896 47.527C15.488 47.298 15.99 46.99 16.49 46.489C16.99 45.989 17.298 45.487 17.528 44.895C17.75 44.323 17.903 43.669 17.946 42.711C17.99 41.751 18 41.444 18 39C18 36.555 17.99 36.249 17.946 35.289C17.903 34.331 17.75 33.677 17.528 33.104C17.298 32.512 16.99 32.011 16.49 31.511C15.99 31.01 15.488 30.702 14.896 30.472C14.324 30.25 13.669 30.097 12.711 30.053C11.751 30.011 11.445 30 9 30ZM9.00009 31.622C11.4041 31.622 11.6881 31.631 12.6371 31.674C13.5151 31.714 13.9911 31.86 14.3081 31.984C14.7281 32.147 15.0281 32.342 15.3431 32.657C15.6581 32.971 15.8531 33.271 16.0161 33.692C16.1401 34.009 16.2861 34.485 16.3261 35.363C16.3691 36.312 16.3781 36.596 16.3781 39C16.3781 41.403 16.3691 41.687 16.3261 42.637C16.2861 43.514 16.1401 43.991 16.0161 44.307C15.8531 44.727 15.6581 45.027 15.3431 45.343C15.0281 45.657 14.7281 45.852 14.3081 46.015C13.9911 46.139 13.5151 46.286 12.6371 46.326C11.6881 46.369 11.4041 46.378 9.00009 46.378C6.59709 46.378 6.31309 46.369 5.36409 46.326C4.48609 46.286 4.00909 46.139 3.69309 46.015C3.27209 45.852 2.97209 45.657 2.65809 45.343C2.34209 45.028 2.14809 44.727 1.98509 44.307C1.86109 43.991 1.71409 43.514 1.67409 42.637C1.63109 41.687 1.62109 41.403 1.62109 39C1.62109 36.596 1.63109 36.312 1.67409 35.363C1.71409 34.485 1.86109 34.009 1.98509 33.692C2.14809 33.271 2.34209 32.971 2.65809 32.657C2.97209 32.342 3.27209 32.147 3.69309 31.984C4.00909 31.86 4.48609 31.714 5.36409 31.674C6.31309 31.631 6.59709 31.622 9.00009 31.622Z" fill="#262628"/>
		</g>
		<g id="Icons / Menu">
			<path id="Combined Shape" fill-rule="evenodd" clip-rule="evenodd" d="M48 33C48 32.4477 48.4477 32 49 32H65C65.5523 32 66 32.4477 66 33C66 33.5523 65.5523 34 65 34H49C48.4477 34 48 33.5523 48 33ZM48 39C48 38.4477 48.4477 38 49 38H65C65.5523 38 66 38.4477 66 39C66 39.5523 65.5523 40 65 40H49C48.4477 40 48 39.5523 48 39ZM49 44C48.4477 44 48 44.4477 48 45C48 45.5523 48.4477 46 49 46H65C65.5523 46 66 45.5523 66 45C66 44.4477 65.5523 44 65 44H49Z" fill="white"/>
		</g>
		<g id="Icons / Add">
			<path id="Combined Shape_2" fill-rule="evenodd" clip-rule="evenodd" d="M105 30C104.448 30 104 30.4477 104 31V38H97C96.4478 38 96 38.4477 96 39C96 39.5523 96.4478 40 97 40H104V47C104 47.5523 104.448 48 105 48C105.552 48 106 47.5523 106 47V40H113C113.552 40 114 39.5523 114 39C114 38.4477 113.552 38 113 38H106V31C106 30.4477 105.552 30 105 30Z" fill="#262628"/>
		</g>
		<g id="Icons / Minus">
			<path id="Rectangle 4" fill-rule="evenodd" clip-rule="evenodd" d="M113 8C113.552 8 114 8.44772 114 9C114 9.55228 113.552 10 113 10H97C96.4477 10 96 9.55228 96 9C96 8.44772 96.4477 8 97 8L113 8Z" fill="#2F2F2F"/>
		</g>
		<g id="Icons / Search">
			<path id="Combined Shape_3" fill-rule="evenodd" clip-rule="evenodd" d="M152 46C147.582 46 144 42.4183 144 38C144 33.5817 147.582 30 152 30C156.418 30 160 33.5817 160 38C160 39.8487 159.373 41.551 158.32 42.9057L161.707 46.2929C162.098 46.6834 162.098 47.3166 161.707 47.7071C161.317 48.0976 160.683 48.0976 160.293 47.7071L156.906 44.3198C155.551 45.3729 153.849 46 152 46ZM152 44C155.314 44 158 41.3137 158 38C158 34.6863 155.314 32 152 32C148.686 32 146 34.6863 146 38C146 41.3137 148.686 44 152 44Z" fill="#333333"/>
		</g>
		<g id="Icona / Arrow Previous ">
			<path id="Combined Shape_4" d="M199.993 44.8718C200.388 45.266 200.393 45.8995 200 46.2927C199.61 46.6832 198.981 46.6881 198.582 46.2886L192.297 40.004C191.904 39.6111 191.898 38.981 192.297 38.5815L198.582 32.2969C198.975 31.904 199.607 31.8995 200 32.2927C200.391 32.6832 200.392 33.3151 199.993 33.7136L195.414 38.2927H208.998C209.551 38.2927 210 38.7366 210 39.2927C210 39.845 209.548 40.2927 208.998 40.2927H195.414L199.993 44.8718Z" fill="#262628"/>
		</g>
		<g id="Icona / Arrow Next ">
			<path id="Combined Shape_5" d="M250.007 33.7151C249.612 33.3209 249.607 32.6875 250 32.2942C250.391 31.9037 251.019 31.8988 251.418 32.2983L257.703 38.583C258.096 38.9758 258.103 39.6059 257.703 40.0055L251.418 46.2901C251.026 46.6829 250.393 46.6875 250 46.2942C249.609 45.9037 249.608 45.2719 250.007 44.8733L254.586 40.2942H241.003C240.449 40.2942 240 39.8503 240 39.2942C240 38.7419 240.453 38.2942 241.003 38.2942H254.586L250.007 33.7151Z" fill="#262628"/>
		</g>
		<g id="Icona / Home">
			<path id="Combined Shape_6" d="M200 138H203C203.552 138 204 137.552 204 137C204 136.448 203.552 136 203 136H199C198.448 136 198 136.448 198 137V142H194V135.414L201 128.414L208 135.414V142H203C202.448 142 202 142.448 202 143C202 143.552 202.448 144 203 144H209C209.552 144 210 143.552 210 143V135C210 134.735 209.895 134.48 209.707 134.293L201.707 126.293C201.317 125.902 200.683 125.902 200.293 126.293L192.293 134.293C192.105 134.48 192 134.735 192 135V143C192 143.552 192.448 144 193 144H199C199.552 144 200 143.552 200 143V138Z" fill="#262628"/>
		</g>
		<g id="Icons / Heart">
			<path id="Fill 1" fill-rule="evenodd" clip-rule="evenodd" d="M304.44 40.0947C306.52 38.0154 306.52 34.641 304.44 32.5605C302.39 30.5113 299.086 30.4804 297 32.4681C294.915 30.4804 291.611 30.511 289.561 32.5603C287.48 34.641 287.48 38.0154 289.561 40.0949L296.293 46.8277L297 47.5348L304.44 40.0947ZM303.025 33.9747C304.325 35.2741 304.325 37.3818 303.026 38.6803L297 44.7063L290.975 38.6805C289.675 37.3818 289.675 35.2741 290.975 33.9747C292.275 32.6752 294.382 32.6752 295.68 33.9745L296.294 34.5873L297.001 35.2932L298.32 33.9745C299.618 32.6753 301.726 32.6753 303.025 33.9747Z" fill="#262628"/>
		</g>
		<g id="Icons / Profile">
			<path id="Combined Shape_7" fill-rule="evenodd" clip-rule="evenodd" d="M340.666 39.7259C339.643 38.8104 339 37.4803 339 36C339 33.2386 341.239 31 344 31C346.761 31 349 33.2386 349 36C349 37.4803 348.357 38.8104 347.334 39.7259C350.088 40.9901 352 43.7718 352 47C352 47.5523 351.552 48 351 48C350.448 48 350 47.5523 350 47C350 43.6863 347.314 41 344 41C340.686 41 338 43.6863 338 47C338 47.5523 337.552 48 337 48C336.448 48 336 47.5523 336 47C336 43.7718 337.912 40.9901 340.666 39.7259ZM344 39C345.657 39 347 37.6569 347 36C347 34.3431 345.657 33 344 33C342.343 33 341 34.3431 341 36C341 37.6569 342.343 39 344 39Z" fill="#262628"/>
		</g>
		<g id="Icons / Time">
			<path id="Combined Shape_8" fill-rule="evenodd" clip-rule="evenodd" d="M9 96C4.02954 96 0 91.9706 0 87C0 82.0294 4.02954 78 9 78C13.9705 78 18 82.0294 18 87C18 91.9706 13.9705 96 9 96ZM9 94C12.866 94 16 90.866 16 87C16 83.134 12.866 80 9 80C5.13403 80 2 83.134 2 87C2 90.866 5.13403 94 9 94ZM10 83V86H13C13.5522 86 14 86.4477 14 87C14 87.5523 13.5522 88 13 88H9C8.44775 88 8 87.5523 8 87V83C8 82.4477 8.44775 82 9 82C9.55225 82 10 82.4477 10 83Z" fill="#262628"/>
		</g>
		<g id="Icons / More">
			<path id="Combined Shape_9" fill-rule="evenodd" clip-rule="evenodd" d="M57 82C58.1045 82 59 81.1046 59 80C59 78.8954 58.1045 78 57 78C55.8955 78 55 78.8954 55 80C55 81.1046 55.8955 82 57 82ZM57 96C58.1045 96 59 95.1046 59 94C59 92.8954 58.1045 92 57 92C55.8955 92 55 92.8954 55 94C55 95.1046 55.8955 96 57 96ZM59 87C59 88.1046 58.1045 89 57 89C55.8955 89 55 88.1046 55 87C55 85.8954 55.8955 85 57 85C58.1045 85 59 85.8954 59 87Z" fill="#262628"/>
		</g>
		<g id="Icons / Info">
			<path id="Info Icon" fill-rule="evenodd" clip-rule="evenodd" d="M106 94H107.003C107.554 94 108 94.4439 108 95C108 95.5523 107.547 96 107.003 96H102.997C102.446 96 102 95.5561 102 95C102 94.4477 102.453 94 102.997 94H104V85H103.009C102.452 85 102 84.5561 102 84C102 83.4477 102.443 83 103.009 83H104.991C105.548 83 106 83.4439 106 84V94ZM106 79.5C106 78.6716 105.328 78 104.5 78C103.672 78 103 78.6716 103 79.5C103 80.3284 103.672 81 104.5 81C105.328 81 106 80.3284 106 79.5Z" fill="#262628"/>
		</g>
		<g id="Icons / Facebook">
			<path id="Fill 1_2" fill-rule="evenodd" clip-rule="evenodd" d="M154.056 95.9669V87.7714H156.807L157.219 84.5774H154.056V82.5381C154.056 81.6134 154.313 80.9832 155.639 80.9832L157.331 80.9824V78.1258C157.038 78.0869 156.034 78 154.866 78C152.427 78 150.758 79.4884 150.758 82.2219V84.5774H148V87.7714H150.758V95.9669H154.056Z" fill="#262628"/>
		</g>
		<g id="Icons / Twitter">
			<path id="Fill 1_3" fill-rule="evenodd" clip-rule="evenodd" d="M197.661 94.629C204.453 94.629 208.168 89.001 208.168 84.121C208.168 83.962 208.165 83.803 208.157 83.644C208.879 83.123 209.505 82.473 210 81.732C209.338 82.025 208.626 82.224 207.879 82.314C208.641 81.857 209.226 81.133 209.503 80.271C208.789 80.693 207.999 81.001 207.158 81.167C206.484 80.449 205.524 80 204.462 80C202.423 80 200.768 81.654 200.768 83.692C200.768 83.983 200.802 84.265 200.864 84.535C197.796 84.381 195.074 82.911 193.253 80.677C192.935 81.222 192.753 81.857 192.753 82.532C192.753 83.814 193.404 84.944 194.395 85.607C193.79 85.588 193.221 85.421 192.724 85.145C192.723 85.16 192.723 85.176 192.723 85.191C192.723 86.981 193.995 88.474 195.685 88.813C195.375 88.897 195.049 88.942 194.712 88.942C194.473 88.942 194.242 88.918 194.017 88.875C194.487 90.343 195.85 91.41 197.468 91.441C196.203 92.431 194.611 93.022 192.881 93.022C192.583 93.022 192.289 93.004 192 92.97C193.634 94.018 195.575 94.629 197.661 94.629Z" fill="#262628"/>
		</g>
		<g id="Icons / Exchange">
			<path id="Combined Shape_10" fill-rule="evenodd" clip-rule="evenodd" d="M253.001 86.9999C252.611 86.6094 252.611 85.9762 253.001 85.5857L254.587 83.9999H247.001C246.449 83.9999 246.001 83.5522 246.001 82.9999C246.001 82.4477 246.449 81.9999 247.001 81.9999H254.587L253.001 80.4141C252.611 80.0236 252.611 79.3905 253.001 78.9999C253.392 78.6094 254.025 78.6094 254.416 78.9999L257.708 82.2928C258.099 82.6833 258.099 83.3165 257.708 83.7071L254.416 86.9999C254.025 87.3905 253.392 87.3905 253.001 86.9999ZM245 94.9999C245.391 94.6094 245.391 93.9762 245 93.5857L243.414 91.9999H251C251.552 91.9999 252 91.5522 252 90.9999C252 90.4477 251.552 89.9999 251 89.9999H243.414L245 88.4141C245.391 88.0236 245.391 87.3905 245 86.9999C244.609 86.6094 243.976 86.6094 243.586 86.9999L240.293 90.2928C239.902 90.6833 239.902 91.3165 240.293 91.7071L243.586 94.9999C243.976 95.3905 244.609 95.3905 245 94.9999Z" fill="#262628"/>
		</g>
		<g id="Icons / Bag">
			<path id="Combined Shape_11" fill-rule="evenodd" clip-rule="evenodd" d="M296 78C298.209 78 300 79.7909 300 82H302C302.52 82 302.953 82.3987 302.996 82.917L303.996 94.917C304.045 95.5 303.585 96 303 96H289C288.415 96 287.955 95.5 288.003 94.917L289.003 82.917C289.046 82.3987 289.48 82 290 82H292C292 79.7909 293.791 78 296 78ZM294 82H298C298 80.8954 297.105 80 296 80C294.896 80 294 80.8954 294 82ZM290.92 84L290.087 94H301.913L301.08 84H290.92Z" fill="#262628"/>
		</g>
		<g id="Icons / Repeat">
			<path id="Combined Shape_12" fill-rule="evenodd" clip-rule="evenodd" d="M335 87C335 87.552 335.447 88 336 88C336.553 88 337 87.552 337 87C337 85.13 337.729 83.373 339.05 82.05C340.372 80.728 342.131 80 344 80C345.869 80 347.628 80.728 348.95 82.05L348.707 82.2929C348.077 82.9229 348.523 84 349.414 84H351.5C351.776 84 352 83.7762 352 83.5V81.4142C352 80.5575 351.004 80.112 350.367 80.6393L350.364 80.636C348.664 78.936 346.403 78 344 78C341.597 78 339.336 78.936 337.636 80.636C335.936 82.336 335 84.596 335 87ZM337.636 93.365C339.337 95.064 341.597 96 344 96C346.403 96 348.663 95.064 350.364 93.364C352.064 91.664 353 89.404 353 87C353 86.448 352.553 86 352 86C351.447 86 351 86.448 351 87C351 88.87 350.271 90.628 348.95 91.95C347.627 93.272 345.869 94 344 94C342.131 94 340.373 93.272 339.05 91.95L339.293 91.7071C339.923 91.0771 339.477 90 338.586 90H336.5C336.224 90 336 90.2238 336 90.5V92.5858C336 93.4423 336.996 93.8877 337.632 93.3611C337.633 93.3624 337.635 93.3637 337.636 93.365Z" fill="#231F20"/>
		</g>
		<g id="Icons / Feed">
			<path id="Combined Shape_13" fill-rule="evenodd" clip-rule="evenodd" d="M18 128C18 127.448 17.5522 127 17 127H1C0.447754 127 0 127.448 0 128C0 128.552 0.447754 129 1 129H17C17.5522 129 18 128.552 18 128ZM18 135C18 134.448 17.5522 134 17 134H1C0.447754 134 0 134.448 0 135C0 135.552 0.447754 136 1 136H17C17.5522 136 18 135.552 18 135ZM17 141C17.5522 141 18 141.448 18 142C18 142.552 17.5522 143 17 143H10C9.44775 143 9 142.552 9 142C9 141.448 9.44775 141 10 141H17Z" fill="#262628"/>
		</g>
		<g id="Icons / Comment">
			<path id="Rectangle 6" fill-rule="evenodd" clip-rule="evenodd" d="M65 143C65.7434 143 66.2268 142.218 65.8945 141.553L64 137.764V132.01C64 129.239 61.7678 127 59.0068 127H52.9932C50.2351 127 48 129.235 48 131.993V138.007C48 140.765 50.2368 143 52.9961 143H65ZM62 138C62 138.155 62.0361 138.308 62.1055 138.447L63.3821 141H52.9961C51.3411 141 50 139.66 50 138.007V131.993C50 130.34 51.3398 129 52.9932 129H59.0068C60.6619 129 62 130.342 62 132.01V138Z" fill="#262628"/>
		</g>
		<g id="Icons / Location">
			<path id="Combined Shape_14" fill-rule="evenodd" clip-rule="evenodd" d="M99.3416 128.342C102.465 125.218 107.537 125.22 110.658 128.342C113.781 131.465 113.78 136.537 110.658 139.658L107.126 143.191C105.952 144.365 104.049 144.365 102.874 143.191L99.3416 139.658C96.2185 136.535 96.2205 131.463 99.3416 128.342ZM100.756 129.756C98.4155 132.096 98.4141 135.902 100.756 138.244L104.288 141.777C104.682 142.17 105.318 142.17 105.712 141.777L109.244 138.244C111.584 135.904 111.586 132.098 109.244 129.756C106.904 127.415 103.098 127.414 100.756 129.756ZM107 134C107 135.105 106.104 136 105 136C103.896 136 103 135.105 103 134C103 132.895 103.896 132 105 132C106.104 132 107 132.895 107 134Z" fill="#262628"/>
		</g>
		<g id="Icons / Done">
			<path id="Rectangle 3" d="M294.485 139.071L289.707 134.293C289.317 133.902 288.683 133.902 288.293 134.293C287.902 134.683 287.902 135.317 288.293 135.707L293.778 141.192C294.169 141.583 294.802 141.583 295.192 141.192L305.678 130.707C306.068 130.317 306.068 129.683 305.678 129.293C305.287 128.902 304.654 128.902 304.263 129.293L294.485 139.071Z" fill="#262628"/>
		</g>
		<g id="Icons / Close">
			<path id="Vector" fill-rule="evenodd" clip-rule="evenodd" d="M154.1 134.7L159.1 129.7C159.5 129.3 159.5 128.7 159.1 128.3C158.7 127.9 158.1 127.9 157.7 128.3L152.7 133.3L147.7 128.3C147.3 127.9 146.7 127.9 146.3 128.3C145.9 128.7 145.9 129.3 146.3 129.7L151.3 134.7L146.3 139.7C145.9 140.1 145.9 140.7 146.3 141.1C146.7 141.5 147.3 141.5 147.7 141.1L152.7 136.1L157.7 141.1C158.1 141.5 158.7 141.5 159.1 141.1C159.5 140.7 159.5 140.1 159.1 139.7L154.1 134.7Z" fill="#262628"/>
		</g>
		<g id="Icons / Delete">
			<path id="Combined Shape_15" fill-rule="evenodd" clip-rule="evenodd" d="M246 126.999V128H241C240.448 128 240 128.448 240 129C240 129.552 240.448 130 241 130H257C257.552 130 258 129.552 258 129C258 128.448 257.552 128 257 128H252V126.999C252 126.443 251.556 126 251.009 126H246.991C246.451 126 246 126.447 246 126.999ZM255 132C254.448 132 254 132.448 254 133V141C254 141.55 253.548 142 252.991 142H245.009C244.447 142 244 141.556 244 141V133C244 132.448 243.552 132 243 132C242.448 132 242 132.448 242 133V141C242 142.664 243.346 144 245.009 144H252.991C254.65 144 256 142.657 256 141V133C256 132.448 255.552 132 255 132Z" fill="#262628"/>
		</g>
		<g id="Icons / Grid">
			<path id="Combined Shape_16" fill-rule="evenodd" clip-rule="evenodd" d="M336.5 129C337.328 129 338 128.328 338 127.5C338 126.672 337.328 126 336.5 126C335.672 126 335 126.672 335 127.5C335 128.328 335.672 129 336.5 129ZM336.5 136C337.328 136 338 135.328 338 134.5C338 133.672 337.328 133 336.5 133C335.672 133 335 133.672 335 134.5C335 135.328 335.672 136 336.5 136ZM338 141.5C338 142.328 337.328 143 336.5 143C335.672 143 335 142.328 335 141.5C335 140.672 335.672 140 336.5 140C337.328 140 338 140.672 338 141.5ZM350.5 129C351.328 129 352 128.328 352 127.5C352 126.672 351.328 126 350.5 126C349.672 126 349 126.672 349 127.5C349 128.328 349.672 129 350.5 129ZM352 134.5C352 135.328 351.328 136 350.5 136C349.672 136 349 135.328 349 134.5C349 133.672 349.672 133 350.5 133C351.328 133 352 133.672 352 134.5ZM350.5 143C351.328 143 352 142.328 352 141.5C352 140.672 351.328 140 350.5 140C349.672 140 349 140.672 349 141.5C349 142.328 349.672 143 350.5 143ZM345 127.5C345 128.328 344.328 129 343.5 129C342.672 129 342 128.328 342 127.5C342 126.672 342.672 126 343.5 126C344.328 126 345 126.672 345 127.5ZM343.5 136C344.328 136 345 135.328 345 134.5C345 133.672 344.328 133 343.5 133C342.672 133 342 133.672 342 134.5C342 135.328 342.672 136 343.5 136ZM345 141.5C345 142.328 344.328 143 343.5 143C342.672 143 342 142.328 342 141.5C342 140.672 342.672 140 343.5 140C344.328 140 345 140.672 345 141.5Z" fill="#262628"/>
		</g>
		<g id="Icons / Flash">
			<path id="Path 3" d="M7.20175 190.402C6.87043 190.844 6.96004 191.471 7.40191 191.802C7.84378 192.133 8.47057 192.044 8.80189 191.602L14.8019 183.6C15.2962 182.941 14.8258 182 14.0018 182H6.00182L10.8018 175.6C11.1332 175.158 11.0436 174.531 10.6018 174.2C10.16 173.869 9.53319 173.958 9.20182 174.4L3.20182 182.4C2.70739 183.059 3.17777 184 4.00182 184H12.0021L7.20175 190.402Z" fill="#262628"/>
		</g>
		<g id="Icons / Smile">
			<path id="Combined Shape_17" fill-rule="evenodd" clip-rule="evenodd" d="M57 192C52.0295 192 48 187.971 48 183C48 178.029 52.0295 174 57 174C61.9705 174 66 178.029 66 183C66 187.971 61.9705 192 57 192ZM57 190C60.866 190 64 186.866 64 183C64 179.134 60.866 176 57 176C53.134 176 50 179.134 50 183C50 186.866 53.134 190 57 190ZM60.5356 185.121C60.926 185.512 60.926 186.145 60.5356 186.536C58.583 188.488 55.4172 188.488 53.4646 186.536C53.074 186.145 53.074 185.512 53.4646 185.121C53.855 184.731 54.4883 184.731 54.8787 185.121C56.0503 186.293 57.9497 186.293 59.1213 185.121C59.512 184.731 60.145 184.731 60.5356 185.121ZM53.5 183C54.3284 183 55 182.328 55 181.5C55 180.672 54.3284 180 53.5 180C52.6716 180 52 180.672 52 181.5C52 182.328 52.6716 183 53.5 183ZM62 181.5C62 182.328 61.3284 183 60.5 183C59.6716 183 59 182.328 59 181.5C59 180.672 59.6716 180 60.5 180C61.3284 180 62 180.672 62 181.5Z" fill="#262628"/>
		</g>
		<g id="Icons / Star">
			<path id="Star" fill-rule="evenodd" clip-rule="evenodd" d="M100.522 191.102L105.001 188.747L109.48 191.102C110.214 191.488 111.071 190.865 110.931 190.048L110.076 185.06L113.699 181.528C114.293 180.95 113.965 179.942 113.145 179.823L108.137 179.095L105.898 174.557C105.531 173.814 104.471 173.814 104.104 174.557L101.865 179.095L96.8572 179.823C96.0372 179.942 95.7095 180.95 96.303 181.528L99.9266 185.06L99.0714 190.048C98.9312 190.865 99.7886 191.488 100.522 191.102ZM104.536 186.732L101.385 188.389L101.987 184.88C102.043 184.556 101.935 184.225 101.699 183.995L99.1502 181.511L102.673 180.999C102.999 180.951 103.28 180.747 103.426 180.452L105.001 177.26L106.577 180.452C106.722 180.747 107.004 180.951 107.33 180.999L110.852 181.511L108.303 183.995C108.067 184.225 107.96 184.556 108.016 184.88L108.617 188.389L105.467 186.732C105.175 186.579 104.827 186.579 104.536 186.732Z" fill="#262628"/>
		</g>
		<g id="Icons / M-previous">
			<path id="Combined Shape_18" fill-rule="evenodd" clip-rule="evenodd" d="M149.463 183.845L160.463 190.845C161.129 191.269 162 190.791 162 190.002V176.002C162 175.213 161.129 174.734 160.463 175.158L149.463 182.158C148.846 182.551 148.846 183.452 149.463 183.845ZM160 177.823V188.18L151.863 183.002L160 177.823ZM145 175.002C145.552 175.002 146 175.449 146 176.002V190.002C146 190.554 145.552 191.002 145 191.002C144.448 191.002 144 190.554 144 190.002V176.002C144 175.449 144.448 175.002 145 175.002Z" fill="#262628"/>
		</g>
		<g id="Icons / Play">
			<path id="Fill 1_4" fill-rule="evenodd" clip-rule="evenodd" d="M243 176.732V189.268L253.856 183L243 176.732ZM242 192C241.827 192 241.654 191.956 241.5 191.866C241.19 191.688 241 191.357 241 191V175C241 174.643 241.19 174.313 241.5 174.134C241.809 173.955 242.191 173.955 242.5 174.134L256.356 182.134C256.666 182.313 256.856 182.643 256.856 183C256.856 183.357 256.666 183.688 256.356 183.866L242.5 191.866C242.346 191.956 242.173 192 242 192Z" fill="#231F20"/>
		</g>
		<g id="Icons / Shuffle">
			<path id="Fill 1_5" fill-rule="evenodd" clip-rule="evenodd" d="M302.777 186.084C302.693 186.028 302.596 186 302.5 186C302.419 186 302.338 186.02 302.263 186.059C302.101 186.146 302 186.315 302 186.5V187.398C300.789 187.165 299.695 186.517 298.907 185.533L297.922 184.3L296.64 185.901L297.344 186.782C298.515 188.245 300.175 189.172 302 189.424V190.5C302 190.685 302.101 190.854 302.263 190.941C302.338 190.98 302.419 191 302.5 191C302.596 191 302.693 190.972 302.777 190.916L305.777 188.916C305.916 188.823 306 188.667 306 188.5C306 188.333 305.916 188.177 305.777 188.084L302.777 186.084ZM302 179.602V180.5C302 180.685 302.101 180.854 302.263 180.941C302.338 180.98 302.419 181 302.5 181C302.596 181 302.693 180.972 302.777 180.916L305.777 178.916C305.916 178.823 306 178.667 306 178.5C306 178.333 305.916 178.177 305.777 178.084L302.777 176.084C302.693 176.028 302.596 176 302.5 176C302.419 176 302.338 176.02 302.263 176.059C302.101 176.146 302 176.315 302 176.5V177.576C300.175 177.828 298.515 178.755 297.344 180.218L293.092 185.533C292.092 186.783 290.601 187.5 289 187.5C288.447 187.5 288 187.948 288 188.5C288 189.052 288.447 189.5 289 189.5C291.212 189.5 293.273 188.509 294.655 186.782L298.907 181.467C299.695 180.483 300.789 179.835 302 179.602ZM288 178.5C288 177.948 288.447 177.5 289 177.5C291.212 177.5 293.273 178.491 294.655 180.218L295.359 181.099L294.078 182.7L293.092 181.467C292.092 180.217 290.601 179.5 289 179.5C288.447 179.5 288 179.052 288 178.5Z" fill="#262628"/>
		</g>
		<g id="Icons / M-next">
			<path id="Combined Shape_19" fill-rule="evenodd" clip-rule="evenodd" d="M204.537 183.845L193.537 190.845C192.871 191.269 192 190.791 192 190.002V176.002C192 175.213 192.871 174.734 193.537 175.158L204.537 182.158C205.154 182.551 205.154 183.452 204.537 183.845ZM194 177.823V188.18L202.137 183.002L194 177.823ZM209 175.002C208.448 175.002 208 175.449 208 176.002V190.002C208 190.554 208.448 191.002 209 191.002C209.552 191.002 210 190.554 210 190.002V176.002C210 175.449 209.552 175.002 209 175.002Z" fill="#262628"/>
		</g>
		<g id="Icons / Pause">
			<path id="Combined Shape_20" fill-rule="evenodd" clip-rule="evenodd" d="M340 174C339.448 174 339 174.448 339 175V191C339 191.552 339.448 192 340 192C340.552 192 341 191.552 341 191V175C341 174.448 340.552 174 340 174ZM348 174C347.448 174 347 174.448 347 175V191C347 191.552 347.448 192 348 192C348.552 192 349 191.552 349 191V175C349 174.448 348.552 174 348 174Z" fill="#262628"/>
		</g>
		<g id="Icons / Temperature">
			<path id="Combined Shape_21" fill-rule="evenodd" clip-rule="evenodd" d="M10 235C10 237.761 7.76147 240 5 240C2.23853 240 0 237.761 0 235C0 233.4 0.759033 231.93 2 230.999V224.992C2 223.337 3.33838 222 5 222C6.65381 222 8 223.345 8 224.992V230.999C9.24097 231.93 10 233.4 10 235ZM6 225.009C6 224.443 5.55225 224 5 224C4.44385 224 4 224.452 4 225.009V231.535C4 231.892 3.80981 232.222 3.50073 232.401C2.57886 232.934 2 233.916 2 235C2 236.657 3.34326 238 5 238C6.65674 238 8 236.657 8 235C8 233.916 7.42114 232.934 6.49927 232.401C6.19019 232.222 6 231.892 6 231.535V225.009ZM13 224C12.4478 224 12 224.448 12 225C12 225.552 12.4478 226 13 226H17C17.5522 226 18 225.552 18 225C18 224.448 17.5522 224 17 224H13ZM12 229C12 228.448 12.4478 228 13 228H15C15.5522 228 16 228.448 16 229C16 229.552 15.5522 230 15 230H13C12.4478 230 12 229.552 12 229ZM13 232C12.4478 232 12 232.448 12 233C12 233.552 12.4478 234 13 234H17C17.5522 234 18 233.552 18 233C18 232.448 17.5522 232 17 232H13Z" fill="#262628"/>
		</g>
		<g id="Icons / Timer">
			<path id="Combined Shape_22" fill-rule="evenodd" clip-rule="evenodd" d="M54 223C54 222.448 54.4478 222 55 222H59C59.5522 222 60 222.448 60 223V224.582C62.9319 225.768 65 228.643 65 232C65 236.418 61.4182 240 57 240C52.5818 240 49 236.418 49 232C49 228.643 51.0681 225.768 54 224.582V223ZM63 232C63 235.314 60.3137 238 57 238C53.6863 238 51 235.314 51 232C51 228.686 53.6863 226 57 226C60.3137 226 63 228.686 63 232ZM57 228C56.4478 228 56 228.448 56 229V232C56 232.552 56.4478 233 57 233C57.5522 233 58 232.552 58 232V229C58 228.448 57.5522 228 57 228Z" fill="#262628"/>
		</g>
		<g id="Icons / Contrast">
			<path id="Combined Shape_23" fill-rule="evenodd" clip-rule="evenodd" d="M153 240C148.03 240 144 235.971 144 231C144 226.029 148.03 222 153 222C157.97 222 162 226.029 162 231C162 235.971 157.97 240 153 240ZM153 238V224C149.134 224 146 227.134 146 231C146 234.866 149.134 238 153 238Z" fill="#262628"/>
		</g>
		<g id="Icons / Drop">
			<path id="Combined Shape_24" fill-rule="evenodd" clip-rule="evenodd" d="M110.658 237.73C107.537 240.851 102.465 240.853 99.3416 237.73C96.2205 234.609 96.2185 229.536 99.3416 226.413L102.874 222.881C104.049 221.706 105.952 221.707 107.126 222.881L110.658 226.413C113.78 229.535 113.781 234.607 110.658 237.73ZM100.756 227.827C98.4141 230.169 98.4155 233.975 100.756 236.316C103.098 238.658 106.904 238.656 109.244 236.316C111.586 233.974 111.584 230.168 109.244 227.827L105.712 224.295C105.318 223.902 104.682 223.902 104.288 224.295L100.756 227.827Z" fill="#262628"/>
		</g>
		<g id="Icons / Sun">
			<path id="Combined Shape_25" fill-rule="evenodd" clip-rule="evenodd" d="M200 223C200 222.448 200.448 222 201 222C201.552 222 202 222.448 202 223V224C202 224.552 201.552 225 201 225C200.448 225 200 224.552 200 224V223ZM196 231C196 233.761 198.239 236 201 236C203.761 236 206 233.761 206 231C206 228.239 203.761 226 201 226C198.239 226 196 228.239 196 231ZM204 231C204 232.657 202.657 234 201 234C199.343 234 198 232.657 198 231C198 229.343 199.343 228 201 228C202.657 228 204 229.343 204 231ZM201 237C200.448 237 200 237.448 200 238V239C200 239.552 200.448 240 201 240C201.552 240 202 239.552 202 239V238C202 237.448 201.552 237 201 237ZM209 230C209.552 230 210 230.448 210 231C210 231.552 209.552 232 209 232H208C207.448 232 207 231.552 207 231C207 230.448 207.448 230 208 230H209ZM195 231C195 230.448 194.552 230 194 230H193C192.448 230 192 230.448 192 231C192 231.552 192.448 232 193 232H194C194.552 232 195 231.552 195 231ZM205.95 224.636C206.34 224.246 206.973 224.246 207.364 224.636C207.754 225.027 207.754 225.66 207.364 226.05L206.657 226.757C206.266 227.148 205.633 227.148 205.242 226.757C204.852 226.367 204.852 225.734 205.242 225.343L205.95 224.636ZM196.757 235.243C196.367 234.852 195.734 234.852 195.343 235.243L194.636 235.95C194.246 236.34 194.246 236.973 194.636 237.364C195.027 237.754 195.66 237.754 196.05 237.364L196.757 236.657C197.148 236.266 197.148 235.633 196.757 235.243ZM205.95 237.364L205.243 236.657C204.852 236.266 204.852 235.633 205.243 235.243C205.633 234.852 206.266 234.852 206.657 235.243L207.364 235.95C207.754 236.34 207.754 236.973 207.364 237.364C206.973 237.754 206.34 237.754 205.95 237.364ZM196.757 226.757C197.148 226.367 197.148 225.734 196.757 225.343L196.05 224.636C195.66 224.246 195.026 224.246 194.636 224.636C194.245 225.027 194.245 225.66 194.636 226.05L195.343 226.757C195.734 227.148 196.367 227.148 196.757 226.757Z" fill="#262628"/>
		</g>
		<g id="Icons / Tungsten">
			<path id="Combined Shape_26" fill-rule="evenodd" clip-rule="evenodd" d="M248 222C247.448 222 247 222.448 247 223V224H246C245.448 224 245 224.448 245 225V227.255C243.144 228.547 242 230.674 242 233C242 236.866 245.134 240 249 240C252.866 240 256 236.866 256 233C256 230.674 254.856 228.547 253 227.255V225C253 224.448 252.552 224 252 224H251V223C251 222.448 250.552 222 250 222H248ZM247 227.803C247 228.16 246.81 228.49 246.501 228.668C244.965 229.557 244 231.194 244 233C244 235.761 246.239 238 249 238C251.761 238 254 235.761 254 233C254 231.194 253.035 229.557 251.499 228.668C251.19 228.49 251 228.16 251 227.803V226H247V227.803Z" fill="#262628"/>
		</g>
		<g id="Icons / Profile_2">
			<path id="Combined Shape_27" fill-rule="evenodd" clip-rule="evenodd" d="M293.666 231.726C292.643 230.81 292 229.48 292 228C292 225.239 294.239 223 297 223C299.761 223 302 225.239 302 228C302 229.48 301.357 230.81 300.334 231.726C303.088 232.99 305 235.772 305 239C305 239.552 304.552 240 304 240C303.448 240 303 239.552 303 239C303 235.686 300.314 233 297 233C293.686 233 291 235.686 291 239C291 239.552 290.552 240 290 240C289.448 240 289 239.552 289 239C289 235.772 290.912 232.99 293.666 231.726ZM297 231C298.657 231 300 229.657 300 228C300 226.343 298.657 225 297 225C295.343 225 294 226.343 294 228C294 229.657 295.343 231 297 231Z" fill="#262628"/>
		</g>
		<g id="Icons / Message">
			<path id="Combined Shape_28" fill-rule="evenodd" clip-rule="evenodd" d="M337 224H353C353.552 224 354 224.448 354 225V228C354 228.345 353.822 228.665 353.53 228.848L345.53 233.848C345.206 234.051 344.794 234.051 344.47 233.848L336.47 228.848C336.178 228.665 336 228.345 336 228V225C336 224.448 336.448 224 337 224ZM338 227.446L345 231.821L352 227.446V226H338V227.446ZM338 232V236H352V232C352 231.448 352.448 231 353 231C353.552 231 354 231.448 354 232V237C354 237.552 353.552 238 353 238H337C336.448 238 336 237.552 336 237V232C336 231.448 336.448 231 337 231C337.552 231 338 231.448 338 232Z" fill="#262628"/>
		</g>
		<g id="Icons / Lock">
			<path id="Combined Shape_29" fill-rule="evenodd" clip-rule="evenodd" d="M2 279C2 277.346 3.34521 276.005 5 276V274C5 271.792 6.79321 270 9 270C11.2083 270 13 271.793 13 274V276C14.6587 276.005 16 277.339 16 279V285C16 286.657 14.6501 288 12.9915 288H5.00854C3.34595 288 2 286.664 2 285V279ZM11 274V276H7V274C7 272.897 7.89746 272 9 272C10.1033 272 11 272.897 11 274ZM4 285V279C4 278.45 4.45215 278 5.00854 278H12.9915C13.5527 278 14 278.444 14 279V285C14 285.55 13.5479 286 12.9915 286H5.00854C4.44727 286 4 285.556 4 285ZM11 282C11 283.105 10.1045 284 9 284C7.89551 284 7 283.105 7 282C7 280.895 7.89551 280 9 280C10.1045 280 11 280.895 11 282Z" fill="#262628"/>
		</g>
		<g id="Icons / Notifications">
			<path id="Page 1" fill-rule="evenodd" clip-rule="evenodd" d="M112 284H98V283.123L99.757 276.093C100.36 273.683 102.516 272 105 272C107.484 272 109.64 273.683 110.243 276.093L112 283.123V284ZM113.97 282.757L112.183 275.608C111.357 272.306 108.403 270 105 270C101.597 270 98.643 272.306 97.817 275.608L96.03 282.757C96.01 282.837 96 282.918 96 283V285C96 285.552 96.447 286 97 286H102.184C102.597 287.163 103.695 288 105 288C106.305 288 107.403 287.163 107.816 286H113C113.553 286 114 285.552 114 285V283C114 282.918 113.99 282.837 113.97 282.757Z" fill="#262628"/>
		</g>
		<g id="Icons / Camera">
			<path id="Combined Shape_30" fill-rule="evenodd" clip-rule="evenodd" d="M48.8823 287.125C49.4473 287.688 50.2131 288.003 51.0105 288H62.9915C64.6458 288.005 65.9917 286.669 66 285.015V276C66 274.348 64.665 273.007 63.0134 273H61.8284L60.5854 271.756C60.0737 271.275 59.4324 271.014 58.7625 271L55.2581 271C54.5676 271.014 53.9263 271.275 53.4377 271.734L52.1716 273H50.991C49.335 273.007 48 274.348 48 276V285C48 285.797 48.3176 286.562 48.8823 287.125ZM64 285.01C63.9973 285.557 63.5481 286.002 62.9929 286H51.0071C50.7378 286.001 50.4824 285.896 50.2942 285.708C50.106 285.521 50 285.266 50 285V276C50 275.449 50.4451 275.002 50.9956 275L52.5859 275H53.0005L54.8293 273.17C54.9346 273.072 55.1025 273.003 55.2783 273L58.7419 273C58.8975 273.003 59.0654 273.072 59.1936 273.192L60.7065 274.707L60.9995 275H63.009C63.5549 275.002 64 275.449 64 276V285.01ZM57 285C54.2385 285 52 282.761 52 280C52 277.239 54.2385 275 57 275C59.7615 275 62 277.239 62 280C62 282.761 59.7615 285 57 285ZM60 280C60 281.657 58.6567 283 57 283C55.3433 283 54 281.657 54 280C54 278.343 55.3433 277 57 277C58.6567 277 60 278.343 60 280Z" fill="#262628"/>
		</g>
		<g id="Icons / Bag_2">
			<path id="Combined Shape_31" fill-rule="evenodd" clip-rule="evenodd" d="M153 270C155.209 270 157 271.791 157 274H159C159.52 274 159.953 274.399 159.997 274.917L160.997 286.917C161.045 287.5 160.585 288 160 288H146C145.415 288 144.955 287.5 145.003 286.917L146.003 274.917C146.047 274.399 146.48 274 147 274H149C149 271.791 150.791 270 153 270ZM151 274H155C155 272.895 154.105 272 153 272C151.896 272 151 272.895 151 274ZM147.92 276L147.087 286H158.913L158.08 276H147.92Z" fill="#262628"/>
		</g>
		<g id="Icons / Star_2">
			<path id="Star_2" fill-rule="evenodd" clip-rule="evenodd" d="M196.522 288.102L201.001 285.747L205.48 288.102C206.214 288.488 207.071 287.865 206.931 287.048L206.076 282.06L209.699 278.528C210.293 277.95 209.965 276.942 209.145 276.823L204.137 276.095L201.898 271.557C201.531 270.814 200.471 270.814 200.104 271.557L197.865 276.095L192.857 276.823C192.037 276.942 191.71 277.95 192.303 278.528L195.927 282.06L195.071 287.048C194.931 287.865 195.789 288.488 196.522 288.102ZM200.536 283.732L197.385 285.389L197.987 281.88C198.043 281.556 197.935 281.225 197.699 280.995L195.15 278.511L198.673 277.999C198.999 277.951 199.28 277.747 199.426 277.452L201.001 274.26L202.577 277.452C202.722 277.747 203.004 277.951 203.33 277.999L206.852 278.511L204.303 280.995C204.067 281.225 203.96 281.556 204.016 281.88L204.617 285.389L201.467 283.732C201.175 283.579 200.827 283.579 200.536 283.732Z" fill="#262628"/>
		</g>
		<g id="Icons / Logout">
			<path id="Combined Shape_32" fill-rule="evenodd" clip-rule="evenodd" d="M244 274H242V284H244C244.552 284 245 284.448 245 285C245 285.552 244.552 286 244 286H241C240.448 286 240 285.552 240 285V273C240 272.448 240.448 272 241 272H244C244.552 272 245 272.448 245 273C245 273.552 244.552 274 244 274ZM251 285C250.609 284.609 250.609 283.976 251 283.586L254.586 280H246C245.448 280 245 279.552 245 279C245 278.448 245.448 278 246 278H254.586L251 274.414C250.609 274.024 250.609 273.391 251 273C251.391 272.609 252.024 272.609 252.414 273L257.707 278.293C258.098 278.683 258.098 279.317 257.707 279.707L252.414 285C252.024 285.391 251.391 285.391 251 285Z" fill="#262628"/>
		</g>
		<g id="Icons / Picture">
			<path id="Combined Shape_33" fill-rule="evenodd" clip-rule="evenodd" d="M297.521 281.646C300.307 283.343 301.412 283.421 304 281.922V274H290V280.818C292.667 279.527 294.475 279.792 297.521 281.646ZM290 283.078V284H297.625C297.26 283.809 296.884 283.6 296.479 283.354C293.693 281.657 292.588 281.579 290 283.078ZM289 272H305C305.553 272 306 272.448 306 273V285C306 285.552 305.553 286 305 286H289C288.447 286 288 285.552 288 285V273C288 272.448 288.447 272 289 272Z" fill="#231F20"/>
		</g>
		<g id="Icons / Phone">
			<path id="phone" fill-rule="evenodd" clip-rule="evenodd" d="M350.764 287.964C350.878 287.992 350.977 288 351.093 288C351.272 288 351.439 287.959 351.587 287.896C351.91 287.777 352.159 287.529 352.302 287.243L353.911 283.202C354.141 282.518 353.863 281.813 353.262 281.513L348.892 279.328C348.424 279.059 347.834 279.161 347.416 279.509L345.798 281.122C344.66 280.314 343.666 279.327 342.863 278.205L344.426 276.655C344.839 276.166 344.941 275.576 344.646 275.059L342.487 270.738C342.187 270.137 341.482 269.859 340.851 270.07L336.835 271.663C336.467 271.843 336.226 272.066 336.09 272.406C336.052 272.474 336.021 272.606 336.007 272.743C336.001 272.805 336 272.859 336 272.907C336 273.023 336.008 273.123 336.036 273.237C337.028 280.896 343.1 286.974 350.764 287.964ZM348.421 281.327L351.828 283.032L350.675 285.932C344.19 284.941 339.059 279.805 338.068 273.322L340.968 272.173L342.673 275.582L340.87 277.364L340.304 277.925L340.725 278.602C341.892 280.481 343.497 282.076 345.398 283.257L346.072 283.675L348.421 281.327Z" fill="#262628"/>
		</g>
		<g id="Icons / Done_2">
			<path id="Rectangle 3_2" d="M6.48528 331.071L1.70711 326.293C1.31658 325.902 0.683418 325.902 0.292893 326.293C-0.0976311 326.683 -0.0976311 327.317 0.292893 327.707L5.77817 333.192C6.1687 333.583 6.80186 333.583 7.19239 333.192L17.6777 322.707C18.0682 322.317 18.0682 321.683 17.6777 321.293C17.2871 320.902 16.654 320.902 16.2635 321.293L6.48528 331.071Z" fill="#262628"/>
		</g>
		<g id="Icons / Video">
			<path id="Combined Shape_34" fill-rule="evenodd" clip-rule="evenodd" d="M51.0085 320C49.3499 320 48 321.343 48 323V331C48 332.664 49.3459 334 51.0085 334H58.9915C60.5566 334 61.8467 332.805 61.9873 331.278L64.7576 331.97C65.3887 332.128 66 331.651 66 331V323C66 322.349 65.3887 321.872 64.7576 322.03L61.9873 322.722C61.8477 321.19 60.5605 320 58.9915 320H51.0085ZM60 324V330V331C60 331.55 59.5479 332 58.9915 332H51.0085C50.4473 332 50 331.556 50 331V323C50 322.45 50.4521 322 51.0085 322H58.9915C59.5527 322 60 322.444 60 323V324ZM62 329.219V324.781L64 324.281V329.719L62 329.219Z" fill="#262628"/>
		</g>
		<g id="Icons / Mic">
			<path id="Combined Shape_35" fill-rule="evenodd" clip-rule="evenodd" d="M105 318C102.793 318 101 319.792 101 322V326C101 328.205 102.792 330 105 330C107.207 330 109 328.208 109 326V322C109 319.795 107.208 318 105 318ZM103 326V322C103 320.897 103.897 320 105 320C106.103 320 107 320.899 107 322V326C107 327.103 106.103 328 105 328C103.897 328 103 327.101 103 326ZM110 325.994C110 328.756 107.757 330.999 105 330.999C102.239 330.999 100 328.758 100 325.994C100 325.441 99.5522 324.994 99 324.994C98.4478 324.994 98 325.441 98 325.994C98 329.862 101.134 332.999 105 332.999C108.862 332.999 112 329.86 112 325.994C112 325.441 111.552 324.994 111 324.994C110.448 324.994 110 325.441 110 325.994ZM101 334C100.448 334 100 334.448 100 335C100 335.552 100.448 336 101 336H109C109.552 336 110 335.552 110 335C110 334.448 109.552 334 109 334H101Z" fill="#262628"/>
		</g>
		<g id="Icons / Attach">
			<path id="Page 1_2" d="M151.354 333.101L147.306 329.053C145.443 327.19 145.443 324.169 147.306 322.306C149.169 320.443 152.19 320.443 154.053 322.306L159.114 327.366C160.418 328.67 160.418 330.785 159.114 332.089C157.81 333.393 155.695 333.393 154.391 332.089L149.33 327.029C148.585 326.283 148.585 325.075 149.33 324.33C150.075 323.584 151.284 323.584 152.029 324.33L157.089 329.39C157.462 329.763 158.066 329.763 158.439 329.39C158.811 329.018 158.811 328.413 158.439 328.041L153.378 322.98C151.888 321.49 149.471 321.49 147.981 322.98C146.49 324.471 146.49 326.888 147.981 328.378L153.041 333.439C155.09 335.488 158.414 335.488 160.463 333.439C162.512 331.389 162.512 328.066 160.463 326.017L155.403 320.956C152.794 318.348 148.565 318.348 145.956 320.956C143.348 323.565 143.348 327.794 145.956 330.402L150.005 334.451C150.377 334.823 150.982 334.823 151.354 334.451C151.727 334.078 151.727 333.474 151.354 333.101Z" fill="#231F20"/>
		</g>
		<g id="Play">
			<path id="Ellipse" d="M201 335C206.523 335 211 330.523 211 325C211 319.477 206.523 315 201 315C195.477 315 191 319.477 191 325C191 330.523 195.477 335 201 335Z" stroke="black" stroke-width="2"/>
			<path id="Polygon" d="M205.1 326.178C206.007 325.654 206.007 324.346 205.1 323.822L199.43 320.549C198.523 320.025 197.39 320.679 197.39 321.726V328.274C197.39 329.32 198.523 329.975 199.43 329.451L205.1 326.178Z" stroke="black" stroke-width="2"/>
		</g>
		<g id="like">
			<path id="Vector_2" d="M244.4 329.597C244.821 329.074 245.024 328.514 244.998 327.936C244.972 327.301 244.679 326.803 244.438 326.498C244.718 325.82 244.826 324.754 243.892 323.926C243.208 323.319 242.046 323.047 240.437 323.123C239.306 323.173 238.359 323.378 238.32 323.386H238.316C238.101 323.424 237.873 323.47 237.641 323.52C237.623 323.252 237.671 322.587 238.178 321.09C238.781 319.308 238.746 317.945 238.067 317.033C237.352 316.075 236.212 316 235.877 316C235.554 316 235.257 316.13 235.046 316.368C234.569 316.908 234.625 317.903 234.685 318.363C234.117 319.844 232.525 323.474 231.178 324.482C231.153 324.499 231.131 324.519 231.109 324.54C230.714 324.946 230.447 325.385 230.266 325.77C230.012 325.636 229.724 325.561 229.414 325.561H226.79C225.8 325.561 225 326.343 225 327.301V334.097C225 335.059 225.805 335.837 226.79 335.837H229.414C229.797 335.837 230.154 335.72 230.447 335.519L231.458 335.636C231.613 335.657 234.366 335.996 237.193 335.941C237.705 335.979 238.187 336 238.634 336C239.405 336 240.076 335.941 240.635 335.824C241.952 335.552 242.851 335.009 243.307 334.21C243.655 333.599 243.655 332.993 243.6 332.608C244.456 331.855 244.606 331.023 244.576 330.437C244.559 330.099 244.482 329.81 244.4 329.597ZM226.79 334.708C226.441 334.708 226.162 334.432 226.162 334.097V327.297C226.162 326.958 226.446 326.686 226.79 326.686H229.414C229.763 326.686 230.042 326.962 230.042 327.297V334.093C230.042 334.432 229.759 334.703 229.414 334.703H226.79V334.708ZM243.298 329.107C243.118 329.292 243.083 329.572 243.221 329.789C243.221 329.793 243.397 330.086 243.419 330.488C243.449 331.036 243.178 331.521 242.61 331.935C242.408 332.085 242.326 332.345 242.412 332.579C242.412 332.583 242.597 333.135 242.296 333.658C242.008 334.16 241.367 334.519 240.394 334.72C239.615 334.883 238.557 334.913 237.258 334.812C237.24 334.812 237.219 334.812 237.197 334.812C234.431 334.871 231.634 334.519 231.604 334.515H231.6L231.165 334.465C231.191 334.348 231.204 334.223 231.204 334.097V327.297C231.204 327.117 231.174 326.941 231.122 326.778C231.2 326.498 231.415 325.875 231.923 325.343C233.854 323.854 235.743 318.831 235.825 318.614C235.859 318.526 235.868 318.43 235.851 318.334C235.778 317.865 235.803 317.292 235.907 317.121C236.135 317.125 236.75 317.188 237.12 317.685C237.559 318.275 237.542 319.329 237.068 320.726C236.346 322.855 236.285 323.976 236.858 324.469C237.142 324.716 237.52 324.729 237.795 324.632C238.058 324.574 238.307 324.524 238.544 324.486C238.561 324.482 238.583 324.478 238.6 324.473C239.921 324.193 242.287 324.022 243.109 324.749C243.806 325.368 243.311 326.188 243.255 326.276C243.096 326.51 243.143 326.816 243.359 327.004C243.363 327.008 243.815 327.422 243.836 327.978C243.853 328.35 243.673 328.731 243.298 329.107Z" fill="#2F2F2F"/>
		</g>
		<g id="back">
			<path id="Vector_3" d="M298.007 324.147L290.084 316.352C289.608 315.883 288.834 315.883 288.357 316.352C287.881 316.82 287.881 317.582 288.357 318.051L295.42 325L288.357 331.949C287.881 332.418 287.881 333.18 288.357 333.648C288.834 334.117 289.608 334.117 290.084 333.648L298.007 325.856C298.249 325.618 298.366 325.308 298.364 325.002C298.364 324.69 298.246 324.382 298.007 324.147Z" fill="#2F2F2F"/>
		</g>
		<g id="share">
			<path id="Union" d="M346.344 321.294C347.811 321.294 349 320.109 349 318.647C349 317.185 347.811 316 346.344 316C344.877 316 343.688 317.185 343.688 318.647C343.688 318.709 343.69 318.77 343.694 318.831L336.417 323.018C335.948 322.604 335.332 322.353 334.656 322.353C333.189 322.353 332 323.538 332 325C332 326.462 333.189 327.647 334.656 327.647C335.312 327.647 335.913 327.41 336.376 327.017L343.691 331.226C343.689 331.268 343.688 331.31 343.688 331.353C343.688 332.815 344.877 334 346.344 334C347.811 334 349 332.815 349 331.353C349 329.891 347.811 328.706 346.344 328.706C345.694 328.706 345.099 328.939 344.637 329.325L337.31 325.109C337.312 325.073 337.312 325.037 337.312 325L337.312 324.948L344.679 320.71C345.134 321.075 345.713 321.294 346.344 321.294Z" fill="#262628"/>
		</g>
	</g>
</svg>
