<svg width="419px" height="338px" viewBox="0 0 419 338" fill="none" xmlns="http://www.w3.org/2000/svg">
<g id="Cooking">
<path id="Vector" d="M321.437 59.9945H226.459C224.698 59.9966 223.01 60.6976 221.765 61.9437C220.52 63.1898 219.821 64.8791 219.821 66.6403V124.972H328.071V66.6403C328.07 64.88 327.371 63.192 326.128 61.9462C324.884 60.7005 323.197 59.9986 321.437 59.9945Z" fill="#F5EBDD"/>
<path id="Vector_2" d="M271.627 50.3562C272.232 50.3573 272.813 50.5983 273.241 51.0266C273.669 51.4549 273.91 52.0354 273.911 52.6411V89.4036C273.91 90.0093 273.669 90.5899 273.241 91.0181C272.813 91.4464 272.232 91.6875 271.627 91.6885H234.474C233.869 91.6865 233.289 91.4449 232.862 91.0168C232.434 90.5886 232.194 90.0086 232.193 89.4036V52.6372C232.195 52.0329 232.436 51.4539 232.863 51.0266C233.29 50.5993 233.869 50.3583 234.474 50.3562H271.627ZM271.627 48.8098H234.474C233.97 48.8093 233.472 48.908 233.006 49.1004C232.541 49.2927 232.118 49.5748 231.762 49.9306C231.406 50.2864 231.123 50.709 230.93 51.174C230.738 51.6391 230.638 52.1376 230.638 52.6411V89.4036C230.64 90.4201 231.044 91.3946 231.763 92.113C232.482 92.8314 233.457 93.2349 234.474 93.2349H271.627C272.643 93.2349 273.617 92.8313 274.336 92.1128C275.054 91.3943 275.458 90.4198 275.458 89.4036V52.6372C275.457 51.6218 275.053 50.6483 274.334 49.9306C273.616 49.2129 272.642 48.8098 271.627 48.8098Z" fill="#FFB7D5"/>
<path id="Vector_3" d="M330.426 93.0918C331.031 93.0929 331.612 93.3339 332.04 93.7622C332.469 94.1905 332.71 94.771 332.711 95.3767V132.143C332.71 132.749 332.469 133.329 332.04 133.758C331.612 134.186 331.031 134.427 330.426 134.428H293.462C292.857 134.427 292.276 134.186 291.848 133.758C291.419 133.329 291.178 132.749 291.177 132.143V95.3767C291.178 94.771 291.419 94.1905 291.848 93.7622C292.276 93.3339 292.857 93.0929 293.462 93.0918H330.426ZM330.426 91.5454H293.462C292.446 91.5454 291.472 91.9491 290.753 92.6676C290.035 93.3861 289.631 94.3606 289.631 95.3767V132.143C289.631 133.159 290.035 134.134 290.753 134.852C291.472 135.571 292.446 135.974 293.462 135.974H330.426C331.442 135.974 332.416 135.571 333.135 134.852C333.853 134.134 334.257 133.159 334.257 132.143V95.3767C334.257 94.3606 333.853 93.3861 333.135 92.6676C332.416 91.9491 331.442 91.5454 330.426 91.5454Z" fill="#FFB7D5"/>
<path id="Vector_4" d="M235.769 102.235C236.374 102.236 236.955 102.477 237.383 102.906C237.811 103.334 238.052 103.914 238.054 104.52V128.103C238.052 128.709 237.811 129.289 237.383 129.718C236.955 130.146 236.374 130.387 235.769 130.388H214.76C214.155 130.387 213.574 130.146 213.146 129.718C212.718 129.289 212.477 128.709 212.476 128.103V104.52C212.477 103.914 212.718 103.334 213.146 102.906C213.574 102.477 214.155 102.236 214.76 102.235H235.769ZM235.769 100.689H214.76C214.257 100.689 213.759 100.788 213.294 100.98C212.829 101.173 212.407 101.455 212.051 101.811C211.696 102.167 211.413 102.589 211.221 103.054C211.028 103.519 210.929 104.017 210.929 104.52V128.103C210.929 129.119 211.333 130.094 212.051 130.812C212.77 131.531 213.744 131.934 214.76 131.934H235.769C236.785 131.934 237.759 131.531 238.478 130.812C239.196 130.094 239.6 129.119 239.6 128.103V104.52C239.6 104.017 239.501 103.519 239.308 103.054C239.116 102.589 238.834 102.167 238.478 101.811C238.122 101.455 237.7 101.173 237.235 100.98C236.77 100.788 236.272 100.689 235.769 100.689Z" fill="#FFB7D5"/>
<path id="Vector_5" d="M269.844 54.0215H236.24V77.5427H269.844V54.0215Z" fill="#FFB7D5"/>
<path id="Vector_6" d="M290.257 69.6094H257.647C252.836 69.6094 248.937 73.5091 248.937 78.3196V106.449C248.937 111.26 252.836 115.159 257.647 115.159H290.257C295.068 115.159 298.968 111.26 298.968 106.449V78.3196C298.968 73.5091 295.068 69.6094 290.257 69.6094Z" fill="#3EC1F3"/>
<path id="Vector_7" d="M242.561 82.5451C242.224 82.2087 241.768 82.0198 241.291 82.0198C240.815 82.0198 240.358 82.2087 240.021 82.5451L239.635 82.9318L239.248 82.5451C238.907 82.2319 238.457 82.0626 237.994 82.0725C237.531 82.0825 237.089 82.271 236.762 82.5987C236.434 82.9263 236.246 83.3679 236.236 83.8312C236.226 84.2944 236.395 84.7437 236.708 85.0852L237.095 85.4718L239.635 88.0118L242.171 85.4718L242.558 85.0852C242.894 84.7486 243.084 84.2922 243.085 83.8159C243.086 83.3397 242.897 82.8827 242.561 82.5451Z" fill="#FFB7D5"/>
<path id="Vector_8" d="M276.838 82.8623H264.714C262.598 82.8623 260.883 84.5776 260.883 86.6936V98.0715C260.883 100.187 262.598 101.903 264.714 101.903H276.838C278.954 101.903 280.669 100.187 280.669 98.0715V86.6936C280.669 84.5776 278.954 82.8623 276.838 82.8623Z" fill="#4756DF"/>
<path id="Vector_9" d="M277.785 93.9501L284.795 99.5366C285.064 99.7513 285.388 99.8857 285.73 99.9243C286.072 99.9629 286.419 99.904 286.729 99.7546C287.039 99.6051 287.301 99.3711 287.484 99.0795C287.667 98.7879 287.764 98.4505 287.764 98.1061V86.9293C287.764 86.5849 287.667 86.2475 287.484 85.9559C287.301 85.6643 287.039 85.4303 286.729 85.2808C286.419 85.1314 286.072 85.0725 285.73 85.1111C285.388 85.1497 285.064 85.2841 284.795 85.4988L277.785 91.0892C277.57 91.2605 277.397 91.478 277.277 91.7257C277.158 91.9733 277.096 92.2447 277.096 92.5196C277.096 92.7946 277.158 93.0659 277.277 93.3136C277.397 93.5613 277.57 93.7788 277.785 93.9501Z" fill="#4756DF"/>
<path id="Vector_10" d="M326.749 48.8098H221.151C217.828 48.8088 214.64 50.1271 212.289 52.4752C209.937 54.8232 208.614 58.0089 208.61 61.332V134.822C208.61 138.147 209.931 141.337 212.282 143.688C214.633 146.039 217.822 147.36 221.147 147.36H326.745C330.07 147.36 333.26 146.039 335.611 143.688C337.962 141.337 339.283 138.147 339.283 134.822V61.332C339.279 58.0102 337.957 54.8257 335.607 52.4779C333.257 50.1301 330.071 48.8108 326.749 48.8098ZM328.071 124.972H219.821V66.6402C219.821 65.7674 219.993 64.9032 220.327 64.0969C220.661 63.2906 221.151 62.558 221.768 61.9409C222.385 61.3238 223.117 60.8342 223.924 60.5003C224.73 60.1663 225.594 59.9944 226.467 59.9944H321.445C323.208 59.9944 324.899 60.6944 326.146 61.9406C327.392 63.1869 328.094 64.8772 328.095 66.6402L328.071 124.972Z" fill="#4756DF"/>
<path id="Vector_11" d="M263.867 131.304H284.029C286.01 131.304 287.91 132.091 289.311 133.492C290.711 134.893 291.498 136.793 291.498 138.773V161.549C291.497 163.529 290.71 165.428 289.309 166.828C287.909 168.228 286.009 169.014 284.029 169.014H245.948C245.255 169.014 244.59 168.739 244.1 168.248C243.61 167.758 243.335 167.094 243.335 166.4C243.335 165.707 243.61 165.043 244.1 164.552C244.59 164.062 245.255 163.787 245.948 163.787H256.387V138.773C256.387 137.792 256.58 136.819 256.956 135.912C257.332 135.005 257.884 134.182 258.578 133.488C259.273 132.794 260.098 132.244 261.005 131.869C261.913 131.495 262.886 131.303 263.867 131.304Z" fill="#4756DF"/>
<path id="Vector_12" d="M273.95 140.826C276.527 140.826 278.617 138.737 278.617 136.16C278.617 133.583 276.527 131.494 273.95 131.494C271.373 131.494 269.284 133.583 269.284 136.16C269.284 138.737 271.373 140.826 273.95 140.826Z" fill="#3EC1F3"/>
<path id="Vector_13" d="M273.95 55.8848C274.774 55.8848 275.442 55.2166 275.442 54.3925C275.442 53.5683 274.774 52.9001 273.95 52.9001C273.126 52.9001 272.458 53.5683 272.458 54.3925C272.458 55.2166 273.126 55.8848 273.95 55.8848Z" fill="#30242A"/>
<path id="Vector_14" d="M291.498 148.106H256.317" stroke="#30242A" stroke-width="4" stroke-miterlimit="10"/>
<path id="Vector_15" d="M165.94 169.014H348.353C350.403 169.014 352.37 169.829 353.82 171.279C355.27 172.729 356.085 174.695 356.085 176.746V336.276H158.208V176.746C158.208 174.695 159.022 172.729 160.472 171.279C161.922 169.829 163.889 169.014 165.94 169.014Z" fill="#FFB7D5"/>
<path id="Vector_16" d="M284.164 187.362V214.51H176.556V187.362H284.164ZM285.711 185.816H175.01V216.056H285.711V185.816Z" fill="#A15842"/>
<path id="Vector_17" d="M230.36 205.602C232.937 205.602 235.027 203.513 235.027 200.936C235.027 198.359 232.937 196.27 230.36 196.27C227.783 196.27 225.694 198.359 225.694 200.936C225.694 203.513 227.783 205.602 230.36 205.602Z" fill="#A15842"/>
<path id="Vector_18" d="M284.164 234.405V317.931H176.556V234.405H284.164ZM285.711 232.858H175.01V319.478H285.711V232.858Z" fill="#A15842"/>
<path id="Vector_19" d="M214.304 280.832C216.881 280.832 218.971 278.743 218.971 276.166C218.971 273.589 216.881 271.5 214.304 271.5C211.727 271.5 209.638 273.589 209.638 276.166C209.638 278.743 211.727 280.832 214.304 280.832Z" fill="#A15842"/>
<path id="Vector_20" d="M246.416 280.832C248.993 280.832 251.082 278.743 251.082 276.166C251.082 273.589 248.993 271.5 246.416 271.5C243.839 271.5 241.75 273.589 241.75 276.166C241.75 278.743 243.839 280.832 246.416 280.832Z" fill="#A15842"/>
<path id="Vector_21" d="M230.638 233.604V318.732" stroke="#A15842" stroke-width="4" stroke-miterlimit="10"/>
<path id="Vector_22" d="M339.287 185.816H302.513V319.478H339.287V185.816Z" fill="#A15842"/>
<path id="Vector_23" d="M339.287 252.645H302.323" stroke="#FFB7D5" stroke-width="4" stroke-miterlimit="10"/>
<path id="Vector_24" d="M20.9851 169.014H150.758C152.808 169.014 154.775 169.829 156.225 171.279C157.675 172.729 158.49 174.695 158.49 176.746V336.276H13.2529V176.746C13.2529 174.695 14.0676 172.729 15.5176 171.279C16.9677 169.829 18.9344 169.014 20.9851 169.014Z" fill="#3EC1F3"/>
<path id="Vector_25" d="M136.275 216.056H35.4675V319.478H136.275V216.056Z" fill="#30242A"/>
<path id="Vector_26" d="M136.275 319.478H35.4674L0 247.047H100.804L136.275 319.478Z" fill="#4756DF"/>
<path id="Vector_27" d="M70.5637 169.014H35.4675L39.2021 161.173H66.8291L70.5637 169.014Z" fill="#30242A"/>
<path id="Vector_28" d="M136.275 169.014H101.179L104.914 161.173H132.541L136.275 169.014Z" fill="#30242A"/>
<path id="Vector_29" d="M42.3761 199.629C46.1917 199.629 49.2848 196.536 49.2848 192.721C49.2848 188.905 46.1917 185.812 42.3761 185.812C38.5606 185.812 35.4675 188.905 35.4675 192.721C35.4675 196.536 38.5606 199.629 42.3761 199.629Z" fill="#F5EBDD"/>
<path id="Vector_30" d="M34.7213 192.721H40.3232" stroke="#30242A" stroke-width="4" stroke-miterlimit="10" stroke-linecap="round"/>
<path id="Vector_31" d="M71.3716 199.629C75.1872 199.629 78.2803 196.536 78.2803 192.721C78.2803 188.905 75.1872 185.812 71.3716 185.812C67.5561 185.812 64.463 188.905 64.463 192.721C64.463 196.536 67.5561 199.629 71.3716 199.629Z" fill="#F5EBDD"/>
<path id="Vector_32" d="M71.3716 185.07V190.668" stroke="#30242A" stroke-width="4" stroke-miterlimit="10" stroke-linecap="round"/>
<path id="Vector_33" d="M100.371 199.629C104.187 199.629 107.28 196.536 107.28 192.721C107.28 188.905 104.187 185.812 100.371 185.812C96.5555 185.812 93.4624 188.905 93.4624 192.721C93.4624 196.536 96.5555 199.629 100.371 199.629Z" fill="#F5EBDD"/>
<path id="Vector_34" d="M100.371 185.07V190.668" stroke="#30242A" stroke-width="4" stroke-miterlimit="10" stroke-linecap="round"/>
<path id="Vector_35" d="M129.367 199.629C133.182 199.629 136.275 196.536 136.275 192.721C136.275 188.905 133.182 185.812 129.367 185.812C125.551 185.812 122.458 188.905 122.458 192.721C122.458 196.536 125.551 199.629 129.367 199.629Z" fill="#F5EBDD"/>
<path id="Vector_36" d="M129.367 185.07V190.668" stroke="#30242A" stroke-width="4" stroke-miterlimit="10" stroke-linecap="round"/>
<path id="Vector_37" d="M85.9622 260.86H33.3217C31.9808 260.86 30.8938 261.947 30.8938 263.286C30.8938 264.626 31.9808 265.712 33.3217 265.712H85.9622C87.3031 265.712 88.3901 264.626 88.3901 263.286C88.3901 261.947 87.3031 260.86 85.9622 260.86Z" fill="#30242A"/>
<path id="Vector_38" d="M159.329 20.0464C152.443 24.473 157.09 33.8598 163.434 34.231C165.868 39.9125 166.135 46.2891 164.184 52.1541H173.85L173.884 48.0831C182.722 50.2829 185.978 46.8112 187.69 43.6758C189.623 40.119 189.051 36.7903 188.39 32.4642C188.39 32.4642 191.549 31.2077 191.309 29.3017C191.116 27.7553 187.748 27.187 187.748 27.187C187.698 26.5066 187.663 25.8029 187.644 25.0723C187.61 23.1328 187.468 21.1968 187.219 19.2731C179.796 23.2281 170.552 25.281 170.552 25.281C170.552 25.281 164.556 16.6829 159.329 20.0464Z" fill="#A15842"/>
<path id="Vector_39" d="M274.383 160.744C278.431 162.291 281.416 159.681 280.669 158.185C280.182 157.211 266.175 146.703 251.72 136.025L235.162 156.673C238.962 158.131 241.467 158.954 241.467 158.954C241.467 158.954 245.573 165.298 251.55 169.033C251.55 169.033 257.894 184.339 261.254 183.968C263.512 183.716 260.508 175.006 259.762 171.272C259.762 171.272 267.231 183.968 272.083 183.968C273.204 183.968 274.236 183.195 274.321 181.354C274.321 181.354 276.784 182.031 277.685 180.233C278.071 179.487 278.071 178.366 278.071 177.62C278.071 177.62 280.004 178.157 281.06 176.873C282.838 174.724 278.941 167.618 274.383 160.744Z" fill="#A15842"/>
<path id="Vector_40" d="M118.634 95.0906C118.438 94.9205 118.218 94.735 117.973 94.5339C118.19 94.7195 118.406 94.9051 118.634 95.0906Z" fill="#FF7235"/>
<path id="Vector_41" d="M219.821 112.639C219.821 112.639 202.594 72.9923 195.554 63.7292C188.452 54.3926 173.815 54.903 173.815 54.903L173.838 52.1542H164.173C164.173 52.1542 174.611 73.0619 154.836 82.0235C147.371 106.291 124.221 99.9428 118.623 95.0908C116.381 99.1966 105.18 117.491 111.154 131.304C116.381 142.129 135.05 139.891 135.05 139.891L138.784 132.051H186.21H171.089L183.225 105.56L187.346 115.624C187.346 115.624 192.585 129.05 203.773 139.52C211.764 146.997 226.699 153.403 235.177 156.654L251.736 136.025C236.028 124.431 219.821 112.639 219.821 112.639Z" fill="#FF7235"/>
<path id="Vector_42" d="M136.403 115.105L128.713 118.612" stroke="#30242A" stroke-width="4" stroke-linecap="round" stroke-linejoin="round"/>
<path id="Vector_43" d="M139.167 133.547L134.153 99.7764" stroke="#30242A" stroke-width="4" stroke-linecap="round" stroke-linejoin="round"/>
<path id="Vector_44" d="M171.089 132.035L186.21 132.05L187.331 115.624L183.225 105.545L171.089 132.035Z" fill="#FFBE21"/>
<path id="Vector_45" d="M179.162 3.36802C175.4 1.26488 169.496 -0.826674 162.827 1.24941C150.599 5.05749 148.252 15.6467 146.636 22.6597C145.515 27.5117 144.394 33.0981 144.394 33.0981C144.394 33.0981 123.486 34.5904 125.729 55.8732C114.614 58.4132 102.965 73.3711 111.9 87.6639C113.557 90.2499 115.606 92.5624 117.973 94.5185C118.218 94.7195 118.439 94.9051 118.634 95.0752C124.232 99.9271 147.383 106.287 154.848 82.0079C174.638 73.0463 164.184 52.1386 164.184 52.1386C166.135 46.2736 165.868 39.8969 163.434 34.2154C157.09 33.8288 152.443 24.4575 159.329 20.0308C164.556 16.6673 170.54 25.2925 170.54 25.2925C170.54 25.2925 179.784 23.2397 187.207 19.2847C187.207 19.2847 187.207 19.2537 187.207 19.2421C187.207 19.2305 193.153 16.3735 194.788 11.0692C197.785 1.37699 185.463 -3.84994 179.162 3.36802Z" fill="#FFBE21"/>
<path id="Vector_46" d="M186.755 116.2C184.636 111.224 181.01 102.39 178.744 95.0907" stroke="#30242A" stroke-width="4" stroke-linecap="round" stroke-linejoin="round"/>
<path id="Vector_47" d="M259.224 171.693L257.894 168.639" stroke="#30242A" stroke-width="4" stroke-linecap="round" stroke-linejoin="round"/>
<path id="Vector_48" d="M274.333 181.03C271.905 177.863 266.864 170.769 262.735 165.279" stroke="#30242A" stroke-width="4" stroke-linecap="round" stroke-linejoin="round"/>
<path id="Vector_49" d="M278.586 177.164C275.616 172.799 271.066 165.952 267.977 161.549" stroke="#30242A" stroke-width="4" stroke-linecap="round" stroke-linejoin="round"/>
<path id="Vector_50" d="M275.265 160.574C273.869 158.433 272.303 156.101 270.625 153.739" stroke="#30242A" stroke-width="4" stroke-linecap="round" stroke-linejoin="round"/>
<path id="Vector_51" d="M180.182 3.08569C181.041 3.69267 181.999 4.40016 182.85 5.11151" stroke="#CA7358" stroke-width="4" stroke-linecap="round" stroke-linejoin="round"/>
<path id="Vector_52" d="M143.451 33.5311L142.527 37.9655" stroke="#CA7358" stroke-width="4" stroke-linecap="round" stroke-linejoin="round"/>
<path id="Vector_53" d="M124.967 56.573C125.569 59.6334 126.712 62.562 128.342 65.2214" stroke="#CA7358" stroke-width="4" stroke-linecap="round" stroke-linejoin="round"/>
<path id="Vector_54" d="M173.668 48.8099C172.184 48.2911 170.752 47.6335 169.392 46.8459" stroke="#30242A" stroke-width="4" stroke-linecap="round" stroke-linejoin="round"/>
<path id="Vector_55" d="M201.144 208.529C200.569 209.669 199.688 210.627 198.6 211.297C197.513 211.966 196.261 212.32 194.984 212.32C193.706 212.32 192.454 211.966 191.367 211.297C190.279 210.627 189.398 209.669 188.823 208.529C188.247 209.669 187.367 210.627 186.279 211.297C185.192 211.966 183.939 212.32 182.662 212.32C181.385 212.32 180.133 211.966 179.046 211.297C177.958 210.627 177.077 209.669 176.502 208.529C175.927 209.669 175.047 210.628 173.959 211.297C172.872 211.967 171.62 212.321 170.343 212.321C169.066 212.321 167.814 211.967 166.727 211.297C165.639 210.628 164.759 209.669 164.184 208.529C163.923 209.04 163.6 209.516 163.222 209.948C173.517 237.71 167.169 251.153 164.184 278.033C163.58 283.737 163.407 289.477 163.666 295.207H199.385C200.684 283.887 203.356 268.596 204.883 249.637C201.416 249.405 198.175 247.84 195.837 245.271C193.499 242.701 192.247 239.326 192.343 235.853C192.439 232.381 193.876 229.08 196.352 226.644C198.828 224.207 202.151 222.824 205.625 222.783C205.752 222.783 205.88 222.783 206.012 222.783C206.012 219.165 205.899 215.612 205.718 212.128C204.74 211.897 203.824 211.455 203.034 210.834C202.244 210.212 201.599 209.426 201.144 208.529Z" fill="#F5EBDD"/>
<path id="Vector_56" d="M151.863 208.529C151.288 209.669 150.407 210.627 149.32 211.297C148.232 211.966 146.98 212.32 145.703 212.32C144.426 212.32 143.174 211.966 142.086 211.297C140.998 210.627 140.118 209.669 139.542 208.529C138.967 209.669 138.086 210.627 136.998 211.297C135.911 211.966 134.659 212.32 133.382 212.32C132.104 212.32 130.852 211.966 129.765 211.297C128.677 210.627 127.796 209.669 127.221 208.529C126.754 209.455 126.085 210.264 125.262 210.895C124.44 211.526 123.486 211.964 122.471 212.176C121.456 212.388 120.406 212.368 119.4 212.118C118.394 211.868 117.457 211.395 116.659 210.733C113.179 220.986 109.17 224.291 91.3786 251.524C86.7102 258.724 82.6893 266.323 79.3629 274.233L111.451 290.544C118.143 279.394 128.323 265.84 136.813 252.27C133.836 250.53 131.641 247.713 130.683 244.4C129.725 241.088 130.078 237.534 131.667 234.474C133.256 231.414 135.96 229.082 139.221 227.96C142.482 226.838 146.049 227.013 149.184 228.447C152.061 221.608 154.129 215.62 155.424 211.823C153.879 211.189 152.615 210.02 151.863 208.529Z" fill="#F5EBDD"/>
<path id="Vector_57" d="M158.865 212.268C159.085 212.241 159.306 212.206 159.522 212.159H159.568C159.777 212.11 159.982 212.052 160.183 211.985L160.284 211.958C160.496 211.881 160.709 211.8 160.914 211.703H160.941C161.146 211.607 161.327 211.502 161.54 211.386L161.575 211.363C161.776 211.244 161.971 211.115 162.159 210.976C162.542 210.687 162.893 210.358 163.206 209.994C163.584 209.563 163.908 209.086 164.169 208.576C164.744 209.716 165.624 210.674 166.711 211.344C167.799 212.013 169.051 212.368 170.328 212.368C171.605 212.368 172.857 212.013 173.944 211.344C175.031 210.674 175.911 209.716 176.486 208.576C177.062 209.716 177.942 210.674 179.03 211.343C180.118 212.012 181.37 212.367 182.647 212.367C183.924 212.367 185.176 212.012 186.264 211.343C187.351 210.674 188.232 209.716 188.808 208.576C189.383 209.716 190.264 210.674 191.351 211.343C192.439 212.012 193.691 212.367 194.968 212.367C196.245 212.367 197.497 212.012 198.585 211.343C199.673 210.674 200.553 209.716 201.129 208.576C201.582 209.472 202.226 210.258 203.014 210.881C203.803 211.503 204.717 211.946 205.695 212.179C205.126 201.692 203.82 191.259 201.786 180.956C198.995 181.725 196.079 181.922 193.21 181.536C190.341 181.15 187.58 180.189 185.092 178.71C174.379 172.59 171.696 142.643 171.078 132.039H138.796C120.127 148.841 120.502 198.872 116.953 209.84C116.856 210.141 116.755 210.431 116.659 210.721C117.457 211.383 118.394 211.857 119.4 212.107C120.406 212.356 121.456 212.376 122.471 212.164C123.486 211.953 124.44 211.515 125.262 210.883C126.085 210.252 126.754 209.443 127.221 208.518C127.796 209.658 128.677 210.616 129.765 211.285C130.852 211.954 132.104 212.309 133.382 212.309C134.659 212.309 135.911 211.954 136.998 211.285C138.086 210.616 138.967 209.658 139.542 208.518C140.118 209.658 140.998 210.616 142.086 211.285C143.174 211.954 144.426 212.309 145.703 212.309C146.98 212.309 148.232 211.954 149.32 211.285C150.407 210.616 151.288 209.658 151.863 208.518C152.614 210 153.872 211.163 155.409 211.796C155.81 211.964 156.227 212.094 156.653 212.183H156.715C156.893 212.217 157.071 212.244 157.253 212.264H157.4C157.604 212.264 157.813 212.295 158.022 212.295C158.231 212.295 158.482 212.295 158.71 212.26L158.865 212.268Z" fill="#30242A"/>
<path id="Vector_58" d="M169.411 331.42H200.027C200.027 331.42 201.125 324.183 205.002 319.458C201.975 317.266 199.517 314.545 198.906 310.137C198.384 306.376 198.681 301.381 199.385 295.203H163.666C164.233 307.451 166.16 319.598 169.411 331.42Z" fill="#FF7235"/>
<path id="Vector_59" d="M68.9785 309.383L68.0159 308.904C67.9195 308.856 67.8201 308.815 67.7182 308.78L96.3735 323.425C96.3735 323.425 100.626 317.595 106.104 315.213C105.378 313.71 104.821 312.131 104.446 310.504C103.394 305.865 106.449 298.86 111.447 290.532L79.3589 274.221C71.1513 293.61 68.9785 309.383 68.9785 309.383Z" fill="#FF7235"/>
<path id="Vector_60" d="M169.411 331.42H168.476C168.149 331.407 167.823 331.46 167.517 331.576C167.212 331.692 166.933 331.869 166.697 332.095C166.461 332.322 166.273 332.594 166.145 332.894C166.017 333.195 165.951 333.519 165.951 333.846C165.951 334.173 166.017 334.497 166.145 334.797C166.273 335.098 166.461 335.37 166.697 335.597C166.933 335.823 167.212 336 167.517 336.116C167.823 336.232 168.149 336.285 168.476 336.272H219.821C219.821 326.22 211.215 323.955 205.01 319.458C201.144 324.183 200.035 331.42 200.035 331.42H169.411Z" fill="#30242A"/>
<path id="Vector_61" d="M96.3736 323.436L67.7182 308.792C67.1555 308.596 66.5391 308.621 65.9946 308.863C65.4501 309.106 65.0183 309.546 64.7873 310.096C64.5562 310.645 64.5432 311.262 64.7508 311.82C64.9585 312.379 65.3712 312.837 65.905 313.102L111.525 336.276C115.905 327.202 109.642 322.69 106.089 315.225C100.626 317.606 96.3736 323.436 96.3736 323.436Z" fill="#30242A"/>
<path id="Vector_62" d="M192.187 236.218C192.186 239.654 193.502 242.959 195.863 245.455C198.225 247.951 201.452 249.447 204.883 249.637C205.494 242.017 205.923 233.786 206 225.018C206 224.272 206 223.529 206 222.787C205.876 222.787 205.749 222.787 205.613 222.787C202.053 222.791 198.64 224.208 196.122 226.726C193.605 229.244 192.19 232.657 192.187 236.218Z" fill="#FFBE21"/>
<path id="Vector_63" d="M130.206 240.699C130.205 243.035 130.814 245.33 131.972 247.359C133.13 249.387 134.797 251.079 136.809 252.266C137.741 250.774 138.657 249.281 139.542 247.793C143.188 241.57 146.405 235.105 149.169 228.443C147.122 227.525 144.879 227.134 142.643 227.305C140.407 227.476 138.249 228.204 136.366 229.422C134.483 230.64 132.934 232.31 131.862 234.28C130.789 236.249 130.226 238.456 130.225 240.699H130.206Z" fill="#FFBE21"/>
<path id="Vector_64" d="M185.092 178.71C187.586 180.182 190.352 181.134 193.223 181.51C196.095 181.886 199.012 181.678 201.801 180.898C196.002 151.334 186.21 132.039 186.21 132.039H171.078C171.696 142.655 174.379 172.602 185.092 178.71Z" fill="#FFBE21"/>
<path id="Vector_65" d="M185.1 36.0519C184.45 36.3805 182.119 36.4772 181.342 34.6215" stroke="#30242A" stroke-width="4" stroke-linecap="round" stroke-linejoin="round"/>
<path id="Vector_66" d="M183.596 27.8866C184.215 27.8866 184.717 27.3847 184.717 26.7655C184.717 26.1462 184.215 25.6443 183.596 25.6443C182.977 25.6443 182.475 26.1462 182.475 26.7655C182.475 27.3847 182.977 27.8866 183.596 27.8866Z" fill="#30242A"/>
<path id="Vector_67" d="M162.317 26.3905L166.048 29.004" stroke="#30242A" stroke-width="4" stroke-linecap="round" stroke-linejoin="round"/>
<path id="Vector_68" d="M138.421 132.05H186.21" stroke="#30242A" stroke-width="4" stroke-miterlimit="10" stroke-linecap="round"/>
<path id="Vector_69" d="M152.138 133.172C152.138 133.172 160.883 145.674 156.777 147.024C152.981 148.269 152.234 138.932 152.138 133.172Z" stroke="#A15842" stroke-width="4" stroke-linecap="round" stroke-linejoin="round"/>
<path id="Vector_70" d="M151.867 133.172C151.867 133.172 147.383 144.383 144.023 142.504C141.835 141.29 147.383 135.797 151.867 133.172Z" stroke="#A15842" stroke-width="4" stroke-linecap="round" stroke-linejoin="round"/>
<path id="Vector_71" d="M83.3525 130.183H23.2428C21.9019 130.183 20.8149 131.269 20.8149 132.609C20.8149 133.949 21.9019 135.035 23.2428 135.035H83.3525C84.6934 135.035 85.7804 133.949 85.7804 132.609C85.7804 131.269 84.6934 130.183 83.3525 130.183Z" fill="#30242A"/>
<path id="Vector_72" d="M53.2976 131.679C35.7495 131.679 27.9091 118.983 27.9091 118.983V150.329C27.9142 153.198 29.0564 155.949 31.0853 157.978C33.1143 160.007 35.8647 161.149 38.7341 161.154H67.8186C70.6914 161.154 73.4468 160.014 75.4799 157.985C77.5131 155.955 78.6579 153.202 78.663 150.329V118.983C78.663 118.983 70.8419 131.679 53.2976 131.679Z" fill="#FFB7D5"/>
<path id="Vector_73" d="M53.2976 131.679C70.8419 131.679 78.6823 118.983 78.6823 118.983H27.9091C27.9091 118.983 35.7495 131.679 53.2976 131.679Z" fill="#A15842"/>
<path id="Vector_74" d="M53.8544 118.983C56.4316 118.983 58.5208 116.894 58.5208 114.317C58.5208 111.74 56.4316 109.65 53.8544 109.65C51.2772 109.65 49.188 111.74 49.188 114.317C49.188 116.894 51.2772 118.983 53.8544 118.983Z" fill="#30242A"/>
<path id="Vector_75" d="M54.2295 89.8639C58.045 89.8639 61.1381 86.7707 61.1381 82.9552C61.1381 79.1396 58.045 76.0465 54.2295 76.0465C50.4139 76.0465 47.3208 79.1396 47.3208 82.9552C47.3208 86.7707 50.4139 89.8639 54.2295 89.8639Z" fill="#F5EBDD"/>
<path id="Vector_76" d="M54.3493 69.1454C59.9691 69.1454 64.5248 64.5897 64.5248 58.9699C64.5248 53.3502 59.9691 48.7944 54.3493 48.7944C48.7295 48.7944 44.1738 53.3502 44.1738 58.9699C44.1738 64.5897 48.7295 69.1454 54.3493 69.1454Z" fill="#F5EBDD"/>
<path id="Vector_77" d="M393.795 244.82C393.795 244.82 390.242 252.815 380.917 252.815C371.592 252.815 368.043 244.82 368.043 244.82C368.043 244.82 341.846 304.767 367.598 336.291H394.243C419.995 304.744 393.795 244.82 393.795 244.82Z" fill="#3EC1F3"/>
<path id="Vector_78" d="M380.921 252.8C390.246 252.8 393.799 244.805 393.799 244.805H368.043C368.043 244.805 371.596 252.8 380.921 252.8Z" fill="#30242A"/>
<path id="Vector_79" d="M405.006 298.172C390.512 298.431 373.374 303.662 360.16 322.142" stroke="#F5EBDD" stroke-width="4" stroke-linecap="round" stroke-linejoin="round"/>
<path id="Vector_80" d="M357.84 283.481C367.567 281.107 385.993 278.841 403.846 283.094" stroke="#F5EBDD" stroke-width="4" stroke-linecap="round" stroke-linejoin="round"/>
<path id="Vector_81" d="M403.758 313.563C397.274 313.636 385.289 320.982 386.612 335.789" stroke="#F5EBDD" stroke-width="4" stroke-linecap="round" stroke-linejoin="round"/>
<path id="Vector_82" d="M388.947 186.202L381.818 248.543" stroke="#30242A" stroke-width="4" stroke-miterlimit="10"/>
<path id="Vector_83" d="M392.395 211.243L383.434 248.033" stroke="#30242A" stroke-width="4" stroke-miterlimit="10"/>
<path id="Vector_84" d="M373.697 228.187C374.511 226.285 368.734 221.991 360.794 218.596C352.855 215.202 345.76 213.992 344.946 215.894C344.133 217.797 349.91 222.091 357.849 225.485C365.788 228.88 372.884 230.09 373.697 228.187Z" fill="#30242A"/>
<path id="Vector_85" d="M403.42 231.482C411.797 228.323 418.019 224.255 417.318 222.395C416.617 220.535 409.257 221.588 400.88 224.746C392.503 227.905 386.281 231.974 386.982 233.834C387.684 235.694 395.043 234.641 403.42 231.482Z" fill="#30242A"/>
<path id="Vector_86" d="M385.44 218.361C386.344 217.115 383.776 213.712 379.705 210.76C375.634 207.809 371.601 206.427 370.697 207.673C369.794 208.92 372.362 212.323 376.433 215.274C380.504 218.225 384.537 219.607 385.44 218.361Z" fill="#30242A"/>
<path id="Vector_87" d="M362.843 196.393L380.356 248.539" stroke="#30242A" stroke-width="4" stroke-miterlimit="10"/>
<path id="Vector_88" d="M385.386 199.869C386.077 198.366 387.12 197.052 388.426 196.037C389.732 195.021 391.264 194.336 392.891 194.037C394.518 193.738 396.193 193.835 397.774 194.32C399.356 194.804 400.798 195.662 401.978 196.822C403.158 197.981 404.042 199.407 404.556 200.979C405.069 202.552 405.196 204.225 404.926 205.857C404.657 207.489 403.999 209.033 403.007 210.357C402.016 211.681 400.721 212.748 399.23 213.466C398.338 210.174 396.585 207.18 394.152 204.79C391.719 202.4 388.693 200.702 385.386 199.869Z" fill="#FF7235"/>
<path id="Vector_89" d="M390.779 205.699C392.171 201.236 395.138 197.43 399.126 194.99" stroke="#F5EBDD" stroke-width="4" stroke-miterlimit="10" stroke-linecap="round"/>
<path id="Vector_90" d="M392.5 207.072C395.358 203.347 399.486 200.804 404.098 199.927" stroke="#F5EBDD" stroke-width="4" stroke-miterlimit="10" stroke-linecap="round"/>
<path id="Vector_91" d="M399.23 213.466C397.318 214.388 395.168 214.697 393.074 214.351C390.98 214.005 389.043 213.022 387.528 211.534C386.014 210.047 384.996 208.128 384.612 206.041C384.229 203.953 384.499 201.797 385.386 199.869C388.693 200.702 391.719 202.4 394.152 204.79C396.585 207.18 398.338 210.174 399.23 213.466Z" fill="#FF7235"/>
<path id="Vector_92" d="M369.558 184.938C368.707 183.519 367.526 182.325 366.115 181.458C364.705 180.591 363.106 180.077 361.455 179.958C359.804 179.84 358.148 180.121 356.628 180.777C355.109 181.433 353.769 182.446 352.723 183.729C351.678 185.013 350.956 186.529 350.62 188.15C350.284 189.771 350.344 191.449 350.793 193.043C351.243 194.636 352.069 196.097 353.203 197.304C354.337 198.51 355.744 199.426 357.307 199.973C357.832 196.606 359.243 193.439 361.396 190.797C363.549 188.154 366.366 186.133 369.558 184.938Z" fill="#FF7235"/>
<path id="Vector_93" d="M364.842 191.333C362.967 187.049 359.597 183.594 355.362 181.613" stroke="#F5EBDD" stroke-width="4" stroke-miterlimit="10" stroke-linecap="round"/>
<path id="Vector_94" d="M363.287 192.883C360.028 189.501 355.638 187.437 350.955 187.084" stroke="#F5EBDD" stroke-width="4" stroke-miterlimit="10" stroke-linecap="round"/>
<path id="Vector_95" d="M357.307 199.973C359.31 200.678 361.481 200.747 363.525 200.171C365.568 199.595 367.384 198.403 368.725 196.756C370.065 195.11 370.865 193.089 371.014 190.971C371.163 188.853 370.655 186.741 369.558 184.923C366.364 186.118 363.546 188.143 361.393 190.788C359.24 193.433 357.829 196.603 357.307 199.973Z" fill="#FF7235"/>
<path id="Vector_96" d="M398.82 180.361C398.858 178.707 398.496 177.069 397.767 175.584C397.038 174.1 395.963 172.812 394.631 171.831C393.3 170.849 391.752 170.202 390.119 169.945C388.485 169.687 386.813 169.826 385.244 170.35C383.676 170.875 382.256 171.768 381.105 172.957C379.955 174.145 379.107 175.592 378.633 177.177C378.16 178.762 378.074 180.437 378.384 182.062C378.694 183.686 379.39 185.213 380.414 186.512C382.66 183.945 385.549 182.022 388.783 180.941C392.018 179.86 395.483 179.66 398.82 180.361Z" fill="#FF7235"/>
<path id="Vector_97" d="M391.421 183.237C392.129 178.614 391.131 173.891 388.614 169.949" stroke="#F5EBDD" stroke-width="4" stroke-miterlimit="10" stroke-linecap="round"/>
<path id="Vector_98" d="M389.279 183.713C388.338 179.11 385.738 175.013 381.972 172.203" stroke="#F5EBDD" stroke-width="4" stroke-miterlimit="10" stroke-linecap="round"/>
<path id="Vector_99" d="M380.422 186.512C381.737 188.176 383.533 189.395 385.566 190.001C387.599 190.607 389.77 190.571 391.782 189.899C393.794 189.226 395.549 187.949 396.809 186.243C398.068 184.536 398.771 182.482 398.821 180.361C395.484 179.661 392.021 179.862 388.788 180.943C385.554 182.024 382.667 183.946 380.422 186.512Z" fill="#FF7235"/>
<path id="Vector_100" d="M369.945 185.325C366.753 186.519 363.936 188.541 361.783 191.183C359.63 193.825 358.218 196.993 357.693 200.36" stroke="#F5EBDD" stroke-width="4" stroke-miterlimit="10" stroke-linecap="round"/>
<path id="Vector_101" d="M399.002 180.361C395.686 179.572 392.219 179.679 388.958 180.673C385.697 181.666 382.758 183.509 380.445 186.013" stroke="#F5EBDD" stroke-width="4" stroke-miterlimit="10" stroke-linecap="round"/>
<path id="Vector_102" d="M400.255 212.673C399.211 209.427 397.322 206.516 394.782 204.241C392.242 201.965 389.141 200.407 385.8 199.726" stroke="#F5EBDD" stroke-width="4" stroke-miterlimit="10" stroke-linecap="round"/>
</g>
</svg>
