<svg width="401" height="356" viewBox="0 0 401 356" fill="none" xmlns="http://www.w3.org/2000/svg">
  <g id="Flowers">
    <path
      id="Vector"
      d="M216.554 11.1808H221.012C237.857 11.1849 254.01 17.8793 265.92 29.7919C277.829 41.7044 284.52 57.8595 284.52 74.7043V195.89H153.012V74.7043C153.012 66.3606 154.655 58.0987 157.849 50.3904C161.042 42.6821 165.723 35.6785 171.624 29.7796C177.525 23.8806 184.53 19.2019 192.239 16.0107C199.948 12.8195 208.211 11.1783 216.554 11.1808Z"
      fill="#FFB7D5"/>
    <path id="Vector_2" d="M242.643 122.941V197.777H184.288V122.941H242.643ZM244.189 121.395H182.742V199.323H244.189V121.395Z" fill="#CA7358"/>
    <path id="Vector_3" d="M244.189 121.391H182.742V137.501H244.189V121.391Z" fill="#CA7358"/>
    <path id="Vector_4" d="M182.413 82.475V198.152H147.29V82.475H182.413ZM183.96 80.9286H145.743V199.698H183.96V80.9286Z" fill="#CA7358"/>
    <path id="Vector_5" d="M290.88 59.0583V197.777H244.518V59.0583H290.88ZM292.426 57.5118H242.971V199.323H292.426V57.5118Z" fill="#CA7358"/>
    <path
      id="Vector_6"
      d="M263.075 76.4323H263.519C265.199 76.4323 266.81 77.0995 267.997 78.2871C269.185 79.4747 269.852 81.0854 269.852 82.7649V97.0385H256.738V82.7649C256.738 81.933 256.902 81.1092 257.221 80.3407C257.539 79.5721 258.006 78.8738 258.595 78.2857C259.183 77.6976 259.882 77.2313 260.65 76.9132C261.419 76.5952 262.243 76.4318 263.075 76.4323Z"
      fill="#CA7358"/>
    <path id="Vector_7" d="M255.242 87.6711H271.352" stroke="#FFB7D5" stroke-width="4" stroke-linecap="round" stroke-linejoin="round"/>
    <path
      id="Vector_8"
      d="M263.075 113.4H263.519C265.199 113.4 266.81 114.067 267.997 115.255C269.185 116.442 269.852 118.053 269.852 119.732V134.006H256.738V119.732C256.738 118.9 256.902 118.077 257.221 117.308C257.539 116.54 258.006 115.841 258.595 115.253C259.183 114.665 259.882 114.199 260.65 113.881C261.419 113.563 262.243 113.399 263.075 113.4Z"
      fill="#F5EBDD"/>
    <path id="Vector_9" d="M255.242 124.638H271.352" stroke="#FFB7D5" stroke-width="4" stroke-linecap="round" stroke-linejoin="round"/>
    <path
      id="Vector_10"
      d="M263.075 150.367H263.519C265.199 150.367 266.81 151.034 267.997 152.222C269.185 153.41 269.852 155.02 269.852 156.7V170.973H256.738V156.7C256.738 155.02 257.406 153.41 258.593 152.222C259.781 151.034 261.392 150.367 263.071 150.367H263.075Z"
      fill="#F5EBDD"/>
    <path id="Vector_11" d="M255.242 161.606H271.352" stroke="#FFB7D5" stroke-width="4" stroke-linecap="round" stroke-linejoin="round"/>
    <path
      id="Vector_12"
      d="M263.075 187.335H263.519C265.199 187.335 266.81 188.002 267.997 189.19C269.185 190.377 269.852 191.988 269.852 193.667V206.781H256.738V193.667C256.738 192.835 256.902 192.012 257.221 191.243C257.539 190.474 258.006 189.776 258.595 189.188C259.183 188.6 259.882 188.134 260.65 187.816C261.419 187.498 262.243 187.334 263.075 187.335Z"
      fill="#30242A"/>
    <path id="Vector_13" d="M292.426 57.5118H242.971V63.6937H292.426V57.5118Z" fill="#CA7358"/>
    <path id="Vector_14" d="M183.96 77.9323H145.743V84.1142H183.96V77.9323Z" fill="#CA7358"/>
    <path id="Vector_15" d="M206.909 152.115H193.795V168.975H206.909V152.115Z" fill="#F5EBDD"/>
    <path id="Vector_16" d="M192.295 159.607H208.408" stroke="#FFB7D5" stroke-width="4" stroke-linecap="round" stroke-linejoin="round"/>
    <path id="Vector_17" d="M200.352 169.725V159.607" stroke="#FFB7D5" stroke-width="4" stroke-linecap="round" stroke-linejoin="round"/>
    <path id="Vector_18" d="M206.909 182.564H193.795V199.424H206.909V182.564Z" fill="#CA7358"/>
    <path id="Vector_19" d="M192.295 190.056H208.408" stroke="#FFB7D5" stroke-width="4" stroke-linecap="round" stroke-linejoin="round"/>
    <path id="Vector_20" d="M200.352 200.174V190.056" stroke="#FFB7D5" stroke-width="4" stroke-linecap="round" stroke-linejoin="round"/>
    <path id="Vector_21" d="M231.636 152.115H218.522V168.975H231.636V152.115Z" fill="#30242A"/>
    <path id="Vector_22" d="M217.026 159.607H233.136" stroke="#FFB7D5" stroke-width="4" stroke-linecap="round" stroke-linejoin="round"/>
    <path id="Vector_23" d="M225.079 169.725V159.607" stroke="#FFB7D5" stroke-width="4" stroke-linecap="round" stroke-linejoin="round"/>
    <path id="Vector_24" d="M231.636 182.564H218.522V199.424H231.636V182.564Z" fill="#F5EBDD"/>
    <path id="Vector_25" d="M217.026 190.056H233.136" stroke="#FFB7D5" stroke-width="4" stroke-linecap="round" stroke-linejoin="round"/>
    <path id="Vector_26" d="M225.079 200.174V190.056" stroke="#FFB7D5" stroke-width="4" stroke-linecap="round" stroke-linejoin="round"/>
    <path
      id="Vector_27"
      d="M191.452 56.9513C196.833 56.9513 201.195 52.5894 201.195 47.2088C201.195 41.8282 196.833 37.4663 191.452 37.4663C186.071 37.4663 181.709 41.8282 181.709 47.2088C181.709 52.5894 186.071 56.9513 191.452 56.9513Z"
      fill="#F5EBDD"/>
    <path id="Vector_28" d="M301.38 195.952H136.152V207.191H301.38V195.952Z" fill="#F5EBDD"/>
    <path
      id="Vector_29"
      d="M221.375 0H216.168C175.087 0 141.785 33.3024 141.785 74.3833V207.191H295.774V74.3833C295.763 33.3024 262.456 0 221.375 0ZM213.148 195.952H153.012V102.285H213.148V195.952ZM213.148 91.0461H153.012V74.766C153.012 58.5049 159.248 42.863 170.436 31.062C181.624 19.261 196.91 12.1993 213.148 11.3315V91.0461ZM284.52 195.952H224.387V102.285H284.52V195.952ZM284.52 91.0461H224.387V11.3315C240.625 12.1994 255.911 19.2612 267.098 31.0623C278.285 42.8634 284.52 58.5052 284.52 74.766V91.0461Z"
      fill="#F5EBDD"/>
    <path id="Vector_30" d="M14.9849 355.184C23.2608 355.184 29.9698 348.475 29.9698 340.199C29.9698 331.923 23.2608 325.214 14.9849 325.214C6.70898 325.214 0 331.923 0 340.199C0 348.475 6.70898 355.184 14.9849 355.184Z" fill="#FFB7D5"/>
    <path id="Vector_31" d="M349.18 218.047C349.182 218.46 349.098 218.87 348.933 219.249C347.773 221.89 342.816 222.28 337.887 220.119C333.758 218.313 330.952 215.29 330.832 212.804V245.774H349.192V218.047H349.18Z" fill="#FFBE21"/>
    <path
      id="Vector_32"
      d="M342.121 210.566C337.191 208.405 332.243 208.795 331.075 211.436C330.887 211.869 330.804 212.34 330.832 212.812C330.952 215.298 333.758 218.321 337.887 220.127C342.817 222.288 347.765 221.897 348.933 219.257C349.098 218.878 349.183 218.468 349.18 218.054C349.192 215.538 346.35 212.414 342.121 210.566Z"
      fill="#A15842"/>
    <path id="Vector_33" d="M363.256 228.922C363.137 231.408 360.33 234.431 356.201 236.241C351.268 238.398 346.323 238.011 345.152 235.367C344.988 234.989 344.904 234.581 344.904 234.168V245.767H363.26V228.922H363.256Z" fill="#FFBE21"/>
    <path
      id="Vector_34"
      d="M363.013 227.546C361.853 224.905 356.897 224.515 351.964 226.676C347.738 228.528 344.897 231.648 344.904 234.168C344.904 234.58 344.988 234.988 345.152 235.367C346.312 238.011 351.268 238.398 356.201 236.24C360.33 234.431 363.137 231.408 363.256 228.922C363.284 228.45 363.201 227.979 363.013 227.546Z"
      fill="#A15842"/>
    <path id="Vector_35" d="M345.442 245.782V234.543" stroke="#A15842" stroke-width="4" stroke-miterlimit="10" stroke-linecap="round"/>
    <path id="Vector_36" d="M340.01 208.126V214.498" stroke="#30242A" stroke-width="4" stroke-linecap="round" stroke-linejoin="round"/>
    <path id="Vector_37" d="M354.082 224.24V230.982" stroke="#30242A" stroke-width="4" stroke-linecap="round" stroke-linejoin="round"/>
    <path
      id="Vector_38"
      d="M261.401 355.292C260.932 355.293 260.47 355.182 260.053 354.969C259.635 354.756 259.274 354.447 259 354.067C258.725 353.687 258.544 353.248 258.472 352.785C258.4 352.322 258.44 351.848 258.586 351.403L267.865 323.127C268.061 322.534 268.439 322.018 268.945 321.652C269.451 321.286 270.059 321.089 270.683 321.089H277.186C277.703 321.089 278.21 321.224 278.659 321.48C279.107 321.737 279.481 322.106 279.742 322.552C280.004 322.997 280.144 323.503 280.149 324.02C280.155 324.537 280.025 325.046 279.772 325.496L263.976 353.773C263.72 354.232 263.347 354.615 262.894 354.882C262.442 355.149 261.926 355.291 261.401 355.292Z"
      fill="#30242A"/>
    <path
      id="Vector_39"
      d="M385.703 355.292C386.172 355.293 386.634 355.182 387.051 354.969C387.469 354.756 387.83 354.447 388.104 354.067C388.379 353.687 388.56 353.248 388.632 352.785C388.704 352.322 388.664 351.848 388.518 351.403L379.239 323.127C379.043 322.534 378.666 322.019 378.161 321.653C377.656 321.287 377.048 321.09 376.424 321.089H369.918C369.402 321.09 368.895 321.225 368.447 321.482C367.999 321.739 367.626 322.108 367.365 322.554C367.104 322.999 366.963 323.504 366.957 324.021C366.951 324.537 367.08 325.045 367.331 325.496L383.128 353.773C383.384 354.232 383.758 354.614 384.21 354.881C384.663 355.148 385.178 355.29 385.703 355.292Z"
      fill="#30242A"/>
    <path id="Vector_40" d="M400.05 245.782H247.56V333.078H400.05V245.782Z" fill="#A15842"/>
    <path id="Vector_41" d="M388.807 257.021H258.799V321.839H388.807V257.021Z" fill="#FFB7D5"/>
    <path id="Vector_42" d="M323.664 255.9V322.964" stroke="#A15842" stroke-width="4" stroke-miterlimit="10"/>
    <path id="Vector_43" d="M338.985 293.358C341.155 293.358 342.913 291.599 342.913 289.43C342.913 287.261 341.155 285.502 338.985 285.502C336.816 285.502 335.057 287.261 335.057 289.43C335.057 291.599 336.816 293.358 338.985 293.358Z" fill="#30242A"/>
    <path id="Vector_44" d="M308.621 293.358C310.791 293.358 312.549 291.599 312.549 289.43C312.549 287.261 310.791 285.502 308.621 285.502C306.452 285.502 304.693 287.261 304.693 289.43C304.693 291.599 306.452 293.358 308.621 293.358Z" fill="#30242A"/>
    <path id="Vector_45" d="M60.28 318.951V325.319H115.356V318.951H60.28Z" fill="#A15842"/>
    <path
      id="Vector_46"
      d="M124.43 351.998L110.786 270.134H119.129C120.023 270.134 120.881 269.779 121.513 269.147C122.145 268.515 122.5 267.657 122.5 266.763C122.5 265.869 122.145 265.011 121.513 264.379C120.881 263.747 120.023 263.392 119.129 263.392H56.5722C55.6781 263.392 54.8206 263.747 54.1884 264.379C53.5561 265.011 53.201 265.869 53.201 266.763C53.201 267.657 53.5561 268.515 54.1884 269.147C54.8206 269.779 55.6781 270.134 56.5722 270.134H64.8495L51.2061 351.998C51.1387 352.404 51.1604 352.819 51.2697 353.215C51.3789 353.611 51.5731 353.978 51.8387 354.292C52.1044 354.605 52.4351 354.857 52.8078 355.03C53.1806 355.203 53.5865 355.292 53.9974 355.292C54.6432 355.293 55.2698 355.072 55.7727 354.667C56.2757 354.262 56.6247 353.697 56.7616 353.065L74.8394 270.134H100.796L118.87 353.065C119.009 353.697 119.358 354.261 119.862 354.667C120.365 355.072 120.992 355.292 121.638 355.292C122.049 355.292 122.455 355.203 122.828 355.03C123.201 354.857 123.531 354.605 123.797 354.292C124.062 353.978 124.257 353.611 124.366 353.215C124.475 352.819 124.497 352.404 124.43 351.998Z"
      fill="#FFBE21"/>
    <path
      id="Vector_47"
      d="M119.129 270.134C120.023 270.134 120.881 269.779 121.513 269.147C122.145 268.515 122.5 267.657 122.5 266.763C122.5 265.869 122.145 265.011 121.513 264.379C120.881 263.747 120.023 263.392 119.129 263.392H56.5723C55.6782 263.392 54.8207 263.747 54.1885 264.379C53.5562 265.011 53.201 265.869 53.201 266.763C53.201 267.657 53.5562 268.515 54.1885 269.147C54.8207 269.779 55.6782 270.134 56.5723 270.134H64.8495V270.239H74.8317L74.8549 270.134H100.812L100.835 270.239H110.817V270.134H119.129Z"
      fill="#A15842"/>
    <path
      id="Vector_48"
      d="M122.837 318.843H162.657C163.152 310.388 164.919 299.172 166.384 284.021C167.687 270.587 168.808 259.309 168.735 250C168.611 234.481 128.914 253.263 128.914 253.263C128.914 256.653 129.599 259.909 129.618 263.063C129.664 271.259 125.512 278.234 122.547 288.119C118.051 303.108 121.797 318.843 121.797 318.843H122.837Z"
      fill="#4856DF"/>
    <path
      id="Vector_49"
      d="M164.78 351.063H129.919C129.436 351.217 129.023 351.539 128.755 351.971C128.488 352.402 128.383 352.915 128.461 353.417C128.538 353.919 128.792 354.377 129.178 354.708C129.563 355.039 130.053 355.222 130.561 355.223L181.86 355.292C182.313 350.305 179.479 346.551 171.484 340.988C166.922 344.943 164.78 351.063 164.78 351.063Z"
      fill="#3EC1F3"/>
    <path
      id="Vector_50"
      d="M169.686 339.778C168.03 338.707 166.6 337.323 165.476 335.703C162.769 331.733 162.197 326.386 162.642 318.843H128.133C128.2 324.482 128.607 330.113 129.351 335.703C130.233 342.032 131.423 346.385 132.378 350.962H130.565C130.346 350.962 130.128 350.996 129.919 351.063H164.78C164.78 351.063 166.922 344.943 171.484 341.011C170.911 340.606 170.312 340.195 169.686 339.778Z"
      fill="#A15842"/>
    <path id="Vector_51" d="M163.059 312.07C160.925 307.821 159.471 303.265 158.749 298.565C156.224 281.025 157.72 272.033 150.603 264.157H129.776" stroke="#30242A" stroke-width="4" stroke-linecap="round" stroke-linejoin="round"/>
    <path
      id="Vector_52"
      d="M176.046 320.339L176.084 320.432L206.827 306.035C204.434 298.875 201.933 289.349 197.823 276.881C193.973 265.213 191.425 256.495 189.012 249.748C185.639 252.179 181.478 253.26 177.348 252.78C173.218 252.3 169.416 250.294 166.689 247.155C163.962 244.016 162.507 239.971 162.61 235.814C162.712 231.658 164.365 227.689 167.243 224.689C150.831 217.273 92.5423 212.437 92.5423 212.437L59.5685 207.566C57.8288 210.442 56.3481 215 55.5439 220.324H67.0648V232.645C67.0587 235.136 66.0652 237.524 64.3021 239.284C62.539 241.044 60.1501 242.034 57.6587 242.036H57.0015C56.8468 242.036 56.6922 242.036 56.5414 242.036C59.6884 253.634 67.7839 263.403 84.3075 263.403H150.997C158.115 271.271 156.619 280.263 159.143 297.811C161.208 312.166 170.993 322.748 170.993 322.748L176.046 320.339Z"
      fill="#4856DF"/>
    <path
      id="Vector_53"
      d="M222.879 336.828L192.26 350.715C191.741 351.077 191.378 351.621 191.242 352.239C191.106 352.857 191.207 353.503 191.526 354.05C191.844 354.596 192.356 355.003 192.96 355.19C193.565 355.376 194.217 355.329 194.788 355.057L241.251 333.407C239.43 328.381 234.748 326.448 223.656 324.515L223.181 324.426C222.262 328.499 222.159 332.715 222.879 336.828Z"
      fill="#3EC1F3"/>
    <path
      id="Vector_54"
      d="M223.181 324.41C219.987 323.799 217.482 322.736 215.414 321.128C211.602 318.159 209.267 313.326 206.827 306.05L176.084 320.448C178.69 326.436 182.347 332.734 185.831 338.232C188.873 343.018 191.777 347.189 193.729 349.984L192.619 350.522C192.493 350.583 192.373 350.656 192.26 350.738L222.879 336.851C222.154 332.725 222.257 328.496 223.181 324.41Z"
      fill="#A15842"/>
    <path
      id="Vector_55"
      d="M179.278 252.899C182.774 252.902 186.181 251.799 189.012 249.749C184.215 236.264 180.055 230.646 167.475 224.793L167.243 224.689C164.981 227.047 163.462 230.017 162.876 233.232C162.289 236.446 162.66 239.761 163.942 242.766C165.224 245.772 167.362 248.333 170.088 250.134C172.815 251.934 176.01 252.893 179.278 252.892V252.899Z"
      fill="#3EC1F3"/>
    <path
      id="Vector_56"
      d="M57.6587 242.036C60.1548 242.036 62.5486 241.044 64.314 239.28C66.0793 237.515 67.0716 235.122 67.0726 232.626V220.304H55.5517C54.5349 226.989 54.5929 234.852 56.5414 242.024C56.6922 242.024 56.8468 242.024 57.0015 242.024L57.6587 242.036Z"
      fill="#3EC1F3"/>
    <path id="Vector_57" d="M150.429 264.327H161.668" stroke="#30242A" stroke-width="4" stroke-linecap="round" stroke-linejoin="round"/>
    <path id="Vector_58" d="M198.77 145.183C198.77 145.183 178.539 121.955 154.635 113.531" stroke="#30242A" stroke-width="4" stroke-linecap="round" stroke-linejoin="round"/>
    <path
      id="Vector_59"
      d="M135.313 122.605C134.578 120.83 137.029 118.047 141.112 115.696C135.583 114.32 131.655 111.757 132.05 109.603C132.444 107.45 137.021 106.437 142.681 107.102C139.705 103.468 138.394 99.996 139.708 98.5965C141.382 96.8065 146.694 99.0643 151.569 103.622C155.822 107.604 158.335 112.035 157.802 114.289C157.504 116.585 153.588 119.841 148.206 122.067C142.016 124.634 136.252 124.874 135.313 122.605Z"
      fill="#4756DF"/>
    <g id="Group">
      <path
        id="Vector_60"
        d="M158.003 121.503C161.902 121.503 165.062 118.342 165.062 114.444C165.062 110.545 161.902 107.384 158.003 107.384C154.104 107.384 150.943 110.545 150.943 114.444C150.943 118.342 154.104 121.503 158.003 121.503Z"
        fill="#30242A"/>
    </g>
    <path id="Vector_61" d="M172.877 123.536C174.816 122.815 173.935 115.622 170.908 107.47C167.88 99.317 163.854 93.2918 161.915 94.0119C159.975 94.7321 160.857 101.925 163.884 110.078C166.911 118.23 170.937 124.256 172.877 123.536Z" fill="#30242A"/>
    <path id="Vector_62" d="M172.531 124.952C172.531 124.952 175.531 133.194 174.031 141.812" stroke="#30242A" stroke-width="4" stroke-linecap="round" stroke-linejoin="round"/>
    <path
      id="Vector_63"
      d="M117.822 92.1209C111.428 99.3157 104.631 100.905 104.631 100.905C100.236 96.1107 92.26 96.1107 91.0421 102.903C89.7161 110.431 99.0256 112.503 99.0256 112.503C99.0256 112.503 101.372 122.214 97.773 127.012C94.5951 131.265 90.5125 131.965 82.1463 132.9C93.0486 151.322 104.183 149.868 107.89 149.868C116.782 149.868 119.288 139.55 119.987 134.23C117.963 133.524 115.897 132.942 113.802 132.487L112.603 125.296C112.603 125.296 118.197 127.291 122.995 124.495C127.793 121.7 128.992 116.5 127.391 108.509C126.444 103.773 126.479 97.9162 125.667 92.6815C122.5 93.2189 117.822 92.1209 117.822 92.1209Z"
      fill="#A15842"/>
    <path
      id="Vector_64"
      d="M184.335 132.258C182.637 125.466 169.35 121.781 169.35 121.781C169.35 121.781 170.146 106.533 166.725 106.046C164.103 105.66 161.478 112.043 159.232 124.406C156.719 138.224 158.107 163.744 158.107 163.744C158.107 163.744 155.327 161.219 151.384 157.705C150.99 158.501 150.385 159.175 149.636 159.652C148.886 160.129 148.02 160.392 147.131 160.411C147.692 161.122 148.043 161.975 148.146 162.874C148.248 163.774 148.097 164.684 147.71 165.502C147.323 166.321 146.716 167.015 145.956 167.507C145.196 167.999 144.313 168.269 143.408 168.286C143.969 168.997 144.32 169.85 144.423 170.75C144.525 171.649 144.374 172.559 143.987 173.378C143.6 174.196 142.993 174.89 142.233 175.382C141.473 175.874 140.59 176.144 139.685 176.162C140.274 176.908 140.631 177.81 140.712 178.756C140.794 179.703 140.596 180.653 140.143 181.489C139.691 182.324 139.004 183.009 138.167 183.458C137.329 183.908 136.379 184.102 135.433 184.017C143.64 189.36 154.798 195.592 162.232 195.592C201.195 195.577 185.46 136.755 184.335 132.258Z"
      fill="#A15842"/>
    <path
      id="Vector_65"
      d="M140.25 181.238C140.636 180.419 140.787 179.51 140.685 178.61C140.583 177.711 140.233 176.858 139.674 176.146C140.579 176.129 141.461 175.859 142.221 175.367C142.981 174.875 143.588 174.181 143.975 173.362C144.362 172.544 144.513 171.634 144.411 170.734C144.309 169.835 143.957 168.982 143.397 168.271C144.302 168.253 145.184 167.983 145.944 167.492C146.704 167 147.312 166.305 147.698 165.487C148.085 164.669 148.236 163.759 148.134 162.859C148.032 161.96 147.68 161.106 147.12 160.396C148.008 160.376 148.874 160.114 149.624 159.637C150.374 159.16 150.978 158.486 151.372 157.69C144.576 151.635 134.327 142.658 128.872 138.626C126.231 136.674 122.868 135.228 119.98 134.23C119.299 139.565 116.81 149.868 107.918 149.868C104.225 149.868 93.0757 151.322 82.1734 132.9L78.6707 133.287C66.6085 134.628 61.1187 141.12 57.8867 148.875C55.8879 153.673 54.2873 162.464 54.2873 162.464C53.0473 170.524 52.4089 178.666 52.3775 186.82L68.0622 201.338L110.172 202.378C113.543 197.406 119.728 188.224 121.77 184.702C124.391 180.206 124.766 176.459 124.766 176.459C124.766 176.459 129.266 179.977 135.432 183.994C136.421 184.081 137.412 183.863 138.273 183.371C139.134 182.878 139.824 182.134 140.25 181.238Z"
      fill="#FFBE21"/>
    <path
      id="Vector_66"
      d="M122.222 83.3255C117.428 77.3331 104.237 73.3356 93.8451 80.9285C83.453 88.5215 84.2533 100.912 84.6515 105.71C84.6515 105.71 73.4631 102.111 65.4681 110.504C63.1542 112.904 61.4691 115.838 60.5626 119.045C59.6562 122.253 59.5563 125.635 60.2721 128.891C60.2721 128.891 45.55 128.477 42.6853 142.082C41.0577 149.814 44.0964 154.96 47.4676 158.146C49.4448 160.001 51.7547 161.466 54.2758 162.464C54.2758 162.464 55.8763 153.673 57.8751 148.875C61.1071 141.119 66.597 134.628 78.6591 133.287L82.1618 132.9C90.528 131.965 94.6105 131.253 97.7885 127.012C101.384 122.214 99.0256 112.503 99.0256 112.503C99.0256 112.503 89.7045 110.431 91.0306 102.911C92.2329 96.1183 100.224 96.1183 104.62 100.912C104.62 100.912 111.416 99.3156 117.811 92.1208C117.811 92.1208 122.489 93.2188 125.678 92.6814C125.133 89.0782 124.174 85.7727 122.222 83.3255Z"
      fill="#30242A"/>
    <path
      id="Vector_67"
      d="M185.166 137.597C184.033 137.076 183.356 135.761 183.55 133.248C183.55 133.248 181.207 136.186 178.713 134.88C176.22 133.573 177.217 130.758 177.217 130.758C177.217 130.758 174.967 132.258 173.096 130.372C171.399 128.675 172.709 125.876 172.709 125.876C172.709 125.876 170.22 126.892 169.338 125.126C168.229 122.914 169.578 120.598 171.039 118.824"
      stroke="#30242A"
      stroke-width="8"
      stroke-linecap="round"
      stroke-linejoin="round"/>
    <path id="Vector_68" d="M59.5608 129.216C59.9844 131.219 60.748 133.135 61.8186 134.88" stroke="black" stroke-width="4" stroke-miterlimit="10" stroke-linecap="round"/>
    <path id="Vector_69" d="M157.357 164.227L158.296 175.906" stroke="#30242A" stroke-width="4" stroke-linecap="round" stroke-linejoin="round"/>
    <path id="Vector_70" d="M123.451 163.535C125.899 167.942 125.868 173.231 125.551 176.367" stroke="#30242A" stroke-width="4" stroke-linecap="round" stroke-linejoin="round"/>
    <path id="Vector_71" d="M101.345 175.906L89.3566 176.282" stroke="#30242A" stroke-width="4" stroke-linecap="round" stroke-linejoin="round"/>
    <path id="Vector_72" d="M112.398 126.034C110.723 125.376 109.088 124.619 107.504 123.765" stroke="#30242A" stroke-width="4" stroke-linecap="round" stroke-linejoin="round"/>
    <path id="Vector_73" d="M115.395 137.13L114.741 132.989" stroke="#30242A" stroke-width="4" stroke-linecap="round" stroke-linejoin="round"/>
    <path id="Vector_74" d="M83.8436 105.861L84.6749 112.774" stroke="black" stroke-width="4" stroke-miterlimit="10" stroke-linecap="round"/>
    <path id="Vector_75" d="M123.452 114.088C122.605 114.637 119.798 114.819 118.453 112.372" stroke="#30242A" stroke-width="4" stroke-linecap="round" stroke-linejoin="round"/>
    <path id="Vector_76" d="M100.97 106.217L97.2241 104.345" stroke="#30242A" stroke-width="4" stroke-linecap="round" stroke-linejoin="round"/>
    <path id="Vector_77" d="M118.267 104.558C117.668 105.374 114.842 106.955 112.715 105.15" stroke="#30242A" stroke-width="4" stroke-linecap="round" stroke-linejoin="round"/>
    <path id="Vector_78" d="M127.372 103.379C126.924 103.474 126.462 103.48 126.013 103.396C125.563 103.313 125.134 103.141 124.751 102.892" stroke="#30242A" stroke-width="4" stroke-linecap="round" stroke-linejoin="round"/>
    <path id="Vector_79" d="M122.303 104.771C122.732 105.741 123.146 106.812 123.057 107.222C122.925 107.72 122.628 108.159 122.214 108.467" stroke="#30242A" stroke-width="4" stroke-linecap="round" stroke-linejoin="round"/>
    <path
      id="Vector_80"
      d="M98.9174 110.744L93.8026 115.569C93.5257 115.83 93.3203 116.157 93.2061 116.52C93.0919 116.884 93.0726 117.27 93.1502 117.642C93.2277 118.015 93.3995 118.362 93.6491 118.649C93.8986 118.936 94.2177 119.155 94.5758 119.284L100.622 121.43C100.982 121.557 101.368 121.589 101.743 121.525C102.119 121.46 102.472 121.3 102.768 121.059C103.064 120.819 103.293 120.507 103.434 120.153C103.575 119.799 103.622 119.414 103.572 119.036L102.64 112.077C102.586 111.673 102.421 111.291 102.165 110.974C101.908 110.657 101.569 110.416 101.185 110.278C100.8 110.141 100.386 110.111 99.9858 110.193C99.5859 110.275 99.2163 110.466 98.9174 110.744Z"
      fill="#F4E6D8"/>
    <path
      id="Vector_81"
      d="M172.346 112.027C172.346 112.027 174.967 110.527 177.217 111.277C180.696 112.437 180.186 115.677 180.186 115.677C180.186 115.677 185.065 113.918 186.012 119.075C186.012 119.075 190.412 120.061 189.422 124.461C189.422 124.461 192.983 124.65 192.275 129.316C191.568 133.983 188.456 137.86 186.585 137.86C184.651 137.86 183.287 136.673 183.55 133.221C183.55 133.221 181.207 136.159 178.713 134.853C176.22 133.546 177.217 130.731 177.217 130.731C177.217 130.731 174.967 132.231 173.096 130.345C171.399 128.648 172.709 125.848 172.709 125.848C172.709 125.848 170.219 126.865 169.338 125.098C167.463 121.352 172.62 117.324 173.459 116.11L172.346 112.027Z"
      fill="#A15842"/>
    <path id="Vector_82" d="M171.232 127.213C173.807 124.851 178.191 120.393 180.271 115.715" stroke="#30242A" stroke-width="4" stroke-linecap="round" stroke-linejoin="round"/>
    <path id="Vector_83" d="M175.961 132.606C180.239 128.968 183.732 124.495 186.225 119.462" stroke="#30242A" stroke-width="4" stroke-linecap="round" stroke-linejoin="round"/>
    <path id="Vector_84" d="M182.583 135.382C183.743 133.967 187.798 128.883 189.809 124.859" stroke="#30242A" stroke-width="4" stroke-linecap="round" stroke-linejoin="round"/>
    <path
      id="Vector_85"
      d="M181.856 221.429H116.968L131.717 174.832C132.153 173.46 133.015 172.262 134.177 171.413C135.339 170.563 136.742 170.106 138.181 170.107H193.014C194.079 170.107 195.13 170.358 196.08 170.839C197.03 171.321 197.854 172.02 198.483 172.879C199.113 173.738 199.531 174.734 199.704 175.785C199.877 176.837 199.799 177.914 199.478 178.93L187.28 217.463C186.914 218.614 186.191 219.618 185.216 220.331C184.241 221.044 183.064 221.429 181.856 221.429Z"
      fill="#30242A"/>
    <path
      id="Vector_86"
      d="M79.3087 216.183C79.1173 216.787 79.0709 217.427 79.1732 218.052C79.2755 218.677 79.5237 219.269 79.8977 219.78C80.2717 220.291 80.7608 220.707 81.3255 220.993C81.8902 221.28 82.5145 221.429 83.1477 221.429H181.856C183.063 221.427 184.238 221.04 185.211 220.326C186.184 219.611 186.905 218.606 187.269 217.455L187.655 216.183H79.3087Z"
      fill="#30242A"/>
    <path
      id="Vector_87"
      d="M171.917 191.757C170.409 189.693 163.554 195.144 163.052 195.596C162.789 195.144 159.224 189.693 156.607 191.757C154.338 193.547 159.313 201.539 160.655 203.576C160.71 203.638 160.778 203.687 160.854 203.721C160.93 203.755 161.012 203.773 161.096 203.773C161.179 203.773 161.261 203.755 161.337 203.721C161.413 203.687 161.481 203.638 161.536 203.576C163.976 201.519 173.227 193.528 171.917 191.757Z"
      fill="#FFBE21"/>
    <path id="Vector_88" d="M165.654 190.298C166.198 188.549 166.176 186.987 165.603 186.808C165.03 186.63 164.124 187.903 163.579 189.652C163.034 191.401 163.057 192.964 163.63 193.142C164.203 193.321 165.109 192.047 165.654 190.298Z" fill="#FFBE21"/>
    <path
      id="Vector_89"
      d="M42.1286 179.181C42.9708 179.506 43.8866 179.59 44.774 179.425C45.6614 179.26 46.4855 178.851 47.1545 178.245C47.2338 179.148 47.564 180.011 48.1077 180.736C48.6515 181.461 49.3872 182.019 50.2316 182.348C51.0761 182.677 51.9957 182.763 52.8866 182.597C53.7775 182.431 54.6041 182.019 55.2732 181.408C55.3546 182.31 55.6861 183.171 56.2303 183.894C56.7745 184.618 57.5099 185.175 58.3537 185.503C59.1975 185.832 60.1161 185.918 61.0062 185.752C61.8964 185.587 62.7226 185.176 63.392 184.566C63.4539 185.278 63.6722 185.968 64.0313 186.585C64.3904 187.203 64.8813 187.734 65.4692 188.14C66.0571 188.546 66.7273 188.818 67.4321 188.935C68.137 189.053 68.859 189.013 69.5468 188.819L75.3923 173.119C77.6437 167.092 78.7109 160.688 78.5354 154.256L77.9439 133.38C77.9439 133.38 64.4552 134.501 56.5877 144.243C52.5515 149.242 44.6299 162.449 39.5538 176.807C40.0872 177.891 41.0051 178.737 42.1286 179.181Z"
      fill="#FFBE21"/>
    <path
      id="Vector_90"
      d="M66.4811 188.664C65.6344 188.338 64.8959 187.781 64.3493 187.057C63.8027 186.333 63.4698 185.47 63.3882 184.566C62.7189 185.176 61.8926 185.587 61.0025 185.752C60.1124 185.918 59.1937 185.832 58.3499 185.503C57.5061 185.175 56.7708 184.618 56.2265 183.894C55.6823 183.171 55.3508 182.31 55.2695 181.408C54.6004 182.019 53.7737 182.431 52.8828 182.597C51.9919 182.763 51.0723 182.677 50.2279 182.348C49.3834 182.019 48.6477 181.461 48.104 180.736C47.5602 180.011 47.23 179.148 47.1507 178.245C46.5942 178.752 45.9276 179.123 45.2035 179.328C44.4793 179.534 43.7174 179.568 42.9776 179.429C42.2378 179.29 41.5404 178.982 40.9402 178.527C40.3401 178.073 39.8536 177.485 39.5191 176.811C35.1195 189.256 32.854 202.571 37.1144 212.155C46.2847 232.796 73.8073 225.531 80.3023 223.621C86.7973 221.712 99.4162 215.213 107.825 216.361C116.234 217.509 125.787 221.712 127.318 216.361C127.318 216.361 132.463 216.23 130.844 211.335C130.844 211.335 133.43 211.014 133.813 209.104C134.586 205.281 125.404 201.844 125.404 201.844C125.404 201.844 132.668 203.004 134.195 201.457C136.128 199.524 134.25 196.404 122.385 193.528C109.352 190.373 92.1518 192.283 66.543 196.868L69.5392 188.815C68.5305 189.099 67.457 189.046 66.4811 188.664Z"
      fill="#A15842"/>
    <path id="Vector_91" d="M75.4928 171.035L66.9372 196.01" stroke="#30242A" stroke-width="4" stroke-linecap="round" stroke-linejoin="round"/>
    <path id="Vector_92" d="M127.712 202.118C123.56 200.541 116.647 198.121 111.281 197.247" stroke="#30242A" stroke-width="4" stroke-linecap="round" stroke-linejoin="round"/>
    <path id="Vector_93" d="M130.952 211.134C125.617 208.733 115.426 204.376 109.943 203.557" stroke="#30242A" stroke-width="4" stroke-linecap="round" stroke-linejoin="round"/>
    <path id="Vector_94" d="M66.6047 196.064C63.7283 196.528 59.2128 197.297 54.701 198.198" stroke="#30242A" stroke-width="4" stroke-linecap="round" stroke-linejoin="round"/>
    <path id="Vector_95" d="M127.159 216.887C123.158 214.849 114.726 210.798 108.799 209.669" stroke="#30242A" stroke-width="4" stroke-linecap="round" stroke-linejoin="round"/>
    <path
      id="Vector_96"
      d="M306.247 167.556C306.247 167.556 303.209 174.391 295.237 174.391C287.265 174.391 284.211 167.556 284.211 167.556C284.211 167.556 261.787 218.82 283.824 245.782H306.607C328.632 218.82 306.247 167.556 306.247 167.556Z"
      fill="#3EC1F3"/>
    <path id="Vector_97" d="M295.217 174.391C303.189 174.391 306.228 167.556 306.228 167.556H284.191C284.191 167.556 287.242 174.391 295.217 174.391Z" fill="#30242A"/>
    <path id="Vector_98" d="M315.812 213.195C303.417 213.415 288.749 217.892 277.46 233.685" stroke="#F5EBDD" stroke-width="4" stroke-linecap="round" stroke-linejoin="round"/>
    <path id="Vector_99" d="M275.477 200.649C283.797 198.62 299.551 196.687 314.822 200.321" stroke="#F5EBDD" stroke-width="4" stroke-linecap="round" stroke-linejoin="round"/>
    <path id="Vector_100" d="M314.753 226.355C309.209 226.42 298.96 232.703 300.089 245.364" stroke="#F5EBDD" stroke-width="4" stroke-linecap="round" stroke-linejoin="round"/>
    <path id="Vector_101" d="M293.822 172.118C293.59 166.608 292.125 144.715 283.426 131.872" stroke="#30242A" stroke-width="4" stroke-miterlimit="10" stroke-linecap="round"/>
    <path id="Vector_102" d="M292.009 155.283C293.121 153.398 287.226 147.86 278.842 142.914C270.458 137.967 262.76 135.485 261.648 137.37C260.536 139.255 266.431 144.793 274.815 149.74C283.199 154.686 290.897 157.168 292.009 155.283Z" fill="#30242A"/>
    <path id="Vector_103" d="M288.753 100.646C290.385 99.7155 289.546 95.1688 286.879 90.4908C284.212 85.8128 280.727 82.775 279.094 83.7057C277.462 84.6364 278.301 89.1831 280.968 93.861C283.635 98.539 287.121 101.577 288.753 100.646Z" fill="#30242A"/>
    <path
      id="Vector_104"
      d="M260.04 120.479C260.918 118.526 265.047 118.383 270.065 119.879C266.972 114.347 266.025 109.201 268.07 107.875C270.115 106.549 274.437 109.483 278.23 114.575C278.899 109.383 280.708 105.683 282.869 105.66C285.599 105.66 287.833 111.679 287.86 119.125C287.877 121.255 287.688 123.381 287.296 125.473C286.106 124.928 284.798 124.689 283.492 124.778C282.186 124.867 280.923 125.28 279.818 125.981C278.712 126.682 277.799 127.649 277.162 128.792C276.525 129.936 276.184 131.22 276.169 132.529C274.168 132.038 272.216 131.363 270.339 130.511C263.523 127.461 258.923 122.972 260.04 120.479Z"
      fill="#4756DF"/>
    <path
      id="Vector_105"
      d="M279.73 126.034C280.839 125.313 282.113 124.884 283.432 124.788C284.752 124.691 286.074 124.929 287.277 125.481C286.612 128.941 285.409 131.508 283.963 132.343C282.587 133.345 279.672 133.383 276.15 132.537C276.165 131.242 276.499 129.97 277.124 128.836C277.748 127.701 278.643 126.739 279.73 126.034Z"
      fill="#30242A"/>
    <path id="Vector_106" d="M296.721 171.785C297.788 165.7 303.344 135.865 312.236 118.986" stroke="#30242A" stroke-width="4" stroke-miterlimit="10" stroke-linecap="round"/>
    <path
      id="Vector_107"
      d="M342.249 160.333C342.888 158.358 334.347 153.823 323.171 150.202C311.995 146.582 302.417 145.247 301.777 147.222C301.138 149.196 309.679 153.732 320.855 157.352C332.031 160.973 341.609 162.307 342.249 160.333Z"
      fill="#30242A"/>
    <path
      id="Vector_108"
      d="M310.562 92.8322C312.696 92.6388 314.846 96.1686 316.001 101.276C319.295 95.8631 323.324 92.5151 325.485 93.6479C327.646 94.7807 327.205 99.9844 324.627 105.787C329.483 103.827 333.608 103.58 334.679 105.443C336.024 107.817 331.868 112.723 325.4 116.396C323.555 117.453 321.613 118.331 319.601 119.017C319.491 117.714 319.057 116.459 318.339 115.366C317.622 114.273 316.643 113.376 315.491 112.757C314.339 112.138 313.051 111.816 311.744 111.82C310.436 111.824 309.15 112.154 308.003 112.781C307.45 110.794 307.081 108.761 306.901 106.707C306.185 99.2924 307.844 93.0796 310.562 92.8322Z"
      fill="#4756DF"/>
    <path
      id="Vector_109"
      d="M315.383 112.712C316.555 113.325 317.554 114.225 318.286 115.327C319.018 116.429 319.459 117.699 319.57 119.017C316.226 120.135 313.384 120.347 311.961 119.497C310.415 118.789 308.95 116.265 307.96 112.781C309.096 112.158 310.368 111.825 311.663 111.813C312.958 111.801 314.236 112.11 315.383 112.712Z"
      fill="#30242A"/>
    <path
      id="Vector_110"
      d="M333.611 128.226V128.257C331.793 129.007 330.322 130.411 329.488 132.192C328.654 133.973 328.517 136.002 329.105 137.879C329.694 139.755 330.964 141.344 332.665 142.33C334.367 143.316 336.376 143.629 338.297 143.207V143.238C328.11 146.428 318.8 145.654 317.501 141.506C316.202 137.358 323.424 131.416 333.611 128.226Z"
      fill="#4756DF"/>
    <path
      id="Vector_111"
      d="M331.187 141.228C332.081 140.87 332.806 140.187 333.218 139.317C333.629 138.447 333.697 137.454 333.407 136.536C333.117 135.618 332.491 134.844 331.654 134.368C330.817 133.893 329.832 133.751 328.895 133.971C329.152 132.704 329.717 131.519 330.541 130.522C331.365 129.526 332.423 128.748 333.619 128.257L338.305 143.207C337.047 143.485 335.74 143.45 334.499 143.105C333.258 142.76 332.121 142.115 331.187 141.228Z"
      fill="#FFB7D5"/>
    <path
      id="Vector_112"
      d="M333.391 136.55C333.678 137.464 333.611 138.452 333.202 139.319C332.794 140.186 332.075 140.867 331.187 141.228C330.222 140.311 329.506 139.165 329.105 137.895C328.704 136.626 328.632 135.276 328.895 133.971C329.831 133.757 330.814 133.903 331.647 134.381C332.48 134.859 333.103 135.633 333.391 136.55Z"
      fill="#30242A"/>
  </g>
</svg>
