<svg width="457" height="318" viewBox="0 0 457 318" fill="none" xmlns="http://www.w3.org/2000/svg">
  <g id="Jenga">
    <path id="Vector" d="M302.965 281.829V288.344H361.443V281.829H302.965Z" fill="#A15842"/>
    <path
      id="Vector_2"
      d="M371.074 311.888L355.865 221.352H308.544L293.335 311.888C293.266 312.317 293.291 312.755 293.408 313.174C293.525 313.592 293.732 313.98 294.013 314.31C294.295 314.641 294.645 314.907 295.039 315.089C295.433 315.272 295.862 315.367 296.296 315.367C296.982 315.369 297.647 315.135 298.181 314.705C298.715 314.275 299.085 313.675 299.23 313.005L319.145 221.333H345.26L365.174 313.005C365.321 313.675 365.692 314.275 366.226 314.705C366.761 315.134 367.426 315.368 368.112 315.367C368.547 315.367 368.976 315.272 369.37 315.089C369.764 314.907 370.114 314.641 370.395 314.31C370.677 313.98 370.883 313.592 371 313.174C371.117 312.755 371.142 312.317 371.074 311.888Z"
      fill="#A15842"/>
    <path id="Vector_3" d="M351.411 281.829V288.344H409.889V281.829H351.411Z" fill="#CA7358"/>
    <path
      id="Vector_4"
      d="M419.52 311.888L404.31 221.352H356.99L341.777 311.888C341.709 312.317 341.734 312.756 341.852 313.174C341.969 313.592 342.176 313.98 342.458 314.311C342.74 314.641 343.09 314.907 343.484 315.089C343.878 315.272 344.308 315.367 344.742 315.367C345.428 315.369 346.093 315.135 346.627 314.705C347.161 314.275 347.531 313.675 347.676 313.005L367.59 221.333H393.69L413.605 313.005C413.751 313.675 414.122 314.275 414.657 314.705C415.191 315.134 415.857 315.368 416.543 315.367C416.978 315.369 417.409 315.276 417.805 315.094C418.201 314.913 418.553 314.647 418.836 314.316C419.119 313.985 419.327 313.597 419.445 313.177C419.563 312.758 419.589 312.318 419.52 311.888Z"
      fill="#CA7358"/>
    <path
      id="Vector_5"
      d="M371.723 206.758L377.522 184.072H339.074C331.538 184.071 324.215 186.578 318.261 191.198C312.306 195.818 308.058 202.287 306.185 209.588L302.258 224.975H348.264C353.642 224.975 358.867 223.184 363.115 219.886C367.363 216.587 370.391 211.968 371.723 206.758Z"
      fill="#FFB7D5"/>
    <path
      id="Vector_6"
      d="M394.011 224.975H302.258L303.804 218.816H344.081L359.441 158.745C361.533 150.562 366.29 143.308 372.961 138.128C379.632 132.948 387.838 130.136 396.284 130.136C416.952 130.136 432.076 149.617 426.958 169.639L417.467 206.754C416.136 211.964 413.108 216.584 408.861 219.883C404.614 223.182 399.389 224.974 394.011 224.975Z"
      fill="#FFB7D5"/>
    <path id="Vector_7" d="M304.755 218.217H353.568" stroke="#A15842" stroke-width="4" stroke-linecap="round" stroke-linejoin="round"/>
    <path id="Vector_8" d="M344.259 217.993L352.81 184.547" stroke="#A15842" stroke-width="4" stroke-linecap="round" stroke-linejoin="round"/>
    <path
      id="Vector_9"
      d="M276.966 52.2809C274.403 45.7589 269.756 38.22 267.231 40.3812C266.62 40.907 266.253 41.8 266.071 42.9482C265.58 46.1841 266.612 51.4536 267.942 56.2475L263.953 57.9911C263.926 58.1117 263.893 58.2305 263.852 58.3468C263.121 60.5041 260.721 60.7245 260.721 60.7245C260.721 60.7245 263.539 62.4719 262.286 65.3367C261.034 68.2015 256.963 67.2697 256.963 67.2697C259.584 70.0688 259.224 72.0482 257.55 73.3897C257.208 73.6357 256.809 73.79 256.391 73.8382C256.503 77.364 256.727 81.4002 257.137 85.6375L283.936 77.1321C281.725 67.9695 278.976 57.3958 276.966 52.2809Z"
      fill="#A15842"/>
    <path id="Vector_10" d="M267.359 57.0169C267.614 57.8249 267.846 58.5131 267.95 58.7721C267.95 58.7721 265.789 63.8212 266.868 69.2298" stroke="#30242A" stroke-width="4" stroke-linecap="round" stroke-linejoin="round"/>
    <path
      id="Vector_11"
      d="M257.55 73.4053C259.224 72.0637 259.584 70.0843 256.963 67.2853C256.963 67.2853 261.034 68.2054 262.286 65.3522C263.539 62.4991 260.72 60.74 260.72 60.74C260.72 60.74 263.713 60.4771 264.034 57.5505"
      stroke="#30242A"
      stroke-width="8"
      stroke-linecap="round"
      stroke-linejoin="round"/>
    <path
      id="Vector_12"
      d="M254.086 45.2911C255.656 45.7628 262.657 45.8401 263.636 50.3866C264.099 52.5284 261.235 53.379 261.235 53.379C261.235 53.379 264.328 54.8906 264.034 57.5388C264.016 57.6924 263.989 57.8447 263.953 57.995L267.95 56.2476C266.62 51.4536 265.588 46.1958 266.079 42.9483L261.335 32.5099L256.255 21.3253L245.43 26.2468L250.51 37.4314L252.18 41.1042L254.086 45.2911Z"
      fill="#EAA58B"/>
    <path
      id="Vector_13"
      d="M261.235 53.379C261.235 53.379 264.099 52.5284 263.635 50.3866C262.657 45.8401 255.656 45.7473 254.086 45.2911L252.192 41.1042C252.111 41.1042 248.616 41.6532 247.205 43.8375C244.993 47.2628 247.688 49.7178 247.688 49.7178C247.688 49.7178 242.237 51.5813 245.009 56.7231C245.009 56.7231 241.881 60.6356 245.782 63.7633C245.782 63.7633 242.828 66.3999 246.683 69.949C249.872 72.8949 254.125 74.2287 256.402 73.8421C256.821 73.794 257.22 73.6396 257.562 73.3937C259.236 72.0521 259.595 70.0727 256.974 67.2737C256.974 67.2737 261.045 68.1938 262.298 65.3406C263.55 62.4875 260.732 60.7284 260.732 60.7284C260.732 60.7284 263.133 60.508 263.864 58.3507C263.904 58.2344 263.938 58.1156 263.964 57.9951C264 57.8448 264.027 57.6924 264.045 57.5389C264.327 54.8983 261.235 53.379 261.235 53.379Z"
      fill="#A15842"/>
    <path id="Vector_14" d="M261.424 53.3287C257.376 52.9421 251.651 51.9717 247.352 49.6675" stroke="#30242A" stroke-width="4" stroke-linecap="round" stroke-linejoin="round"/>
    <path id="Vector_15" d="M261.857 61.548C257.883 61.2387 251.241 60.0518 245.314 57.2953" stroke="#30242A" stroke-width="4" stroke-linecap="round" stroke-linejoin="round"/>
    <path id="Vector_16" d="M258.803 68.36C256.344 67.8226 249.961 66.3148 245.728 64.3702" stroke="#30242A" stroke-width="4" stroke-linecap="round" stroke-linejoin="round"/>
    <path
      id="Vector_17"
      d="M390.543 113.218C390.553 112.672 390.534 112.127 390.489 111.583L389.878 108.15C387.427 99.4936 378.895 92.9174 375.759 82.5679L365.062 82.6723V82.4713L351.221 88.6995L345.848 77.4686H345.751L340.787 88.6995L335.077 82.6298V82.6723C335.077 82.6723 317.722 83.2909 287.795 93.7447C287.795 93.7447 286.124 86.1092 283.959 77.1631L257.16 85.6685C258.741 101.964 263.121 121.182 274.812 125.489C288.514 130.534 321.688 120.8 321.688 120.8L326.374 157.937H388.03V151.075C388.03 151.075 393.079 148.562 393.079 142.782C393.068 132.328 390.18 130.886 390.543 113.218Z"
      fill="#3EC1F3"/>
    <path id="Vector_18" d="M345.747 77.4684H335.746L335.073 82.6296L340.783 88.6993L345.747 77.4684Z" fill="#F5EBDD"/>
    <path id="Vector_19" d="M345.867 77.4684L351.241 88.6993L365.081 82.4711C365.135 81.8989 365.309 80.1514 365.541 77.681V77.4684H345.867Z" fill="#F5EBDD"/>
    <path id="Vector_20" d="M319.512 109.251L320.877 120.359" stroke="#4756DF" stroke-width="4" stroke-linecap="round" stroke-linejoin="round"/>
    <path id="Vector_21" d="M345.654 100.599C347.348 100.599 348.72 99.2265 348.72 97.5333C348.72 95.8401 347.348 94.4675 345.654 94.4675C343.961 94.4675 342.589 95.8401 342.589 97.5333C342.589 99.2265 343.961 100.599 345.654 100.599Z" fill="#30242A"/>
    <path id="Vector_22" d="M265.607 95.55C267.3 95.55 268.673 94.1774 268.673 92.4842C268.673 90.791 267.3 89.4184 265.607 89.4184C263.914 89.4184 262.541 90.791 262.541 92.4842C262.541 94.1774 263.914 95.55 265.607 95.55Z" fill="#30242A"/>
    <path id="Vector_23" d="M288.556 93.9301L289.944 100.595" stroke="#4756DF" stroke-width="4" stroke-linecap="round" stroke-linejoin="round"/>
    <path
      id="Vector_24"
      d="M345.751 77.4684H345.871L345.836 77.3949H365.553V77.4684H365.58C365.742 75.7248 365.94 73.6448 366.148 71.3986C362.762 70.262 354.299 66.8676 351.33 60.5968C356.329 58.9305 362.155 51.8479 357.995 46.014C352.474 38.2818 342.998 48.5153 342.998 48.5153C342.998 48.5153 337.164 44.7652 334.249 36.8514C333.001 37.265 329.251 37.6826 326.335 36.8514C326.335 36.8514 325.083 40.1839 324.252 46.014C324.136 46.8181 324.007 47.5913 323.865 48.3336C323.865 48.3336 320.088 48.1055 319.674 49.7718C319.156 51.8324 322.462 54.0245 322.462 54.0245C321.167 58.6638 320.092 62.2554 321.754 66.4153C323.223 70.0842 326.339 74.3291 336.337 73.0804L335.776 77.3833H345.797L345.751 77.4684Z"
      fill="#A15842"/>
    <path
      id="Vector_25"
      d="M334.234 36.8515C337.149 44.7653 342.983 48.5154 342.983 48.5154C342.983 48.5154 352.459 38.2858 357.979 46.0141C362.143 51.848 356.313 58.9306 351.314 60.5969C354.283 66.8677 362.746 70.2621 366.133 71.3987C366.864 63.4539 367.745 53.3944 367.977 48.5154C368.364 40.5629 367.59 28.8989 354.647 23.1037C342.565 17.6912 331.319 26.0187 331.319 26.0187C331.319 26.0187 321.047 23.0612 320.494 29.7688C320.076 34.7676 326.328 36.8515 326.328 36.8515C329.235 37.6827 332.993 37.2651 334.234 36.8515Z"
      fill="#EAA58B"/>
    <path id="Vector_26" d="M336.592 73.842C338.579 73.4979 341.363 72.7672 343.605 71.2285" stroke="#30242A" stroke-width="4" stroke-miterlimit="10" stroke-linecap="round"/>
    <path id="Vector_27" d="M325.837 57.8751C326.529 58.3043 329.107 58.6483 330.155 56.6534" stroke="#30242A" stroke-width="4" stroke-miterlimit="10" stroke-linecap="round"/>
    <path id="Vector_28" d="M330.901 48.1094C331.597 48.1094 332.162 47.5451 332.162 46.8491C332.162 46.153 331.597 45.5887 330.901 45.5887C330.205 45.5887 329.641 46.153 329.641 46.8491C329.641 47.5451 330.205 48.1094 330.901 48.1094Z" fill="#30242A"/>
    <path id="Vector_29" d="M352.563 51.0128L347.982 53.9278" stroke="#30242A" stroke-width="4" stroke-miterlimit="10" stroke-linecap="round"/>
    <path
      id="Vector_30"
      d="M326.363 157.925C326.363 157.925 295.353 169.466 283.836 175.593C263.817 186.229 261.378 191.912 249.041 229.367C244.92 241.784 242.14 251.906 239.515 259.8L272.852 275.037L272.895 274.952L278.307 277.484C278.307 277.484 287.041 266.11 288.44 253.236C290.25 236.612 289.167 225.373 296.764 218.859L384.702 157.914L326.363 157.925Z"
      fill="#30242A"/>
    <path
      id="Vector_31"
      d="M234.137 272.732L241.409 276.123C246.435 278.473 246.049 281.872 245.453 283.182C244.905 284.215 244.301 285.218 243.644 286.186L261.776 294.757C265.839 288.401 269.538 281.818 272.852 275.04L239.515 259.8C237.76 265.108 236.082 269.404 234.137 272.732Z"
      fill="#A15842"/>
    <path
      id="Vector_32"
      d="M241.409 276.123L234.137 272.732C232.204 276.022 230.039 278.365 227.267 279.784C225.191 280.811 222.914 281.368 220.598 281.416C219.991 281.439 219.408 281.477 218.832 281.516C220.378 284.284 221.082 288.525 221.082 288.525C225.381 289.685 230.534 288.239 234.226 286.759C235.618 286.198 236.797 285.63 237.636 285.212C238.22 284.911 238.864 284.749 239.52 284.737C240.177 284.724 240.827 284.863 241.421 285.143L243.663 286.202C244.32 285.234 244.924 284.231 245.473 283.198C246.06 281.872 246.455 278.474 241.409 276.123Z"
      fill="#FF7235"/>
    <path
      id="Vector_33"
      d="M243.644 286.186L241.402 285.127C240.808 284.848 240.157 284.709 239.501 284.721C238.845 284.733 238.2 284.896 237.617 285.197C236.778 285.63 235.599 286.198 234.207 286.743C230.534 288.224 225.381 289.673 221.062 288.51C221.062 288.51 220.359 284.257 218.812 281.501C218.426 281.528 218.081 281.559 217.726 281.593C210.732 282.262 206.572 284.157 204.098 286.975L251.453 309.05C253.421 306.665 256.205 303.073 259.445 298.291C260.218 297.174 260.991 296.002 261.764 294.757L243.644 286.186Z"
      fill="#30242A"/>
    <path id="Vector_34" d="M201.801 290.926L248.357 312.576C248.357 312.576 249.517 311.386 251.45 309.031L204.098 286.975C203.087 288.133 202.308 289.475 201.801 290.926Z" fill="#FF7235"/>
    <path id="Vector_35" d="M362.607 157.925C362.607 157.925 324.646 168.325 306.232 179.575C287.114 191.239 286.901 200.75 289.693 231.968" stroke="black" stroke-width="4" stroke-linecap="round" stroke-linejoin="round"/>
    <path id="Vector_36" d="M353.472 218.897L352.033 224.561" stroke="#A15842" stroke-width="4" stroke-linecap="round" stroke-linejoin="round"/>
    <path id="Vector_37" d="M423.258 183.298H399.099" stroke="#A15842" stroke-width="4" stroke-linecap="round" stroke-linejoin="round"/>
    <path id="Vector_38" d="M139.059 281.829V288.344H197.537V281.829H139.059Z" fill="#A15842"/>
    <path
      id="Vector_39"
      d="M129.429 311.888L144.638 221.352H191.962L207.172 311.888C207.24 312.317 207.215 312.756 207.098 313.175C206.98 313.593 206.774 313.981 206.492 314.312C206.21 314.643 205.859 314.909 205.465 315.091C205.07 315.273 204.641 315.367 204.206 315.368C203.521 315.367 202.857 315.133 202.323 314.704C201.789 314.274 201.418 313.675 201.272 313.005L181.358 221.352H155.242L135.328 313.025C135.182 313.694 134.811 314.293 134.277 314.723C133.744 315.153 133.079 315.387 132.394 315.387C131.957 315.387 131.526 315.292 131.13 315.109C130.734 314.926 130.382 314.658 130.1 314.325C129.818 313.992 129.611 313.602 129.495 313.181C129.379 312.76 129.357 312.319 129.429 311.888Z"
      fill="#A15842"/>
    <path id="Vector_40" d="M90.6131 281.829V288.344H149.091V281.829H90.6131Z" fill="#CA7358"/>
    <path
      id="Vector_41"
      d="M80.9827 311.888L96.1918 221.352H143.516L158.726 311.888C158.794 312.317 158.769 312.756 158.652 313.175C158.535 313.593 158.328 313.981 158.046 314.312C157.764 314.643 157.414 314.909 157.019 315.091C156.624 315.273 156.195 315.367 155.76 315.368C155.075 315.367 154.411 315.133 153.877 314.704C153.343 314.274 152.972 313.675 152.826 313.005L132.912 221.352H106.796L86.8823 313.025C86.7359 313.694 86.3651 314.293 85.8314 314.723C85.2977 315.153 84.6331 315.387 83.9479 315.387C83.5114 315.387 83.08 315.292 82.6838 315.109C82.2876 314.926 81.9362 314.658 81.6539 314.325C81.3717 313.992 81.1654 313.602 81.0495 313.181C80.9335 312.76 80.9107 312.319 80.9827 311.888Z"
      fill="#CA7358"/>
    <path
      id="Vector_42"
      d="M128.783 206.758L122.984 184.072H161.432C168.968 184.071 176.291 186.577 182.246 191.197C188.201 195.817 192.449 202.287 194.321 209.588L198.248 224.955H152.242C146.866 224.957 141.643 223.17 137.395 219.875C133.148 216.58 130.118 211.965 128.783 206.758Z"
      fill="#3EC1F3"/>
    <path
      id="Vector_43"
      d="M106.491 224.975H198.245L196.698 218.816H156.421L141.058 158.745C138.965 150.562 134.208 143.308 127.537 138.128C120.866 132.948 112.66 130.136 104.214 130.136C83.5459 130.136 68.4218 149.617 73.5405 169.639L83.0355 206.754C84.3653 211.965 87.3928 216.585 91.6401 219.885C95.8875 223.184 101.113 224.975 106.491 224.975Z"
      fill="#3EC1F3"/>
    <path id="Vector_44" d="M195.747 218.217H146.934" stroke="#4756DF" stroke-width="4" stroke-miterlimit="10" stroke-linecap="round"/>
    <path id="Vector_45" d="M156.247 217.993L147.692 184.547" stroke="#4756DF" stroke-width="4" stroke-miterlimit="10" stroke-linecap="round"/>
    <path id="Vector_46" d="M147.22 219.678L148.469 224.561" stroke="#4756DF" stroke-width="4" stroke-linecap="round" stroke-linejoin="round"/>
    <path id="Vector_47" d="M77.2443 183.298H101.403" stroke="#4756DF" stroke-width="4" stroke-linecap="round" stroke-linejoin="round"/>
    <path
      id="Vector_48"
      d="M140.261 302.42L139.774 303.541L7.92159 305.161C6.88132 305.161 5.85122 305.366 4.89013 305.764C3.92904 306.162 3.05577 306.746 2.32018 307.481C1.5846 308.217 1.0011 309.09 0.603001 310.051C0.204904 311.012 0 312.042 0 313.083V315.762H134.493H163.338C167.301 312.155 149.633 305.664 140.261 302.42Z"
      fill="#EAA58B"/>
    <path id="Vector_49" d="M4.68961 315.375V312.514" stroke="#A15842" stroke-width="4" stroke-linecap="round" stroke-linejoin="round"/>
    <path id="Vector_50" d="M8.29279 315.375V312.514" stroke="#A15842" stroke-width="4" stroke-linecap="round" stroke-linejoin="round"/>
    <path
      id="Vector_51"
      d="M55.888 307.481C54.1715 299.586 52.2887 274.832 52.1109 272.466C51.8093 272.466 51.5077 272.489 51.2023 272.508C40.0216 273.227 33.171 287.652 31.3694 290.895C31.3694 290.895 24.7004 292.666 19.5546 295.036C20.3329 295.408 20.935 296.07 21.2325 296.88C21.9709 299.053 20.0263 301.678 16.8909 302.741C15.9557 303.065 14.9691 303.216 13.9797 303.185C15.3986 311.242 22.4851 315.773 37.501 315.773H63.5274C61.343 315.259 57.1947 313.492 55.888 307.481Z"
      fill="#EAA58B"/>
    <path
      id="Vector_52"
      d="M139.983 285.549C137.366 288.839 128.346 291.8 125.118 284.045C118.592 287.478 103.236 284.045 104.593 268.754C88.742 271.886 72.9684 281.706 72.1488 282.22C76.734 290.385 81.814 299.617 82.9313 302.436C84.8875 307.326 84.7793 314.459 80.1477 315.774H139.538C142.782 304.883 143.397 294.209 139.983 285.549Z"
      fill="#EAA58B"/>
    <path id="Vector_53" d="M125.118 284.045C128.346 291.8 137.366 288.838 139.983 285.548C137.277 278.713 132.096 273.119 123.676 269.624C118.074 267.304 111.331 267.42 104.593 268.754C103.236 284.045 118.592 287.478 125.118 284.045Z" fill="#30242A"/>
    <path
      id="Vector_54"
      d="M16.8908 302.741C20.0262 301.678 21.9708 299.052 21.2324 296.88C20.9349 296.07 20.3328 295.408 19.5545 295.036C16.3264 296.52 13.7013 298.241 13.7013 299.911C13.6989 301.008 13.7921 302.104 13.9796 303.185C14.969 303.216 15.9556 303.065 16.8908 302.741Z"
      fill="#30242A"/>
    <path
      id="Vector_55"
      d="M37.8605 315.387V313.094C37.8605 312.054 38.0653 311.025 38.4632 310.064C38.8611 309.104 39.4444 308.231 40.1796 307.496C40.9148 306.76 41.7877 306.177 42.7483 305.779C43.7089 305.381 44.7385 305.177 45.7783 305.177H57.7283"
      stroke="#A15842"
      stroke-width="4"
      stroke-linecap="round"
      stroke-linejoin="round"/>
    <path id="Vector_56" d="M42.5461 315.387V312.53" stroke="#A15842" stroke-width="4" stroke-linecap="round" stroke-linejoin="round"/>
    <path id="Vector_57" d="M46.1532 315.387V312.53" stroke="#A15842" stroke-width="4" stroke-linecap="round" stroke-linejoin="round"/>
    <path id="Vector_58" d="M95.5501 315.387V312.53" stroke="#A15842" stroke-width="4" stroke-linecap="round" stroke-linejoin="round"/>
    <path id="Vector_59" d="M99.1572 315.387V312.53" stroke="#A15842" stroke-width="4" stroke-linecap="round" stroke-linejoin="round"/>
    <path
      id="Vector_60"
      d="M90.5009 315.387V313.094C90.5009 312.054 90.7059 311.024 91.104 310.063C91.5021 309.102 92.0857 308.229 92.8213 307.494C93.557 306.759 94.4303 306.176 95.3914 305.778C96.3524 305.38 97.3824 305.176 98.4225 305.177H111.567"
      stroke="#A15842"
      stroke-width="4"
      stroke-linecap="round"
      stroke-linejoin="round"/>
    <path id="Vector_61" d="M95.1905 285.487C94.4676 289.094 95.9096 299.911 102.401 304.956" stroke="#A15842" stroke-width="4" stroke-linecap="round" stroke-linejoin="round"/>
    <path id="Vector_62" d="M27.7585 315.085C20.1191 313.771 15.7195 310.577 13.9102 305.807" stroke="#A15842" stroke-width="4" stroke-linecap="round" stroke-linejoin="round"/>
    <path id="Vector_63" d="M142.782 303.68C142.354 307.608 141.578 311.489 140.462 315.279" stroke="#A15842" stroke-width="4" stroke-linecap="round" stroke-linejoin="round"/>
    <path id="Vector_64" d="M41.8272 292.337C43.6174 293.931 45.9216 294.827 48.3183 294.862" stroke="#A15842" stroke-width="4" stroke-linecap="round" stroke-linejoin="round"/>
    <path
      id="Vector_65"
      d="M82.9312 302.435C81.7985 299.609 76.7455 290.385 72.1487 282.22L72.1139 282.243C67.9076 277.685 62.673 272.106 52.1109 272.466C52.2887 274.832 54.1715 299.586 55.888 307.481C57.1947 313.492 61.343 315.259 63.5274 315.773H80.1515C84.7908 314.459 84.8875 307.326 82.9312 302.435Z"
      fill="#30242A"/>
    <path id="Vector_66" d="M24.5187 260.852L30.4531 257.225L27.8165 266.458L34.7947 262.309" stroke="#FFB7D5" stroke-width="4" stroke-linecap="round" stroke-linejoin="round"/>
    <path id="Vector_67" d="M36.0396 242.994L42.2911 242.496L36.4108 248.848L43.447 248.357" stroke="#FFB7D5" stroke-width="4" stroke-linecap="round" stroke-linejoin="round"/>
    <path id="Vector_68" d="M345.654 100.599C347.348 100.599 348.72 99.2265 348.72 97.5333C348.72 95.8401 347.348 94.4675 345.654 94.4675C343.961 94.4675 342.589 95.8401 342.589 97.5333C342.589 99.2265 343.961 100.599 345.654 100.599Z" fill="#30242A"/>
    <path id="Vector_69" d="M389.878 108.15L390.489 111.583C390.4 110.421 390.195 109.271 389.878 108.15Z" fill="#A15842"/>
    <path id="Vector_70" d="M365.541 77.6818L365.565 77.4684H365.538L365.541 77.6818Z" fill="#3EC1F3"/>
    <path id="Vector_71" d="M335.757 77.3948H335.695L335.687 77.4685H335.746L335.757 77.3948Z" fill="#F5EBDD"/>
    <path id="Vector_72" d="M345.747 77.4683L345.778 77.3948H335.757L335.745 77.4683H345.747Z" fill="#F5EBDD"/>
    <path id="Vector_73" d="M335.687 77.4684L335.015 82.5678L335.073 82.6296L335.745 77.4684H335.687Z" fill="#F5EBDD"/>
    <path id="Vector_74" d="M365.534 77.3948H345.832L345.867 77.4683H365.537L365.534 77.3948Z" fill="#F5EBDD"/>
    <path id="Vector_75" d="M131.176 35.2586C140.912 35.2586 148.805 27.3657 148.805 17.6293C148.805 7.89291 140.912 0 131.176 0C121.44 0 113.547 7.89291 113.547 17.6293C113.547 27.3657 121.44 35.2586 131.176 35.2586Z" fill="#30242A"/>
    <path id="Vector_76" d="M143.35 29.3822C142.272 29.8771 151.326 8.39328 155.942 11.749C160.291 14.9154 148.805 26.8654 143.35 29.3822Z" fill="#3EC1F3"/>
    <path id="Vector_77" d="M142.848 30.6966C141.862 31.8757 118.77 23.7995 121.971 19.137C125.033 14.6524 143.834 29.5174 142.848 30.6966Z" fill="#3EC1F3"/>
    <path
      id="Vector_78"
      d="M174.7 41.7266C171.348 42.291 166.438 41.1389 166.438 41.1389C159.719 48.6932 152.582 50.3711 152.582 50.3711C147.966 45.3452 139.569 45.3452 138.313 52.4704C136.917 60.3688 146.706 62.5454 146.706 62.5454C146.706 62.5454 148.094 72.4193 144.317 77.4568C143.787 78.1605 143.3 78.779 142.813 79.3242H161.536L160.979 75.98C160.979 75.98 166.856 78.0793 171.893 75.1411C176.931 72.2028 178.191 66.7439 176.509 58.3468C175.516 53.3751 175.551 47.2241 174.7 41.7266Z"
      fill="#EAA58B"/>
    <path id="Vector_79" d="M168.437 148.55C160.145 153.24 155.815 162.251 155.815 162.251H184.659L176.08 145.047C172.663 146.524 169.458 147.963 168.437 148.55Z" fill="#FF7235"/>
    <path
      id="Vector_80"
      d="M128.091 84.095C115.426 85.5022 110.755 89.9946 101.535 101.059C99.2577 103.793 95.7357 108.447 93.532 111.355L93.6016 111.413C93.6016 111.413 77.5612 131.304 78.2997 146.428L100.796 152.71L116.152 132.699L120.482 146.041C120.482 146.041 110.748 151.809 105.339 162.279H155.814C155.814 162.279 160.144 153.267 168.437 148.577C169.466 147.99 172.663 146.559 176.08 145.075L174.921 142.755L178.52 131.621L186.469 140.621C186.469 140.621 181.056 142.89 176.084 145.047L184.663 162.252H214.954C231.899 151.075 218.917 130.886 213.512 123.672C209.789 118.712 192.596 93.7447 180.7 87.2574C172.767 82.9313 162.244 83.5344 162.244 83.5344L161.54 79.3242H142.813C140.246 82.1928 137.613 83.0356 128.091 84.095Z"
      fill="#FF7235"/>
    <path id="Vector_81" d="M186.445 139.817L192.956 137.373" stroke="#A15842" stroke-width="4" stroke-miterlimit="10" stroke-linecap="round"/>
    <path
      id="Vector_82"
      d="M127.673 143.045C127.774 135.962 128.941 118.02 137.787 108.884C147.545 98.8323 169.516 100.955 176.366 109.967C183.217 118.978 178.531 131.617 178.531 131.617L175.288 142.793L184.659 162.263H100.642L117.227 147.12L127.673 143.045Z"
      fill="#FFB7D5"/>
    <path id="Vector_83" d="M127.693 142.782H175.261" stroke="#F5EBDD" stroke-width="4" stroke-miterlimit="10" stroke-linecap="round"/>
    <path id="Vector_84" d="M148.245 127.638H166.632" stroke="#F5EBDD" stroke-width="4" stroke-miterlimit="10" stroke-linecap="round"/>
    <path
      id="Vector_85"
      d="M182.139 142.422L191.51 164.072H173.482C169.879 164.072 165.19 164.072 165.553 162.267C162.665 164.432 157.98 164.072 158.339 162.267C153.653 164.432 152.211 162.99 151.852 162.267C151.492 161.544 156.178 155.416 166.632 149.617C172.705 146.284 182.139 142.422 182.139 142.422Z"
      fill="#EAA58B"/>
    <path id="Vector_86" d="M156.178 163.693C156.178 163.693 161.59 158.281 173.482 151.798" stroke="#A15842" stroke-width="4" stroke-miterlimit="10" stroke-linecap="round"/>
    <path id="Vector_87" d="M176.73 155.764C170.59 159.608 164.69 163.822 159.062 168.383" stroke="#A15842" stroke-width="4" stroke-miterlimit="10" stroke-linecap="round"/>
    <path id="Vector_88" d="M180.333 160.09C170.618 165.139 159.793 171.99 159.793 171.99" stroke="#A15842" stroke-width="4" stroke-miterlimit="10" stroke-linecap="round"/>
    <path
      id="Vector_89"
      d="M127.768 83.4665L137.234 79.9611C137.256 79.9528 137.28 79.949 137.304 79.9499C137.328 79.9508 137.351 79.9564 137.373 79.9664C137.394 79.9764 137.414 79.9905 137.43 80.008C137.446 80.0255 137.459 80.046 137.467 80.0684L148.666 110.309C149.147 111.61 149.092 113.049 148.513 114.309C147.934 115.57 146.878 116.549 145.577 117.03C144.276 117.512 142.837 117.457 141.576 116.878C140.316 116.299 139.337 115.242 138.855 113.941L127.657 83.7013C127.648 83.6786 127.645 83.6545 127.646 83.6303C127.647 83.6062 127.653 83.5824 127.663 83.5606C127.673 83.5387 127.688 83.5191 127.706 83.503C127.724 83.4868 127.745 83.4744 127.768 83.4665Z"
      fill="#A15842"/>
    <path
      id="Vector_90"
      d="M169.369 118.302C170.053 118.38 170.745 118.323 171.407 118.134C172.068 117.945 172.686 117.627 173.225 117.198C173.764 116.77 174.212 116.24 174.546 115.637C174.879 115.035 175.091 114.374 175.168 113.69L178.292 86.1245C175.002 84.8453 171.547 84.0421 168.031 83.7391L164.761 112.503C164.682 113.186 164.739 113.878 164.928 114.54C165.117 115.201 165.435 115.819 165.863 116.358C166.291 116.896 166.821 117.345 167.422 117.679C168.024 118.012 168.685 118.224 169.369 118.302Z"
      fill="#A15842"/>
    <path id="Vector_91" d="M143.66 114.792C145.353 114.792 146.725 113.419 146.725 111.726C146.725 110.033 145.353 108.66 143.66 108.66C141.966 108.66 140.594 110.033 140.594 111.726C140.594 113.419 141.966 114.792 143.66 114.792Z" fill="#30242A"/>
    <path id="Vector_92" d="M170.057 115.743C171.75 115.743 173.123 114.37 173.123 112.677C173.123 110.984 171.75 109.611 170.057 109.611C168.364 109.611 166.991 110.984 166.991 112.677C166.991 114.37 168.364 115.743 170.057 115.743Z" fill="#30242A"/>
    <path
      id="Vector_93"
      d="M111.026 84.7948L129.564 79.3243H142.813C143.3 78.7791 143.787 78.1644 144.317 77.457C148.094 72.4311 146.706 62.5455 146.706 62.5455C146.706 62.5455 136.917 60.3689 138.313 52.4705C139.569 45.3376 147.978 45.3376 152.582 50.3712C152.582 50.3712 159.719 48.6934 166.439 41.139C166.439 41.139 171.348 42.2989 174.7 41.7267C174.113 37.9418 173.108 34.4701 171.055 31.903C166.029 25.6051 152.165 21.4105 141.251 29.3862C130.337 37.3619 131.176 50.3712 131.586 55.4087C131.586 55.4087 119.833 51.6316 111.44 60.4346C109.01 62.9554 107.241 66.0369 106.289 69.4056C105.337 72.7744 105.231 76.3262 105.981 79.7457C105.981 79.7457 90.5165 79.3088 87.5126 93.5978C85.9661 100.916 88.4056 106.023 91.4946 109.41L93.4277 105.474L111.026 84.7948Z"
      fill="#30242A"/>
    <path
      id="Vector_94"
      d="M128.091 84.095C137.617 83.0356 140.25 82.1928 142.817 79.3242H129.564L111.026 84.7947L93.4198 105.486L91.4868 109.422C92.1161 110.112 92.7931 110.758 93.5126 111.355C95.7008 108.447 99.2383 103.793 101.515 101.059C110.751 89.9946 115.422 85.5022 128.091 84.095Z"
      fill="#30242A"/>
    <path id="Vector_95" d="M160.678 76.7571C158.939 76.0648 157.243 75.2709 155.598 74.3795" stroke="#A15842" stroke-width="4" stroke-linecap="round" stroke-linejoin="round"/>
    <path id="Vector_96" d="M105.32 80.221C105.928 82.5324 106.751 84.7819 107.778 86.9402" stroke="black" stroke-width="4" stroke-linecap="round" stroke-linejoin="round"/>
    <path id="Vector_97" d="M130.805 55.7721L132.015 62.1279" stroke="black" stroke-width="4" stroke-linecap="round" stroke-linejoin="round"/>
    <path id="Vector_98" d="M116.744 133.059L125.168 121.147" stroke="#A15842" stroke-width="4" stroke-miterlimit="10" stroke-linecap="round"/>
    <path id="Vector_99" d="M146.706 67.374C149.14 67.374 151.113 65.4008 151.113 62.9667C151.113 60.5326 149.14 58.5594 146.706 58.5594C144.272 58.5594 142.299 60.5326 142.299 62.9667C142.299 65.4008 144.272 67.374 146.706 67.374Z" fill="#F5EBDD"/>
    <path id="Vector_100" d="M147.545 55.4087L144.189 53.3132" stroke="#A15842" stroke-width="4" stroke-linecap="round" stroke-linejoin="round"/>
    <path id="Vector_101" d="M169.021 65.2632C168.325 65.6962 165.723 66.0364 164.672 64.0299" stroke="#A15842" stroke-width="4" stroke-linecap="round" stroke-linejoin="round"/>
    <path
      id="Vector_102"
      d="M162.182 55.8222C162.878 55.8222 163.442 55.2579 163.442 54.5618C163.442 53.8658 162.878 53.3015 162.182 53.3015C161.486 53.3015 160.922 53.8658 160.922 54.5618C160.922 55.2579 161.486 55.8222 162.182 55.8222Z"
      fill="#30242A"/>
    <path id="Vector_103" d="M171.893 54.1521C172.59 54.1521 173.154 53.5878 173.154 52.8917C173.154 52.1957 172.59 51.6314 171.893 51.6314C171.197 51.6314 170.633 52.1957 170.633 52.8917C170.633 53.5878 171.197 54.1521 171.893 54.1521Z" fill="#30242A"/>
    <path id="Vector_104" d="M168.534 56.2514C168.534 56.2514 169.694 59.12 169.396 59.6922C169.199 60.0576 168.899 60.3573 168.534 60.5543" stroke="#A15842" stroke-width="4" stroke-linecap="round" stroke-linejoin="round"/>
    <path id="Vector_105" d="M233.53 311.525H226.626C227.108 312.888 227.311 314.334 227.221 315.777H256.367C256.885 310.059 253.085 303.823 242.14 298.848L241.912 298.74C238.908 300.993 236.21 304.724 233.53 311.525Z" fill="#3EC1F3"/>
    <path
      id="Vector_106"
      d="M241.622 298.6C232.517 294.085 234.161 284.168 236.813 261.675C236.184 260.579 235.24 259.698 234.104 259.145C232.968 258.592 231.692 258.393 230.442 258.574C229.192 258.755 228.024 259.308 227.092 260.161C226.16 261.014 225.506 262.128 225.214 263.357C224.882 261.982 224.098 260.758 222.986 259.882C221.874 259.007 220.5 258.531 219.085 258.531C217.67 258.531 216.296 259.007 215.184 259.882C214.072 260.758 213.287 261.982 212.955 263.357C212.623 261.982 211.838 260.758 210.726 259.882C209.615 259.007 208.241 258.531 206.825 258.531C205.41 258.531 204.036 259.007 202.925 259.882C201.813 260.758 201.028 261.982 200.696 263.357C200.364 261.982 199.579 260.758 198.467 259.882C197.355 259.007 195.981 258.531 194.566 258.531C193.151 258.531 191.777 259.007 190.665 259.882C189.553 260.758 188.768 261.982 188.436 263.357C188.105 261.982 187.32 260.758 186.208 259.882C185.096 259.007 183.722 258.531 182.307 258.531C180.892 258.531 179.518 259.007 178.406 259.882C177.294 260.758 176.509 261.982 176.177 263.357C175.945 262.39 175.487 261.491 174.84 260.735C174.194 259.978 173.377 259.386 172.458 259.006C171.538 258.626 170.541 258.47 169.55 258.549C168.558 258.629 167.599 258.942 166.752 259.464C166.79 261.455 166.868 263.535 166.991 265.735C167.579 276.146 169.93 290.072 171.948 300.587C181.783 301.113 185.769 308.374 187.025 311.525H203.584C203.735 311.138 203.881 310.778 204.032 310.415L204.125 310.195C204.268 309.858 204.407 309.53 204.55 309.209C204.585 309.124 204.624 309.046 204.659 308.965C204.786 308.679 204.914 308.405 205.045 308.134L205.161 307.89C205.282 307.633 205.402 307.389 205.521 307.16L205.683 306.831L206.046 306.131L206.255 305.745C206.325 305.613 206.398 305.486 206.468 305.358C206.592 305.138 206.719 304.921 206.854 304.709C206.909 304.624 206.959 304.539 207.009 304.454C207.299 303.978 207.589 303.53 207.883 303.108L207.937 303.027C208.103 302.791 208.269 302.563 208.436 302.339C209.446 300.965 210.646 299.741 212 298.705C212.309 298.875 212.63 299.037 212.971 299.192C221.024 302.849 225.207 307.198 226.653 311.509H233.53C236.21 304.709 238.908 300.978 241.908 298.72L241.622 298.6Z"
      fill="#F5EBDD"/>
    <path
      id="Vector_107"
      d="M226.626 311.525H226.653C225.207 307.214 221.024 302.865 212.971 299.207C212.63 299.053 212.309 298.89 212 298.72C210.69 299.722 209.526 300.901 208.54 302.223L208.47 302.316L208.44 302.354C208.273 302.579 208.107 302.807 207.941 303.042L207.887 303.124C207.593 303.545 207.303 303.994 207.013 304.469C206.963 304.554 206.912 304.639 206.858 304.724C206.735 304.937 206.607 305.153 206.472 305.374C206.402 305.497 206.329 305.625 206.259 305.76L206.05 306.147L205.687 306.847L205.525 307.175C205.406 307.41 205.286 307.653 205.165 307.906L205.049 308.15C204.925 308.42 204.798 308.695 204.662 308.981C204.628 309.062 204.589 309.139 204.554 309.224C204.411 309.545 204.272 309.874 204.129 310.21L204.036 310.431C203.885 310.794 203.738 311.161 203.588 311.54H187.045C185.773 308.389 181.787 301.129 171.967 300.603C173.649 309.383 175.102 315.789 175.102 315.789H227.221C227.312 314.342 227.11 312.891 226.626 311.525Z"
      fill="#3EC1F3"/>
    <path id="Vector_108" d="M114.351 178.906V172.334H102.026C100.998 178.207 101.241 184.231 102.737 190.002H103.24C106.184 190.002 109.008 188.834 111.091 186.753C113.174 184.673 114.347 181.851 114.351 178.906Z" fill="#A15842"/>
    <path
      id="Vector_109"
      d="M224.472 180.248L223.884 179.916C219.771 179.757 214.73 180.155 208.633 181.528L208.536 181.551C208.045 181.659 207.546 181.779 207.04 181.903L206.758 181.972C206.271 182.092 205.78 182.22 205.281 182.359L204.983 182.436C204.438 182.583 203.889 182.742 203.328 182.904L203.158 182.951C202.532 183.136 201.894 183.337 201.249 183.53C178.736 190.586 168.75 208.273 165.746 219.238H172.404C170.417 228.485 166.338 238.297 166.752 259.464C167.599 258.941 168.559 258.626 169.551 258.546C170.544 258.465 171.542 258.621 172.462 259.001C173.383 259.381 174.201 259.974 174.848 260.731C175.495 261.489 175.953 262.389 176.185 263.357C176.517 261.982 177.302 260.758 178.413 259.882C179.525 259.007 180.899 258.531 182.314 258.531C183.73 258.531 185.104 259.007 186.215 259.882C187.327 260.758 188.112 261.982 188.444 263.357C188.776 261.982 189.561 260.758 190.673 259.882C191.785 259.007 193.159 258.531 194.574 258.531C195.989 258.531 197.363 259.007 198.475 259.882C199.586 260.758 200.371 261.982 200.703 263.357C201.035 261.982 201.82 260.758 202.932 259.882C204.044 259.007 205.418 258.531 206.833 258.531C208.248 258.531 209.622 259.007 210.734 259.882C211.846 260.758 212.631 261.982 212.963 263.357C213.295 261.982 214.08 260.758 215.191 259.882C216.303 259.007 217.677 258.531 219.092 258.531C220.507 258.531 221.881 259.007 222.993 259.882C224.105 260.758 224.89 261.982 225.222 263.357C225.513 262.128 226.168 261.014 227.1 260.161C228.032 259.308 229.199 258.755 230.45 258.574C231.7 258.393 232.976 258.592 234.112 259.145C235.248 259.698 236.192 260.579 236.82 261.675C237.45 256.321 238.139 250.255 238.753 243.381C242.295 203.626 244.993 191.966 224.472 180.248Z"
      fill="#EAA58B"/>
    <path
      id="Vector_110"
      d="M227.24 315.506C227.433 309.974 223.521 304.001 212.97 299.207C201.028 293.795 206.34 280.035 209.58 243.74C213.199 203.209 215.94 191.881 194.077 179.919C174.967 169.481 155.497 162.615 155.497 162.615"
      stroke="#30242A"
      stroke-width="4"
      stroke-miterlimit="10"
      stroke-linecap="round"/>
    <path id="Vector_111" d="M201.249 183.526C177.731 190.914 168.615 208.32 165.731 219.233C168.75 208.277 178.736 190.597 201.249 183.526Z" fill="#A15842"/>
    <path
      id="Vector_112"
      d="M188.266 180.283C196.339 176.481 205.186 174.612 214.107 174.824C204.522 170.113 194.692 165.916 184.659 162.251H105.339C105.339 162.251 103.174 165.859 102.057 172.156C102.057 172.222 102.037 172.284 102.026 172.35H114.351V178.922C114.351 180.381 114.063 181.826 113.505 183.174C112.947 184.522 112.128 185.747 111.096 186.779C110.065 187.81 108.84 188.629 107.492 189.187C106.144 189.746 104.699 190.033 103.24 190.033H102.737C107.056 206.595 121.48 219.249 139.971 219.249H155.737C158.942 207.38 166.087 190.698 188.266 180.283Z"
      fill="#FFB7D5"/>
    <path
      id="Vector_113"
      d="M201.249 183.526C210.786 180.53 218.217 179.699 223.884 179.916L223.243 179.56C220.181 177.886 217.107 176.301 214.107 174.824C205.186 174.612 196.339 176.481 188.266 180.283C166.087 190.698 158.942 207.38 155.737 219.234H165.731C168.615 208.32 177.731 190.915 201.249 183.526Z"
      fill="#A15842"/>
    <path id="Vector_114" d="M172.937 220.231H181.497" stroke="#A15842" stroke-width="4" stroke-linecap="round" stroke-linejoin="round"/>
    <path id="Vector_115" d="M205.091 140.98V159.367" stroke="#30242A" stroke-width="4" stroke-miterlimit="10" stroke-linecap="round"/>
    <path id="Vector_116" d="M214.393 116.369C214.393 116.369 211.737 122.013 205.091 122.013C198.446 122.013 195.813 116.369 195.813 116.369" stroke="#30242A" stroke-width="4" stroke-linecap="round" stroke-linejoin="round"/>
    <path
      id="Vector_117"
      d="M197.042 128.721H213.145V130.403C213.145 132.539 212.296 134.587 210.786 136.097C209.276 137.607 207.227 138.456 205.091 138.456C202.956 138.456 200.907 137.607 199.397 136.097C197.887 134.587 197.038 132.539 197.038 130.403V128.721H197.042Z"
      fill="#A15842"/>
    <path
      id="Vector_118"
      d="M196.81 115.739H213.377C213.615 115.739 213.85 115.785 214.07 115.877C214.29 115.968 214.49 116.101 214.659 116.27C214.827 116.438 214.961 116.638 215.052 116.858C215.143 117.078 215.19 117.314 215.19 117.552V130.522C215.19 133.2 214.126 135.767 212.233 137.66C210.34 139.553 207.773 140.617 205.095 140.617V140.617C203.77 140.617 202.457 140.356 201.232 139.848C200.008 139.341 198.895 138.598 197.958 137.66C197.02 136.723 196.277 135.61 195.769 134.385C195.262 133.161 195.001 131.848 195.001 130.522V117.552C195.001 117.071 195.192 116.61 195.532 116.27C195.872 115.93 196.333 115.739 196.814 115.739H196.81Z"
      stroke="#30242A"
      stroke-width="4"
      stroke-miterlimit="10"
      stroke-linecap="round"/>
    <path id="Vector_119" d="M205.092 157.566L197.042 162.251H213.145L205.092 157.566Z" fill="#30232A"/>
    <path id="Vector_120" d="M300.97 140.98V159.367" stroke="#30242A" stroke-width="4" stroke-miterlimit="10" stroke-linecap="round"/>
    <path id="Vector_121" d="M310.272 116.369C310.272 116.369 307.616 122.013 300.97 122.013C294.324 122.013 291.692 116.369 291.692 116.369" stroke="#30242A" stroke-width="4" stroke-linecap="round" stroke-linejoin="round"/>
    <path
      id="Vector_122"
      d="M292.921 128.721H309.023V130.403C309.023 132.539 308.175 134.587 306.665 136.097C305.154 137.607 303.106 138.456 300.97 138.456C298.834 138.456 296.786 137.607 295.276 136.097C293.766 134.587 292.917 132.539 292.917 130.403V128.721H292.921Z"
      fill="#FF7235"/>
    <path
      id="Vector_123"
      d="M292.689 115.739H309.255C309.493 115.739 309.729 115.785 309.949 115.877C310.169 115.968 310.369 116.101 310.537 116.27C310.706 116.438 310.839 116.638 310.93 116.858C311.022 117.078 311.068 117.314 311.068 117.552V130.522C311.068 133.2 310.005 135.767 308.112 137.66C306.219 139.553 303.651 140.617 300.974 140.617V140.617C298.297 140.617 295.729 139.553 293.836 137.66C291.943 135.767 290.88 133.2 290.88 130.522V117.552C290.88 117.071 291.071 116.61 291.411 116.27C291.751 115.93 292.212 115.739 292.693 115.739H292.689Z"
      stroke="#30242A"
      stroke-width="4"
      stroke-miterlimit="10"
      stroke-linecap="round"/>
    <path id="Vector_124" d="M300.97 157.566L292.921 162.251H309.023L300.97 157.566Z" fill="#30232A"/>
    <path id="Vector_125" d="M442.554 315.777C450.52 315.777 456.978 309.319 456.978 301.353C456.978 293.387 450.52 286.929 442.554 286.929C434.587 286.929 428.129 293.387 428.129 301.353C428.129 309.319 434.587 315.777 442.554 315.777Z" fill="#FFB7D5"/>
    <path id="Vector_126" d="M103.174 139.179C103.174 139.179 120.123 137.787 127.434 137.447" stroke="#A15842" stroke-width="4" stroke-miterlimit="10" stroke-linecap="round"/>
    <path
      id="Vector_127"
      d="M83.0472 206.758L77.2481 184.072H111.08C118.617 184.071 125.939 186.578 131.894 191.198C137.848 195.818 142.096 202.287 143.969 209.588L147.897 224.955H106.503C101.128 224.956 95.9051 223.168 91.6583 219.874C87.4115 216.579 84.3819 211.964 83.0472 206.758Z"
      fill="#3EC1F3"/>
    <path id="Vector_128" d="M388.266 151.075H322.396V157.925H388.266V151.075Z" fill="#F5EBDD"/>
    <path id="Vector_129" d="M254.867 138.456H241.525H228.184V150.356H241.525H254.867H268.209V138.456H254.867Z" fill="#EAA58B"/>
    <path id="Vector_130" d="M254.867 150.355H241.525H228.184V162.251H241.525H254.867H268.209V150.355H254.867Z" fill="#EAA58B"/>
    <path id="Vector_131" d="M254.867 126.556H241.525H228.184V138.456H241.525H254.867H268.209V126.556H254.867Z" fill="#EAA58B"/>
    <path id="Vector_132" d="M254.867 102.76H241.525H228.184V114.66H241.525H254.867H268.209V102.76H254.867Z" fill="#EAA58B"/>
    <path id="Vector_133" d="M254.867 78.9647H241.525H228.184V90.8606H241.525H254.867H268.209V78.9647H254.867Z" fill="#EAA58B"/>
    <path id="Vector_134" d="M254.867 114.66H241.525V126.56H254.867V114.66Z" fill="#EAA58B"/>
    <path id="Vector_135" d="M254.867 90.8605H241.525V102.76H254.867V90.8605Z" fill="#EAA58B"/>
    <path id="Vector_136" d="M254.867 150.356V138.456" stroke="#A15842" stroke-width="4" stroke-linejoin="round"/>
    <path id="Vector_137" d="M241.525 150.356V138.456" stroke="#A15842" stroke-width="4" stroke-linejoin="round"/>
    <path id="Vector_138" d="M254.867 66.5469H241.525H228.184V78.4467H241.525H254.867H268.209V66.5469H254.867Z" fill="#EAA58B"/>
    <path id="Vector_139" d="M254.867 78.4467V66.5469" stroke="#A15842" stroke-width="4" stroke-linejoin="round"/>
    <path id="Vector_140" d="M241.525 78.4467V66.5469" stroke="#A15842" stroke-width="4" stroke-linejoin="round"/>
    <path id="Vector_141" d="M228.184 150.355H241.525H254.867H268.209" stroke="#A15842" stroke-width="4" stroke-linejoin="round"/>
    <path id="Vector_142" d="M228.184 138.456H241.525H254.867H268.209" stroke="#A15842" stroke-width="4" stroke-linejoin="round"/>
    <path id="Vector_143" d="M228.184 78.9647H241.525H254.867H268.209" stroke="#A15842" stroke-width="4" stroke-linejoin="round"/>
    <path id="Vector_144" d="M241.525 125.837H245.971H250.421H254.867" stroke="#A15842" stroke-width="4" stroke-linejoin="round"/>
    <path id="Vector_145" d="M241.525 115.379H245.971H250.421H254.867" stroke="#A15842" stroke-width="4" stroke-linejoin="round"/>
    <path id="Vector_146" d="M241.525 102.041H245.971H250.421H254.867" stroke="#A15842" stroke-width="4" stroke-linejoin="round"/>
    <path id="Vector_147" d="M241.525 91.5834H245.971H250.421H254.867" stroke="#A15842" stroke-width="4" stroke-linejoin="round"/>
    <path
      id="Vector_148"
      d="M304.214 285.927H295.492C295.299 290.698 294.247 294.046 291.753 296.455C290.684 297.454 289.451 298.264 288.108 298.848C287.222 299.234 286.399 299.663 285.626 300.085C288.332 301.832 291.038 305.76 291.038 305.76C293.14 305.335 295.13 304.475 296.88 303.236C300.39 300.877 303.232 297.549 304.612 295.755C305.014 295.236 305.53 294.816 306.12 294.529C306.71 294.241 307.358 294.093 308.014 294.096H310.492C310.683 292.944 310.812 291.783 310.879 290.617C310.86 289.182 309.796 285.927 304.214 285.927Z"
      fill="#FF7235"/>
    <path
      id="Vector_149"
      d="M310.488 294.104H308.01C307.354 294.101 306.706 294.249 306.116 294.536C305.526 294.824 305.01 295.244 304.608 295.763C303.22 297.556 300.379 300.885 296.876 303.243C295.126 304.483 293.136 305.342 291.034 305.768C291.034 305.768 288.328 301.84 285.622 300.093C285.336 300.243 285.061 300.398 284.791 300.553C278.934 303.932 276.448 307.755 275.705 311.536H326.807C327.634 308.81 328.314 306.042 328.845 303.243C329.343 300.673 329.827 297.672 330.232 294.216L310.488 294.104Z"
      fill="#30242A"/>
    <path id="Vector_150" d="M275.524 315.773H325.23C325.857 314.396 326.383 312.975 326.803 311.521H275.709C275.446 312.922 275.383 314.354 275.524 315.773Z" fill="#FF7235"/>
    <path id="Vector_151" d="M293.934 292.739L304.372 299.698" stroke="#F5EBDD" stroke-width="4" stroke-miterlimit="10" stroke-linecap="round"/>
    <path id="Vector_152" d="M290.068 296.992L298.187 304.724" stroke="#F5EBDD" stroke-width="4" stroke-miterlimit="10" stroke-linecap="round"/>
    <path
      id="Vector_153"
      d="M400.1 182.916C397.363 167.13 388.019 157.925 388.019 157.925H363.38C363.38 157.925 325.419 168.325 307.005 179.575C285.742 192.558 287.88 202.865 291.498 243.397C292.79 257.852 294.409 268.727 295.136 276.927H331.361C331.361 276.881 331.361 276.834 331.361 276.788H338.046C338.046 276.788 341.479 260.906 337.682 246.752C333.7 231.914 330.082 229.382 327.913 219.249H369.465C388.726 219.234 403.39 201.89 400.1 182.916Z"
      fill="#30242A"/>
    <path
      id="Vector_154"
      d="M295.492 285.927H304.218C309.781 285.927 310.864 289.171 310.864 290.613C310.796 291.779 310.667 292.94 310.477 294.092L330.217 294.193C330.793 289.349 331.218 283.611 331.35 276.9H295.125C295.434 279.898 295.557 282.913 295.492 285.927Z"
      fill="#A15842"/>
    <path id="Vector_155" d="M327.569 219.844H318.824" stroke="black" stroke-width="4" stroke-linecap="round" stroke-linejoin="round"/>
    <path id="Vector_156" d="M228.597 278.048L235.169 288.487" stroke="#F5EBDD" stroke-width="4" stroke-miterlimit="10" stroke-linecap="round"/>
    <path id="Vector_157" d="M223.958 280.368L228.211 290.806" stroke="#F5EBDD" stroke-width="4" stroke-miterlimit="10" stroke-linecap="round"/>
    <path
      id="Vector_158"
      d="M417.459 206.758L423.258 184.072H389.438C381.901 184.071 374.578 186.577 368.624 191.197C362.669 195.817 358.421 202.287 356.549 209.588L352.617 224.955H394C399.375 224.956 404.598 223.169 408.846 219.874C413.093 216.579 416.123 211.965 417.459 206.758Z"
      fill="#FFB7D5"/>
    <path
      id="Vector_159"
      d="M369.991 162.251H129.494C126.906 162.251 124.808 164.349 124.808 166.937V166.941C124.808 169.529 126.906 171.627 129.494 171.627H369.991C372.579 171.627 374.677 169.529 374.677 166.941V166.937C374.677 164.349 372.579 162.251 369.991 162.251Z"
      fill="#A15842"/>
    <path
      id="Vector_160"
      d="M158.703 140.621C155.358 139.101 146.803 137.737 138.51 137.737C136.933 137.737 135.235 137.764 133.461 137.814V161.188C137.567 159.913 140.95 158.706 143.196 157.925C143.196 157.925 159.704 170.537 162.646 164.768C162.646 164.768 166.953 166.508 168.058 162.252C168.058 162.252 173.108 162.252 171.306 158.648C170.092 156.19 164.819 150.715 164.819 150.715C164.819 150.715 171.082 154.492 174.194 152.157C177.09 150.004 162.665 142.422 158.703 140.621Z"
      fill="#EAA58B"/>
    <path id="Vector_161" d="M102.091 139.898L78.6553 140.98C76.4941 152.517 82.5213 164.417 92.7162 166.218C106.128 168.584 122.408 164.625 133.461 161.192V137.814C119.918 138.208 102.091 139.898 102.091 139.898Z" fill="#FF7235"/>
    <path id="Vector_162" d="M165.507 150.286C162.669 148.021 158.791 144.974 156.178 143.142" stroke="#A15842" stroke-width="4" stroke-miterlimit="10" stroke-linecap="round"/>
    <path id="Vector_163" d="M151.852 147.417C158.938 152.35 165.313 158.861 168.341 162.136" stroke="#A15842" stroke-width="4" stroke-miterlimit="10" stroke-linecap="round"/>
    <path id="Vector_164" d="M148.519 152.513C153.282 155.992 158.737 161.25 162.298 164.838" stroke="#A15842" stroke-width="4" stroke-miterlimit="10" stroke-linecap="round"/>
    <path
      id="Vector_165"
      d="M296.795 147.472C288.865 151.438 282.552 158.297 276.966 165.499C274.441 168.743 268.074 176.823 272.276 177.758C275.524 178.477 282.015 171.99 282.015 171.99C282.015 171.99 278.106 180.453 280.932 182.815C283.093 184.621 285.958 181.737 285.958 181.737C288.483 187.149 292.449 182.456 292.449 182.456C298.813 187.149 305.068 169.837 305.068 169.837C308.778 168.516 312.29 166.695 315.507 164.424C315.507 164.424 317.563 164.958 320.888 165.615L317.888 141.297C310.044 142.747 302.238 144.75 296.795 147.472Z"
      fill="#A15842"/>
    <path id="Vector_166" d="M280.801 173.069C281.961 170.014 284.006 164.842 285.827 161.351" stroke="#30242A" stroke-width="4" stroke-miterlimit="10" stroke-linecap="round"/>
    <path id="Vector_167" d="M292.469 163.693C289.453 170.192 287.246 177.314 286.016 181.733" stroke="#30242A" stroke-width="4" stroke-miterlimit="10" stroke-linecap="round"/>
    <path id="Vector_168" d="M299.319 165.855C297.038 171.074 294.719 178.137 293.261 182.834" stroke="#30242A" stroke-width="4" stroke-miterlimit="10" stroke-linecap="round"/>
    <path
      id="Vector_169"
      d="M366.384 162.251C378.883 151.84 392.751 128.574 394.147 102.76C394.869 89.4184 384.412 82.5677 376.482 82.5677H373.587L347.989 137.737C347.989 137.737 332.815 138.537 317.919 141.29L320.919 165.607C331.671 167.737 355.664 171.186 366.384 162.251Z"
      fill="#3EC1F3"/>
    <path id="Vector_170" d="M358.934 114.227L348.384 136.964" stroke="#4756DF" stroke-width="4" stroke-linecap="round" stroke-linejoin="round"/>
    <path id="Vector_171" d="M377.043 150.514C379.502 147.086 381.718 143.49 383.673 139.751C384.833 137.54 385.935 135.236 386.952 132.85" stroke="#4756DF" stroke-width="4" stroke-linecap="round" stroke-linejoin="round"/>
    <path id="Vector_172" d="M324.677 139.449C337.238 137.551 344.193 137.323 348.832 136.936C351.925 136.681 356.178 136.55 356.178 136.55" stroke="#4756DF" stroke-width="4" stroke-linecap="round" stroke-linejoin="round"/>
    <path id="Vector_173" d="M329.788 161.532C331.481 161.532 332.854 160.16 332.854 158.467C332.854 156.773 331.481 155.401 329.788 155.401C328.095 155.401 326.722 156.773 326.722 158.467C326.722 160.16 328.095 161.532 329.788 161.532Z" fill="#30242A"/>
    <path
      id="Vector_174"
      d="M321.139 166.346C317.915 165.704 315.932 165.186 315.932 165.186C312.715 167.457 309.203 169.278 305.493 170.598C305.493 170.598 305.277 171.201 304.879 172.145"
      stroke="#30242A"
      stroke-width="4"
      stroke-miterlimit="10"
      stroke-linecap="round"/>
    <path id="Vector_175" d="M272.025 171.29C273.311 169.285 274.702 167.35 276.192 165.491C276.93 164.54 277.681 163.598 278.446 162.665" stroke="#30242A" stroke-width="4" stroke-miterlimit="10" stroke-linecap="round"/>
  </g>
</svg>
