<svg width="436" height="350" viewBox="0 0 436 350" fill="none" xmlns="http://www.w3.org/2000/svg">
  <g id="Laptop Girl">
    <path id="Vector" d="M78.4404 186.952H68.9453V348.333H78.4404V186.952Z" fill="#FFBE21"/>
    <path id="Vector_2" d="M78.4443 189.171H68.9453" stroke="#A15842" stroke-width="4" stroke-miterlimit="10"/>
    <path
      id="Vector_3"
      d="M25.858 315.951C26.8198 313.193 28.6161 310.802 30.9977 309.11C33.3793 307.418 36.2282 306.509 39.1496 306.509C42.0709 306.509 44.9199 307.418 47.3015 309.11C49.6831 310.802 51.4793 313.193 52.4411 315.951C53.3591 313.318 55.0387 311.016 57.2668 309.339C59.4948 307.661 62.171 306.684 64.9556 306.53C63.7124 304.314 62.232 302.24 60.5406 300.344L55.4296 294.595C53.8407 292.809 52.84 290.577 52.5633 288.203C52.2866 285.828 52.7475 283.426 53.8832 281.323L58.2209 273.262C57.0031 274.488 49.963 281.079 39.2771 281.079C28.5913 281.079 21.5512 274.488 20.3334 273.262H20.314L24.6556 281.323C25.7864 283.43 26.2401 285.836 25.9551 288.21C25.6701 290.585 24.6602 292.815 23.0628 294.595L17.9557 300.321C16.2612 302.217 14.777 304.291 13.5291 306.506C16.2838 306.698 18.9214 307.696 21.1135 309.375C23.3056 311.054 24.9556 313.341 25.858 315.951Z"
      fill="#4756DF"/>
    <path
      id="Vector_4"
      d="M65.7327 324.097C62.8105 324.098 59.961 325.007 57.5793 326.701C55.1976 328.394 53.4018 330.786 52.4412 333.546C51.4812 330.785 49.6856 328.393 47.3038 326.699C44.922 325.006 42.072 324.096 39.1496 324.096C36.2272 324.096 33.3772 325.006 30.9954 326.699C28.6136 328.393 26.818 330.785 25.858 333.546C24.6955 330.21 22.3223 327.434 19.2088 325.766C16.0953 324.098 12.4689 323.661 9.04831 324.542C9.24471 333.463 12.8401 341.973 19.1001 348.333H59.3808C65.6281 341.987 69.2225 333.499 69.4326 324.596C68.2271 324.265 66.9827 324.097 65.7327 324.097Z"
      fill="#4756DF"/>
    <path id="Vector_5" d="M39.246 281.095C49.9318 281.095 56.972 274.503 58.1898 273.277H20.3022C21.5201 274.491 28.5602 281.095 39.246 281.095Z" fill="#30242A"/>
    <path
      id="Vector_6"
      d="M25.8581 333.546C26.8181 330.785 28.6137 328.393 30.9955 326.699C33.3773 325.006 36.2273 324.096 39.1497 324.096C42.0721 324.096 44.9221 325.006 47.3039 326.699C49.6857 328.393 51.4813 330.785 52.4413 333.546C53.6134 330.175 56.0224 327.376 59.1805 325.714C62.3387 324.052 66.0102 323.653 69.452 324.596C69.6108 318.279 68.06 312.037 64.9635 306.53C62.1788 306.684 59.5027 307.661 57.2746 309.339C55.0466 311.016 53.367 313.318 52.449 315.951C51.4872 313.193 49.6909 310.802 47.3093 309.11C44.9277 307.418 42.0788 306.509 39.1574 306.509C36.2361 306.509 33.3871 307.418 31.0055 309.11C28.6239 310.802 26.8277 313.193 25.8659 315.951C24.9579 313.348 23.3055 311.068 21.1138 309.396C18.9222 307.723 16.2876 306.73 13.5369 306.541C10.4542 312.03 8.90647 318.248 9.05617 324.542C12.4767 323.661 16.1032 324.098 19.2167 325.766C22.3301 327.434 24.7034 330.211 25.8659 333.546H25.8581Z"
      fill="#3EC1F3"/>
    <path id="Vector_7" d="M42.0529 279.989C42.8261 275.257 46.3404 256.499 55.1783 246.304" stroke="#30242A" stroke-width="4" stroke-miterlimit="10" stroke-linecap="round"/>
    <path id="Vector_8" d="M37.9743 280.124C37.9163 274.75 37.3634 248.364 32.1172 232.622" stroke="#30242A" stroke-width="4" stroke-miterlimit="10" stroke-linecap="round"/>
    <path id="Vector_9" d="M61.2272 261.662C68.9762 258.252 74.6362 254.075 73.8692 252.331C73.1021 250.588 66.1985 251.939 58.4495 255.349C50.7005 258.758 45.0405 262.936 45.8076 264.679C46.5746 266.422 53.4783 265.071 61.2272 261.662Z" fill="#30242A"/>
    <path id="Vector_10" d="M61.2224 213.697C64.0082 209.931 65.202 206.09 63.8888 205.119C62.5756 204.147 59.2527 206.413 56.4669 210.179C53.6811 213.945 52.4872 217.786 53.8004 218.757C55.1136 219.729 58.4366 217.463 61.2224 213.697Z" fill="#30242A"/>
    <path
      id="Vector_11"
      d="M19.2682 264.339C29.3701 262.811 37.3406 260.127 37.0708 258.343C36.801 256.559 28.3931 256.351 18.2912 257.879C8.18924 259.407 0.218713 262.091 0.488508 263.875C0.758303 265.659 9.16625 265.867 19.2682 264.339Z"
      fill="#30242A"/>
    <path
      id="Vector_12"
      d="M12.2108 237.988V238.015C13.7034 238.85 14.8292 240.213 15.3661 241.837C15.9031 243.46 15.8123 245.226 15.1116 246.786C14.411 248.346 13.1513 249.587 11.581 250.264C10.0106 250.941 8.24359 251.006 6.62822 250.444V250.468C15.0949 254.272 23.2175 254.562 24.764 251.117C26.3104 247.672 20.6814 241.792 12.2108 237.988Z"
      fill="#FF7235"/>
    <path
      id="Vector_13"
      d="M37.2438 210.415C35.4422 209.947 33.0993 212.673 31.3866 216.891C29.326 211.768 26.3376 208.339 24.3233 209.004C22.3091 209.669 21.9496 214.2 23.3452 219.543C19.4559 217.177 15.9533 216.38 14.7819 217.83C13.2895 219.678 16.1659 224.472 21.2073 228.543C22.6415 229.712 24.1847 230.74 25.8156 231.613C26.0936 230.509 26.6431 229.491 27.4141 228.653C28.1852 227.815 29.1534 227.183 30.2307 226.815C31.3081 226.446 32.4605 226.352 33.5833 226.542C34.7061 226.732 35.7637 227.199 36.66 227.901C37.4156 226.275 38.0187 224.582 38.4616 222.844C40.0892 216.578 39.5441 211.01 37.2438 210.415Z"
      fill="#FF7235"/>
    <path
      id="Vector_14"
      d="M76.5463 238.873C75.9895 237.095 72.4366 236.554 67.952 237.327C71.2072 232.869 72.5371 228.52 70.9095 227.163C69.2819 225.806 65.2418 227.897 61.4453 231.907C61.399 227.352 60.2198 223.958 58.3718 223.73C56.0174 223.44 53.4658 228.419 52.6771 234.845C52.4434 236.682 52.3864 238.537 52.507 240.385C53.5916 240.035 54.7465 239.963 55.8664 240.173C56.9864 240.384 58.0359 240.871 58.9195 241.591C59.8032 242.31 60.4929 243.239 60.9259 244.293C61.359 245.347 61.5216 246.493 61.399 247.626C63.1795 247.401 64.9356 247.013 66.6452 246.466C72.8194 244.545 77.2537 241.139 76.5463 238.873Z"
      fill="#FF7235"/>
    <path
      id="Vector_15"
      d="M58.971 241.63C58.0869 240.892 57.0306 240.39 55.9005 240.171C54.7703 239.951 53.603 240.021 52.507 240.373C52.7273 243.431 53.5005 245.786 54.6642 246.64C55.7506 247.645 58.2635 247.982 61.3912 247.614C61.5131 246.495 61.3559 245.362 60.9336 244.318C60.5113 243.273 59.837 242.35 58.971 241.63Z"
      fill="#30242A"/>
    <path
      id="Vector_16"
      d="M30.2999 226.792C29.2068 227.152 28.2225 227.783 27.4385 228.626C26.6544 229.469 26.0961 230.496 25.8153 231.613C28.5215 233.043 30.9262 233.623 32.2794 233.097C33.7059 232.711 35.3181 230.751 36.6596 227.901C35.7735 227.206 34.729 226.74 33.6193 226.547C32.5096 226.353 31.3692 226.437 30.2999 226.792Z"
      fill="#30242A"/>
    <path
      id="Vector_17"
      d="M12.9647 249.466C12.2377 249.061 11.6895 248.397 11.4285 247.607C11.1676 246.816 11.2131 245.957 11.5559 245.198C11.8987 244.44 12.5138 243.837 13.2795 243.511C14.0452 243.184 14.9056 243.157 15.6903 243.435C15.5995 242.317 15.2345 241.238 14.6277 240.294C14.0208 239.35 13.1907 238.57 12.2108 238.023L6.61661 250.444C7.67394 250.814 8.80575 250.917 9.91262 250.747C11.0195 250.576 12.0675 250.137 12.9647 249.466Z"
      fill="#F5EBDD"/>
    <path
      id="Vector_18"
      d="M11.5421 245.202C11.2049 245.96 11.1639 246.818 11.4272 247.605C11.6906 248.392 12.2391 249.052 12.9648 249.455C13.894 248.764 14.6319 247.847 15.1087 246.792C15.5856 245.737 15.7858 244.578 15.6904 243.424C14.902 243.143 14.0368 243.17 13.2677 243.5C12.4985 243.829 11.8822 244.437 11.5421 245.202Z"
      fill="#4856DF"/>
    <path
      id="Vector_19"
      d="M267.035 251.442H168.709L170.372 244.846H213.533L229.994 180.468C232.237 171.699 237.335 163.926 244.484 158.375C251.633 152.824 260.427 149.811 269.479 149.81C291.627 149.81 307.834 170.687 302.34 192.144L292.169 231.922C290.741 237.504 287.496 242.453 282.945 245.987C278.395 249.521 272.797 251.44 267.035 251.442Z"
      fill="#FFB7D5"/>
    <path id="Vector_20" d="M169.471 312.367V319.349H232.136V312.367H169.471Z" fill="#A15842"/>
    <path
      id="Vector_21"
      d="M242.459 344.583L226.159 247.564H175.444L159.145 344.583C159.068 345.045 159.092 345.517 159.217 345.968C159.341 346.42 159.562 346.838 159.864 347.195C160.167 347.552 160.544 347.839 160.968 348.035C161.393 348.232 161.855 348.334 162.323 348.333C163.058 348.333 163.771 348.081 164.343 347.62C164.915 347.158 165.313 346.515 165.47 345.797L186.818 247.564H214.801L236.142 345.797C236.298 346.516 236.695 347.159 237.268 347.62C237.84 348.082 238.553 348.333 239.289 348.333C239.756 348.332 240.217 348.23 240.641 348.033C241.064 347.836 241.44 347.549 241.742 347.192C242.043 346.835 242.263 346.417 242.387 345.967C242.511 345.516 242.536 345.044 242.459 344.583Z"
      fill="#A15842"/>
    <path id="Vector_22" d="M221.385 312.367V319.349H284.05V312.367H221.385Z" fill="#FFBE21"/>
    <path
      id="Vector_23"
      d="M294.372 344.583L278.058 247.564H227.362L211.062 344.583C210.985 345.045 211.01 345.517 211.134 345.968C211.258 346.42 211.48 346.838 211.782 347.195C212.084 347.552 212.461 347.839 212.886 348.035C213.31 348.232 213.772 348.334 214.24 348.333C214.975 348.333 215.688 348.082 216.259 347.62C216.831 347.159 217.228 346.515 217.383 345.797L238.724 247.564H266.711L288.051 345.797C288.208 346.516 288.606 347.16 289.179 347.622C289.752 348.083 290.466 348.334 291.202 348.333C291.669 348.332 292.131 348.23 292.554 348.033C292.978 347.836 293.354 347.549 293.655 347.192C293.957 346.835 294.177 346.417 294.301 345.967C294.425 345.516 294.449 345.044 294.372 344.583Z"
      fill="#FFBE21"/>
    <path
      id="Vector_24"
      d="M243.15 231.922L249.367 207.608H208.166C200.087 207.608 192.237 210.298 185.855 215.253C179.474 220.207 174.922 227.145 172.919 234.972L168.709 251.442H218.013C223.776 251.441 229.374 249.522 233.926 245.988C238.477 242.454 241.723 237.505 243.15 231.922Z"
      fill="#FFB7D5"/>
    <path id="Vector_25" d="M171.389 244.201H223.697" stroke="#A15842" stroke-width="4" stroke-linecap="round" stroke-linejoin="round"/>
    <path id="Vector_26" d="M213.718 243.957L222.885 208.119" stroke="#A15842" stroke-width="4" stroke-linecap="round" stroke-linejoin="round"/>
    <path id="Vector_27" d="M297.775 206.777H273.032" stroke="#A15842" stroke-width="4" stroke-linecap="round" stroke-linejoin="round"/>
    <path id="Vector_28" d="M302.414 189.38H270.712" stroke="#A15842" stroke-width="4" stroke-linecap="round" stroke-linejoin="round"/>
    <path
      id="Vector_29"
      d="M186.938 181.524C186.938 181.524 155.92 189.971 142.745 196.563C121.021 207.423 121.095 214.59 107.85 254.716C95.6211 291.8 94.2757 309.773 77.408 310.485C64.5301 311.026 60.3084 315.24 58.2207 321.016L109.179 345.194C109.764 345.471 110.431 345.513 111.046 345.314C111.66 345.114 112.175 344.687 112.485 344.119C112.801 343.54 112.877 342.86 112.699 342.224C112.521 341.589 112.101 341.048 111.53 340.717L110.459 340.099C115.195 334.361 124.331 322.137 133.439 303.568L139.238 306.274C139.238 306.274 148.606 294.1 150.09 280.291C152.023 262.456 150.863 250.437 159.009 243.458L253.999 181.508L186.938 181.524Z"
      fill="#FF7235"/>
    <path id="Vector_30" d="M72.4017 313.349C73.4107 311.25 79.0165 298.461 82.2408 300.007C86.4355 302.018 75.5487 314.857 75.5487 314.857L72.4017 313.349Z" fill="#30242A"/>
    <path
      id="Vector_31"
      d="M58.217 321.197L109.176 345.372C109.766 345.654 110.442 345.696 111.062 345.489C111.682 345.283 112.199 344.845 112.503 344.266C112.807 343.688 112.875 343.014 112.693 342.386C112.511 341.758 112.093 341.225 111.526 340.899L110.455 340.28L110.564 340.149L75.537 323.614C76.0619 322.16 76.4299 320.654 76.635 319.121C81.8774 320.03 92.4859 321.008 92.54 316.636C92.598 312.561 81.0114 314.196 76.778 315.348C76.6868 313.782 76.3824 312.235 75.8734 310.751C64.194 311.555 60.2196 315.654 58.217 321.197Z"
      fill="#30242A"/>
    <path id="Vector_32" d="M142.745 196.563C140.306 197.781 138.145 198.952 136.208 200.127L133.235 209.65L144.678 201.589L155.229 210.001L151.339 198.469L163.29 192.995L154.053 191.835C150.203 193.209 146.428 194.787 142.745 196.563Z" fill="#FFB7D5"/>
    <path id="Vector_33" d="M176.461 191.607L175.688 196.644L180.729 194.707L176.461 191.607Z" fill="#FFB7D5"/>
    <path id="Vector_34" d="M147.384 216.806L140.019 226.498L129.55 221.46L135.751 231.926L126.059 240.068L138.465 238.518L142.733 252.865L146.998 238.518L160.568 234.64L147.384 229.212V216.806Z" fill="#FFB7D5"/>
    <path
      id="Vector_35"
      d="M105.978 290.81L106.883 288.228L119.255 287.57L109.203 280.727L113.68 270.007L103.554 276.757L101.621 274.669C100.075 279.761 98.7063 284.296 97.3687 288.282H97.4305C97.5775 287.845 97.7244 287.404 97.8713 286.956L105.978 290.81Z"
      fill="#FFB7D5"/>
    <path
      id="Vector_36"
      d="M105.979 290.81L97.8599 286.971C97.713 287.419 97.5661 287.86 97.4192 288.297C92.5131 302.911 88.0439 310.218 77.4161 310.666C76.8942 310.666 76.3916 310.716 75.8967 310.751C76.4058 312.235 76.7101 313.782 76.8014 315.348C81.0541 314.188 92.6214 312.561 92.5634 316.635C92.5015 321.008 81.9007 320.03 76.6583 319.121C76.4495 320.654 76.0776 322.16 75.5488 323.614L110.575 340.149C115.338 334.35 124.397 322.187 133.436 303.773L105.979 290.81Z"
      fill="#EAA58B"/>
    <path
      id="Vector_37"
      d="M136.915 261.393L135.755 271.862L124.899 271.476L134.205 278.458L130.725 290.864L140.039 282.718L148.409 288.301C148.641 287.561 148.853 286.812 149.047 286.055L145.838 278.064L150.81 272.616C150.891 271.603 150.968 270.606 151.042 269.635L142.358 271.085L136.915 261.393Z"
      fill="#FFB7D5"/>
    <path id="Vector_38" d="M112.732 239.631C111.754 242.654 110.703 245.937 109.543 249.505L119.858 250.135L112.732 239.631Z" fill="#FFB7D5"/>
    <path id="Vector_39" d="M149.155 334.079C149.317 331.76 149.824 317.803 153.388 318.054C158.027 318.379 152.634 334.323 152.634 334.323L149.155 334.079Z" fill="#30242A"/>
    <path
      id="Vector_40"
      d="M235.016 182.092C235.016 182.092 196.244 189.283 174.918 198.198C153.388 207.202 153.597 223.192 157.471 266.628C160.95 305.513 167.167 324.395 154.378 330.209C142.648 335.544 138.573 342.233 139.13 348.349H196.87C197.195 348.349 197.518 348.285 197.818 348.16C198.119 348.036 198.392 347.853 198.622 347.623C198.852 347.393 199.035 347.12 199.159 346.819C199.284 346.518 199.348 346.196 199.348 345.871C199.348 345.213 199.087 344.583 198.622 344.118C198.157 343.654 197.527 343.393 196.87 343.393H195.896C197.717 337.435 200.357 325.806 200.721 306.56H207.881C207.881 306.56 211.561 289.55 207.494 274.379C203.241 258.486 199.352 255.772 197.028 244.916H231.773C258.306 244.916 278.166 220.374 272.394 194.479C270.592 186.387 267.979 182.108 267.979 182.108L235.016 182.092Z"
      fill="#FF7235"/>
    <path id="Vector_41" d="M210.977 204.786L203.86 213.74L192.776 209.932L199.344 220.683L190.816 232.316L202.058 227.662L208.325 239.213L209.036 226.498L219.892 224.174L210.591 218.356L210.977 204.786Z" fill="#FFB7D5"/>
    <path id="Vector_42" d="M195.49 273.904L202.062 284.655L193.533 296.288L204.776 291.649L208.944 299.331C209.554 293.362 209.856 284.532 207.907 276.053L206.578 277.727L195.49 273.904Z" fill="#FFB7D5"/>
    <path id="Vector_43" d="M166.502 306.545L166.003 300.553L178.591 295.697L166.676 293.226L167.99 280.148L160.258 290.265L160.026 290.168C160.768 296.412 161.418 301.867 161.781 306.588V306.545H166.502Z" fill="#FFB7D5"/>
    <path
      id="Vector_44"
      d="M196.87 343.377H195.896C197.717 337.42 200.357 325.79 200.721 306.545H161.77V306.58C161.801 306.966 161.828 307.353 161.855 307.74C161.855 307.774 161.855 307.813 161.855 307.848C162.663 319.929 161.345 326.997 154.362 330.171C142.633 335.506 138.558 342.194 139.115 348.31H196.87C197.527 348.31 198.158 348.049 198.622 347.584C199.087 347.12 199.348 346.489 199.348 345.832C199.348 345.175 199.087 344.545 198.622 344.08C198.158 343.615 197.527 343.354 196.87 343.354V343.377Z"
      fill="#EAA58B"/>
    <path id="Vector_45" d="M248.567 183.093L230.756 184.671L232.612 191.831L221.219 197.908L235.411 199.807L240.213 210.442L245.15 199.428L259.586 197.147L247.048 190.69L248.567 183.093Z" fill="#FFB7D5"/>
    <path id="Vector_46" d="M163.676 233.476L167.928 219.906L180.335 221.839L170.642 213.311L177.601 205.169L164.809 209.808L162.763 206.302C159.473 210.028 157.486 214.656 156.423 220.606L158.604 220.676L163.676 233.476Z" fill="#FFB7D5"/>
    <path id="Vector_47" d="M196.87 190.907C194.252 191.634 191.647 192.395 189.103 193.18L199.352 200.139L196.87 190.907Z" fill="#FFB7D5"/>
    <path id="Vector_48" d="M179.96 253.638L174.532 242.395L171.818 254.801L161.739 254.028L171.041 262.17L165.226 275.74L175.32 266.33L183.687 275.976L181.123 261.393L189.652 250.151L179.96 253.638Z" fill="#FFB7D5"/>
    <path
      id="Vector_49"
      d="M156.945 338.842C162.071 337.427 172.077 333.785 170.267 329.807C168.582 326.096 158.801 332.513 155.464 335.37C154.622 333.825 153.546 332.419 152.275 331.203C142.153 336.356 138.6 342.596 139.13 348.333H196.87C197.527 348.333 198.157 348.072 198.622 347.608C199.087 347.143 199.348 346.512 199.348 345.855C199.348 345.198 199.087 344.568 198.622 344.103C198.157 343.638 197.527 343.377 196.87 343.377H157.861C157.716 341.837 157.409 340.317 156.945 338.842Z"
      fill="#30242A"/>
    <path id="Vector_50" d="M196.87 245.77L186.888 245.631" stroke="#A15842" stroke-width="4" stroke-miterlimit="10" stroke-linecap="round"/>
    <path id="Vector_51" d="M204.293 189.213C193.951 191.85 182.898 195.086 174.524 198.581C156.663 206.062 153.767 218.341 155.503 247.135" stroke="#A15842" stroke-width="4" stroke-miterlimit="10" stroke-linecap="round"/>
    <path id="Vector_52" d="M335.538 186.952H326.043V348.333H335.538V186.952Z" fill="#FFBE21"/>
    <path id="Vector_53" d="M335.538 189.171H326.043" stroke="#A15842" stroke-width="4" stroke-miterlimit="10"/>
    <path id="Vector_54" d="M197.794 65.5996C192.382 64.8264 179.983 70.6448 179.573 82.1464C179.163 93.648 189.432 97.3439 191.075 98.1674L214.901 94.4676L216.545 68.1783L197.794 65.5996Z" fill="#A15842"/>
    <path id="Vector_55" d="M239.888 37.037C250.115 37.037 258.406 28.746 258.406 18.5185C258.406 8.29101 250.115 0 239.888 0C229.66 0 221.369 8.29101 221.369 18.5185C221.369 28.746 229.66 37.037 239.888 37.037Z" fill="#A15842"/>
    <path id="Vector_56" d="M227.876 31.2534C229.005 31.7753 219.498 9.21675 214.646 12.7349C210.08 16.0558 222.142 28.609 227.876 31.2534Z" fill="#30242A"/>
    <path id="Vector_57" d="M228.402 32.6335C229.438 33.8707 253.693 25.3846 250.338 20.4902C247.129 15.7813 227.366 31.3925 228.402 32.6335Z" fill="#30242A"/>
    <path
      id="Vector_58"
      d="M260.602 94.6764C260.602 94.6764 276.886 81.1065 266.401 65.9862C259.728 56.3481 241.585 60.1871 241.585 60.1871C242.026 54.8945 243.464 39.6467 231.997 31.2689C220.53 22.8911 205.982 27.3023 200.682 33.9133C195.382 40.5243 196.715 52.8764 194.952 61.6949C193.189 70.5134 194.365 76.5097 199.8 79.3319C204.745 81.899 210.564 80.3487 210.564 80.3487L209.945 89.6544C209.945 89.6544 198.733 90.0758 191.863 92.5616C175.309 98.5541 146.224 139.65 146.224 139.65C128.004 138.877 110.943 138.104 110.943 138.104L119.862 164.471C119.862 164.471 142.347 171.836 158.631 167.564C175.15 163.237 190.812 140.037 190.812 140.037L196.224 155.544L186.919 181.52H267.952L254.382 157.481C256.728 136.163 260.602 94.6764 260.602 94.6764Z"
      fill="#EAA58B"/>
    <path
      id="Vector_59"
      d="M234.564 88.6878L213.301 127.244L204.602 90.041C200.779 90.4276 195.683 91.1776 191.902 92.5462C175.309 98.5541 146.224 139.65 146.224 139.65C128.004 138.877 110.943 138.104 110.943 138.104L119.862 164.471C119.862 164.471 142.347 171.836 158.631 167.564C175.15 163.237 190.812 140.037 190.812 140.037L196.224 155.544L186.919 181.52H267.952L254.382 157.485C256.701 136.159 260.567 94.6725 260.567 94.6725C256.978 92.4871 253.047 90.9189 248.938 90.0332C244.311 88.9894 239.223 89.6118 234.564 88.6878Z"
      fill="#4756DF"/>
    <path
      id="Vector_60"
      d="M124.447 178.81H191.593L176.326 130.592C175.877 129.171 174.987 127.93 173.785 127.049C172.583 126.168 171.131 125.694 169.641 125.694H112.895C111.792 125.693 110.705 125.953 109.722 126.451C108.738 126.95 107.886 127.673 107.235 128.563C106.583 129.453 106.151 130.483 105.973 131.572C105.795 132.66 105.877 133.775 106.21 134.825L118.829 174.7C119.208 175.893 119.956 176.934 120.966 177.673C121.976 178.412 123.195 178.81 124.447 178.81Z"
      fill="#30242A"/>
    <path
      id="Vector_61"
      d="M134.452 147.506C136.234 145.071 144.318 151.504 144.914 152.033C145.223 151.504 149.433 145.074 152.518 147.506C155.198 149.617 149.31 159.046 147.744 161.451C147.678 161.524 147.598 161.582 147.508 161.622C147.419 161.662 147.322 161.683 147.224 161.683C147.126 161.683 147.029 161.662 146.939 161.622C146.85 161.582 146.769 161.524 146.704 161.451C143.847 159.046 132.906 149.617 134.452 147.506Z"
      fill="#A15842"/>
    <path
      id="Vector_62"
      d="M144.248 149.137C144.923 148.927 144.948 147.082 144.305 145.017C143.662 142.952 142.593 141.448 141.919 141.659C141.244 141.869 141.218 143.713 141.861 145.778C142.505 147.843 143.573 149.347 144.248 149.137Z"
      fill="#A15842"/>
    <path
      id="Vector_63"
      d="M230.582 173.382C230.777 174.006 230.822 174.666 230.714 175.311C230.606 175.955 230.349 176.565 229.962 177.092C229.575 177.619 229.07 178.047 228.488 178.343C227.905 178.638 227.261 178.793 226.608 178.794H124.447C123.195 178.795 121.976 178.397 120.966 177.658C119.956 176.919 119.208 175.878 118.829 174.685L118.412 173.366L230.582 173.382Z"
      fill="#30242A"/>
    <path id="Vector_64" d="M351.899 178.81H52.5841V188.502H351.899V178.81Z" fill="#FFBE21"/>
    <path
      id="Vector_65"
      d="M292.165 231.922L298.382 207.608H262.118C254.039 207.609 246.19 210.298 239.809 215.253C233.427 220.208 228.877 227.145 226.875 234.972L222.661 251.442H267.024C272.787 251.441 278.386 249.523 282.938 245.988C287.49 242.454 290.736 237.505 292.165 231.922Z"
      fill="#FFB7D5"/>
    <path id="Vector_66" d="M223.519 245.067L222.084 251.129" stroke="#A15842" stroke-width="4" stroke-linecap="round" stroke-linejoin="round"/>
    <path
      id="Vector_67"
      d="M107.711 139.5C103.199 141.753 100.945 145.511 100.945 148.144C100.945 151.987 104.857 152.71 104.857 152.71C104.857 152.71 101.939 157.299 107.015 159.452C107.015 159.452 107.015 164.177 111.743 164.177C111.743 164.177 111.117 167.861 116.05 168.209C120.983 168.557 126.059 165.982 126.488 164.316C126.979 162.348 125.653 160.701 122.073 160.179C122.073 160.179 126.906 157.921 126.14 155.072C125.375 152.223 122.108 152.289 122.108 152.289C122.108 152.289 125.236 150.414 123.565 147.649C121.895 144.885 118.702 145.844 118.702 145.844C118.702 145.844 119.537 143.911 118.076 142.438C116.336 140.698 108.855 142.894 108.855 142.894L107.711 139.5Z"
      fill="#EAA58A"/>
    <path id="Vector_68" d="M111.778 164.359C115.849 163.383 119.798 161.956 123.554 160.106" stroke="#A15842" stroke-width="4" stroke-miterlimit="10" stroke-linecap="round"/>
    <path id="Vector_69" d="M107.003 159.429C112.648 157.881 118.037 155.52 123.001 152.42" stroke="#A15842" stroke-width="4" stroke-miterlimit="10" stroke-linecap="round"/>
    <path id="Vector_70" d="M104.471 153.259C109.701 151.711 114.643 149.318 119.1 146.172" stroke="#A15842" stroke-width="4" stroke-miterlimit="10" stroke-linecap="round"/>
    <path
      id="Vector_71"
      d="M266.421 65.9862C259.748 56.3481 241.604 60.1871 241.604 60.1871C242.045 54.8945 243.483 39.6467 232.017 31.2689C220.55 22.8911 206.002 27.3023 200.701 33.9133C198.544 36.6195 197.489 40.2614 196.874 44.2357C200.392 44.8272 205.553 43.6171 205.553 43.6171C212.609 51.5542 218.93 52.8145 218.93 52.8145C223.867 47.8775 232.527 48.0399 233.934 55.5208C235.396 63.2877 222.989 66.7788 222.989 66.7788C222.989 66.7788 221.829 80.7353 228.015 85.7767C229.914 87.2815 232.158 88.2875 234.545 88.7033C239.184 89.6273 244.291 89.0048 248.954 90.0409C253.062 90.9266 256.993 92.4948 260.583 94.6802C261.999 93.4322 263.294 92.0522 264.449 90.559C268.516 85.4016 273.38 76.038 266.421 65.9862Z"
      fill="#A15842"/>
    <path id="Vector_72" d="M212.914 40.7871C210.595 42.7201 207.888 43.8799 204.772 44.6531" stroke="#EAA58B" stroke-width="4" stroke-miterlimit="10" stroke-linecap="round"/>
    <path id="Vector_73" d="M210.436 81.2185C212.236 80.6179 213.973 79.8409 215.62 78.8989" stroke="#A15842" stroke-width="4" stroke-miterlimit="10" stroke-linecap="round"/>
    <path id="Vector_74" d="M223.465 58.9809L226.991 56.7772" stroke="#A15842" stroke-width="4" stroke-miterlimit="10" stroke-linecap="round"/>
    <path id="Vector_75" d="M203.233 69.3303C203.964 69.7827 206.713 70.1345 207.803 68.0352" stroke="#A15842" stroke-width="4" stroke-miterlimit="10" stroke-linecap="round"/>
    <path id="Vector_76" d="M210.417 59.41C211.147 59.41 211.739 58.818 211.739 58.0878C211.739 57.3576 211.147 56.7656 210.417 56.7656C209.686 56.7656 209.094 57.3576 209.094 58.0878C209.094 58.818 209.686 59.41 210.417 59.41Z" fill="#30242A"/>
    <path
      id="Vector_77"
      d="M199.456 57.6586C200.187 57.6586 200.779 57.0667 200.779 56.3364C200.779 55.6062 200.187 55.0142 199.456 55.0142C198.726 55.0142 198.134 55.6062 198.134 56.3364C198.134 57.0667 198.726 57.6586 199.456 57.6586Z"
      fill="#30242A"/>
    <path id="Vector_78" d="M203.179 61.4436C202.916 62.2748 202.688 63.1794 202.839 63.481C203.046 63.8631 203.361 64.1762 203.744 64.3818" stroke="#A15842" stroke-width="4" stroke-miterlimit="10" stroke-linecap="round"/>
    <path
      id="Vector_79"
      d="M225.123 71.9361C227.681 71.9361 229.755 69.8624 229.755 67.3045C229.755 64.7466 227.681 62.6729 225.123 62.6729C222.565 62.6729 220.492 64.7466 220.492 67.3045C220.492 69.8624 222.565 71.9361 225.123 71.9361Z"
      fill="#F5EBDD"/>
    <path
      id="Vector_80"
      d="M202.842 57.0798C203.644 52.9614 201.288 49.038 197.58 48.3167C193.872 47.5953 190.217 50.3491 189.416 54.4675C188.615 58.5859 190.971 62.5093 194.678 63.2307C198.386 63.952 202.041 61.1982 202.842 57.0798Z"
      stroke="#30242A"
      stroke-width="4"
      stroke-miterlimit="10"
      stroke-linecap="round"/>
    <path
      id="Vector_81"
      d="M219.64 59.1396C220.442 55.0212 218.086 51.0978 214.378 50.3764C210.67 49.6551 207.015 52.4089 206.214 56.5273C205.413 60.6457 207.769 64.5691 211.476 65.2904C215.184 66.0118 218.839 63.258 219.64 59.1396Z"
      stroke="#30242A"
      stroke-width="4"
      stroke-miterlimit="10"
      stroke-linecap="round"/>
    <path id="Vector_82" d="M203.16 56.4563L205.832 56.7424" stroke="#30242A" stroke-width="4" stroke-miterlimit="10" stroke-linecap="round"/>
    <path id="Vector_83" d="M242.49 60.6974L241.72 65.646" stroke="#30242A" stroke-width="4" stroke-miterlimit="10" stroke-linecap="round"/>
    <path id="Vector_84" d="M186.551 129.958L190.294 140.849" stroke="#30242A" stroke-width="4" stroke-linecap="round" stroke-linejoin="round"/>
    <path id="Vector_85" d="M206.323 154.771H196.483" stroke="#30242A" stroke-width="4" stroke-linecap="round" stroke-linejoin="round"/>
    <path id="Vector_86" d="M214.078 126.858L217.179 141.978V155.934" stroke="#30242A" stroke-width="4" stroke-linecap="round" stroke-linejoin="round"/>
    <path id="Vector_87" d="M193.456 92.2098L199.344 105.532L192.366 104.759L217.178 141.978" stroke="#30242A" stroke-width="4" stroke-linecap="round" stroke-linejoin="round"/>
    <path id="Vector_88" d="M250.825 90.6247L240.831 104.759L250.137 103.982L216.015 134.222" stroke="#30242A" stroke-width="4" stroke-linecap="round" stroke-linejoin="round"/>
    <path id="Vector_89" d="M256.021 138.019L248.587 127.635" stroke="#30242A" stroke-width="4" stroke-linecap="round" stroke-linejoin="round"/>
    <path id="Vector_90" d="M264.623 176.293C260.575 174.944 253.311 172.338 248.93 169.721" stroke="#30242A" stroke-width="4" stroke-linecap="round" stroke-linejoin="round"/>
    <path id="Vector_91" d="M152.971 80.0935C157.171 80.0935 160.575 76.6888 160.575 72.4889C160.575 68.289 157.171 64.8843 152.971 64.8843C148.771 64.8843 145.366 68.289 145.366 72.4889C145.366 76.6888 148.771 80.0935 152.971 80.0935Z" fill="#FFB7D5"/>
    <path
      id="Vector_92"
      d="M130.243 42.2254L125.816 36.8867C125.134 36.0649 123.915 35.9512 123.094 36.6328L122.999 36.7117C122.177 37.3932 122.063 38.6119 122.745 39.4336L127.172 44.7723C127.854 45.5941 129.072 45.7078 129.894 45.0262L129.989 44.9473C130.811 44.2658 130.925 43.0471 130.243 42.2254Z"
      fill="#4756DF"/>
    <path
      id="Vector_93"
      d="M138.206 48.7125L133.752 43.3387L53.6976 109.719C52.9994 110.299 52.56 111.132 52.4759 112.035C52.3918 112.938 52.6699 113.838 53.2491 114.536L53.338 114.645C53.6246 114.99 53.9764 115.276 54.3734 115.485C54.7704 115.695 55.2048 115.824 55.6518 115.866C56.0987 115.908 56.5495 115.861 56.9784 115.728C57.4073 115.596 57.8059 115.38 58.1513 115.093L83.1803 94.3322V167.181H90.1663V88.5331L138.206 48.7125Z"
      fill="#3EC1F3"/>
    <path id="Vector_94" d="M125.305 50.259L127.536 52.9652C128.313 53.9041 128.903 54.9828 129.276 56.1432" stroke="#4756DF" stroke-width="4" stroke-miterlimit="10"/>
    <path id="Vector_95" d="M86.6713 95.9444C91.7039 95.9444 95.7837 91.8647 95.7837 86.8321C95.7837 81.7995 91.7039 77.7197 86.6713 77.7197C81.6387 77.7197 77.559 81.7995 77.559 86.8321C77.559 91.8647 81.6387 95.9444 86.6713 95.9444Z" fill="#4756DF"/>
    <path
      id="Vector_96"
      d="M86.6714 90.3347C88.6059 90.3347 90.1741 88.7665 90.1741 86.8321C90.1741 84.8976 88.6059 83.3294 86.6714 83.3294C84.7369 83.3294 83.1687 84.8976 83.1687 86.8321C83.1687 88.7665 84.7369 90.3347 86.6714 90.3347Z"
      fill="#3EC1F3"/>
    <path id="Vector_97" d="M159.214 68.1705L147.558 77.8048" stroke="#A15842" stroke-width="4" stroke-miterlimit="10"/>
    <path
      id="Vector_98"
      d="M144.113 47.7383C141.662 47.4503 139.417 46.2291 137.843 44.3284L134.75 40.5899C133.657 39.2739 132.086 38.4455 130.382 38.2867C128.679 38.128 126.982 38.6518 125.664 39.7433C125.013 40.2839 124.473 40.9477 124.078 41.6967C123.683 42.4457 123.439 43.2653 123.36 44.1086C123.281 44.9519 123.37 45.8024 123.62 46.6116C123.87 47.4208 124.277 48.1728 124.818 48.8247L127.911 52.5748C129.478 54.47 130.257 56.8948 130.087 59.3481L129.314 70.6525C128.931 76.1837 130.335 81.6916 133.319 86.3643L134.309 87.9107L171.396 57.1483L170.066 55.8996C166.03 52.1018 160.88 49.7015 155.375 49.0528L144.113 47.7383Z"
      fill="#3EC1F3"/>
    <path
      id="Vector_99"
      d="M90.1664 167.181H83.1804L72.8541 169.995C70.9206 170.523 69.2143 171.671 67.998 173.264C66.7817 174.857 66.123 176.806 66.1232 178.81H107.22C107.22 176.805 106.56 174.856 105.343 173.263C104.126 171.67 102.419 170.522 100.485 169.995L90.1664 167.181Z"
      fill="#3EC1F3"/>
    <path id="Vector_100" d="M164.36 51.6778L130.42 79.7301" stroke="#4756DF" stroke-width="4" stroke-miterlimit="10" stroke-linecap="round"/>
    <path id="Vector_101" d="M83.0102 166.38H90.1663" stroke="#4756DF" stroke-width="4" stroke-miterlimit="10" stroke-linecap="round"/>
    <path id="Vector_102" d="M67.4801 173.977H105.631" stroke="#4756DF" stroke-width="4" stroke-miterlimit="10" stroke-linecap="round"/>
    <path id="Vector_103" d="M287.359 278.547C288.133 271.975 287.746 257.222 279.218 245.979C270.689 234.737 282.31 239.407 285.79 242.5C291.357 247.448 296.259 252.192 300.523 268.089L287.359 278.547Z" fill="#30242A"/>
    <path id="Vector_104" d="M390.34 348.333H435.855V346.845C435.854 344.747 435.02 342.735 433.536 341.252C432.052 339.768 430.04 338.935 427.942 338.935H390.104L390.34 348.333Z" fill="#A15842"/>
    <path
      id="Vector_105"
      d="M279.31 304.879L288.909 348.334H306.748V345.627C306.748 343.882 306.056 342.209 304.824 340.973C303.592 339.737 301.92 339.041 300.175 339.036C300.175 339.036 309.09 332.351 314.518 325.76C314.518 325.76 323.824 337.099 337.007 335.158L337.962 339.797C338.459 342.205 339.77 344.369 341.675 345.923C343.579 347.478 345.961 348.329 348.42 348.334H391.654C410.83 348.334 420.263 345.407 420.805 334.489C420.821 334.073 420.754 333.657 420.606 333.267C420.458 332.878 420.232 332.522 419.944 332.222C419.655 331.921 419.308 331.682 418.925 331.519C418.541 331.356 418.128 331.272 417.712 331.273H405.642C405.144 331.273 404.653 331.162 404.204 330.947C403.755 330.732 403.36 330.419 403.048 330.032L397.91 323.656C396.387 321.77 394.354 320.36 392.054 319.595C389.753 318.829 387.281 318.74 384.931 319.338L374.597 321.979C374.597 321.979 356.287 295.666 339.702 277.391C323.851 259.943 294.036 258.061 282.291 280.785C278.515 288.222 277.46 296.746 279.31 304.879Z"
      fill="#A15842"/>
    <path
      id="Vector_106"
      d="M387.39 348.333V346.845C387.39 345.806 387.186 344.777 386.788 343.817C386.39 342.857 385.807 341.985 385.072 341.25C384.337 340.516 383.465 339.933 382.505 339.536C381.545 339.139 380.516 338.934 379.476 338.935H374.207"
      stroke="#30242A"
      stroke-width="4"
      stroke-miterlimit="10"/>
    <path id="Vector_107" d="M315.238 326.069C317.944 322.848 327.18 310.991 326.519 299.393C325.811 286.983 318.377 280.395 318.377 280.395" stroke="#30242A" stroke-width="4" stroke-miterlimit="10" stroke-linecap="round"/>
    <path id="Vector_108" d="M334.661 318.773C334.661 318.773 335.156 327.948 336.149 334.798" stroke="#30242A" stroke-width="4" stroke-miterlimit="10" stroke-linecap="round"/>
    <path id="Vector_109" d="M297.442 344.363V347.947" stroke="#30242A" stroke-width="4" stroke-miterlimit="10" stroke-linecap="round"/>
    <path id="Vector_110" d="M301.706 344.363V347.947" stroke="#30242A" stroke-width="4" stroke-miterlimit="10" stroke-linecap="round"/>
    <path id="Vector_111" d="M378.862 344.363V347.947" stroke="#30242A" stroke-width="4" stroke-miterlimit="10" stroke-linecap="round"/>
    <path id="Vector_112" d="M383.126 344.363V347.947" stroke="#30242A" stroke-width="4" stroke-miterlimit="10" stroke-linecap="round"/>
    <path id="Vector_113" d="M394.562 333.894C395.525 333.894 396.305 333.113 396.305 332.15C396.305 331.187 395.525 330.406 394.562 330.406C393.599 330.406 392.818 331.187 392.818 332.15C392.818 333.113 393.599 333.894 394.562 333.894Z" fill="#30242A"/>
    <path id="Vector_114" d="M385.047 319.303V319.257L374.582 321.963L384.916 319.322L385.047 319.303Z" fill="#30242A"/>
    <path
      id="Vector_115"
      d="M359.291 339.109C356.26 340.655 351.977 343.682 352.333 348.268H369.165L372.703 342.689C373.281 341.777 374.08 341.025 375.027 340.504C375.973 339.983 377.035 339.709 378.115 339.708H379.24L385.009 319.419L384.924 319.33L374.59 321.971L364.696 334.644C363.24 336.507 361.396 338.03 359.291 339.109Z"
      fill="#30242A"/>
    <path
      id="Vector_116"
      d="M334.707 286.863C334.707 286.863 330.026 303.069 345.146 309.189C352.812 312.282 359.18 309.936 363.599 306.87C356.922 297.978 348.088 286.658 339.698 277.41C337.595 275.096 335.231 273.032 332.655 271.259C330.366 274.375 327.861 282.084 334.707 286.863Z"
      fill="#EAA58B"/>
    <path
      id="Vector_117"
      d="M296.085 298.616C299.619 298.616 302.484 295.751 302.484 292.217C302.484 288.684 299.619 285.819 296.085 285.819C292.551 285.819 289.687 288.684 289.687 292.217C289.687 295.751 292.551 298.616 296.085 298.616Z"
      fill="#EAA58B"/>
    <path
      id="Vector_118"
      d="M417.727 331.272H415.408C415.28 331.919 415.297 332.586 415.457 333.226C415.618 333.865 415.918 334.461 416.336 334.971C416.753 335.481 417.279 335.892 417.875 336.175C418.47 336.458 419.121 336.606 419.78 336.608C420.053 336.608 420.325 336.582 420.592 336.53C420.71 335.855 420.786 335.173 420.82 334.489C420.837 334.073 420.769 333.657 420.621 333.267C420.473 332.878 420.248 332.522 419.959 332.222C419.67 331.921 419.324 331.682 418.94 331.519C418.557 331.356 418.144 331.272 417.727 331.272Z"
      fill="#30242A"/>
    <path id="Vector_119" d="M426.936 344.363V347.858" stroke="#30242A" stroke-width="4" stroke-miterlimit="10" stroke-linecap="round"/>
    <path id="Vector_120" d="M431.201 344.363V347.858" stroke="#30242A" stroke-width="4" stroke-miterlimit="10" stroke-linecap="round"/>
    <path id="Vector_121" d="M403.539 347.869C413.019 346.915 418.671 344.347 420.724 338.885" stroke="#30242A" stroke-width="4" stroke-linecap="round" stroke-linejoin="round"/>
    <path
      id="Vector_122"
      d="M248.973 144.464C244.203 144.036 239.405 143.983 234.626 144.305C227.791 144.866 218.601 146.656 214.909 148.442C211.217 150.228 197.079 156.533 200.887 158.648C204.367 160.581 211.666 157.674 211.666 157.674C211.666 157.674 204.382 164.37 203.129 167.173C201.877 169.976 206.017 171.549 206.017 171.549C207.108 176.336 211.987 174.279 211.987 174.279C215.06 180.816 231.665 166.651 231.665 166.651C235.615 167.061 239.605 166.893 243.507 166.152C243.507 166.152 245.61 167.331 248.985 168.971L248.973 144.464Z"
      fill="#EAA58A"/>
    <path id="Vector_123" d="M290.456 177.26C321.474 162.526 276.511 107.477 260.602 94.6763L251.687 130.735L262.93 146.242C258.004 145.392 253.295 144.808 248.973 144.464V168.971C258.816 173.757 279.5 182.479 290.456 177.26Z" fill="#4756DF"/>
    <path id="Vector_124" d="M210.181 158.08C212.934 155.803 217.503 152.122 220.913 149.903" stroke="#A15842" stroke-width="4" stroke-miterlimit="10" stroke-linecap="round"/>
    <path id="Vector_125" d="M224.671 155.343C216.749 160.473 209.531 167.328 205.959 170.915" stroke="#A15842" stroke-width="4" stroke-miterlimit="10" stroke-linecap="round"/>
    <path id="Vector_126" d="M228.185 161.146C222.773 164.861 216.49 170.494 212.388 174.36" stroke="#A15842" stroke-width="4" stroke-miterlimit="10" stroke-linecap="round"/>
    <path
      id="Vector_127"
      d="M321.242 159.062C321.828 159.063 322.39 159.296 322.804 159.711C323.219 160.125 323.452 160.687 323.453 161.273V161.602C323.452 162.188 323.219 162.75 322.804 163.165C322.39 163.579 321.828 163.812 321.242 163.813H309.848V159.062H321.242ZM321.242 155.969H307.173C307.118 155.969 307.063 155.98 307.012 156.001C306.961 156.022 306.915 156.054 306.876 156.093C306.838 156.132 306.807 156.178 306.786 156.23C306.765 156.281 306.755 156.335 306.755 156.391V166.5C306.755 166.611 306.799 166.717 306.878 166.796C306.956 166.874 307.062 166.918 307.173 166.918H321.242C321.939 166.918 322.63 166.78 323.274 166.513C323.918 166.246 324.504 165.854 324.996 165.36C325.489 164.866 325.88 164.28 326.145 163.635C326.411 162.991 326.547 162.3 326.546 161.602V161.262C326.546 159.855 325.987 158.506 324.992 157.511C323.998 156.516 322.648 155.958 321.242 155.958V155.969Z"
      fill="#3EC1F3"/>
    <path id="Vector_128" d="M304.231 154.303C292.71 154.303 287.386 145.121 287.386 145.121L295.118 178.81H313.32L321.052 145.121C319.256 147.952 316.771 150.28 313.828 151.886C310.886 153.492 307.583 154.324 304.231 154.303Z" fill="#3EC1F3"/>
    <path id="Vector_129" d="M304.231 154.303C307.587 154.328 310.894 153.498 313.841 151.891C316.788 150.285 319.278 147.955 321.075 145.121H287.386C287.386 145.121 292.71 154.303 304.231 154.303Z" fill="#30242A"/>
  </g>
</svg>
