<svg width="439px" height="318px" viewBox="0 0 439 318" fill="none" xmlns="http://www.w3.org/2000/svg">
  <g id="Meetup">
    <path
      id="Vector"
      d="M157.84 80.9205H18.4219C12.1594 80.9205 7.08269 85.9973 7.08269 92.2597V231.678C7.08269 237.941 12.1594 243.017 18.4219 243.017H157.84C164.103 243.017 169.18 237.941 169.18 231.678V92.2597C169.18 85.9973 164.103 80.9205 157.84 80.9205Z"
      fill="#F5EBDD"/>
    <path id="Vector_2" d="M138.901 76.0728C141.061 76.0728 142.813 74.3211 142.813 72.1603C142.813 69.9995 141.061 68.2478 138.901 68.2478C136.74 68.2478 134.988 69.9995 134.988 72.1603C134.988 74.3211 136.74 76.0728 138.901 76.0728Z" fill="#A15842"/>
    <path id="Vector_3" d="M138.9 58.5592V70.8572" stroke="#A15842" stroke-width="4" stroke-miterlimit="10"/>
    <path id="Vector_4" d="M155.76 62.6613H149.807V114.084H155.76V62.6613Z" fill="#A15842"/>
    <path id="Vector_5" d="M170.506 20.2621C169.315 22.6165 164.32 30.8358 152.784 30.8358C141.247 30.8358 136.256 22.6165 135.062 20.2621L123.908 62.6613H181.663L170.506 20.2621Z" fill="#FFBE21"/>
    <path id="Vector_6" d="M165.692 21.0856L173.192 62.6691" stroke="#F5EBDD" stroke-width="4" stroke-miterlimit="10" stroke-linecap="round"/>
    <path id="Vector_7" d="M139.879 21.6267L132.475 62.669" stroke="#F5EBDD" stroke-width="4" stroke-miterlimit="10" stroke-linecap="round"/>
    <path id="Vector_8" d="M147.92 21.36L145.051 62.6536" stroke="#F5EBDD" stroke-width="4" stroke-miterlimit="10" stroke-linecap="round"/>
    <path id="Vector_9" d="M157.647 21.36L160.524 62.7347" stroke="#F5EBDD" stroke-width="4" stroke-miterlimit="10" stroke-linecap="round"/>
    <path id="Vector_10" d="M152.799 30.8318C164.339 30.8318 169.33 22.6125 170.521 20.2581V20.1769H135.085L135.061 20.2581C136.256 22.6164 141.247 30.8318 152.799 30.8318Z" fill="#FF7235"/>
    <path
      id="Vector_11"
      d="M379.556 1.54639H240.138C233.875 1.54639 228.798 6.62312 228.798 12.8856V152.304C228.798 158.566 233.875 163.643 240.138 163.643H379.556C385.818 163.643 390.895 158.566 390.895 152.304V12.8856C390.895 6.62312 385.818 1.54639 379.556 1.54639Z"
      fill="#F5EBDD"/>
    <path
      id="Vector_12"
      d="M152.594 315.677C151.518 315.677 150.48 315.285 149.674 314.572C148.868 313.86 148.35 312.878 148.218 311.811L144.955 284.396H160.233L156.97 311.811C156.839 312.878 156.321 313.861 155.515 314.573C154.709 315.286 153.67 315.678 152.594 315.677Z"
      fill="#30242A"/>
    <path
      id="Vector_13"
      d="M324.004 315.677C322.929 315.678 321.89 315.285 321.085 314.573C320.279 313.861 319.762 312.878 319.632 311.811L316.369 284.396H331.644L328.381 311.811C328.249 312.878 327.732 313.861 326.926 314.573C326.119 315.286 325.08 315.678 324.004 315.677Z"
      fill="#30242A"/>
    <path id="Vector_14" d="M62.9475 171.097H131.536V284.76H31.6749V202.366C31.6759 194.072 34.9711 186.119 40.8358 180.255C46.7004 174.391 54.6542 171.097 62.9475 171.097Z" fill="#FFB7D5"/>
    <path
      id="Vector_15"
      d="M139.708 114.084H376.018C384.313 114.084 392.267 117.379 398.132 123.243C403.996 129.108 407.291 137.062 407.291 145.357V284.748H108.443V145.353C108.443 137.059 111.738 129.104 117.603 123.24C123.468 117.375 131.422 114.08 139.716 114.08L139.708 114.084Z"
      fill="#FFB7D5"/>
    <path id="Vector_16" d="M108.436 187.845V284.748" stroke="#A15842" stroke-width="4" stroke-miterlimit="10" stroke-linecap="round"/>
    <path
      id="Vector_17"
      d="M139.708 216.558H376.018C384.313 216.558 392.267 219.853 398.132 225.718C403.996 231.582 407.291 239.537 407.291 247.831V284.752H108.443V247.831C108.443 239.538 111.737 231.585 117.6 225.72C123.463 219.856 131.416 216.56 139.708 216.558Z"
      fill="#FFB7D5"/>
    <path id="Vector_18" d="M284.184 216.558H138.58C130.582 216.558 122.912 219.735 117.257 225.39C111.601 231.046 108.424 238.716 108.424 246.713V284.763" stroke="#A15842" stroke-width="4" stroke-miterlimit="10" stroke-linecap="round"/>
    <path id="Vector_19" d="M306.68 217.034V284.748" stroke="#A15842" stroke-width="4" stroke-miterlimit="10"/>
    <path id="Vector_20" d="M407.291 170.351H337.566" stroke="#A15842" stroke-width="4" stroke-miterlimit="10"/>
    <path
      id="Vector_21"
      d="M87.5704 158.412C96.5126 159.53 99.3001 155.733 100.611 152.451C102.099 148.728 101.14 145.527 99.9805 141.367C99.9805 141.367 102.934 139.758 102.474 137.914C102.088 136.426 98.7279 136.26 98.7279 136.26C98.5965 135.595 98.4792 134.905 98.3761 134.191C97.6299 128.972 96.5126 125.991 96.5126 125.991C93.903 126.737 90.5511 126.378 89.4339 125.991C87.9246 130.173 85.1996 133.808 81.6089 136.43C81.6089 136.43 73.409 127.487 68.1936 134.195C63.941 139.666 70.0571 146.489 74.1551 147.235C71.7195 152.373 65.1665 155.354 61.7566 156.599C61.9654 158.215 62.1626 159.715 62.3365 161.022H87.8526L87.5704 158.412Z"
      fill="#EAA58B"/>
    <path
      id="Vector_22"
      d="M176.316 190.856C177.663 186.068 178.762 181.214 179.61 176.312L170.668 152.091C170.668 152.091 174.395 142.04 171.055 140.54C167.714 139.039 160.234 148.747 157.253 156.564C155.965 159.943 152.447 167.71 148.871 175.439L176.316 190.856Z"
      fill="#EAA58B"/>
    <path
      id="Vector_23"
      d="M139.364 195.689C139.364 195.689 117.753 177.43 108.397 170.718C99.0413 164.007 88.3168 165.135 88.3168 165.135L87.849 161.034H62.3329C62.7195 163.945 62.9708 165.878 62.9708 165.878L43.9729 233.7L100.607 229.227L99.1186 208.35C99.1186 208.35 129.661 233.867 147.189 231.454C162.998 229.266 171.979 206.441 176.312 190.86L148.863 175.442C144.174 185.595 139.364 195.689 139.364 195.689Z"
      fill="#3EC1F3"/>
    <path
      id="Vector_24"
      d="M74.1552 147.247C70.0572 146.501 63.9372 139.677 68.1937 134.207C73.4091 127.499 81.609 136.441 81.609 136.441C85.1997 133.82 87.9247 130.185 89.434 126.003C90.5513 126.39 93.9032 126.749 96.5128 126.003C96.5128 126.003 102.103 124.14 101.728 119.67C101.229 113.67 92.0397 116.315 92.0397 116.315C92.0397 116.315 81.9879 108.861 71.1629 113.705C59.6265 118.897 58.5054 129.363 59.2399 136.441C59.6652 140.505 60.8289 149.586 61.7451 156.611C65.1666 155.362 71.7196 152.385 74.1552 147.247Z"
      fill="#30242A"/>
    <path
      id="Vector_25"
      d="M177.797 180.971C176.092 181.675 174.596 181.88 173.931 181.497C172.261 180.546 171.998 178.555 173.981 175.756C173.981 175.756 169.268 177.592 167.815 175.203C166.361 172.814 168.545 170.614 168.545 170.614C168.545 170.614 165.209 171.534 164.393 168.565C163.578 165.596 166.326 164.041 166.326 164.041C166.326 164.041 164.447 163.342 164.393 161.382C164.32 158.532 168.963 156.22 170.301 155.613"
      stroke="#A15842"
      stroke-width="8"
      stroke-miterlimit="10"
      stroke-linecap="round"/>
    <path id="Vector_26" d="M99.942 208.269L98.5618 192.152" stroke="#4756DF" stroke-width="4" stroke-miterlimit="10" stroke-linecap="round"/>
    <path id="Vector_27" d="M87.2187 159.1C85.0566 158.612 82.9742 157.82 81.033 156.75" stroke="#A15842" stroke-width="4" stroke-miterlimit="10" stroke-linecap="round"/>
    <path id="Vector_28" d="M46.3929 228.667L55.9962 203.131" stroke="#4756DF" stroke-width="4" stroke-miterlimit="10" stroke-linecap="round"/>
    <path id="Vector_29" d="M96.9419 145.186C96.3272 145.573 94.0153 145.867 93.0758 144.092" stroke="#A15842" stroke-width="4" stroke-miterlimit="10" stroke-linecap="round"/>
    <path id="Vector_30" d="M93.532 136.813C94.1491 136.813 94.6493 136.312 94.6493 135.695C94.6493 135.078 94.1491 134.578 93.532 134.578C92.9149 134.578 92.4147 135.078 92.4147 135.695C92.4147 136.312 92.9149 136.813 93.532 136.813Z" fill="#A15842"/>
    <path id="Vector_31" d="M73.0379 139.051L77.1359 141.286" stroke="#A15842" stroke-width="4" stroke-miterlimit="10" stroke-linecap="round"/>
    <path id="Vector_32" d="M177.58 300.506L206.124 292.059C203.947 284.535 199.783 270.273 197.104 261.965L161.486 276.834C166.147 285.181 171.532 293.102 177.58 300.506Z" fill="#EAA58B"/>
    <path
      id="Vector_33"
      d="M178.122 301.144C177.286 304.315 176.768 307.562 176.575 310.836H227.07C226.102 308.505 224.382 306.565 222.184 305.323L207.558 297.042C207.558 297.042 207.001 295.109 206.124 292.055L177.581 300.506C177.929 300.924 178.122 301.144 178.122 301.144Z"
      fill="#FFBE21"/>
    <path id="Vector_34" d="M176.629 315.677H228.048L227.89 314.084C227.779 312.966 227.501 311.872 227.066 310.836H176.571C176.461 312.449 176.48 314.067 176.629 315.677Z" fill="#FF7235"/>
    <path
      id="Vector_35"
      d="M151.291 253.077C153.758 261.582 157.535 269.744 161.486 276.834L197.104 261.965C196.718 260.716 196.331 259.603 196.006 258.664C184.86 226.455 178.122 200.553 161.726 197.927C135.92 193.822 92.0204 238.266 85.4288 245.094L94.9239 250.85L124.778 264.872L135.653 267.382L151.291 253.077Z"
      fill="#A15842"/>
    <path id="Vector_36" d="M150.479 252.745C149.634 248.623 149.219 244.425 149.242 240.219" stroke="#30242A" stroke-width="4" stroke-miterlimit="10" stroke-linecap="round"/>
    <path
      id="Vector_37"
      d="M288.792 164.76C288.792 164.76 253.081 174.182 237.373 183.02C219.485 193.072 218.368 206.495 207.191 240.404C203.591 251.318 201.048 260.086 198.685 266.975L229.475 281.512L229.533 281.396C229.533 281.396 244.61 279.181 245.929 260.519C246.922 246.601 247.398 236.275 252.261 225.864L335.359 164.753L288.792 164.76Z"
      fill="#30242A"/>
    <path
      id="Vector_38"
      d="M182.084 287.446C171.317 289.078 166.825 291.173 165.074 296.056L185.413 305.524C185.413 305.524 196.319 302.431 202.192 303.943V303.962C206.126 304.885 209.966 306.17 213.663 307.801C219.722 299.53 225.027 290.732 229.513 281.512L198.724 266.975C194.309 279.869 190.628 286.151 182.084 287.446Z"
      fill="#4856DF"/>
    <path id="Vector_39" d="M197.294 311.061L207.214 315.677C209.505 313.177 211.651 310.548 213.639 307.801C209.943 306.17 206.103 304.885 202.169 303.962L197.294 311.061Z" fill="#30242A"/>
    <path id="Vector_40" d="M192.202 279.413L199.107 282.432" stroke="#F5EBDD" stroke-width="4" stroke-miterlimit="10" stroke-linecap="round"/>
    <path id="Vector_41" d="M188.278 284.203L195.183 287.226" stroke="#F5EBDD" stroke-width="4" stroke-miterlimit="10" stroke-linecap="round"/>
    <path
      id="Vector_42"
      d="M324.936 81.8486C327.097 81.8486 328.848 80.0969 328.848 77.9361C328.848 75.7754 327.097 74.0237 324.936 74.0237C322.775 74.0237 321.023 75.7754 321.023 77.9361C321.023 80.0969 322.775 81.8486 324.936 81.8486Z"
      fill="#FFBE21"/>
    <path id="Vector_43" d="M338.726 53.344C347.37 53.344 354.376 46.3373 354.376 37.6941C354.376 29.0509 347.37 22.0442 338.726 22.0442C330.083 22.0442 323.077 29.0509 323.077 37.6941C323.077 46.3373 330.083 53.344 338.726 53.344Z" fill="#30242A"/>
    <path id="Vector_44" d="M327.932 48.1285C328.891 48.5693 320.853 29.4941 316.755 32.4748C312.882 35.2816 323.073 45.9094 327.932 48.1285Z" fill="#3EC1F3"/>
    <path id="Vector_45" d="M328.361 49.2925C329.239 50.3402 349.737 43.1686 346.918 39.028C344.17 35.0498 327.487 48.2293 328.361 49.2925Z" fill="#3EC1F3"/>
    <path id="Vector_46" d="M366.674 124.143L368.468 123.865V123.339C367.888 123.645 367.289 123.914 366.674 124.143Z" fill="#30242A"/>
    <path
      id="Vector_47"
      d="M317.857 120.045C335.301 120.362 344.104 102.602 346.339 97.3012C345.565 97.1581 344.792 97.0344 343.942 96.9416C333.89 95.8243 332.019 95.4532 328.663 90.9801C325.307 86.5071 324.936 77.5648 324.936 77.5648C324.936 77.5648 333.627 75.6318 332.39 68.6226C331.273 62.2861 323.819 62.2861 319.721 66.7592C319.721 66.7592 313.384 65.2668 307.423 58.5592C307.423 58.5592 303.062 59.5837 300.077 59.085C299.304 63.964 299.35 69.4229 298.469 73.8379C296.977 81.2917 298.082 86.1359 302.567 88.7455C307.052 91.3551 312.255 89.4878 312.255 89.4878L311.138 96.1955C311.138 96.1955 304.631 96.9493 299.207 98.6543C300.286 107.075 304.164 119.798 317.857 120.045Z"
      fill="#A15842"/>
    <path id="Vector_48" d="M342.078 164.761L344.108 163.384L340.59 164.761H342.078Z" fill="#A15842"/>
    <path
      id="Vector_49"
      d="M261.59 121.538C261.59 121.538 242.055 94.8618 237.369 89.4879C232.15 83.5265 225.071 77.1938 222.837 79.4361C220.602 81.6785 226.935 89.1245 226.935 89.1245L225.818 113.345C225.818 113.345 238.653 147.958 252.648 152.474C259.646 154.732 272.937 148.778 282.328 143.737L267.803 117.447C264.111 119.868 261.59 121.538 261.59 121.538Z"
      fill="#A15842"/>
    <path
      id="Vector_50"
      d="M366.674 124.143C366.674 124.143 365.182 115.947 363.318 111.474C360.531 104.778 355.93 99.1029 346.339 97.3013C344.104 102.602 335.301 120.362 317.857 120.045C304.164 119.798 300.286 107.075 299.219 98.6544C298.076 99.0036 296.958 99.4272 295.871 99.9225C291.939 101.759 276.571 111.71 267.803 117.447L282.312 143.721C288.417 140.447 292.875 137.536 292.875 137.536L288.777 164.737H340.582L344.1 163.361L368.456 146.837C368.425 139.239 367.829 131.654 366.674 124.143Z"
      fill="#FF7235"/>
    <path
      id="Vector_51"
      d="M377.48 105.142C374.808 92.4571 361.084 92.8437 361.084 92.8437C361.75 89.8084 361.656 86.6556 360.811 83.6652C359.966 80.6748 358.396 77.9393 356.24 75.7015C348.786 67.8766 338.351 71.2285 338.351 71.2285C338.738 66.7593 339.469 55.2075 329.78 48.1287C320.092 41.0499 307.798 44.7729 303.325 50.3633C301.504 52.6404 300.618 55.7255 300.089 59.0851C303.062 59.5839 307.434 58.5593 307.434 58.5593C313.396 65.267 319.732 66.7593 319.732 66.7593C323.83 62.2862 331.284 62.2862 332.401 68.6227C333.639 75.6319 324.948 77.565 324.948 77.565C324.948 77.565 325.334 86.5072 328.674 90.9803C332.015 95.4533 333.894 95.8245 343.953 96.9418C344.788 97.0345 345.585 97.1582 346.35 97.3013C355.942 99.099 360.543 104.778 363.33 111.474C365.193 115.947 366.686 124.143 366.686 124.143C367.294 123.913 367.886 123.645 368.46 123.339C372.071 121.46 379.784 116.083 377.48 105.142Z"
      fill="#30242A"/>
    <path id="Vector_52" d="M324.194 71.2285L327.175 69.3689" stroke="#30242A" stroke-width="4" stroke-miterlimit="10" stroke-linecap="round"/>
    <path id="Vector_53" d="M305.122 79.9774C305.741 80.364 308.049 80.6579 308.988 78.8833" stroke="#30242A" stroke-width="4" stroke-miterlimit="10" stroke-linecap="round"/>
    <path id="Vector_54" d="M311.2 71.5918C311.817 71.5918 312.317 71.0915 312.317 70.4745C312.317 69.8574 311.817 69.3572 311.2 69.3572C310.583 69.3572 310.083 69.8574 310.083 70.4745C310.083 71.0915 310.583 71.5918 311.2 71.5918Z" fill="#30242A"/>
    <path
      id="Vector_55"
      d="M302.578 70.1112C303.195 70.1112 303.696 69.6109 303.696 68.9939C303.696 68.3768 303.195 67.8766 302.578 67.8766C301.961 67.8766 301.461 68.3768 301.461 68.9939C301.461 69.6109 301.961 70.1112 302.578 70.1112Z"
      fill="#30242A"/>
    <path id="Vector_56" d="M305.559 71.9747C305.559 71.9747 304.543 74.5225 304.786 75.0328C304.963 75.3605 305.232 75.6293 305.559 75.806" stroke="#30242A" stroke-width="4" stroke-miterlimit="10" stroke-linecap="round"/>
    <path
      id="Vector_57"
      d="M229.347 118.375C229.953 118.37 230.542 118.172 231.029 117.811C232.347 116.492 232.08 114.563 229.506 112.46C229.506 112.46 234.385 112.967 235.127 110.357C235.869 107.747 233.267 106.259 233.267 106.259C233.267 106.259 236.619 106.259 236.619 103.278C236.619 100.297 233.638 99.5513 233.638 99.5513C233.638 99.5513 235.216 98.4108 234.756 96.5705C234.01 93.5898 227.677 92.8436 227.677 92.8436L226.803 91.7766"
      stroke="#30242A"
      stroke-width="8"
      stroke-linecap="round"
      stroke-linejoin="round"/>
    <path id="Vector_58" d="M312.468 90.2147C314.04 89.5901 315.573 88.8737 317.061 88.069" stroke="#30242A" stroke-width="4" stroke-miterlimit="10" stroke-linecap="round"/>
    <path id="Vector_59" d="M262.518 121.453L266.435 126.753" stroke="#30242A" stroke-width="4" stroke-miterlimit="10" stroke-linecap="round"/>
    <path id="Vector_60" d="M294.15 125.257L292.248 137.195" stroke="#A15842" stroke-width="4" stroke-miterlimit="10" stroke-linecap="round"/>
    <path id="Vector_61" d="M340.215 149.482L340.029 130.294" stroke="#A15842" stroke-width="4" stroke-miterlimit="10" stroke-linecap="round"/>
    <path id="Vector_62" d="M361.648 93.3657C361.11 95.3782 360.389 97.3374 359.495 99.219" stroke="black" stroke-width="4" stroke-linecap="round" stroke-linejoin="round"/>
    <path id="Vector_63" d="M339.035 71.6577L337.98 77.194" stroke="black" stroke-width="4" stroke-linecap="round" stroke-linejoin="round"/>
    <path
      id="Vector_64"
      d="M316.369 165.136C316.369 165.136 284.319 175.187 266.435 183.766C248.651 192.272 250.785 212.085 254.137 246.741C255.324 258.992 256.711 268.584 257.415 276.181H291.437C293.184 275.207 303.499 268.584 297.348 250.468C292.855 237.242 288.978 228.481 288.978 216.991H317.432C325.526 216.992 333.301 213.836 339.106 208.195C344.911 202.554 348.288 194.873 348.519 186.782L349.142 165.132L316.369 165.136Z"
      fill="#30242A"/>
    <path
      id="Vector_65"
      d="M250.928 300.684C241.866 306.723 238.684 310.519 239.156 315.688L261.579 315.657C261.579 315.657 270.15 308.238 276.112 307.121C280.062 306.37 284.075 305.996 288.096 306.004C289.461 299.319 290.93 289.287 291.189 276.32L291.437 276.192H257.415C258.602 288.943 257.848 296.064 250.928 300.684Z"
      fill="#4856DF"/>
    <path id="Vector_66" d="M274.708 315.623H285.653C285.653 315.623 286.844 312.294 288.127 306.008C284.106 306 280.093 306.374 276.142 307.125L274.708 315.623Z" fill="#30242A"/>
    <path id="Vector_67" d="M288.634 217.676H279.85" stroke="black" stroke-width="4" stroke-linecap="round" stroke-linejoin="round"/>
    <path id="Vector_68" d="M256.731 290.899H265.132" stroke="#F5EBDD" stroke-width="4" stroke-miterlimit="10" stroke-linecap="round"/>
    <path id="Vector_69" d="M254.863 296.86H263.264" stroke="#F5EBDD" stroke-width="4" stroke-miterlimit="10" stroke-linecap="round"/>
    <path id="Vector_70" d="M141.417 231.833C150.575 231.833 157.999 224.409 157.999 215.251C157.999 206.094 150.575 198.67 141.417 198.67C132.26 198.67 124.836 206.094 124.836 215.251C124.836 224.409 132.26 231.833 141.417 231.833Z" fill="white"/>
    <path
      id="Vector_71"
      d="M146.076 210.222C146.076 207.649 143.99 205.563 141.417 205.563C138.844 205.563 136.759 207.649 136.759 210.222V215.808C136.759 218.381 138.844 220.467 141.417 220.467C143.99 220.467 146.076 218.381 146.076 215.808V210.222Z"
      fill="#4856DF"/>
    <path id="Vector_72" d="M141.417 218.978V224.197" stroke="#4856DF" stroke-width="4" stroke-miterlimit="10" stroke-linecap="round"/>
    <path id="Vector_73" d="M138.746 224.198H144.085" stroke="#4856DF" stroke-width="4" stroke-miterlimit="10" stroke-linecap="round"/>
    <path id="Vector_74" d="M24.4066 104.392C27.8016 104.392 30.5537 101.639 30.5537 98.2445C30.5537 94.8495 27.8016 92.0974 24.4066 92.0974C21.0117 92.0974 18.2596 94.8495 18.2596 98.2445C18.2596 101.639 21.0117 104.392 24.4066 104.392Z" fill="white"/>
    <path id="Vector_75" d="M43.0412 104.392C46.4361 104.392 49.1882 101.639 49.1882 98.2445C49.1882 94.8495 46.4361 92.0974 43.0412 92.0974C39.6462 92.0974 36.8941 94.8495 36.8941 98.2445C36.8941 101.639 39.6462 104.392 43.0412 104.392Z" fill="white"/>
    <path id="Vector_76" d="M61.6716 104.392C65.0665 104.392 67.8186 101.639 67.8186 98.2445C67.8186 94.8495 65.0665 92.0974 61.6716 92.0974C58.2766 92.0974 55.5245 94.8495 55.5245 98.2445C55.5245 101.639 58.2766 104.392 61.6716 104.392Z" fill="white"/>
    <path
      id="Vector_77"
      d="M157.825 80.9206C160.831 80.9206 163.714 82.1148 165.84 84.2406C167.966 86.3664 169.16 89.2496 169.16 92.2559V231.678C169.16 234.685 167.966 237.568 165.84 239.693C163.714 241.819 160.831 243.014 157.825 243.014H18.418C15.4117 243.014 12.5285 241.819 10.4027 239.693C8.27695 237.568 7.08269 234.685 7.08269 231.678V92.2559C7.08269 89.2496 8.27695 86.3664 10.4027 84.2406C12.5285 82.1148 15.4117 80.9206 18.418 80.9206H157.825ZM157.825 79.3741H18.418C15.0028 79.3782 11.7287 80.7367 9.31377 83.1517C6.89886 85.5666 5.54036 88.8407 5.53626 92.2559V231.678C5.54036 235.093 6.89886 238.368 9.31377 240.782C11.7287 243.197 15.0028 244.556 18.418 244.56H157.825C161.24 244.556 164.514 243.197 166.929 240.782C169.344 238.368 170.703 235.093 170.707 231.678V92.2559C170.703 88.8407 169.344 85.5666 166.929 83.1517C164.514 80.7367 161.24 79.3782 157.825 79.3741Z"
      fill="#F5EBDD"/>
    <path id="Vector_78" d="M338.695 171.097H407.291V284.76H307.442V202.366C307.443 194.076 310.736 186.125 316.596 180.262C322.457 174.399 330.405 171.102 338.695 171.097Z" fill="#FFB7D5"/>
    <path
      id="Vector_79"
      d="M390.149 284.81C391.065 282.18 392.777 279.9 395.047 278.286C397.317 276.673 400.033 275.806 402.818 275.806C405.603 275.806 408.319 276.673 410.589 278.286C412.86 279.9 414.571 282.18 415.487 284.81C416.363 282.3 417.964 280.106 420.088 278.507C422.213 276.908 424.764 275.976 427.418 275.829C426.232 273.714 424.821 271.735 423.208 269.925L418.337 264.47C416.82 262.769 415.864 260.642 415.598 258.378C415.332 256.114 415.77 253.823 416.852 251.817L420.989 244.131C419.829 245.291 413.117 251.585 402.93 251.585C392.743 251.585 386.036 245.302 384.876 244.131L389.016 251.817C390.096 253.824 390.532 256.115 390.265 258.379C389.998 260.642 389.041 262.769 387.524 264.47L382.653 269.925C381.036 271.738 379.622 273.721 378.435 275.84C381.05 276.027 383.554 276.976 385.636 278.57C387.718 280.164 389.287 282.334 390.149 284.81Z"
      fill="#4756DF"/>
    <path
      id="Vector_80"
      d="M428.156 292.565C425.371 292.567 422.655 293.435 420.385 295.049C418.115 296.663 416.403 298.943 415.487 301.573C414.573 298.941 412.862 296.659 410.592 295.044C408.321 293.429 405.604 292.562 402.818 292.562C400.032 292.562 397.315 293.429 395.045 295.044C392.774 296.659 391.063 298.941 390.149 301.573C389.042 298.393 386.78 295.745 383.811 294.155C380.843 292.565 377.385 292.149 374.124 292.99C374.315 301.497 377.747 309.609 383.72 315.669H422.102C428.062 309.622 431.493 301.529 431.694 293.041C430.541 292.726 429.351 292.566 428.156 292.565Z"
      fill="#4756DF"/>
    <path id="Vector_81" d="M402.911 251.585C413.098 251.585 419.806 245.302 420.969 244.131H384.856C386.016 245.302 392.728 251.585 402.911 251.585Z" fill="#30242A"/>
    <path
      id="Vector_82"
      d="M390.149 301.581C391.063 298.949 392.774 296.667 395.045 295.052C397.315 293.437 400.032 292.569 402.818 292.569C405.604 292.569 408.321 293.437 410.592 295.052C412.862 296.667 414.573 298.949 415.487 301.581C416.604 298.369 418.899 295.701 421.907 294.117C424.916 292.533 428.414 292.151 431.694 293.048C431.848 287.028 430.37 281.078 427.418 275.829C424.764 275.976 422.213 276.908 420.089 278.507C417.964 280.106 416.363 282.3 415.487 284.81C414.571 282.18 412.86 279.9 410.589 278.286C408.319 276.673 405.603 275.806 402.818 275.806C400.033 275.806 397.317 276.673 395.047 278.286C392.777 279.9 391.065 282.18 390.149 284.81C389.284 282.328 387.709 280.155 385.62 278.56C383.53 276.965 381.018 276.02 378.396 275.84C375.465 281.075 373.996 287.001 374.143 292.998C377.404 292.157 380.862 292.573 383.831 294.163C386.799 295.753 389.061 298.4 390.168 301.581H390.149Z"
      fill="#3EC1F3"/>
    <path id="Vector_83" d="M405.586 250.529C406.321 246.022 409.673 228.137 418.097 218.441" stroke="#30242A" stroke-width="4" stroke-miterlimit="10" stroke-linecap="round"/>
    <path id="Vector_84" d="M401.693 250.657C401.639 245.538 401.113 220.386 396.111 205.377" stroke="#30242A" stroke-width="4" stroke-miterlimit="10" stroke-linecap="round"/>
    <path id="Vector_85" d="M423.854 233.037C431.241 229.786 436.638 225.805 435.907 224.143C435.176 222.482 428.594 223.771 421.207 227.021C413.82 230.272 408.423 234.254 409.154 235.915C409.885 237.576 416.467 236.287 423.854 233.037Z" fill="#30242A"/>
    <path id="Vector_86" d="M423.849 187.337C426.504 183.748 427.641 180.087 426.388 179.16C425.134 178.233 421.966 180.391 419.311 183.981C416.656 187.57 415.52 191.231 416.773 192.158C418.026 193.085 421.194 190.927 423.849 187.337Z" fill="#30242A"/>
    <path id="Vector_87" d="M383.869 235.632C393.498 234.175 401.095 231.616 400.838 229.914C400.581 228.212 392.566 228.013 382.937 229.47C373.308 230.926 365.711 233.486 365.968 235.187C366.225 236.889 374.24 237.088 383.869 235.632Z" fill="#30242A"/>
    <path
      id="Vector_88"
      d="M377.14 210.492V210.519C378.561 211.315 379.632 212.615 380.143 214.162C380.654 215.708 380.567 217.39 379.9 218.876C379.233 220.362 378.033 221.545 376.538 222.19C375.042 222.836 373.359 222.898 371.82 222.365V222.392C379.892 226.018 387.632 226.293 389.109 223.007C390.586 219.721 385.212 214.119 377.14 210.492Z"
      fill="#FF7235"/>
    <path
      id="Vector_89"
      d="M401.001 184.207C399.281 183.762 397.046 186.36 395.415 190.392C393.451 185.51 390.601 182.243 388.684 182.877C386.766 183.511 386.418 187.829 387.748 192.929C384.045 190.671 380.7 189.913 379.587 191.293C378.164 193.056 380.905 197.626 385.711 201.504C387.078 202.619 388.55 203.599 390.106 204.43C390.372 203.378 390.895 202.409 391.63 201.61C392.365 200.812 393.287 200.209 394.314 199.858C395.34 199.506 396.439 199.417 397.509 199.598C398.578 199.778 399.586 200.224 400.441 200.893C401.161 199.343 401.737 197.731 402.161 196.076C403.707 190.083 403.193 184.775 401.001 184.207Z"
      fill="#FF7235"/>
    <path
      id="Vector_90"
      d="M438.463 211.335C437.934 209.642 434.547 209.12 430.271 209.858C433.364 205.606 434.647 201.465 433.093 200.17C431.539 198.875 427.681 200.87 424.07 204.689C424.027 200.352 422.91 197.116 421.143 196.899C418.897 196.625 416.465 201.368 415.731 207.496C415.508 209.246 415.455 211.013 415.572 212.773C416.605 212.442 417.705 212.374 418.771 212.575C419.838 212.777 420.837 213.241 421.678 213.927C422.519 214.612 423.175 215.497 423.588 216.501C424 217.505 424.155 218.596 424.039 219.674C425.735 219.467 427.409 219.104 429.038 218.588C434.91 216.744 439.14 213.496 438.463 211.335Z"
      fill="#FF7235"/>
    <path
      id="Vector_91"
      d="M421.712 213.972C420.869 213.269 419.863 212.791 418.786 212.582C417.71 212.372 416.597 212.438 415.553 212.773C415.762 215.688 416.5 217.919 417.61 218.75C418.642 219.709 421.039 220.026 424.02 219.674C424.135 218.607 423.985 217.528 423.582 216.533C423.18 215.538 422.537 214.658 421.712 213.972Z"
      fill="#30242A"/>
    <path
      id="Vector_92"
      d="M394.382 199.822C393.34 200.166 392.402 200.767 391.655 201.571C390.908 202.375 390.377 203.354 390.11 204.419C392.693 205.783 394.978 206.352 396.269 205.834C397.63 205.447 399.165 203.599 400.444 200.881C399.6 200.218 398.604 199.775 397.547 199.59C396.489 199.405 395.402 199.485 394.382 199.822Z"
      fill="#30242A"/>
    <path
      id="Vector_93"
      d="M377.859 221.43C377.168 221.042 376.648 220.409 376.4 219.657C376.153 218.904 376.197 218.086 376.523 217.365C376.849 216.643 377.434 216.069 378.162 215.758C378.891 215.446 379.709 215.418 380.457 215.681C380.37 214.612 380.021 213.581 379.44 212.679C378.86 211.777 378.065 211.033 377.128 210.512L371.808 222.357C372.815 222.711 373.894 222.812 374.949 222.65C376.005 222.488 377.004 222.069 377.859 221.43Z"
      fill="#F5EBDD"/>
    <path
      id="Vector_94"
      d="M376.502 217.37C376.177 218.095 376.136 218.915 376.387 219.668C376.639 220.422 377.164 221.053 377.859 221.437C378.744 220.778 379.447 219.905 379.902 218.899C380.356 217.893 380.547 216.788 380.457 215.688C379.707 215.42 378.883 215.444 378.15 215.755C377.417 216.067 376.829 216.644 376.502 217.37Z"
      fill="#4856DF"/>
    <path id="Vector_95" d="M246.126 25.0212C249.521 25.0212 252.273 22.269 252.273 18.8741C252.273 15.4792 249.521 12.7271 246.126 12.7271C242.731 12.7271 239.979 15.4792 239.979 18.8741C239.979 22.269 242.731 25.0212 246.126 25.0212Z" fill="white"/>
    <path id="Vector_96" d="M264.757 25.0212C268.152 25.0212 270.904 22.269 270.904 18.8741C270.904 15.4792 268.152 12.7271 264.757 12.7271C261.362 12.7271 258.61 15.4792 258.61 18.8741C258.61 22.269 261.362 25.0212 264.757 25.0212Z" fill="white"/>
    <path id="Vector_97" d="M283.387 25.0212C286.782 25.0212 289.534 22.269 289.534 18.8741C289.534 15.4792 286.782 12.7271 283.387 12.7271C279.992 12.7271 277.24 15.4792 277.24 18.8741C277.24 22.269 279.992 25.0212 283.387 25.0212Z" fill="white"/>
    <path
      id="Vector_98"
      d="M379.556 1.54643C382.563 1.54643 385.447 2.74109 387.574 4.86761C389.7 6.99412 390.895 9.87829 390.895 12.8856V152.308C390.894 155.315 389.699 158.198 387.572 160.323C385.446 162.449 382.562 163.643 379.556 163.643H240.137C237.131 163.643 234.247 162.449 232.121 160.323C229.994 158.198 228.799 155.315 228.798 152.308V12.8856C228.798 11.3965 229.091 9.92204 229.661 8.54631C230.231 7.17057 231.066 5.92055 232.119 4.86761C233.172 3.81466 234.422 2.97943 235.798 2.40958C237.174 1.83973 238.648 1.54643 240.137 1.54643H379.556ZM379.556 0H240.137C236.721 0.00409252 233.446 1.36299 231.03 3.77863C228.615 6.19427 227.256 9.4694 227.252 12.8856V152.308C227.256 155.724 228.615 158.999 231.031 161.414C233.446 163.829 236.721 165.187 240.137 165.19H379.556C382.972 165.187 386.247 163.829 388.663 161.414C391.078 158.999 392.437 155.724 392.441 152.308V12.8856C392.437 9.4694 391.078 6.19427 388.663 3.77863C386.247 1.36299 382.972 0.00409252 379.556 0Z"
      fill="#F5EBDD"/>
    <path
      id="Vector_99"
      d="M227.306 89.1168C227.306 89.1168 219.11 89.1168 217.993 92.4687C216.875 95.8206 219.481 98.4341 219.481 98.4341C219.481 98.4341 215.012 100.669 217.993 104.767C217.993 104.767 215.754 108.494 219.481 110.728C219.481 110.728 217.247 113.338 220.973 115.947C224.7 118.557 229.916 118.928 231.025 117.811C232.344 116.493 232.077 114.563 229.502 112.46C229.502 112.46 234.381 112.967 235.123 110.357C235.866 107.747 233.264 106.259 233.264 106.259C233.264 106.259 236.616 106.259 236.616 103.278C236.616 100.298 233.635 99.5514 233.635 99.5514C233.635 99.5514 235.212 98.4109 234.752 96.5706C234.203 94.3786 230.639 93.3966 228.787 93.0293C228.295 92.9386 227.798 92.8766 227.298 92.8437L227.306 89.1168Z"
      fill="#A15842"/>
    <path id="Vector_100" d="M219.91 111.041C223.612 112.16 227.424 112.877 231.28 113.179" stroke="#30242A" stroke-width="4" stroke-miterlimit="10" stroke-linecap="round"/>
    <path id="Vector_101" d="M218.522 105.061C223.916 106.395 229.47 106.966 235.023 106.758" stroke="#30242A" stroke-width="4" stroke-miterlimit="10" stroke-linecap="round"/>
    <path id="Vector_102" d="M219.701 98.8749C224.814 100.103 230.101 100.44 235.328 99.8723" stroke="#30242A" stroke-width="4" stroke-miterlimit="10" stroke-linecap="round"/>
    <path
      id="Vector_103"
      d="M339.469 159.932C339.469 159.932 309.286 167.761 298.852 175.585C294.139 179.119 288.413 185.637 286.557 188.626C284.702 191.614 276.869 202.787 280.596 203.158C284.323 203.529 288.421 196.826 288.421 196.826C288.421 196.826 286.179 205.022 286.565 207.631C286.952 210.241 290.663 209.495 290.663 209.495C293.644 212.476 296.254 208.749 296.254 208.749C301.469 212.101 307.079 194.216 307.079 194.216C310.139 192.708 312.964 190.762 315.464 188.44C315.464 188.44 348.813 188.255 359.247 178.937C366.655 172.326 368.483 159.286 368.48 146.876H339.484L339.469 159.932Z"
      fill="#A15842"/>
    <path id="Vector_104" d="M339.747 159.027L346.551 157.326" stroke="#30242A" stroke-width="4" stroke-miterlimit="10" stroke-linecap="round"/>
    <path id="Vector_105" d="M286.952 199.779C288.885 193.207 290.431 189.341 291.591 186.948" stroke="#30242A" stroke-width="4" stroke-miterlimit="10" stroke-linecap="round"/>
    <path id="Vector_106" d="M296.803 189.186C293.447 196.416 291.39 205.138 290.431 209.445" stroke="#30242A" stroke-width="4" stroke-miterlimit="10" stroke-linecap="round"/>
    <path id="Vector_107" d="M302.03 191.792C299.837 196.818 297.846 204.38 296.617 209.058" stroke="#30242A" stroke-width="4" stroke-miterlimit="10" stroke-linecap="round"/>
    <path id="Vector_108" d="M293.323 172.976C284.242 176.208 274.105 180.089 266.435 183.766C252.687 190.338 250.843 203.68 252.262 225.396" stroke="black" stroke-width="4" stroke-linecap="round" stroke-linejoin="round"/>
    <path
      id="Vector_109"
      d="M74.9246 279.919C59.6806 283.012 48.8169 286.986 48.8169 286.986L34.1491 280.488L34.18 280.167L0 311.207L0.74615 312.1C1.67914 313.22 2.84666 314.12 4.1661 314.738C5.48554 315.356 6.92466 315.676 8.38165 315.677H76.9852L74.9246 279.919Z"
      fill="#EAA58B"/>
    <path
      id="Vector_110"
      d="M48.8016 286.986C48.8016 286.986 59.6653 282.993 74.9092 279.919L76.9698 315.677H125.934C139.171 315.677 150.773 306.398 153.24 293.393C154.883 284.713 152.316 275.419 143.091 269.098C128.253 258.93 96.5129 245.623 88.3168 243.014L43.2267 253.452C34.6556 262.769 36.5191 278.044 36.5191 278.044L48.8016 286.986Z"
      fill="#A15842"/>
    <path id="Vector_111" d="M75.0367 280.402C85.1736 278.442 96.4973 276.745 112.348 277.484" stroke="#30242A" stroke-width="4" stroke-miterlimit="10" stroke-linecap="round"/>
    <path id="Vector_112" d="M89.0899 242.627C96.2615 244.912 121.461 255.385 137.586 264.78" stroke="#30242A" stroke-width="4" stroke-miterlimit="10" stroke-linecap="round"/>
    <path id="Vector_113" d="M41.456 280.437L3.84295 314.571C5.2495 315.298 6.80993 315.677 8.39331 315.677H35.7729L48.8015 286.987C46.761 284.385 44.2737 282.167 41.456 280.437Z" fill="#FFBE21"/>
    <path id="Vector_114" d="M36.519 278.04L0 311.207L0.74615 312.101C1.6003 313.124 2.65228 313.964 3.83901 314.571L41.4559 280.437C39.9039 279.458 38.2481 278.655 36.519 278.04Z" fill="#FF7235"/>
    <path id="Vector_115" d="M28.1335 309.158V315.762" stroke="#30242A" stroke-width="4" stroke-miterlimit="10" stroke-linecap="round"/>
    <path id="Vector_116" d="M22.172 309.158V315.762" stroke="#30242A" stroke-width="4" stroke-miterlimit="10" stroke-linecap="round"/>
    <path id="Vector_117" d="M63.1253 165.252C64.2852 165.143 66.7053 164.946 69.1255 164.946" stroke="#4756DF" stroke-width="4" stroke-miterlimit="10" stroke-linecap="round"/>
    <path
      id="Vector_118"
      d="M170.668 152.091C170.668 152.091 177.936 149.683 179.946 152.714C181.957 155.745 180.093 159.054 180.093 159.054C180.093 159.054 185.154 160.055 183.31 164.95C183.31 164.95 186.554 168.043 183.461 171.29C183.461 171.29 186.399 173.274 183.403 176.888C180.407 180.503 175.323 182.301 173.904 181.497C172.234 180.546 171.971 178.555 173.954 175.756C173.954 175.756 169.241 177.592 167.788 175.203C166.334 172.813 168.518 170.614 168.518 170.614C168.518 170.614 165.182 171.534 164.366 168.565C163.55 165.596 166.299 164.041 166.299 164.041C166.299 164.041 164.42 163.342 164.366 161.382C164.293 158.532 169.292 156.05 170.629 155.447L170.668 152.091Z"
      fill="#EAA58B"/>
    <path id="Vector_119" d="M165.171 164.563C168.039 164.061 175.327 162.507 180.152 159.151" stroke="#A15842" stroke-width="4" stroke-miterlimit="10" stroke-linecap="round"/>
    <path id="Vector_120" d="M166.33 171.526C172.388 170.767 178.2 168.664 183.341 165.371" stroke="#A15842" stroke-width="4" stroke-miterlimit="10" stroke-linecap="round"/>
    <path id="Vector_121" d="M171.743 177.198C172.775 176.834 179.51 174.418 183.596 171.828" stroke="#A15842" stroke-width="4" stroke-miterlimit="10" stroke-linecap="round"/>
    <path
      id="Vector_122"
      d="M68.5843 224.909C61.838 225.732 54.3108 226.95 45.8363 228.466L57.7593 196.42L62.9746 165.878C62.9746 165.878 45.8363 167.741 38.0114 176.703C30.7934 184.949 8.20007 223.281 17.1346 243.404C26.0691 263.527 52.9151 256.429 59.24 254.565C62.6924 253.549 67.9232 251.206 73.2932 249.462L68.5843 224.909Z"
      fill="#3EC1F3"/>
    <path
      id="Vector_123"
      d="M86.0783 247.487C94.2782 248.604 103.592 252.702 105.084 247.487C105.084 247.487 110.11 247.359 108.525 242.581C108.525 242.581 111.045 242.268 111.417 240.404C112.163 236.681 103.22 233.325 103.22 233.325C103.22 233.325 110.299 234.443 111.792 232.939C113.69 231.037 111.842 228.01 100.278 225.207C91.8812 223.173 81.7212 223.297 68.5765 224.905L73.297 249.443C77.7971 248.013 82.3514 246.976 86.0783 247.487Z"
      fill="#EAA58B"/>
    <path id="Vector_124" d="M106.406 233.801C102.436 232.278 94.8968 229.745 89.434 228.856" stroke="#A15842" stroke-width="4" stroke-miterlimit="10" stroke-linecap="round"/>
    <path id="Vector_125" d="M108.679 242.426C103.499 240.106 93.4933 235.807 88.1272 235.003" stroke="#A15842" stroke-width="4" stroke-miterlimit="10" stroke-linecap="round"/>
    <path id="Vector_126" d="M104.662 247.873C100.669 245.848 92.6776 242.043 87.0099 240.965" stroke="#A15842" stroke-width="4" stroke-miterlimit="10" stroke-linecap="round"/>
    <path id="Vector_127" d="M68.65 225.466C65.0082 225.937 53.3597 227.546 35.9585 230.905" stroke="#4756DF" stroke-width="4" stroke-miterlimit="10" stroke-linecap="round"/>
    <path id="Vector_128" d="M363.133 152.463C372.291 152.463 379.714 145.039 379.714 135.881C379.714 126.723 372.291 119.299 363.133 119.299C353.975 119.299 346.551 126.723 346.551 135.881C346.551 145.039 353.975 152.463 363.133 152.463Z" fill="white"/>
    <path
      id="Vector_129"
      d="M367.792 130.851C367.792 128.278 365.706 126.193 363.133 126.193C360.56 126.193 358.474 128.278 358.474 130.851V136.438C358.474 139.01 360.56 141.096 363.133 141.096C365.706 141.096 367.792 139.01 367.792 136.438V130.851Z"
      fill="#4856DF"/>
    <path id="Vector_130" d="M363.133 139.608V144.827" stroke="#4856DF" stroke-width="4" stroke-miterlimit="10" stroke-linecap="round"/>
    <path id="Vector_131" d="M360.461 144.827H365.804" stroke="#4856DF" stroke-width="4" stroke-miterlimit="10" stroke-linecap="round"/>
  </g>
</svg>
