<svg width="484px" height="312px" viewBox="0 0 484 312" fill="none" xmlns="http://www.w3.org/2000/svg">
  <g id="Netflix">
    <path
      id="Vector"
      d="M81.6732 310.233C81.0184 310.233 80.3733 310.075 79.7928 309.772C79.2124 309.469 78.7137 309.03 78.3393 308.493C77.965 307.956 77.726 307.336 77.6428 306.687C77.5595 306.037 77.6345 305.377 77.8613 304.763L87.828 277.758H103.679L85.1488 308.3C84.7835 308.893 84.272 309.382 83.6634 309.721C83.0549 310.059 82.3696 310.236 81.6732 310.233Z"
      fill="black"/>
    <path
      id="Vector_2"
      d="M222.77 310.233C223.424 310.233 224.07 310.075 224.65 309.772C225.231 309.469 225.729 309.03 226.104 308.493C226.478 307.956 226.717 307.336 226.8 306.687C226.883 306.037 226.808 305.377 226.582 304.763L216.615 277.758H200.764L219.294 308.3C219.659 308.893 220.171 309.382 220.779 309.721C221.388 310.059 222.073 310.236 222.77 310.233Z"
      fill="black"/>
    <path id="Vector_3" d="M238.435 197.518H66.0079V287.597H238.435V197.518Z" fill="#CA7358"/>
    <path id="Vector_4" d="M226.837 209.116H77.6062V275.999H226.837V209.116Z" fill="#FFBE21"/>
    <path id="Vector_5" d="M227.03 242.662H77.6062" stroke="#CA7358" stroke-width="4" stroke-miterlimit="10"/>
    <path id="Vector_6" d="M152.221 230.871C154.57 230.871 156.474 228.967 156.474 226.618C156.474 224.269 154.57 222.365 152.221 222.365C149.873 222.365 147.969 224.269 147.969 226.618C147.969 228.967 149.873 230.871 152.221 230.871Z" fill="#30242A"/>
    <path id="Vector_7" d="M152.221 263.346C154.57 263.346 156.474 261.442 156.474 259.093C156.474 256.744 154.57 254.84 152.221 254.84C149.873 254.84 147.969 256.744 147.969 259.093C147.969 261.442 149.873 263.346 152.221 263.346Z" fill="#30242A"/>
    <path id="Vector_8" d="M119.553 159.348C122.649 159.348 125.159 156.838 125.159 153.742C125.159 150.646 122.649 148.136 119.553 148.136C116.457 148.136 113.947 150.646 113.947 153.742C113.947 156.838 116.457 159.348 119.553 159.348Z" fill="#FFBE21"/>
    <path id="Vector_9" d="M148.549 159.348C151.645 159.348 154.154 156.838 154.154 153.742C154.154 150.646 151.645 148.136 148.549 148.136C145.453 148.136 142.943 150.646 142.943 153.742C142.943 156.838 145.453 159.348 148.549 159.348Z" fill="#FFBE21"/>
    <path
      id="Vector_10"
      d="M134.051 148.136C133.298 148.136 132.555 148.307 131.878 148.635C131.54 147.514 130.86 146.526 129.933 145.81C129.005 145.094 127.877 144.686 126.707 144.643C125.536 144.6 124.381 144.924 123.404 145.569C122.427 146.215 121.675 147.15 121.256 148.244C120.836 149.337 120.768 150.535 121.063 151.668C121.357 152.802 121.999 153.816 122.897 154.567C123.796 155.318 124.907 155.769 126.075 155.858C127.243 155.947 128.41 155.668 129.412 155.061C129.756 155.905 130.324 156.64 131.054 157.186C131.784 157.732 132.649 158.07 133.556 158.162C134.463 158.255 135.378 158.099 136.204 157.711C137.029 157.323 137.733 156.717 138.241 155.96C138.748 155.202 139.04 154.321 139.085 153.41C139.13 152.499 138.926 151.593 138.496 150.79C138.065 149.986 137.424 149.314 136.641 148.847C135.858 148.379 134.963 148.134 134.051 148.136Z"
      fill="#FFBE21"/>
    <path
      id="Vector_11"
      d="M144.076 148.152C143.69 147.212 143.057 146.394 142.243 145.787C141.429 145.179 140.465 144.804 139.455 144.701C138.444 144.599 137.425 144.772 136.505 145.204C135.586 145.636 134.801 146.31 134.235 147.153C133.669 147.996 133.342 148.978 133.29 149.992C133.238 151.007 133.463 152.016 133.941 152.913C134.418 153.809 135.13 154.559 136.001 155.083C136.871 155.606 137.868 155.883 138.883 155.884C139.078 155.883 139.273 155.873 139.467 155.853C139.924 156.581 140.56 157.18 141.314 157.592C142.069 158.004 142.916 158.215 143.775 158.207C144.635 158.198 145.477 157.969 146.223 157.541C146.969 157.114 147.592 156.503 148.034 155.765C148.476 155.028 148.722 154.19 148.748 153.331C148.773 152.472 148.578 151.621 148.181 150.859C147.784 150.096 147.198 149.449 146.479 148.978C145.761 148.507 144.933 148.228 144.076 148.167V148.152Z"
      fill="#FFBE21"/>
    <path
      id="Vector_12"
      d="M132.118 150.456C134.467 150.456 136.371 148.552 136.371 146.203C136.371 143.855 134.467 141.951 132.118 141.951C129.769 141.951 127.865 143.855 127.865 146.203C127.865 148.552 129.769 150.456 132.118 150.456Z"
      fill="#FFBE21"/>
    <path id="Vector_13" d="M146.229 140.404C147.83 140.404 149.129 139.106 149.129 137.505C149.129 135.903 147.83 134.605 146.229 134.605C144.628 134.605 143.329 135.903 143.329 137.505C143.329 139.106 144.628 140.404 146.229 140.404Z" fill="#FFBE21"/>
    <path id="Vector_14" d="M110.982 153.549L118.714 197.622H124.192L118.072 153.549H110.982Z" fill="#FF7235"/>
    <path id="Vector_15" d="M149.902 153.549L143.778 197.622H149.256L156.988 153.549H149.902Z" fill="#FF7235"/>
    <path id="Vector_16" d="M140.237 153.549L137.345 197.622H143.778L149.902 153.549H140.237Z" fill="#F5EBDD"/>
    <path id="Vector_17" d="M118.072 153.549L124.192 197.622H130.626L127.738 153.549H118.072Z" fill="#F5EBDD"/>
    <path id="Vector_18" d="M127.738 153.549L130.626 197.622H137.345L140.237 153.549H127.738Z" fill="#FF7235"/>
    <path id="Vector_19" d="M202.825 167.598H275.163V310.237H171.552V198.867C171.553 190.574 174.848 182.62 180.713 176.757C186.577 170.893 194.531 167.598 202.825 167.598Z" fill="#FFB7D5"/>
    <path
      id="Vector_20"
      d="M282.852 90.2536H385.006C393.299 90.2546 401.252 93.5498 407.116 99.4145C412.98 105.279 416.274 113.233 416.274 121.526V310.233H251.58V121.526C251.58 113.232 254.874 105.278 260.739 99.4131C266.604 93.5484 274.558 90.2536 282.852 90.2536Z"
      fill="#FFB7D5"/>
    <path
      id="Vector_21"
      d="M246.125 205.687H385.006C393.298 205.688 401.251 208.983 407.115 214.846C412.979 220.71 416.273 228.663 416.275 236.956V310.233H214.852V236.956C214.853 228.662 218.148 220.709 224.013 214.845C229.878 208.981 237.831 205.687 246.125 205.687Z"
      fill="#FFB7D5"/>
    <path id="Vector_22" d="M312.084 240.4H227.749" stroke="#CA7358" stroke-width="4" stroke-miterlimit="10"/>
    <path id="Vector_23" d="M214.852 236.956V310.233" stroke="#CA7358" stroke-width="4" stroke-miterlimit="10"/>
    <path id="Vector_24" d="M416.274 167.138H350.884" stroke="#CA7358" stroke-width="4" stroke-miterlimit="10"/>
    <path id="Vector_25" d="M239.208 0H66.7811V116.755H239.208V0Z" fill="#F5EBDD"/>
    <path id="Vector_26" d="M227.61 11.5983H78.3793V105.157H227.61V11.5983Z" fill="#30242A"/>
    <g id="layer1">
      <g id="g3235">
        <path
          id="path3015"
          d="M186.761 69.6821C188.091 69.8097 189.417 69.9489 190.743 70.0919L193.674 62.8662L196.453 70.7607C197.884 70.9386 199.31 71.1255 200.733 71.3213L195.854 57.4769L200.733 45.4264H196.6L196.558 45.4844L193.921 51.9948L191.601 45.4225H187.526L191.74 57.3764L186.761 69.6821Z"
          fill="#FF7235"/>
        <path id="path3019" d="M183.672 69.3999V45.4302H179.593V69.0751C180.954 69.1782 182.314 69.2903 183.672 69.4115" fill="#FF7235"/>
        <path id="path3023" d="M153.029 68.0584C154.13 68.0584 155.231 68.0649 156.331 68.0777V59.267H161.229V55.5169H156.331V49.1804H161.972V45.4264H152.221V68.0623H153.018" fill="#FF7235"/>
        <path id="path3035" d="M140.364 68.302C141.725 68.2556 143.07 68.2131 144.447 68.1821V49.1804H148.259V45.4264H136.552V49.1804H140.364V68.302Z" fill="#FF7235"/>
        <path id="path3039" d="M109.169 70.815V56.5337L113.998 70.2351C115.482 70.0701 116.971 69.9129 118.463 69.7634V45.4071H114.551V60.2219L109.335 45.4264H105.256V71.3291H105.28C106.571 71.1513 107.87 70.9812 109.169 70.815Z" fill="#FF7235"/>
        <path id="path3051" d="M132.621 49.1804V45.4264H122.878V69.3574C126.11 69.0791 129.355 68.8445 132.613 68.6538V64.8998C130.729 65.0081 128.85 65.137 126.976 65.2865V59.2708H131.875V55.5169H126.976V49.1804H132.621Z" fill="#FF7235"/>
        <path id="path3055" d="M170.06 64.722V45.4264H165.962V68.302C169.222 68.4231 172.468 68.5881 175.7 68.7969V65.0429C173.824 64.9192 171.944 64.8135 170.06 64.7259" fill="#FF7235"/>
      </g>
    </g>
    <path
      id="Vector_27"
      d="M290.627 148.91C290.627 148.91 254.286 157.029 235.729 167.467C216.646 178.199 214.852 193.261 202.94 229.436C197.714 245.287 195.088 256.669 192.278 264.463L224.71 279.776C226.257 276.908 227.633 274.086 228.77 271.464C228.77 271.464 243.639 270.803 245.058 250.905C246.117 236.04 246.627 225.037 251.815 213.933L340.465 148.74L290.627 148.91Z"
      fill="#30242A"/>
    <path
      id="Vector_28"
      d="M178.975 278.377C178.812 278.404 178.65 278.435 178.484 278.458C166.998 280.202 162.204 282.436 160.313 287.644L208.252 309.99C208.8 310.245 209.419 310.302 210.003 310.151C210.588 310 211.102 309.651 211.457 309.162C211.66 308.884 211.806 308.569 211.885 308.234C211.965 307.9 211.978 307.553 211.923 307.213C211.867 306.874 211.745 306.548 211.563 306.257C211.381 305.965 211.143 305.712 210.862 305.513L179.284 291.181C180.029 286.935 179.924 282.582 178.975 278.377Z"
      fill="#30242A"/>
    <path
      id="Vector_29"
      d="M224.71 279.776L192.278 264.463C190.619 269.063 188.895 272.419 186.533 274.719C184.569 276.652 182.156 277.812 178.975 278.377C179.924 282.582 180.029 286.935 179.284 291.181L210.877 305.513C210.755 305.426 210.626 305.349 210.491 305.285L209.331 304.732C211.21 302.026 214.16 297.611 217.314 292.507C219.82 288.506 222.414 284.091 224.71 279.776Z"
      fill="#EAA58B"/>
    <path id="Vector_30" d="M228.503 272.013L194.748 256.193" stroke="#F5EBDD" stroke-width="4" stroke-linecap="round" stroke-linejoin="round"/>
    <path
      id="Vector_31"
      d="M358.863 164.532L357.51 149.633H330.834C330.834 149.633 285.988 160.365 266.924 169.508C247.949 178.601 250.226 199.721 253.802 236.693C255.627 255.54 257.904 268.483 257.784 277.65H292.966C293.159 274.676 293.288 271.538 293.352 268.236C293.352 268.236 307.077 261.737 299.925 240.667C295.135 226.556 290.998 217.212 290.998 204.956H321.942C327.093 204.957 332.188 203.884 336.901 201.806C341.615 199.728 345.843 196.69 349.317 192.887C352.791 189.083 355.434 184.597 357.078 179.715C358.721 174.833 359.329 169.662 358.863 164.532Z"
      fill="#30242A"/>
    <path
      id="Vector_32"
      d="M249.43 294.854C240.492 300.932 237.337 304.906 237.832 310.222L290.762 310.152C291.329 310.128 291.865 309.886 292.258 309.477C292.651 309.067 292.87 308.522 292.87 307.954C292.87 307.387 292.651 306.841 292.258 306.432C291.865 306.022 291.329 305.78 290.762 305.756H255.446C255.446 305.756 253.513 299.23 249.43 294.854Z"
      fill="#30242A"/>
    <path
      id="Vector_33"
      d="M257.785 277.65C257.719 282.869 256.876 286.867 254.727 290.022C253.567 291.693 252.091 293.121 250.381 294.224L249.43 294.854C253.517 299.219 255.446 305.756 255.446 305.756H288.88C290.149 300.571 291.12 295.318 291.787 290.022C292.266 286.326 292.684 282.185 292.978 277.65H257.785Z"
      fill="#EAA58B"/>
    <path id="Vector_34" d="M291.4 160.121C282.856 162.851 272.773 166.191 266.271 169.4C251.421 176.718 249.527 190.988 251.139 214.749" stroke="#A15842" stroke-width="4" stroke-linecap="round" stroke-linejoin="round"/>
    <path id="Vector_35" d="M290.627 205.872H281.035" stroke="#A15842" stroke-width="4" stroke-linecap="round" stroke-linejoin="round"/>
    <path id="Vector_36" d="M293.333 268.889H257.379" stroke="#F5EBDD" stroke-width="4" stroke-miterlimit="10" stroke-linecap="round"/>
    <path id="Vector_37" d="M343.936 167.598H416.274V310.237H312.664V198.867C312.665 190.574 315.96 182.62 321.824 176.757C327.689 170.893 335.643 167.598 343.936 167.598Z" fill="#FFB7D5"/>
    <path id="Vector_38" d="M311.89 204.972V309.773" stroke="#CA7358" stroke-width="4" stroke-miterlimit="10"/>
    <path id="Vector_39" d="M39.9117 254.067C31.0197 254.067 23.767 248.736 23.4925 242.082V310.125H56.3541V242.082C56.0565 248.736 48.8153 254.067 39.9117 254.067Z" fill="#4756DF"/>
    <path
      id="Vector_40"
      d="M24.1033 294.726C34.8897 293.567 47.7367 286.028 45.3242 268.178C43.3912 253.874 29.28 257.933 37.3988 271.464C42.1695 279.417 50.0138 284.833 55.6699 287.945"
      stroke="#3EC1F3"
      stroke-width="4"
      stroke-miterlimit="10"
      stroke-linecap="round"/>
    <path id="Vector_41" d="M24.0069 278.644C30.4362 283.043 41.8256 293.149 46.1672 309.437" stroke="#3EC1F3" stroke-width="4" stroke-miterlimit="10" stroke-linecap="round"/>
    <path id="Vector_42" d="M23.9683 300.41C28.1862 301.658 33.5948 304.349 37.6658 309.483" stroke="#3EC1F3" stroke-width="4" stroke-miterlimit="10" stroke-linecap="round"/>
    <path id="Vector_43" d="M35.7442 245.623C33.0072 250.391 28.9261 254.246 24.0107 256.707" stroke="#3EC1F3" stroke-width="4" stroke-miterlimit="10" stroke-linecap="round"/>
    <path id="Vector_44" d="M39.9118 254.067C48.8038 254.067 56.0566 248.736 56.3311 242.082H23.481C23.7671 248.736 31.0083 254.067 39.9118 254.067Z" fill="#30242A"/>
    <path id="Vector_45" d="M30.6334 182.351L39.5254 249.234" stroke="#30242A" stroke-width="4" stroke-miterlimit="10" stroke-linecap="round"/>
    <path id="Vector_46" d="M27.7879 209.305L38.1876 248.674" stroke="#30242A" stroke-width="4" stroke-miterlimit="10" stroke-linecap="round"/>
    <path id="Vector_47" d="M60.0486 225.013C67.4539 221.847 72.7481 217.621 71.8734 215.576C70.9988 213.53 64.2865 214.438 56.8811 217.605C49.4757 220.771 44.1815 224.996 45.0562 227.042C45.9309 229.088 52.6432 228.179 60.0486 225.013Z" fill="#30242A"/>
    <path id="Vector_48" d="M33.9876 233.446C34.7417 231.446 28.0503 227.071 19.0419 223.675C10.0335 220.278 2.11949 219.145 1.3654 221.145C0.61131 223.145 7.30273 227.52 16.3111 230.917C25.3195 234.313 33.2335 235.446 33.9876 233.446Z" fill="#30242A"/>
    <path id="Vector_49" d="M46.2857 212.133C51.4992 208.206 54.9185 203.951 53.9229 202.629C52.9273 201.307 47.8937 203.42 42.6802 207.347C37.4666 211.274 34.0473 215.529 35.0429 216.851C36.0385 218.173 41.0721 216.06 46.2857 212.133Z" fill="#30242A"/>
    <path id="Vector_50" d="M51.1235 190.47L41.0717 252.327" stroke="#30242A" stroke-width="4" stroke-miterlimit="10" stroke-linecap="round"/>
    <path
      id="Vector_51"
      d="M34.5575 196.88C33.6288 195.34 32.3433 194.046 30.8095 193.108C29.2758 192.169 27.5387 191.613 25.745 191.487C23.9512 191.36 22.1534 191.667 20.5032 192.382C18.853 193.096 17.3988 194.197 16.2633 195.591C15.1279 196.986 14.3445 198.633 13.9792 200.393C13.614 202.154 13.6776 203.977 14.1647 205.708C14.6517 207.439 15.548 209.027 16.7779 210.339C18.0078 211.651 19.5352 212.647 21.2312 213.245C21.7983 209.579 23.3319 206.131 25.6741 203.255C28.0164 200.378 31.0827 198.178 34.5575 196.88Z"
      fill="#FFB7D5"/>
    <path id="Vector_52" d="M29.4312 203.831C27.3888 199.175 23.7247 195.418 19.1204 193.261" stroke="#F5EBDD" stroke-width="4" stroke-miterlimit="10" stroke-linecap="round"/>
    <path id="Vector_53" d="M27.7338 205.521C24.1922 201.837 19.4178 199.587 14.3224 199.2" stroke="#F5EBDD" stroke-width="4" stroke-miterlimit="10" stroke-linecap="round"/>
    <path
      id="Vector_54"
      d="M21.231 213.245C23.4091 214.012 25.771 214.089 27.994 213.463C30.217 212.838 32.1925 211.541 33.6507 209.75C35.1089 207.959 35.9786 205.762 36.1409 203.459C36.3032 201.155 35.7501 198.857 34.5574 196.88C31.0825 198.178 28.0162 200.378 25.674 203.255C23.3317 206.131 21.7982 209.579 21.231 213.245Z"
      fill="#FF7235"/>
    <path
      id="Vector_55"
      d="M17.999 175.083C17.9601 173.286 18.354 171.505 19.1475 169.892C19.941 168.279 21.1108 166.88 22.5583 165.814C24.0058 164.747 25.6885 164.045 27.4645 163.765C29.2404 163.485 31.0576 163.637 32.7627 164.207C34.4678 164.777 36.0108 165.749 37.2615 167.04C38.5123 168.332 39.4342 169.905 39.9494 171.627C40.4646 173.35 40.5581 175.171 40.2218 176.937C39.8856 178.703 39.1296 180.362 38.0176 181.775C35.5764 178.982 32.4349 176.889 28.9163 175.713C25.3978 174.537 21.6295 174.319 17.999 175.083Z"
      fill="#FFB7D5"/>
    <path id="Vector_56" d="M26.052 178.211C25.2833 173.184 26.3688 168.049 29.1063 163.763" stroke="#F5EBDD" stroke-width="4" stroke-miterlimit="10" stroke-linecap="round"/>
    <path id="Vector_57" d="M28.3832 178.729C29.4063 173.723 32.2356 169.268 36.3318 166.214" stroke="#F5EBDD" stroke-width="4" stroke-miterlimit="10" stroke-linecap="round"/>
    <path
      id="Vector_58"
      d="M38.0174 181.775C36.5885 183.59 34.6339 184.92 32.4207 185.582C30.2076 186.244 27.844 186.206 25.6532 185.473C23.4623 184.741 21.5512 183.35 20.1811 181.49C18.811 179.63 18.0488 177.392 17.9988 175.083C21.6293 174.319 25.3977 174.536 28.9162 175.713C32.4347 176.889 35.5762 178.982 38.0174 181.775Z"
      fill="#FF7235"/>
    <path
      id="Vector_59"
      d="M44.9146 175.868C46.0199 174.449 47.4503 173.317 49.085 172.567C50.7198 171.818 52.5109 171.472 54.3071 171.56C56.1034 171.648 57.8522 172.167 59.4059 173.073C60.9595 173.979 62.2724 175.245 63.2339 176.765C64.1953 178.285 64.777 180.014 64.9298 181.806C65.0827 183.597 64.8022 185.4 64.1121 187.061C63.422 188.721 62.3425 190.192 60.9647 191.348C59.5869 192.504 57.9513 193.311 56.1958 193.702C56.0691 189.995 54.9572 186.389 52.9745 183.255C50.9917 180.12 48.2097 177.57 44.9146 175.868Z"
      fill="#FFB7D5"/>
    <path id="Vector_60" d="M49.1791 183.38C51.7579 178.995 55.8429 175.697 60.6729 174.101" stroke="#F5EBDD" stroke-width="4" stroke-miterlimit="10" stroke-linecap="round"/>
    <path id="Vector_61" d="M50.6558 185.258C54.6111 182.023 59.6193 180.358 64.7244 180.58" stroke="#F5EBDD" stroke-width="4" stroke-miterlimit="10" stroke-linecap="round"/>
    <path
      id="Vector_62"
      d="M56.1957 193.702C53.9421 194.204 51.5885 193.998 49.4565 193.112C47.3244 192.226 45.5178 190.703 44.2836 188.752C43.0493 186.801 42.4476 184.516 42.5605 182.21C42.6734 179.904 43.4955 177.689 44.9145 175.868C48.2096 177.57 50.9916 180.12 52.9744 183.255C54.9571 186.389 56.069 189.995 56.1957 193.702Z"
      fill="#FF7235"/>
    <path id="Vector_63" d="M483.881 308.981C483.846 309.075 483.801 309.166 483.749 309.252C483.802 309.167 483.846 309.076 483.881 308.981Z" fill="#CA7358"/>
    <path id="Vector_64" d="M465.455 300.464L455.322 310.129H481.224C482.589 310.129 483.386 309.812 483.741 309.267C481.746 309.638 470.179 303.17 465.455 300.464Z" fill="#CA7358"/>
    <path id="Vector_65" d="M483.881 308.981C485.172 305.343 471.946 294.29 471.946 294.29L465.455 300.475C470.179 303.182 481.746 309.649 483.741 309.274C483.798 309.181 483.844 309.083 483.881 308.981Z" fill="#FFB7D5"/>
    <path id="Vector_66" d="M481.998 274.171C481.611 276.104 463.827 279.197 463.827 279.197L462.714 271.82L462.281 271.851L465.165 293.888C465.165 293.888 483.157 278.037 481.998 274.171Z" fill="#CA7358"/>
    <path id="Vector_67" d="M481.998 274.171C480.992 270.822 465.513 271.646 462.714 271.82L463.827 279.196C463.827 279.196 481.611 276.104 481.998 274.171Z" fill="#FFB7D5"/>
    <path id="Vector_68" d="M460.614 273.954L461.283 260.032" stroke="#30242A" stroke-width="4" stroke-linecap="round" stroke-linejoin="round"/>
    <path id="Vector_69" d="M457.897 272.431L454.282 254.674" stroke="#30242A" stroke-width="4" stroke-linecap="round" stroke-linejoin="round"/>
    <path
      id="Vector_70"
      d="M398.877 310.233L380.792 286.136L389.212 277.244C388.439 274.538 384.959 262.553 380.32 258.687C375.681 254.821 371.428 254.821 369.108 255.594L369.039 255.617C368.466 255.829 367.962 256.193 367.582 256.67C367.201 257.147 366.958 257.719 366.878 258.324C366.798 258.929 366.886 259.545 367.13 260.104C367.375 260.663 367.767 261.145 368.266 261.497L372.588 265.278C372.588 265.278 362.923 272.624 362.923 280.743C362.923 286.403 365.977 289.302 369.004 290.795L360.99 302.006C360.99 302.006 352.871 303.166 337.02 298.527C332.191 297.112 326.968 294.661 322.089 292.411C322.089 297.676 319.669 301.894 316.085 304.999C324.304 308.238 334.766 310.233 342.885 310.233H398.877Z"
      fill="#A15842"/>
    <path id="Vector_71" d="M350.165 301.813C351.51 304.407 353.161 307.067 356.072 309.421" stroke="#30242A" stroke-width="4" stroke-miterlimit="10" stroke-linecap="round"/>
    <path id="Vector_72" d="M388.052 275.91L384.959 278.23" stroke="#30242A" stroke-width="4" stroke-miterlimit="10" stroke-linecap="round"/>
    <path id="Vector_73" d="M322.089 292.411C313.97 288.688 306.818 285.63 304.158 289.248C299.615 295.434 306.234 301.109 316.085 304.999C319.669 301.894 322.108 297.676 322.089 292.411Z" fill="#F5EBDD"/>
    <path
      id="Vector_74"
      d="M469.626 284.597C469.626 282.958 471.691 280.809 473.314 280.147C470.287 271.851 458.159 264.637 445.657 271.078C445.657 271.078 444.11 263.345 439.857 260.253C435.879 257.357 431.739 257.071 428.646 258.231L428.553 258.265C427.995 258.489 427.503 258.85 427.123 259.316C426.743 259.782 426.488 260.336 426.381 260.927C426.275 261.519 426.32 262.128 426.513 262.697C426.706 263.266 427.041 263.776 427.486 264.181L432.898 269.145L430.192 274.468C427.435 271.969 424.196 270.06 420.674 268.859C420.369 283.321 401.378 289.693 391.918 286.542C388.593 281.903 385.844 279.521 385.141 278.953L384.959 279.107C384.959 279.107 376.84 273.784 369.495 279.196C369.495 279.196 365.629 270.304 360.989 266.736C357.065 263.717 349.391 263.643 347.458 265.576L347.4 265.634C346.954 266.09 346.616 266.641 346.411 267.245C346.206 267.85 346.14 268.493 346.218 269.126C346.296 269.76 346.515 270.368 346.859 270.905C347.204 271.442 347.665 271.895 348.208 272.23L353.644 275.628C353.644 275.628 339.726 296.505 358.283 310.233H456.868C471.667 310.233 475.139 298.36 474.807 288.838C473.055 288.382 469.626 287.157 469.626 284.597Z"
      fill="#CA7358"/>
    <path
      id="Vector_75"
      d="M391.918 286.542C401.378 289.693 420.368 283.322 420.674 268.858C416.787 267.486 412.636 267.024 408.542 267.509C397.331 268.828 386.621 277.685 385.141 278.953C385.844 279.521 388.593 281.883 391.918 286.542Z"
      fill="#F5EBDD"/>
    <path id="Vector_76" d="M469.626 284.597C469.626 287.157 473.056 288.382 474.807 288.85C474.732 286.076 474.29 283.324 473.492 280.666C473.438 280.495 473.373 280.329 473.315 280.159C471.691 280.809 469.626 282.958 469.626 284.597Z" fill="#30242A"/>
    <path id="Vector_77" d="M466.522 285.521L472.019 284.709" stroke="#30242A" stroke-width="4" stroke-linecap="round" stroke-linejoin="round"/>
    <path id="Vector_78" d="M446.639 271.271C448.212 277.611 450.149 286.472 450.891 292.148" stroke="#30242A" stroke-width="4" stroke-linecap="round" stroke-linejoin="round"/>
    <path id="Vector_79" d="M429.612 261.992L428.174 264.146" stroke="#30242A" stroke-width="4" stroke-linecap="round" stroke-linejoin="round"/>
    <path id="Vector_80" d="M432.318 264.312L430.803 266.581" stroke="#30242A" stroke-width="4" stroke-linecap="round" stroke-linejoin="round"/>
    <path id="Vector_81" d="M349.198 268.951L347.744 271.132" stroke="#30242A" stroke-width="4" stroke-linecap="round" stroke-linejoin="round"/>
    <path id="Vector_82" d="M352.291 270.884L350.721 273.235" stroke="#30242A" stroke-width="4" stroke-linecap="round" stroke-linejoin="round"/>
    <path id="Vector_83" d="M429.605 274.229C422.572 287.079 416.765 300.707 427.76 309.723" stroke="#30242A" stroke-width="4" stroke-linecap="round" stroke-linejoin="round"/>
    <path
      id="Vector_84"
      d="M395.784 295.627C394.238 288.668 389.479 279.985 383.413 277.457C378.774 275.524 374.134 275.91 369.882 278.23C369.882 278.23 368.045 274.29 366.568 272.133"
      stroke="#30242A"
      stroke-width="4"
      stroke-miterlimit="10"
      stroke-linecap="round"/>
    <path id="Vector_85" d="M463.583 281.025C463.583 281.025 464.743 284.644 466.522 285.521C466.522 285.521 465.261 287.327 465.053 290.822" stroke="#30242A" stroke-width="4" stroke-linecap="round" stroke-linejoin="round"/>
    <path
      id="Vector_86"
      d="M415.115 267.598C415.115 267.598 412.022 273.011 406.996 272.624C401.97 272.238 402.357 264.892 408.156 260.639C410.602 259.2 413.5 258.734 416.274 259.333C421.215 260.411 424.107 270.362 424.107 270.362C424.107 270.362 418.981 267.985 415.115 267.598Z"
      fill="#CA7358"/>
    <path id="Vector_87" d="M458.801 236.847L465.165 232.958L462.335 242.855L469.82 238.409" stroke="#FFB7D5" stroke-width="4" stroke-linecap="round" stroke-linejoin="round"/>
    <path id="Vector_88" d="M472.704 220.792L479.404 220.258L473.094 227.066L480.645 226.541" stroke="#FFB7D5" stroke-width="4" stroke-linecap="round" stroke-linejoin="round"/>
    <path id="Vector_89" d="M406.396 268.92L406.389 271.851" stroke="#30242A" stroke-width="4" stroke-linecap="round" stroke-linejoin="round"/>
    <path id="Vector_90" d="M409.934 268.584L409.926 271.488" stroke="#30242A" stroke-width="4" stroke-linecap="round" stroke-linejoin="round"/>
    <path id="Vector_91" d="M369.541 259.398L368.142 260.894" stroke="#30242A" stroke-width="4" stroke-linecap="round" stroke-linejoin="round"/>
    <path id="Vector_92" d="M372.278 261.424L370.612 263.206" stroke="#30242A" stroke-width="4" stroke-linecap="round" stroke-linejoin="round"/>
    <path
      id="Vector_93"
      d="M231.205 113.125L218.718 104.508L218.181 104.121C214.875 102.575 205.902 103.019 206.354 99.4085C206.451 98.6353 207.359 98.0515 208.794 97.6494L190.646 85.1581C189.975 84.6977 189.149 84.5207 188.348 84.6655C187.546 84.8102 186.835 85.2651 186.367 85.9313L184.434 88.711C185.4 89.5526 186.023 90.7208 186.184 91.9924C186.344 93.2641 186.03 94.5503 185.303 95.6055C184.575 96.6606 183.484 97.4109 182.239 97.713C180.993 98.0151 179.68 97.848 178.549 97.2435L176.338 100.448C175.876 101.12 175.699 101.947 175.844 102.749C175.988 103.551 176.444 104.264 177.111 104.732L217.666 132.699C218.338 133.161 219.165 133.339 219.967 133.194C220.769 133.049 221.482 132.593 221.95 131.926L225.484 126.803L231.994 117.401C232.452 116.728 232.626 115.902 232.478 115.101C232.33 114.301 231.873 113.591 231.205 113.125ZM207.7 120.301C206.056 120.301 204.449 119.813 203.082 118.9C201.715 117.987 200.649 116.688 200.02 115.17C199.391 113.651 199.227 111.979 199.547 110.367C199.868 108.755 200.66 107.274 201.822 106.111C202.985 104.949 204.466 104.157 206.078 103.836C207.69 103.516 209.362 103.68 210.881 104.309C212.399 104.938 213.698 106.004 214.611 107.371C215.524 108.738 216.012 110.345 216.012 111.989C216.011 114.193 215.135 116.306 213.576 117.865C212.017 119.424 209.904 120.3 207.7 120.301ZM226.063 118.897L221.231 125.856C221.02 126.157 220.698 126.363 220.336 126.428C219.974 126.493 219.601 126.413 219.298 126.204C218.995 125.994 218.789 125.673 218.723 125.31C218.657 124.948 218.737 124.574 218.946 124.271L223.782 117.312C223.887 117.162 224.02 117.034 224.174 116.935C224.328 116.836 224.499 116.768 224.679 116.736C224.859 116.703 225.044 116.707 225.223 116.745C225.402 116.784 225.571 116.858 225.721 116.962C225.872 117.067 226 117.2 226.099 117.354C226.198 117.507 226.265 117.679 226.298 117.859C226.33 118.039 226.327 118.224 226.288 118.403C226.249 118.582 226.176 118.751 226.071 118.901L226.063 118.897Z"
      fill="#4756DF"/>
    <path id="Vector_94" d="M207.7 120.301C212.29 120.301 216.012 116.579 216.012 111.989C216.012 107.398 212.29 103.677 207.7 103.677C203.109 103.677 199.387 107.398 199.387 111.989C199.387 116.579 203.109 120.301 207.7 120.301Z" fill="#3EC1F3"/>
    <path
      id="Vector_95"
      d="M186.243 92.6583C186.243 91.9126 186.083 91.1756 185.774 90.4972C185.464 89.8188 185.012 89.2149 184.449 88.7265L178.565 97.2589C179.32 97.6662 180.165 97.8788 181.024 97.8775C182.408 97.8775 183.735 97.3276 184.714 96.3488C185.693 95.37 186.243 94.0425 186.243 92.6583Z"
      fill="#3EC1F3"/>
    <path
      id="Vector_96"
      d="M225.704 116.957C225.401 116.749 225.027 116.669 224.665 116.735C224.303 116.801 223.982 117.007 223.771 117.308L218.935 124.267C218.726 124.571 218.645 124.944 218.711 125.307C218.777 125.669 218.984 125.99 219.286 126.2C219.589 126.409 219.962 126.489 220.324 126.424C220.686 126.359 221.008 126.153 221.219 125.852L226.052 118.894C226.263 118.591 226.344 118.216 226.279 117.853C226.214 117.49 226.007 117.167 225.704 116.957Z"
      fill="#30242A"/>
    <path
      id="Vector_97"
      d="M212.145 128.806C212.145 128.806 208.666 132.672 205.186 129.193C205.186 129.193 200.934 130.352 199.387 126.873C199.387 126.873 195.908 128.419 194.361 124.94C194.261 124.716 192.351 125.775 190.495 123.394C187.789 119.914 186.243 110.249 188.562 109.862C192.544 109.197 194.23 116.667 194.3 116.435C195.169 113.493 196.677 111.022 198.228 111.022C200.934 111.022 201.32 113.728 201.32 113.728C201.32 113.728 202.956 111.544 205.186 112.182C207.893 112.955 207.119 116.435 207.119 116.435C207.119 116.435 209.602 114.788 210.986 117.208C212.532 119.914 209.439 123.394 209.826 127.26L212.145 128.806Z"
      fill="#EAA58B"/>
    <path id="Vector_98" d="M206.895 115.831C205.245 118.716 202.643 124.306 204.282 128.628" stroke="#A15842" stroke-width="4" stroke-linecap="round" stroke-linejoin="round"/>
    <path id="Vector_99" d="M201 113.148C199.952 115.623 197.756 121.623 198.703 126.459" stroke="#A15842" stroke-width="4" stroke-linecap="round" stroke-linejoin="round"/>
    <path id="Vector_100" d="M193.871 115.468C193.36 117.942 192.985 121.24 193.643 124.252" stroke="#A15842" stroke-width="4" stroke-linecap="round" stroke-linejoin="round"/>
    <path
      id="Vector_101"
      d="M339.726 58.0568C344.366 56.5104 349.778 49.9381 345.912 44.5256C340.789 37.3501 331.994 46.8452 331.994 46.8452C328.268 44.1278 325.441 40.3578 323.875 36.0202C322.715 36.4068 319.236 36.7934 316.53 36.0202C316.53 36.0202 315.37 39.1131 314.597 44.5256C314.492 45.2679 314.369 45.9831 314.233 46.6712C314.233 46.6712 310.731 46.4586 310.344 48.005C309.865 49.9149 312.93 51.9678 312.93 51.9678C311.732 56.2862 310.735 59.6071 312.277 63.4694C313.638 66.8754 316.53 70.8149 325.808 69.6551L325.279 73.7145H352.948C353.103 72.0946 353.285 70.1654 353.478 68.0816C350.339 67.0261 342.483 63.8792 339.726 58.0568Z"
      fill="#EAA58B"/>
    <path
      id="Vector_102"
      d="M342.819 23.2622C331.607 18.2363 321.169 25.9684 321.169 25.9684C321.169 25.9684 311.635 23.2235 311.117 29.4479C310.731 34.0872 316.53 36.0202 316.53 36.0202C319.236 36.7934 322.715 36.4068 323.875 36.0202C325.441 40.3578 328.268 44.1278 331.994 46.8452C331.994 46.8452 340.789 37.3501 345.912 44.5256C349.778 49.9381 344.365 56.5104 339.726 58.0568C342.483 63.8791 350.338 67.0261 353.478 68.0816C354.158 60.709 354.974 51.3724 355.19 46.8452C355.542 39.4649 354.804 28.6399 342.819 23.2622Z"
      fill="#4756DF"/>
    <path
      id="Vector_103"
      d="M265.884 108.316C265.884 108.316 238.821 100.584 228.383 98.2641C222.035 96.853 213.058 96.4702 208.786 97.6648C207.352 98.0515 206.443 98.6468 206.346 99.4239C205.894 103.035 214.852 102.586 218.173 104.137L231.205 113.125C231.873 113.593 232.328 114.306 232.473 115.108C232.618 115.91 232.44 116.737 231.978 117.409L225.499 126.803C235.471 131.97 246.253 135.393 257.379 136.925C267.635 138.344 280.084 132.637 288.995 127.387L274.045 102.71C269.24 105.989 265.884 108.316 265.884 108.316Z"
      fill="#EAA58B"/>
    <path
      id="Vector_104"
      d="M352.948 73.7144H325.279L324.648 78.547C324.648 78.547 311.059 78.2609 301.452 84.3461C294.191 88.9429 282.091 97.1738 274.045 102.691L288.995 127.387C293.049 125.012 296.951 122.387 300.679 119.527L290.627 148.91H357.51L352.484 78.547C352.484 78.547 352.673 76.6333 352.948 73.7144Z"
      fill="#FF7235"/>
    <path id="Vector_105" d="M323.875 79.5136L323.295 84.1529" stroke="#A15842" stroke-width="4" stroke-linecap="round" stroke-linejoin="round"/>
    <path id="Vector_106" d="M305.511 103.483L300.292 118.948" stroke="#A15842" stroke-width="4" stroke-linecap="round" stroke-linejoin="round"/>
    <path id="Vector_107" d="M316.085 55.5439C316.723 55.9305 319.12 56.2514 320.09 54.4073" stroke="#A15842" stroke-width="4" stroke-linecap="round" stroke-linejoin="round"/>
    <path id="Vector_108" d="M320.782 46.4586C321.423 46.4586 321.942 45.9394 321.942 45.2988C321.942 44.6582 321.423 44.139 320.782 44.139C320.142 44.139 319.622 44.6582 319.622 45.2988C319.622 45.9394 320.142 46.4586 320.782 46.4586Z" fill="black"/>
    <path id="Vector_109" d="M340.886 49.1649L336.633 51.8712" stroke="#A15842" stroke-width="4" stroke-linecap="round" stroke-linejoin="round"/>
    <path id="Vector_110" d="M330.393 74.4799L329.771 79.4943" stroke="#A15842" stroke-width="4" stroke-linecap="round" stroke-linejoin="round"/>
    <path id="Vector_111" d="M336.189 74.4799L335.57 79.4943" stroke="#A15842" stroke-width="4" stroke-linecap="round" stroke-linejoin="round"/>
    <path id="Vector_112" d="M341.984 74.4799L341.365 79.4943" stroke="#A15842" stroke-width="4" stroke-linecap="round" stroke-linejoin="round"/>
    <path id="Vector_113" d="M326.09 70.3356C327.935 70.0108 330.502 69.3343 332.574 67.9154" stroke="#A15842" stroke-width="4" stroke-linecap="round" stroke-linejoin="round"/>
    <path
      id="Vector_114"
      d="M354.889 128.419L355.577 142.724C355.577 142.724 322.99 151.856 311.859 160.206C306.834 163.976 300.648 171.066 298.359 174.039C296.07 177.012 286.653 190.663 290.627 191.05C294.601 191.436 300.729 182.865 300.729 182.865C300.729 182.865 296.813 193.369 297.972 196.849C299.132 200.328 302.728 197.928 302.728 197.928C306.091 201.875 309.076 197.518 309.076 197.518C314.983 201.875 320.991 180.468 320.991 180.468C324.25 178.874 327.16 176.648 329.551 173.919C329.551 173.919 362.652 175.23 375.681 164.374C382.203 158.938 385.423 144.456 385.551 128.419H354.889Z"
      fill="#EAA58B"/>
    <path id="Vector_115" d="M380.32 91.6917C377.455 82.9582 367.948 78.547 362.149 78.547H352.484L354.889 128.419H385.551C385.647 115.94 383.873 102.521 380.32 91.6917Z" fill="#FF7235"/>
    <path id="Vector_116" d="M355.743 128.071L354.61 104.256" stroke="#A15842" stroke-width="4" stroke-linecap="round" stroke-linejoin="round"/>
    <path id="Vector_117" d="M356.192 141.738L361.956 140.211" stroke="#A15842" stroke-width="4" stroke-linecap="round" stroke-linejoin="round"/>
    <path id="Vector_118" d="M299.82 183.534C301.034 180.287 302.886 175.473 304.352 172.299" stroke="#A15842" stroke-width="4" stroke-linecap="round" stroke-linejoin="round"/>
    <path id="Vector_119" d="M309.764 175.006C305.619 183.932 303.192 193.949 302.418 197.568" stroke="#A15842" stroke-width="4" stroke-linecap="round" stroke-linejoin="round"/>
    <path id="Vector_120" d="M315.563 178.099C312.911 184.203 310.464 192.341 309.134 197.081" stroke="#A15842" stroke-width="4" stroke-linecap="round" stroke-linejoin="round"/>
  </g>
</svg>
