<svg width="489px" height="373px" viewBox="0 0 489 373" fill="none" xmlns="http://www.w3.org/2000/svg">
  <g id="Party">
    <path
      id="Vector"
      d="M469.918 13.9836C474.499 13.9836 478.891 15.8031 482.13 19.0418C485.369 22.2805 487.188 26.6731 487.188 31.2533V195.044C487.188 199.624 485.369 204.016 482.13 207.255C478.891 210.494 474.499 212.313 469.918 212.313H257.416C252.836 212.313 248.443 210.494 245.204 207.255C241.966 204.016 240.146 199.624 240.146 195.044V31.2533C240.146 26.6731 241.966 22.2805 245.204 19.0418C248.443 15.8031 252.836 13.9836 257.416 13.9836H469.918ZM469.918 12.4371H257.416C252.427 12.4423 247.644 14.4263 244.116 17.9539C240.589 21.4815 238.605 26.2645 238.6 31.2533V195.044C238.605 200.032 240.589 204.815 244.116 208.343C247.644 211.871 252.427 213.855 257.416 213.86H469.918C474.907 213.855 479.69 211.871 483.218 208.343C486.745 204.815 488.73 200.032 488.735 195.044V31.2533C488.73 26.2645 486.745 21.4815 483.218 17.9539C479.69 14.4263 474.907 12.4423 469.918 12.4371Z"
      fill="white"/>
    <path
      id="Vector_2"
      d="M469.919 13.9836H257.416C247.878 13.9836 240.146 21.7156 240.146 31.2534V195.044C240.146 204.581 247.878 212.313 257.416 212.313H469.919C479.456 212.313 487.188 204.581 487.188 195.044V31.2534C487.188 21.7156 479.456 13.9836 469.919 13.9836Z"
      fill="#F5EBDD"/>
    <path id="Vector_3" d="M240.146 51.098H487.961" stroke="white" stroke-width="4" stroke-miterlimit="10"/>
    <path id="Vector_4" d="M258.317 38.7264C261.946 38.7264 264.889 35.7839 264.889 32.1541C264.889 28.5243 261.946 25.5818 258.317 25.5818C254.687 25.5818 251.744 28.5243 251.744 32.1541C251.744 35.7839 254.687 38.7264 258.317 38.7264Z" fill="white"/>
    <path id="Vector_5" d="M278.235 38.7264C281.864 38.7264 284.807 35.7839 284.807 32.1541C284.807 28.5243 281.864 25.5818 278.235 25.5818C274.605 25.5818 271.662 28.5243 271.662 32.1541C271.662 35.7839 274.605 38.7264 278.235 38.7264Z" fill="white"/>
    <path id="Vector_6" d="M298.149 38.7264C301.779 38.7264 304.721 35.7839 304.721 32.1541C304.721 28.5243 301.779 25.5818 298.149 25.5818C294.519 25.5818 291.576 28.5243 291.576 32.1541C291.576 35.7839 294.519 38.7264 298.149 38.7264Z" fill="white"/>
    <path
      id="Vector_7"
      d="M252.259 130.739C256.839 130.739 261.231 132.559 264.47 135.797C267.709 139.036 269.528 143.429 269.528 148.009V311.799C269.528 316.379 267.709 320.772 264.47 324.011C261.231 327.249 256.839 329.069 252.259 329.069H39.7558C35.1756 329.069 30.783 327.249 27.5443 324.011C24.3056 320.772 22.4861 316.379 22.4861 311.799V148.009C22.4861 143.429 24.3056 139.036 27.5443 135.797C30.783 132.559 35.1756 130.739 39.7558 130.739H252.259ZM252.259 129.193H39.7558C34.767 129.198 29.984 131.182 26.4564 134.71C22.9288 138.237 20.9448 143.02 20.9396 148.009V311.799C20.9448 316.788 22.9288 321.571 26.4564 325.099C29.984 328.626 34.767 330.61 39.7558 330.615H252.259C257.247 330.61 262.03 328.626 265.558 325.099C269.086 321.571 271.07 316.788 271.075 311.799V148.009C271.07 143.02 269.086 138.237 265.558 134.71C262.03 131.182 257.247 129.198 252.259 129.193Z"
      fill="white"/>
    <path
      id="Vector_8"
      d="M252.258 130.739H39.7557C30.2179 130.739 22.486 138.471 22.486 148.009V311.799C22.486 321.337 30.2179 329.069 39.7557 329.069H252.258C261.796 329.069 269.528 321.337 269.528 311.799V148.009C269.528 138.471 261.796 130.739 252.258 130.739Z"
      fill="#F5EBDD"/>
    <path id="Vector_9" d="M22.486 167.853H270.302" stroke="white" stroke-width="4" stroke-miterlimit="10"/>
    <path id="Vector_10" d="M40.6566 155.482C44.2864 155.482 47.2289 152.54 47.2289 148.91C47.2289 145.28 44.2864 142.337 40.6566 142.337C37.0268 142.337 34.0843 145.28 34.0843 148.91C34.0843 152.54 37.0268 155.482 40.6566 155.482Z" fill="white"/>
    <path id="Vector_11" d="M60.5746 155.482C64.2044 155.482 67.1469 152.54 67.1469 148.91C67.1469 145.28 64.2044 142.337 60.5746 142.337C56.9448 142.337 54.0023 145.28 54.0023 148.91C54.0023 152.54 56.9448 155.482 60.5746 155.482Z" fill="white"/>
    <path id="Vector_12" d="M80.4886 155.482C84.1184 155.482 87.0609 152.54 87.0609 148.91C87.0609 145.28 84.1184 142.337 80.4886 142.337C76.8588 142.337 73.9163 145.28 73.9163 148.91C73.9163 152.54 76.8588 155.482 80.4886 155.482Z" fill="white"/>
    <path
      id="Vector_13"
      d="M204.744 142.569C204.744 142.411 204.744 142.183 204.744 141.947L204.93 141.808L204.748 141.769C204.748 138.444 204.466 128.57 201.238 121.047C198.369 114.362 194.41 111.273 191.661 112.452C188.913 113.632 188.422 118.638 191.275 125.311C192.868 129.03 195.377 132.622 197.793 135.583C192.926 130.971 186.28 125.253 180.28 122.106C172.161 117.853 165.848 117.981 164.096 121.314C162.345 124.646 165.836 129.923 173.947 134.18C179.224 136.952 186.431 139.005 192.554 140.4C189.272 140.287 185.987 140.565 182.769 141.228C175.671 142.82 171.913 146.149 172.567 149.064C173.22 151.979 178.041 153.383 185.139 151.79C193.045 150.015 201.126 144.56 203.905 142.554L204.396 142.627C204.597 142.817 204.717 142.921 204.717 142.921C204.717 142.921 204.717 142.832 204.717 142.674H204.833L204.744 142.569Z"
      fill="#3EC1F3"/>
    <path id="Vector_14" d="M282.801 177.724L282.681 177.608V177.848L282.801 177.724Z" fill="#3EC1F3"/>
    <path id="Vector_15" d="M273.533 187.087L273.437 168.457L263.926 159.043L264.116 196.598L273.533 187.087Z" fill="#3EC1F3"/>
    <path id="Vector_16" d="M207.833 135.819L208.15 198.484L217.661 207.898L217.247 126.309L207.833 135.819Z" fill="#3EC1F3"/>
    <path id="Vector_17" d="M176.661 167.312L198.907 189.333L198.682 145.063L176.661 167.312Z" fill="#3EC1F3"/>
    <path id="Vector_18" d="M254.969 205.838L254.686 149.896L245.172 140.478L245.551 215.352L254.969 205.838Z" fill="#3EC1F3"/>
    <path id="Vector_19" d="M235.932 131.331L226.421 121.917L226.901 217.049L235.472 225.531L236.404 224.592L235.932 131.331Z" fill="#3EC1F3"/>
    <path id="Vector_20" d="M198.682 145.063L198.907 189.333L208.151 198.484L207.833 135.819L198.682 145.063Z" fill="#4756DF"/>
    <path id="Vector_21" d="M223.986 119.504L217.247 126.309L217.661 207.898L226.901 217.049L226.422 121.917L223.986 119.504Z" fill="#4756DF"/>
    <path id="Vector_22" d="M245.551 215.352L245.172 140.478L235.932 131.331L236.404 224.592L245.551 215.352Z" fill="#4756DF"/>
    <path id="Vector_23" d="M264.115 196.598L263.926 159.043L254.686 149.896L254.968 205.838L264.115 196.598Z" fill="#4756DF"/>
    <path id="Vector_24" d="M282.681 177.847V177.607L273.437 168.456L273.533 187.087L282.681 177.847Z" fill="#4756DF"/>
    <path id="Vector_25" d="M238.658 134.226L191.418 181.945" stroke="black" stroke-width="4" stroke-linejoin="round"/>
    <path id="Vector_26" d="M226.433 117.032L174.209 169.787L188.394 183.83L240.618 131.075L226.433 117.032Z" fill="#4756DF"/>
    <path
      id="Vector_27"
      d="M212.31 202.261C212.31 202.261 217.336 185.637 214.243 182.931C210.509 179.664 204.192 190.277 199.1 203.035C193.745 216.438 178.223 254.454 177.45 257.16C177.45 257.16 151.002 242.701 139.176 237.443C128.737 232.803 116.022 231.118 116.022 231.118L114.406 221.41C114.406 221.41 121.956 224.116 128.428 220.332C134.9 216.547 136.52 209.541 134.363 198.755C133.083 192.364 133.129 184.45 132.043 177.395C127.736 178.122 121.427 176.641 121.427 176.641C112.794 186.349 103.643 188.506 103.643 188.506C97.7083 182.034 86.9181 182.034 85.3021 191.212C83.5121 201.361 96.0884 204.156 96.0884 204.156C96.0884 204.156 98.6478 218.886 93.2352 233.577C85.7157 253.99 55.4018 259.406 42.9763 250.587C20.553 266.438 40.3899 314.598 59.2138 337.188C74.6781 355.745 129.576 346.08 129.576 346.08C129.576 346.08 135.762 350.719 143.108 352.265C156.252 378.168 161.665 370.822 161.665 370.822C161.665 370.822 166.304 375.848 169.784 370.436C176.742 370.822 176.356 366.57 170.17 351.879C177.129 360.384 183.941 360.411 184.088 358.064C184.475 351.879 163.984 330.229 151.226 324.816C141.642 320.749 136.922 319.404 136.922 319.404L134.989 288.088C134.989 288.088 176.016 310.62 195.3 300.073C220.043 286.542 230.094 220.045 230.094 220.045L212.31 202.261Z"
      fill="#EAA58B"/>
    <path
      id="Vector_28"
      d="M93.2352 233.577C98.6478 218.886 96.0652 204.148 96.0652 204.148C96.0652 204.148 83.4889 201.353 85.2789 191.205C86.8949 182.034 97.6851 182.034 103.62 188.498C103.62 188.498 112.786 186.341 121.403 176.633C121.403 176.633 127.713 178.114 132.02 177.387C131.266 172.528 129.975 168.062 127.334 164.764C120.862 156.677 103.063 151.28 89.0405 161.529C75.0183 171.778 76.0931 188.498 76.6343 194.97C76.6343 194.97 52.3824 189.032 39.4813 207.28C23.6304 229.703 42.9608 250.58 42.9608 250.58C55.4018 259.406 85.7157 253.99 93.2352 233.577Z"
      fill="#30242A"/>
    <path
      id="Vector_29"
      d="M135.665 299.056L134.989 288.088H135.024L131.788 234.675C128.218 233.571 124.591 232.659 120.924 231.941L119.138 268.758H88.9826L77.5274 250.143C73.4386 252.16 69.0596 253.526 64.549 254.191L81.7762 296.888L88.2094 312.831C88.2094 312.831 102.9 313.604 116.045 315.537C129.19 317.471 136.922 319.404 136.922 319.404L135.665 299.056Z"
      fill="#FF7235"/>
    <path id="Vector_30" d="M212.886 203.22C212.569 204.229 212.244 205.211 211.924 206.128C211.924 206.128 221.782 217.532 215.596 232.224" stroke="#BB7259" stroke-width="4" stroke-miterlimit="10" stroke-linecap="round"/>
    <path id="Vector_31" d="M176.545 256.816L172.49 267.211" stroke="#BB7259" stroke-width="4" stroke-miterlimit="10" stroke-linecap="round"/>
    <path id="Vector_32" d="M171.716 353.68C170.081 349.973 168.059 345.635 166.273 342.469" stroke="#BB7259" stroke-width="4" stroke-miterlimit="10" stroke-linecap="round"/>
    <path id="Vector_33" d="M159.016 346.323C163.656 354.492 167.294 363.639 169.575 370.065" stroke="#BB7259" stroke-width="4" stroke-miterlimit="10" stroke-linecap="round"/>
    <path id="Vector_34" d="M151.802 350.901C155.282 357.287 158.669 364.73 161.181 370.579" stroke="#BB7259" stroke-width="4" stroke-miterlimit="10" stroke-linecap="round"/>
    <path id="Vector_35" d="M136.342 303.746L84.923 303.359" stroke="#724342" stroke-width="4" stroke-miterlimit="10" stroke-linecap="round"/>
    <path
      id="Vector_36"
      d="M69.3351 328.16C66.8259 327.308 64.1387 327.123 61.5363 327.622C58.934 328.121 56.5057 329.287 54.4893 331.006C56.0551 333.221 57.6363 335.297 59.2137 337.191C63.4895 342.322 70.7771 345.31 79.0853 346.907C81.1923 339.028 76.9976 330.797 69.3351 328.16Z"
      fill="#CA7358"/>
    <path
      id="Vector_37"
      d="M195.3 300.073C198.659 298.237 201.744 295.434 204.578 291.931C202.744 289.173 200.052 287.096 196.92 286.02C188.897 283.263 180.11 287.671 177.291 295.863C176.557 297.999 176.284 300.267 176.491 302.517C183.508 303.344 190.173 302.876 195.3 300.073Z"
      fill="#CA7358"/>
    <path id="Vector_38" d="M64.5452 254.191C56.2176 255.432 48.0834 254.214 42.9763 250.587C26.6808 262.108 32.7042 290.686 44.4377 314.119L81.7763 296.887L64.5452 254.191Z" fill="#FFBE21"/>
    <path
      id="Vector_39"
      d="M93.2353 233.577C90.444 241.15 84.5134 246.659 77.5274 250.143L88.9826 268.758H119.138L120.924 231.961C117.955 231.377 116.022 231.118 116.022 231.118L115.272 226.618H95.2534C94.7414 228.981 94.0671 231.306 93.2353 233.577Z"
      fill="#FFBE21"/>
    <path id="Vector_40" d="M139.172 237.443C136.764 236.389 134.299 235.471 131.788 234.694L135.024 288.108C140.159 290.827 145.439 293.265 150.84 295.411L166.691 251.361C158 246.721 146.088 240.536 139.172 237.443Z" fill="#FFBE21"/>
    <path id="Vector_41" d="M37.5541 270.325C47.9091 264.347 52.094 252.209 46.9012 243.215C41.7085 234.221 29.1045 231.776 18.7495 237.755C8.39442 243.733 4.20955 255.871 9.4023 264.865C14.595 273.859 27.199 276.304 37.5541 270.325Z" fill="#30242A"/>
    <g id="Group">
      <path id="Vector_42" d="M33.5043 232.997C33.5043 232.997 36.2106 249.234 49.3552 254.26" stroke="black" stroke-width="4" stroke-linecap="round" stroke-linejoin="round"/>
    </g>
    <path id="Vector_43" d="M325.78 137.505L327.326 149.103" stroke="#F5EBDC" stroke-width="4" stroke-miterlimit="10" stroke-linecap="round"/>
    <path
      id="Vector_44"
      d="M454.327 123.78C454.327 123.78 471.724 103.29 452.394 85.8926C440.579 75.2608 426.387 78.2223 426.387 78.2223C426.924 71.7505 428.003 55.0258 413.98 44.7807C399.958 34.5356 382.155 39.9288 375.683 48.0166C369.211 56.1044 370.831 71.2131 368.674 81.9994C366.517 92.7858 368.133 99.7834 374.604 103.576C381.076 107.369 388.631 104.655 388.631 104.655L387.011 114.362C387.011 114.362 374.299 116.048 363.861 120.687C352.03 125.945 325.586 140.404 325.586 140.404C324.813 137.698 320.561 93.6247 318.628 79.3202C317.155 68.4218 312.055 54.964 308.189 57.6702C304.439 60.2953 305.869 68.8818 305.869 68.8818L286.152 89.372C286.152 89.372 276.406 159.63 299.684 178.678C316.694 192.596 361.154 170.173 361.154 170.173L355.355 212.313H408.406C408.406 212.313 398.458 214.958 377.778 224.298C353.809 235.123 339.891 265.278 341.437 267.598C342.984 269.918 347.623 267.985 353.809 260.253C348.396 280.356 353.809 278.81 357.288 278.423C360.826 283.511 365.407 277.263 365.407 277.263C365.407 277.263 371.593 283.062 381.258 256C385.649 253.93 389.692 251.191 393.243 247.881C393.243 247.881 454.713 244.015 466.698 222.365C478.683 200.715 470.564 144.27 454.327 123.78Z"
      fill="#A15842"/>
    <path id="Vector_45" d="M373.97 77.1166C374.856 77.1166 375.575 76.3983 375.575 75.5122C375.575 74.6261 374.856 73.9078 373.97 73.9078C373.084 73.9078 372.366 74.6261 372.366 75.5122C372.366 76.3983 373.084 77.1166 373.97 77.1166Z" fill="#30242A"/>
    <path id="Vector_46" d="M88.016 312.251L79.124 311.865" stroke="#BB7259" stroke-width="4" stroke-miterlimit="10" stroke-linecap="round"/>
    <path id="Vector_47" d="M114.27 222.315C111.934 221.513 109.668 220.521 107.493 219.349" stroke="#BB7259" stroke-width="4" stroke-miterlimit="10" stroke-linecap="round"/>
    <path id="Vector_48" d="M76.0466 194.866C76.3405 197.815 76.7387 201.488 77.1253 204.388" stroke="black" stroke-width="4" stroke-linecap="round" stroke-linejoin="round"/>
    <path id="Vector_49" d="M112.357 303.329C112.357 303.329 103.399 290.652 107.559 288.985C110.919 287.64 111.877 297.502 112.357 303.329Z" stroke="#724342" stroke-width="4" stroke-linecap="round" stroke-linejoin="round"/>
    <path id="Vector_50" d="M112.639 303.553C112.639 303.553 117.042 293.385 119.807 295.013C122.037 296.327 116.153 300.897 112.639 303.553Z" stroke="#724342" stroke-width="4" stroke-linecap="round" stroke-linejoin="round"/>
    <path id="Vector_51" d="M116.903 231.388L117.591 235.51" stroke="#BB7259" stroke-width="4" stroke-miterlimit="10" stroke-linecap="round"/>
    <path id="Vector_52" d="M97.6578 195.477L92.8445 192.801" stroke="#BB7259" stroke-width="4" stroke-miterlimit="10" stroke-linecap="round"/>
    <path id="Vector_53" d="M120.634 204.523C120.909 209.595 126.12 210.017 127.396 206.456L120.634 204.523Z" stroke="#BB7259" stroke-width="4" stroke-linecap="round" stroke-linejoin="round"/>
    <path
      id="Vector_54"
      d="M117.522 195.612C118.408 195.612 119.126 194.894 119.126 194.008C119.126 193.121 118.408 192.403 117.522 192.403C116.636 192.403 115.917 193.121 115.917 194.008C115.917 194.894 116.636 195.612 117.522 195.612Z"
      fill="#724342"/>
    <path
      id="Vector_55"
      d="M129.453 192.712C130.339 192.712 131.057 191.994 131.057 191.108C131.057 190.222 130.339 189.503 129.453 189.503C128.567 189.503 127.848 190.222 127.848 191.108C127.848 191.994 128.567 192.712 129.453 192.712Z"
      fill="#724342"/>
    <path id="Vector_56" d="M125.347 195.967C125.733 196.992 126.097 198.117 125.981 198.538C125.817 199.044 125.485 199.479 125.041 199.772" stroke="#BB7259" stroke-width="4" stroke-miterlimit="10" stroke-linecap="round"/>
    <path
      id="Vector_57"
      d="M111.162 153.054L113.207 155.3L114.56 156.793C115.422 159.808 109.148 164.614 100.426 167.591C91.7041 170.567 83.8019 170.595 82.642 167.679L82.8044 165.669L83.0518 162.642C86.3264 163.415 92.0095 162.793 98.0909 160.709C104.172 158.625 109.051 155.683 111.162 153.054Z"
      fill="#FFB7D5"/>
    <path
      id="Vector_58"
      d="M95.7327 153.835C100.295 152.289 104.184 150.224 106.736 148.183L111.162 153.054C109.051 155.683 104.165 158.644 98.0794 160.721C91.9942 162.797 86.3149 163.427 83.0403 162.654L83.57 156.081C86.8368 156.139 91.1707 155.389 95.7327 153.835Z"
      fill="#FF7235"/>
    <path id="Vector_59" d="M101.996 142.971L106.735 148.183C104.184 150.224 100.295 152.281 95.7326 153.835C91.1706 155.389 86.8406 156.155 83.5699 156.085L84.1343 149.06C90.4474 148.298 96.5313 146.224 101.996 142.971Z" fill="#FFB7D5"/>
    <path id="Vector_60" d="M91.0355 140.064C93.0992 139.366 95.1107 138.522 97.055 137.54L101.996 142.971C96.5315 146.224 90.4476 148.298 84.1345 149.06L84.7299 141.746C86.8685 141.333 88.9755 140.771 91.0355 140.064Z" fill="#FF7235"/>
    <path id="Vector_61" d="M84.7298 141.746L86.0481 125.431L97.0587 137.54C95.1145 138.522 93.1029 139.366 91.0392 140.064C88.978 140.772 86.8697 141.334 84.7298 141.746Z" fill="#FFB7D5"/>
    <path
      id="Vector_62"
      d="M85.1163 128.663C88.4045 128.663 91.0701 125.997 91.0701 122.709C91.0701 119.421 88.4045 116.755 85.1163 116.755C81.8281 116.755 79.1625 119.421 79.1625 122.709C79.1625 125.997 81.8281 128.663 85.1163 128.663Z"
      fill="#FF7235"/>
    <path
      id="Vector_63"
      d="M94.5882 210.767C97.2572 210.767 99.4208 208.603 99.4208 205.934C99.4208 203.265 97.2572 201.102 94.5882 201.102C91.9192 201.102 89.7556 203.265 89.7556 205.934C89.7556 208.603 91.9192 210.767 94.5882 210.767Z"
      fill="#F4E6D8"/>
    <path
      id="Vector_64"
      d="M397.546 231.199L398.539 233.422L404.493 246.764C422.818 244.498 457.949 238.173 466.698 222.365C478.683 200.715 470.564 144.27 454.327 123.78C440.795 138.661 419.872 134.605 411.483 122.234C409.937 122.618 408.362 122.876 406.774 123.007C404.298 123.236 401.802 123.137 399.351 122.713C396.415 122.223 393.634 121.051 391.232 119.292C388.174 116.991 387.057 114.501 387.057 114.501L386.539 114.428C384.165 114.78 373.12 116.57 363.861 120.687C352.03 125.945 325.586 140.404 325.586 140.404C325.238 139.19 324.191 129.629 322.965 118.174L307.949 123.973L306.322 124.604L298.555 127.611L284.432 133.078C285.445 151.279 289.245 170.134 299.684 178.678C316.694 192.596 361.154 170.173 361.154 170.173L355.355 212.313H408.405C408.405 212.313 402.966 213.763 391.781 218.286L394.356 224.051L397.546 231.199Z"
      fill="#FFB7D5"/>
    <path
      id="Vector_65"
      d="M324.426 161.668C319.71 161.668 315.186 163.541 311.851 166.877C308.516 170.212 306.642 174.735 306.642 179.452C306.643 180.376 306.714 181.299 306.855 182.212C316.992 184.918 330.925 181.74 342.145 177.959C341.771 173.517 339.742 169.378 336.461 166.361C333.179 163.343 328.884 161.669 324.426 161.668Z"
      fill="#FF7235"/>
    <path
      id="Vector_66"
      d="M307.029 129.579C307.028 127.9 306.79 126.228 306.322 124.615L298.555 127.623L284.432 133.09C284.691 137.756 285.136 142.465 285.828 147.031C288.404 147.535 291.06 147.463 293.605 146.82C296.15 146.176 298.52 144.977 300.547 143.309C302.574 141.641 304.206 139.545 305.327 137.171C306.448 134.797 307.029 132.204 307.029 129.579Z"
      fill="#FF7235"/>
    <path
      id="Vector_67"
      d="M358.448 141.951C361.411 141.949 364.327 141.207 366.931 139.792C369.534 138.377 371.743 136.334 373.356 133.849C374.97 131.363 375.936 128.514 376.168 125.56C376.4 122.606 375.891 119.64 374.685 116.933C370.988 117.91 367.369 119.165 363.861 120.687C358.417 123.107 349.877 127.476 342.241 131.489C343.65 134.607 345.928 137.252 348.803 139.108C351.678 140.964 355.027 141.951 358.448 141.951Z"
      fill="#FF7235"/>
    <path id="Vector_68" d="M401.748 182.545C411.57 182.545 419.532 174.582 419.532 164.761C419.532 154.939 411.57 146.977 401.748 146.977C391.926 146.977 383.964 154.939 383.964 164.761C383.964 174.582 391.926 182.545 401.748 182.545Z" fill="#FF7235"/>
    <path
      id="Vector_69"
      d="M366.953 192.983C363.677 192.982 360.465 193.891 357.675 195.608L355.355 212.313H384.664C384.71 211.803 384.737 211.289 384.737 210.767C384.737 206.05 382.864 201.527 379.528 198.192C376.193 194.857 371.67 192.983 366.953 192.983Z"
      fill="#FF7235"/>
    <path
      id="Vector_70"
      d="M430.775 133.206C430.775 133.542 430.744 133.878 430.744 134.219C430.745 138.163 432.058 141.996 434.476 145.113C436.894 148.229 440.28 150.454 444.1 151.436C447.921 152.418 451.96 152.102 455.581 150.537C459.202 148.973 462.201 146.249 464.104 142.794C461.371 135.127 458.065 128.489 454.327 123.78C447.503 131.284 438.801 133.971 430.775 133.206Z"
      fill="#FF7235"/>
    <path
      id="Vector_71"
      d="M447.368 208.447C447.369 212.952 449.079 217.288 452.153 220.58C455.227 223.872 459.436 225.875 463.93 226.185C464.997 225.023 465.926 223.741 466.698 222.365C470.642 215.244 472.408 204.353 472.424 192.21C469.715 190.996 466.746 190.479 463.786 190.707C460.827 190.935 457.971 191.9 455.48 193.515C452.989 195.129 450.942 197.341 449.525 199.949C448.108 202.558 447.366 205.479 447.368 208.447Z"
      fill="#FF7235"/>
    <path
      id="Vector_72"
      d="M409.867 226.231C405.271 226.227 400.853 228.008 397.546 231.199L398.539 233.422L404.493 246.764C412.258 245.821 419.97 244.487 427.601 242.766C427.285 238.278 425.279 234.077 421.988 231.008C418.698 227.94 414.366 226.233 409.867 226.231Z"
      fill="#FF7235"/>
    <path id="Vector_73" d="M439.829 201.295C429.437 204.836 415.422 209.143 406.774 211.927" stroke="#F5EBDC" stroke-width="4" stroke-miterlimit="10" stroke-linecap="round"/>
    <path id="Vector_74" d="M428.814 163.717L432.483 203.615" stroke="#F5EBDC" stroke-width="4" stroke-miterlimit="10" stroke-linecap="round"/>
    <path id="Vector_75" d="M352.769 261.266C354.037 257.349 356.739 249.304 359.113 244.158" stroke="#30242A" stroke-width="4" stroke-miterlimit="10" stroke-linecap="round"/>
    <path id="Vector_76" d="M366.663 247.394C361.274 258.992 358.112 272.214 356.94 277.696" stroke="#30242A" stroke-width="4" stroke-miterlimit="10" stroke-linecap="round"/>
    <path id="Vector_77" d="M374.214 251.167C370.734 259.193 367.688 270.15 365.979 276.892" stroke="#30242A" stroke-width="4" stroke-miterlimit="10" stroke-linecap="round"/>
    <path id="Vector_78" d="M362.403 156.429L360.3 170.463" stroke="#F5EBDC" stroke-width="4" stroke-miterlimit="10" stroke-linecap="round"/>
    <path
      id="Vector_79"
      d="M452.394 85.8925C440.579 75.2608 426.387 78.2223 426.387 78.2223C426.924 71.7504 428.003 55.0258 413.98 44.7807C399.958 34.5356 382.155 39.9288 375.683 48.0166C373.046 51.3144 371.751 55.7797 370.997 60.6393C375.304 61.3662 381.617 59.8855 381.617 59.8855C390.247 69.5932 399.401 71.7505 399.401 71.7505C405.336 65.2786 416.122 65.2786 417.742 74.4567C419.532 84.6052 406.952 87.4003 406.952 87.4003C406.952 87.4003 404.284 101.863 408.692 116.442C409.319 118.504 410.255 120.459 411.467 122.241C419.857 134.613 440.784 138.672 454.311 123.788C454.981 122.964 455.602 122.101 456.171 121.205C460.087 115.155 467.591 99.5707 452.394 85.8925Z"
      fill="#30242A"/>
    <path id="Vector_80" d="M388.572 105.339C391.073 104.607 393.482 103.595 395.756 102.323" stroke="#30242A" stroke-width="4" stroke-miterlimit="10" stroke-linecap="round"/>
    <path id="Vector_81" d="M426.986 78.1102C426.692 81.06 426.298 84.7328 425.911 87.6324" stroke="black" stroke-width="4" stroke-miterlimit="10" stroke-linecap="round"/>
    <path id="Vector_82" d="M405.374 78.7211L410.188 76.0458" stroke="#30242A" stroke-width="4" stroke-miterlimit="10" stroke-linecap="round"/>
    <path id="Vector_83" d="M378.018 91.2702C378.903 91.8231 382.217 92.2522 383.562 89.7045" stroke="#30242A" stroke-width="4" stroke-miterlimit="10" stroke-linecap="round"/>
    <path id="Vector_84" d="M386.732 79.243C387.618 79.243 388.337 78.5247 388.337 77.6386C388.337 76.7525 387.618 76.0342 386.732 76.0342C385.846 76.0342 385.128 76.7525 385.128 77.6386C385.128 78.5247 385.846 79.243 386.732 79.243Z" fill="#30242A"/>
    <path id="Vector_85" d="M377.821 81.5471C377.573 82.6142 377.369 83.7779 377.539 84.1761C377.769 84.656 378.157 85.0432 378.637 85.274" stroke="#30242A" stroke-width="4" stroke-miterlimit="10" stroke-linecap="round"/>
    <path
      id="Vector_86"
      d="M377.183 77.0116C378.148 72.8516 375.894 68.7757 372.15 67.9078C368.406 67.04 364.589 69.7089 363.625 73.869C362.661 78.029 364.914 82.1049 368.658 82.9728C372.402 83.8406 376.219 81.1717 377.183 77.0116Z"
      stroke="black"
      stroke-width="4"
      stroke-miterlimit="10"
      stroke-linecap="round"/>
    <path
      id="Vector_87"
      d="M394.196 79.7167C395.16 75.5567 392.907 71.4807 389.163 70.6129C385.419 69.7451 381.602 72.414 380.638 76.574C379.673 80.7341 381.927 84.81 385.671 85.6778C389.415 86.5457 393.232 83.8768 394.196 79.7167Z"
      stroke="black"
      stroke-width="4"
      stroke-miterlimit="10"
      stroke-linecap="round"/>
    <path id="Vector_88" d="M377.585 76.4207L380.291 76.8073" stroke="black" stroke-width="4" stroke-miterlimit="10" stroke-linecap="round"/>
    <path id="Vector_89" d="M301.037 71.0082C301.037 71.0082 308.382 77.194 309.156 78.7404C309.156 78.7404 297.171 91.1118 306.449 106.19" stroke="#30242A" stroke-width="4" stroke-miterlimit="10" stroke-linecap="round"/>
    <path
      id="Vector_90"
      d="M340.403 30.9587C341.291 29.5067 340.835 27.6097 339.383 26.7214C337.931 25.8332 336.034 26.2902 335.145 27.7421L276.584 123.468C275.695 124.92 276.152 126.817 277.604 127.705C279.056 128.594 280.953 128.137 281.841 126.685L340.403 30.9587Z"
      fill="#30242A"/>
    <path
      id="Vector_91"
      d="M345.725 6.08518L352.382 0.757726C352.925 0.322074 353.589 0.0634647 354.283 0.0167847C354.978 -0.0298953 355.67 0.137601 356.266 0.496682C356.863 0.855762 357.334 1.38914 357.618 2.02484C357.902 2.66053 357.984 3.36795 357.853 4.05162L356.256 12.4371C356.13 13.0978 356.203 13.7809 356.465 14.4002C356.727 15.0195 357.167 15.5472 357.729 15.9166L364.85 20.6023C365.432 20.9841 365.883 21.5352 366.142 22.1813C366.401 22.8274 366.456 23.5374 366.299 24.2155C366.141 24.8936 365.78 25.5072 365.263 25.9734C364.746 26.4396 364.099 26.7361 363.408 26.8228L354.969 27.9015C354.301 27.986 353.673 28.2665 353.164 28.7075C352.656 29.1486 352.29 29.7304 352.111 30.3796L349.858 38.5989C349.673 39.2694 349.287 39.8672 348.752 40.3121C348.218 40.7569 347.56 41.0274 346.867 41.0872C346.174 41.1469 345.479 40.9932 344.876 40.6465C344.273 40.2998 343.791 39.7768 343.494 39.1479L339.864 31.4157C339.575 30.8098 339.113 30.303 338.536 29.959C337.96 29.615 337.294 29.4493 336.624 29.4827L328.119 29.8693C327.419 29.9131 326.723 29.7396 326.125 29.3725C325.528 29.0055 325.058 28.4627 324.781 27.8187C324.504 27.1746 324.432 26.4606 324.577 25.7744C324.721 25.0881 325.073 24.4632 325.586 23.9851L331.799 18.1473C332.29 17.6864 332.633 17.0904 332.785 16.4346C332.937 15.7789 332.891 15.0928 332.654 14.463L329.646 6.48725C329.399 5.83518 329.358 5.12307 329.529 4.4471C329.7 3.77114 330.074 3.16387 330.601 2.70732C331.128 2.25077 331.782 1.96694 332.476 1.89415C333.169 1.82136 333.868 1.96312 334.478 2.30029L341.951 6.40993C342.542 6.73482 343.216 6.87737 343.887 6.81957C344.559 6.76177 345.198 6.50621 345.725 6.08518Z"
      fill="#3EC1F3"/>
    <path
      id="Vector_92"
      d="M305.869 68.8819C303.163 66.5622 297.963 65.0583 295.431 66.5622C291.155 69.1023 292.207 74.0354 292.207 74.0354C292.207 74.0354 285.248 72.9529 285.333 80.0819C285.333 80.0819 279.731 82.533 282.182 88.1349C282.182 88.1349 277.334 89.3605 279.638 95.3297C281.513 100.197 285.839 102.745 288.472 104.063C290.792 105.223 294.348 103.549 293.111 99.0373C293.111 99.0373 295.818 99.8105 297.364 98.2641C299.498 96.13 298.524 92.0783 298.524 92.0783C298.524 92.0783 301.23 92.8516 303.163 91.3051C305.521 89.4185 304.323 85.8926 304.323 85.8926C305.187 85.7761 306.003 85.4267 306.684 84.8819C307.365 84.3371 307.886 83.6174 308.189 82.7998C309.735 78.9337 303.936 74.2944 303.936 74.2944L305.869 68.8819Z"
      fill="#A15842"/>
    <path id="Vector_93" d="M281.9 88.3553C285.303 92.4868 289.054 96.3192 293.111 99.8105" stroke="#30242A" stroke-width="4" stroke-miterlimit="10" stroke-linecap="round"/>
    <path id="Vector_94" d="M285.379 80.047C289.366 84.9213 293.916 89.3064 298.934 93.1105" stroke="#30242A" stroke-width="4" stroke-miterlimit="10" stroke-linecap="round"/>
    <path id="Vector_95" d="M291.565 74.36C295.218 79.1604 299.615 83.346 304.59 86.7586" stroke="#30242A" stroke-width="4" stroke-miterlimit="10" stroke-linecap="round"/>
    <path id="Vector_96" d="M301.037 71.0082C301.037 71.0082 304.659 74.0586 307.083 76.4207" stroke="#30242A" stroke-width="4" stroke-miterlimit="10" stroke-linecap="round"/>
    <path
      id="Vector_97"
      d="M391.87 36.2986L389.829 38.5448L388.472 40.0371C387.61 43.0526 393.884 47.8581 402.61 50.835C411.336 53.8119 419.234 53.839 420.394 50.9239L420.232 48.9136L419.988 45.8864C416.71 46.6597 411.03 46.0372 404.945 43.9534C398.86 41.8696 393.985 38.9275 391.87 36.2986Z"
      fill="#FFBE21"/>
    <path
      id="Vector_98"
      d="M407.304 37.0795C402.742 35.533 398.852 33.4685 396.301 31.4272L391.87 36.2985C393.985 38.9274 398.872 41.8888 404.953 43.9649C411.034 46.041 416.717 46.6712 419.996 45.898L419.466 39.3256C416.199 39.3836 411.865 38.6336 407.304 37.0795Z"
      fill="#FF7235"/>
    <path id="Vector_99" d="M401.041 26.2158L396.301 31.4273C398.852 33.4686 402.742 35.5253 407.304 37.0795C411.865 38.6337 416.195 39.3992 419.466 39.3296L418.898 32.3049C412.586 31.5425 406.503 29.4684 401.041 26.2158Z" fill="#FFBE21"/>
    <path id="Vector_100" d="M412.001 23.3086C409.936 22.6105 407.923 21.7669 405.978 20.7841L401.041 26.1966C406.503 29.4492 412.586 31.5232 418.898 32.2857L418.306 24.971C416.168 24.5645 414.061 24.009 412.001 23.3086Z" fill="#FF7235"/>
    <path id="Vector_101" d="M418.306 24.9903L416.988 8.67545L405.978 20.784C407.923 21.7668 409.936 22.6104 412.001 23.3085C414.061 24.0155 416.168 24.5774 418.306 24.9903Z" fill="#FFBE21"/>
    <path id="Vector_102" d="M417.916 11.9075C421.204 11.9075 423.87 9.24193 423.87 5.95376C423.87 2.66559 421.204 0 417.916 0C414.628 0 411.962 2.66559 411.962 5.95376C411.962 9.24193 414.628 11.9075 417.916 11.9075Z" fill="#FF7235"/>
  </g>
</svg>
