<svg width="430" height="341" viewBox="0 0 430 341" fill="none" xmlns="http://www.w3.org/2000/svg">
  <g id="Scooter">
    <path id="Vector" d="M223.997 46.0759H164.099V134.683H223.997V46.0759Z" fill="#3EC1F3"/>
    <path id="Vector_2" d="M146.551 46.0759H164.099V134.683H124.758V67.869C124.758 62.0891 127.054 56.546 131.141 52.459C135.228 48.372 140.771 46.0759 146.551 46.0759Z" fill="#3EC1F3"/>
    <path id="Vector_3" d="M143.366 117.316C148.168 117.316 152.061 113.061 152.061 107.813C152.061 102.565 148.168 98.3104 143.366 98.3104C138.564 98.3104 134.671 102.565 134.671 107.813C134.671 113.061 138.564 117.316 143.366 117.316Z" fill="#F4E6D8"/>
    <path
      id="Vector_4"
      d="M155.594 108.018H131.137C131.136 110.447 131.859 112.821 133.214 114.838C134.568 116.854 136.493 118.421 138.742 119.338V122.431H147.989V119.338C150.238 118.421 152.163 116.854 153.517 114.838C154.872 112.821 155.595 110.447 155.594 108.018Z"
      fill="#4756DF"/>
    <path id="Vector_5" d="M124.306 84.2805L163.353 68.4295" stroke="#4756DF" stroke-width="4" stroke-miterlimit="10" stroke-linecap="round"/>
    <path id="Vector_6" d="M163.392 46.0759V134.683" stroke="#4756DF" stroke-width="4" stroke-miterlimit="10"/>
    <path
      id="Vector_7"
      d="M383.488 278.578V244.556L362.932 223.645H305.161L284.605 244.556V276.1H212.657V262.982C189.62 260.5 196.706 243.489 183.948 243.489H161.266C159.613 243.483 157.993 243.953 156.599 244.842L124.577 225.052H91.6184L50.3287 250.568H50.4176V282.695L22.6862 299.834V329.251H404.044V299.482L383.488 278.578Z"
      fill="#F5EBDD"/>
    <path id="Vector_8" d="M417.869 329.258H395.538C395.538 323.096 400.537 316.856 406.704 316.856C412.87 316.856 417.869 323.096 417.869 329.258Z" fill="#FFB7D5"/>
    <path id="Vector_9" d="M429.494 329.258H412.905C412.905 324.681 416.62 320.045 421.197 320.045C425.775 320.045 429.494 324.681 429.494 329.258Z" fill="#FFB7D5"/>
    <path
      id="Vector_10"
      d="M103.611 180.414C114.436 177.062 128.354 172.245 170.707 206.881C213.059 241.518 229.084 218.866 224.75 213.632C221.271 209.418 201.84 220.788 216.303 236.117C230.047 250.692 270.328 236.751 281.373 227.828C297.092 215.132 319.597 205.146 339.434 204.426"
      stroke="#FFB7D5"
      stroke-width="4"
      stroke-linecap="round"
      stroke-linejoin="round"
      stroke-dasharray="12 12"/>
    <path id="Vector_11" d="M132.912 250.576L91.6183 225.06" stroke="#FFB7D5" stroke-width="4" stroke-linecap="round" stroke-linejoin="round"/>
    <path id="Vector_12" d="M50.804 250.576H133.001V328.872" stroke="#FFB7D5" stroke-width="4" stroke-linecap="round" stroke-linejoin="round"/>
    <path id="Vector_13" d="M49.3542 329.019L49.7408 283.082" stroke="#FFB7D5" stroke-width="4" stroke-linecap="round" stroke-linejoin="round"/>
    <path id="Vector_14" d="M23.0727 299.841H49.2654" stroke="#FFB7D5" stroke-width="4" stroke-linecap="round" stroke-linejoin="round"/>
    <path id="Vector_15" d="M49.799 294.348H132.378" stroke="#FFB7D5" stroke-width="4" stroke-linecap="round" stroke-linejoin="round"/>
    <path id="Vector_16" d="M283.716 306.046H342.198" stroke="#FFB7D5" stroke-width="4" stroke-linecap="round" stroke-linejoin="round"/>
    <path id="Vector_17" d="M132.912 250.576H152.18" stroke="#FFB7D5" stroke-width="4" stroke-linecap="round" stroke-linejoin="round"/>
    <path id="Vector_18" d="M284.992 244.552H342.376V328.872" stroke="#FFB7D5" stroke-width="4" stroke-linecap="round" stroke-linejoin="round"/>
    <path id="Vector_19" d="M342.376 328.485V244.552H382.714" stroke="#FFB7D5" stroke-width="4" stroke-linecap="round" stroke-linejoin="round"/>
    <path id="Vector_20" d="M190.327 263.69H212.271" stroke="#FFB7D5" stroke-width="4" stroke-linecap="round" stroke-linejoin="round"/>
    <path id="Vector_21" d="M362.932 328.872V299.489H403.437" stroke="#FFB7D5" stroke-width="4" stroke-linecap="round" stroke-linejoin="round"/>
    <path id="Vector_22" d="M362.707 223.869L342.376 244.553" stroke="#FFB7D5" stroke-width="4" stroke-linecap="round" stroke-linejoin="round"/>
    <path id="Vector_23" d="M342.376 278.578L362.932 299.489" stroke="#FFB7D5" stroke-width="4" stroke-linecap="round" stroke-linejoin="round"/>
    <path id="Vector_24" d="M382.892 277.692H342.554" stroke="#FFB7D5" stroke-width="4" stroke-linecap="round" stroke-linejoin="round"/>
    <path id="Vector_25" d="M161.699 244.197C148.94 244.197 156.027 261.208 132.989 263.69H190.416C167.366 261.211 174.457 244.197 161.699 244.197Z" stroke="#FFB7D5" stroke-width="4" stroke-linecap="round" stroke-linejoin="round"/>
    <path id="Vector_26" d="M132.989 328.485V263.693H190.404V328.872" stroke="#FFB7D5" stroke-width="4" stroke-linecap="round" stroke-linejoin="round"/>
    <path id="Vector_27" d="M190.327 328.485V282.475H283.72V328.872" stroke="#FFB7D5" stroke-width="4" stroke-linecap="round" stroke-linejoin="round"/>
    <path id="Vector_28" d="M190.493 281.609L212.066 275.384" stroke="#FFB7D5" stroke-width="4" stroke-linecap="round" stroke-linejoin="round"/>
    <path id="Vector_29" d="M283.72 276.482V282.475H190.327" stroke="#FFB7D5" stroke-width="4" stroke-linecap="round" stroke-linejoin="round"/>
    <path
      id="Vector_30"
      d="M208.88 293.11H208.973C210.65 293.11 212.259 293.777 213.445 294.963C214.632 296.149 215.298 297.758 215.298 299.435V329.262H202.54V299.435C202.54 298.603 202.704 297.78 203.023 297.011C203.342 296.243 203.809 295.545 204.398 294.957C204.987 294.37 205.686 293.904 206.455 293.587C207.224 293.27 208.048 293.108 208.88 293.11Z"
      fill="#FFB7D5"/>
    <path
      id="Vector_31"
      d="M265.943 293.11H266.052C267.729 293.11 269.338 293.777 270.524 294.963C271.71 296.149 272.377 297.758 272.377 299.435V329.262H259.619V299.435C259.619 297.758 260.285 296.149 261.471 294.963C262.657 293.777 264.266 293.11 265.943 293.11Z"
      fill="#FFB7D5"/>
    <path
      id="Vector_32"
      d="M237.412 293.11H237.52C239.198 293.11 240.807 293.777 241.993 294.963C243.179 296.149 243.845 297.758 243.845 299.435V329.262H231.087V299.435C231.087 297.758 231.754 296.149 232.94 294.963C234.126 293.777 235.735 293.11 237.412 293.11Z"
      fill="#FFB7D5"/>
    <path
      id="Vector_33"
      d="M384.145 307.639H384.253C385.931 307.639 387.539 308.306 388.725 309.492C389.912 310.678 390.578 312.287 390.578 313.964V329.258H377.82V313.964C377.82 312.287 378.486 310.678 379.672 309.492C380.859 308.306 382.467 307.639 384.145 307.639Z"
      fill="#FFB7D5"/>
    <path
      id="Vector_34"
      d="M67.3779 307.639H67.4746C69.1521 307.639 70.7608 308.306 71.947 309.492C73.1331 310.678 73.7995 312.287 73.7995 313.964V329.258H61.0414V313.964C61.0414 313.133 61.205 312.311 61.5229 311.544C61.8408 310.776 62.3066 310.079 62.894 309.492C63.4813 308.904 64.1785 308.439 64.9459 308.121C65.7133 307.803 66.5357 307.639 67.3663 307.639H67.3779Z"
      fill="#FFB7D5"/>
    <path
      id="Vector_35"
      d="M115.932 307.639H116.04C116.871 307.638 117.695 307.801 118.463 308.118C119.231 308.436 119.929 308.902 120.518 309.489C121.106 310.076 121.572 310.774 121.891 311.542C122.209 312.31 122.373 313.133 122.373 313.964V329.258H109.615V313.964C109.615 312.288 110.28 310.68 111.465 309.494C112.649 308.309 114.256 307.641 115.932 307.639Z"
      fill="#FFB7D5"/>
    <path
      id="Vector_36"
      d="M91.6532 307.639H91.7614C93.4389 307.639 95.0476 308.306 96.2338 309.492C97.4199 310.678 98.0863 312.287 98.0863 313.964V329.258H85.3282V313.964C85.3282 312.287 85.9946 310.678 87.1808 309.492C88.3669 308.306 89.9757 307.639 91.6532 307.639Z"
      fill="#FFB7D5"/>
    <path id="Vector_37" d="M73.8072 261.919H61.0491V283.538H73.8072V261.919Z" fill="#FFB7D5"/>
    <path id="Vector_38" d="M122.365 261.919H109.607V283.538H122.365V261.919Z" fill="#FFB7D5"/>
    <path id="Vector_39" d="M98.0863 261.919H85.3282V283.538H98.0863V261.919Z" fill="#FFB7D5"/>
    <path id="Vector_40" d="M156.908 274.677H146.308V290.625H156.908V274.677Z" fill="#FFB7D5"/>
    <path id="Vector_41" d="M177.082 274.677H166.481V290.625H177.082V274.677Z" fill="#FFB7D5"/>
    <path id="Vector_42" d="M156.908 302.679H146.308V318.626H156.908V302.679Z" fill="#FFB7D5"/>
    <path id="Vector_43" d="M177.082 302.679H166.481V318.626H177.082V302.679Z" fill="#FFB7D5"/>
    <path id="Vector_44" d="M308.25 253.414H297.649V269.361H308.25V253.414Z" fill="#FFB7D5"/>
    <path id="Vector_45" d="M328.423 253.414H317.822V269.361H328.423V253.414Z" fill="#FFB7D5"/>
    <path id="Vector_46" d="M369.183 253.414H358.582V269.361H369.183V253.414Z" fill="#FFB7D5"/>
    <path id="Vector_47" d="M308.25 281.412H297.649V297.359H308.25V281.412Z" fill="#FFB7D5"/>
    <path id="Vector_48" d="M328.423 281.412H317.822V297.359H328.423V281.412Z" fill="#FFB7D5"/>
    <path
      id="Vector_49"
      d="M105.621 160.376C105.621 168.352 97.1159 177.565 93.7447 177.565C90.3735 177.565 81.8719 168.352 81.8719 160.376C81.9281 157.264 83.2039 154.298 85.4247 152.117C87.6455 149.936 90.6338 148.714 93.7466 148.714C96.8594 148.714 99.8477 149.936 102.069 152.117C104.289 154.298 105.565 157.264 105.621 160.376Z"
      fill="#FFB7D5"/>
    <path id="Vector_50" d="M93.7447 164.099C95.8009 164.099 97.4677 162.433 97.4677 160.376C97.4677 158.32 95.8009 156.653 93.7447 156.653C91.6885 156.653 90.0217 158.32 90.0217 160.376C90.0217 162.433 91.6885 164.099 93.7447 164.099Z" fill="white"/>
    <path
      id="Vector_51"
      d="M365.058 186.569C365.058 194.545 356.553 203.758 353.185 203.758C349.818 203.758 341.313 194.545 341.313 186.569C341.313 183.42 342.563 180.4 344.79 178.174C347.017 175.947 350.037 174.696 353.185 174.696C356.334 174.696 359.354 175.947 361.581 178.174C363.807 180.4 365.058 183.42 365.058 186.569Z"
      fill="#FFB7D5"/>
    <path id="Vector_52" d="M353.185 190.292C355.242 190.292 356.908 188.625 356.908 186.569C356.908 184.513 355.242 182.846 353.185 182.846C351.129 182.846 349.462 184.513 349.462 186.569C349.462 188.625 351.129 190.292 353.185 190.292Z" fill="white"/>
    <path id="Vector_53" d="M11.6251 329.258H33.9556C33.9556 323.096 28.9567 316.856 22.7904 316.856C16.624 316.856 11.6251 323.096 11.6251 329.258Z" fill="#FFB7D5"/>
    <path id="Vector_54" d="M0 329.258H16.5893C16.5893 324.681 12.874 320.045 8.2966 320.045C3.71916 320.045 0 324.681 0 329.258Z" fill="#FFB7D5"/>
    <path
      id="Vector_55"
      d="M202.319 109.797C174.805 126.618 165.236 173.475 159.406 190.57C153.1 209.058 139.214 208.637 123.1 214.018C106.986 219.4 107.585 231.133 107.585 231.133C103.819 233.699 100.22 236.503 96.8104 239.527L117.212 265.599C122.025 262.278 129.169 258.115 138.97 252.196C159.213 239.967 177.333 228.485 189.028 215.727C200.723 202.969 231.458 147.027 231.458 147.027L202.319 109.797Z"
      fill="#4856DF"/>
    <path id="Vector_56" d="M117.212 265.599L96.8065 239.53C87.6826 247.649 82.2159 255.381 79.4672 259.881L108.235 296.632C112.286 289.287 109.066 278.949 109.394 274.437C109.615 271.719 112.081 269.141 117.212 265.599Z" fill="#30242A"/>
    <path id="Vector_57" d="M77.2325 263.933L105.517 300.069C106.606 299.085 107.521 297.925 108.223 296.636L79.4594 259.885C78.6447 261.194 77.9013 262.545 77.2325 263.933Z" fill="#3EC1F3"/>
    <path id="Vector_58" d="M106.75 267.146L112.228 270.196" stroke="white" stroke-width="4" stroke-linecap="round" stroke-linejoin="round"/>
    <path id="Vector_59" d="M104.311 272.659L109.8 273.904" stroke="white" stroke-width="4" stroke-linecap="round" stroke-linejoin="round"/>
    <path id="Vector_60" d="M114.107 241.521L104.334 249.161" stroke="#3EC1F3" stroke-width="4" stroke-miterlimit="10" stroke-linecap="round"/>
    <path id="Vector_61" d="M109.158 235.193L99.385 242.832" stroke="#3EC1F3" stroke-width="4" stroke-miterlimit="10" stroke-linecap="round"/>
    <path id="Vector_62" d="M119.056 247.85L109.282 255.49" stroke="#3EC1F3" stroke-width="4" stroke-miterlimit="10" stroke-linecap="round"/>
    <path id="Vector_63" d="M124.004 254.179L114.231 261.818" stroke="#3EC1F3" stroke-width="4" stroke-miterlimit="10" stroke-linecap="round"/>
    <path id="Vector_64" d="M106.7 231.47L128.145 258.903" stroke="#3EC1F3" stroke-width="4" stroke-miterlimit="10" stroke-linecap="round"/>
    <path id="Vector_65" d="M210.837 182.664C206.178 175.319 201.62 167.2 198.156 158.822" stroke="#30242A" stroke-width="4" stroke-linecap="round" stroke-linejoin="round"/>
    <path id="Vector_66" d="M218.503 6.7347C220.363 6.7347 221.87 5.22709 221.87 3.36735C221.87 1.50762 220.363 0 218.503 0C216.643 0 215.136 1.50762 215.136 3.36735C215.136 5.22709 216.643 6.7347 218.503 6.7347Z" fill="#4756DF"/>
    <path
      id="Vector_67"
      d="M229.193 52.4549L228.961 48.5424C233.465 49.1068 236.801 48.438 239.186 47.2163L228.961 38.9855C228.961 38.9855 232.502 37.5705 230.376 30.1244L241.757 25.9877C241.158 24.4413 240.76 20.7144 239.612 16.7091L232.834 19.659C231.252 22.6952 228.983 25.3203 226.208 27.3254C225.062 26.1396 223.781 25.0913 222.392 24.2016C222.207 24.0817 222.006 23.9696 221.82 23.8575H221.801C221.611 23.7493 221.414 23.6449 221.225 23.5444H221.194C221 23.4477 220.807 23.351 220.61 23.266L220.571 23.1964C220.382 23.1075 220.185 23.0302 219.988 22.9528H219.933C219.736 22.8833 219.547 22.8175 219.346 22.7557H219.28C219.087 22.6977 218.893 22.6474 218.692 22.6049H218.623C218.426 22.5624 218.236 22.5314 218.035 22.5082H217.958C217.765 22.4889 217.571 22.4773 217.374 22.4735C215.685 22.4503 214.011 23.1384 212.615 25.0908C211.782 26.2227 211.33 27.59 211.324 28.9955C211.351 33.1516 215.217 37.1143 218.669 38.2741C215.94 44.0307 207.121 47.6223 203.738 48.8169C203.847 50.1352 203.951 51.3608 204.044 52.4549H229.193Z"
      fill="#EAA58B"/>
    <path
      id="Vector_68"
      d="M297.986 76.2003C296.385 76.2003 295.612 74.9013 296.257 73.3008L301.67 59.9357L301.627 59.8971L301.72 59.8082C303.216 58.4024 304.609 56.8908 305.888 55.2849C308.331 52.1727 309.066 49.911 308.208 48.987C307.961 48.7389 307.636 48.5855 307.287 48.554C306.933 48.5112 306.575 48.5321 306.228 48.6159C303.468 49.219 298.74 52.9807 293.47 59.1857C287.095 66.682 274.696 81.5162 274.696 81.5162C273.405 80.5303 271.53 78.8602 269.284 76.846L251.446 99.7795C255.268 102.755 259.349 105.383 263.639 107.632C264.449 105.126 265.994 102.922 268.073 101.307C270.152 99.6914 272.67 98.7394 275.298 98.5747C277.925 98.4099 280.542 99.04 282.807 100.383C285.072 101.726 286.88 103.72 287.996 106.104C298.743 98.0746 307.233 83.7469 311.211 76.2003H297.986Z"
      fill="#EAA58B"/>
    <path
      id="Vector_69"
      d="M238.885 57.4151H233.434C243.83 63.6781 239.233 75.4929 239.233 75.4929C239.233 75.4929 253.433 85.4171 243.845 97.4676C244.549 96.7274 245.145 95.8919 245.616 94.9856C245.616 94.9856 247.905 97.0888 251.415 99.7796L269.253 76.846C260.968 69.4541 247.518 57.4151 238.885 57.4151Z"
      fill="#FFB7D5"/>
    <path id="Vector_70" d="M184.304 76.5483C184.304 76.5483 173.865 85.2509 180.921 96.9032L184.636 76.0264L184.304 76.5483Z" fill="#FF7235"/>
    <path id="Vector_71" d="M204.028 52.4549V52.5825L204.477 52.4549H204.028Z" fill="#FF7235"/>
    <path id="Vector_72" d="M218.638 38.2742C215.201 37.1143 211.335 33.1632 211.293 28.9956L202.435 32.8617C202.78 37.7406 203.278 43.8916 203.692 48.8169C207.106 47.6223 215.932 44.0307 218.638 38.2742Z" fill="#30242A"/>
    <path
      id="Vector_73"
      d="M228.961 38.9855L239.187 47.2164C241.212 46.2403 242.817 44.5653 243.706 42.4998C245.214 38.7265 244.24 35.479 243.064 31.265C243.064 31.265 246.061 29.2585 245.593 27.3989C245.206 25.8873 241.792 26.096 241.792 26.096L241.758 25.9994L230.376 30.1361C232.502 37.5706 228.961 38.9855 228.961 38.9855Z"
      fill="#30242A"/>
    <path id="Vector_74" d="M226.208 27.3177C228.983 25.3126 231.252 22.6875 232.835 19.6512L222.396 24.1939C223.784 25.0839 225.063 26.1322 226.208 27.3177Z" fill="#30242A"/>
    <path id="Vector_75" d="M220.61 23.2318L220.571 23.1964L220.61 23.2318Z" fill="#4756DF"/>
    <path
      id="Vector_76"
      d="M212.607 25.0522C214.003 23.0998 215.677 22.4116 217.366 22.4348H217.328C216.357 11.7065 218.75 5.87257 220.525 3.10446C218.823 3.35574 217.143 3.73571 215.499 4.24109C203.201 7.96412 201.79 20.092 202.134 27.3061C202.2 28.752 202.323 30.6773 202.474 32.8501L211.331 28.984C211.327 27.571 211.774 26.1935 212.607 25.0522Z"
      fill="#4756DF"/>
    <path id="Vector_77" d="M221.801 23.8382C221.611 23.73 221.414 23.6256 221.225 23.5251C221.422 23.6256 221.611 23.73 221.801 23.8382Z" fill="#3EC1F3"/>
    <path id="Vector_78" d="M222.392 24.1939C222.207 24.0741 222.006 23.9619 221.82 23.8498C222.013 23.9697 222.207 24.0741 222.392 24.1939Z" fill="#3EC1F3"/>
    <path id="Vector_79" d="M219.272 22.7364C219.079 22.6784 218.885 22.6282 218.684 22.5856C218.882 22.6282 219.079 22.6784 219.272 22.7364Z" fill="#3EC1F3"/>
    <path id="Vector_80" d="M221.194 23.5096C221.001 23.413 220.807 23.3163 220.61 23.2313C220.807 23.3163 221.001 23.413 221.194 23.5096Z" fill="#3EC1F3"/>
    <path id="Vector_81" d="M217.95 22.4696C217.757 22.4503 217.563 22.4387 217.366 22.4349C217.56 22.4233 217.757 22.4503 217.95 22.4696Z" fill="#3EC1F3"/>
    <path id="Vector_82" d="M218.615 22.5741C218.418 22.5315 218.228 22.5006 218.027 22.4774C218.224 22.5006 218.418 22.5315 218.615 22.5741Z" fill="#3EC1F3"/>
    <path id="Vector_83" d="M219.926 22.949C219.729 22.8794 219.539 22.8137 219.338 22.7518C219.535 22.8098 219.729 22.8794 219.926 22.949Z" fill="#3EC1F3"/>
    <path id="Vector_84" d="M220.571 23.1964C220.382 23.1075 220.184 23.0302 219.987 22.9529C220.184 23.0457 220.374 23.123 220.571 23.1964Z" fill="#3EC1F3"/>
    <path
      id="Vector_85"
      d="M217.328 22.4232H217.366C217.56 22.4232 217.753 22.4232 217.95 22.458H218.027C218.225 22.4812 218.414 22.5121 218.615 22.5547H218.685C218.882 22.5972 219.071 22.6474 219.272 22.7054H219.338C219.535 22.7673 219.725 22.833 219.926 22.9026H219.98C220.177 22.9799 220.366 23.0572 220.564 23.1462L220.61 23.1655C220.807 23.2506 220.997 23.3472 221.194 23.4439H221.225C221.422 23.5444 221.611 23.6488 221.801 23.757H221.82C222.013 23.8691 222.207 23.9812 222.392 24.1011L232.831 19.5585L239.608 16.6086C237.539 9.39454 233.035 1.24485 220.521 3.02324C218.75 5.86867 216.357 11.7026 217.328 22.4232Z"
      fill="#3EC1F3"/>
    <path
      id="Vector_86"
      d="M276.096 98.5309C273.32 98.5317 270.615 99.4132 268.372 101.049C266.129 102.684 264.462 104.989 263.612 107.632C269.303 110.523 275.322 112.302 279.997 110.581C282.86 109.479 285.55 107.972 287.984 106.104C286.929 103.841 285.25 101.926 283.144 100.584C281.038 99.2423 278.593 98.53 276.096 98.5309Z"
      fill="#CA7358"/>
    <path
      id="Vector_87"
      d="M240.675 120.328C253.433 111.996 244.541 97.8117 243.845 97.4676C253.414 85.417 239.237 75.4928 239.237 75.4928C239.237 75.4928 243.83 63.6781 233.438 57.4151H229.486L229.193 52.4549H204.488L204.04 52.5825L204.457 57.4151H196.486L184.636 76.0302L180.921 96.907L181.11 97.2202C180.984 97.4547 180.855 97.6906 180.724 97.9277C178.327 102.644 177.975 106.657 178.59 109.913C179.869 116.721 185.351 120.308 185.351 120.308H240.675V120.328Z"
      fill="#FF7235"/>
    <path id="Vector_88" d="M185.367 126.541H240.656V121.569V120.328H185.367V121.569V126.541Z" fill="#30242A"/>
    <path id="Vector_89" d="M179.591 75.4928H239.237" stroke="#A15842" stroke-width="4" stroke-miterlimit="10" stroke-linecap="round"/>
    <path id="Vector_90" d="M181.014 97.4676H244.154" stroke="#A15842" stroke-width="4" stroke-miterlimit="10" stroke-linecap="round"/>
    <path id="Vector_91" d="M230.376 59.8971L230.244 57.8017" stroke="#A15842" stroke-width="4" stroke-miterlimit="10" stroke-linecap="round"/>
    <path id="Vector_92" d="M223.641 58.8339L223.289 53.1624" stroke="#A15842" stroke-width="4" stroke-miterlimit="10" stroke-linecap="round"/>
    <path id="Vector_93" d="M218.325 58.8339L217.973 53.1624" stroke="#A15842" stroke-width="4" stroke-miterlimit="10" stroke-linecap="round"/>
    <path id="Vector_94" d="M213.009 58.8339L212.658 53.1624" stroke="#A15842" stroke-width="4" stroke-miterlimit="10" stroke-linecap="round"/>
    <path id="Vector_95" d="M273.954 81.2185L269.717 86.4802" stroke="#A15842" stroke-width="4" stroke-linecap="round" stroke-linejoin="round"/>
    <path id="Vector_96" d="M223.997 48.2023C225.564 48.7504 227.187 49.1226 228.837 49.3118" stroke="#A15842" stroke-width="4" stroke-miterlimit="10" stroke-linecap="round"/>
    <path
      id="Vector_97"
      d="M305.888 55.2849C305.907 56.3248 306.661 57.0594 307.848 57.0594H319.411C321.012 57.0594 322.837 55.7604 323.486 54.156L327.012 45.4264C327.658 43.8258 326.884 42.5268 325.284 42.5268H313.717C312.116 42.5268 310.291 43.8258 309.646 45.4264L308.207 48.987C309.066 49.9149 308.331 52.192 305.888 55.2849Z"
      fill="#F5EBDD"/>
    <path
      id="Vector_98"
      d="M329.699 36.8592H326.575L326.301 37.5357C326.084 38.0393 325.733 38.4739 325.287 38.7922C324.84 39.1105 324.315 39.3004 323.768 39.3412H317.807C316.813 39.3412 316.33 38.5332 316.732 37.5357L317.006 36.8592H313.883C312.278 36.8592 310.457 38.1582 309.808 39.7626L306.228 48.6198C306.574 48.536 306.933 48.5151 307.287 48.5579C307.635 48.5894 307.961 48.7428 308.207 48.9909L309.646 45.4303C310.291 43.8297 312.116 42.5307 313.716 42.5307H325.284C326.884 42.5307 327.658 43.8297 327.012 45.4303L323.486 54.1598C322.837 55.7643 321.012 57.0633 319.411 57.0633H307.848C306.645 57.0633 305.915 56.3287 305.888 55.2887C304.605 56.8937 303.208 58.4041 301.708 59.8082L301.658 59.9358L296.246 73.3008C295.6 74.9013 296.373 76.2004 297.974 76.2004H313.794C315.394 76.2004 317.219 74.9013 317.865 73.3008L331.396 39.7626C332.076 38.1582 331.303 36.8592 329.699 36.8592ZM314.235 70.8806C314.024 71.3702 313.683 71.7927 313.249 72.1023C312.818 72.4369 312.294 72.6288 311.749 72.6513H302.919C301.937 72.6513 301.465 71.8587 301.859 70.8806C302.074 70.3868 302.419 69.9609 302.858 69.6489C303.297 69.3369 303.812 69.1505 304.349 69.11H313.21C314.169 69.1138 314.64 69.9064 314.246 70.8845L314.235 70.8806Z"
      fill="#4756DF"/>
    <path
      id="Vector_99"
      d="M313.191 69.1138H304.33C303.793 69.1544 303.277 69.3407 302.838 69.6527C302.4 69.9648 302.054 70.3907 301.84 70.8845C301.453 71.8626 301.917 72.6551 302.899 72.6551H311.76C312.305 72.6327 312.83 72.4408 313.26 72.1061C313.694 71.7966 314.035 71.3741 314.246 70.8845C314.64 69.9063 314.169 69.1138 313.191 69.1138Z"
      fill="#3EC1F3"/>
    <path id="Vector_100" d="M317.807 39.3412H323.768C324.315 39.3004 324.84 39.1105 325.287 38.7922C325.733 38.4739 326.084 38.0393 326.301 37.5357L326.575 36.8592H317.006L316.732 37.5357C316.33 38.5332 316.813 39.3412 317.807 39.3412Z" fill="#3EC1F3"/>
    <path id="Vector_101" d="M248.454 13.4694L224.708 24.1011" stroke="#30242A" stroke-width="4" stroke-linecap="round" stroke-linejoin="round"/>
    <path id="Vector_102" d="M240.825 35.6452C240.114 35.8346 237.787 35.4442 237.404 33.4454" stroke="black" stroke-width="4" stroke-miterlimit="10" stroke-linecap="round"/>
    <path id="Vector_103" d="M237.164 25.5355C237.796 25.5355 238.309 25.0231 238.309 24.3911C238.309 23.7591 237.796 23.2468 237.164 23.2468C236.532 23.2468 236.02 23.7591 236.02 24.3911C236.02 25.0231 236.532 25.5355 237.164 25.5355Z" fill="#30242A"/>
    <path id="Vector_104" d="M217.521 29.5832L221.677 32.2276" stroke="#A15842" stroke-width="4" stroke-miterlimit="10" stroke-linecap="round"/>
    <path id="Vector_105" d="M226.479 26.5832L231.087 30.1245" stroke="#30242A" stroke-width="4" stroke-linecap="round" stroke-linejoin="round"/>
    <path id="Vector_106" d="M217.618 38.6337L230.024 38.9855" stroke="#30242A" stroke-width="4" stroke-linecap="round" stroke-linejoin="round"/>
    <path
      id="Vector_107"
      d="M265.804 121.569C267.214 121.569 268.566 122.129 269.563 123.126C270.56 124.123 271.12 125.475 271.12 126.885V126.885C271.122 127.584 270.986 128.277 270.72 128.924C270.454 129.571 270.063 130.159 269.569 130.655C269.075 131.15 268.488 131.544 267.842 131.812C267.196 132.081 266.504 132.219 265.804 132.22"
      stroke="#FF7235"
      stroke-width="4"
      stroke-miterlimit="10"/>
    <path
      id="Vector_108"
      d="M273.262 121.569C274.669 121.573 276.017 122.135 277.011 123.131C278.004 124.128 278.562 125.477 278.562 126.885C278.566 128.295 278.01 129.649 277.017 130.649C276.023 131.65 274.672 132.215 273.262 132.22"
      stroke="#FF7235"
      stroke-width="4"
      stroke-miterlimit="10"/>
    <path
      id="Vector_109"
      d="M311.579 122.276H253.023C250.499 122.276 248.453 124.322 248.453 126.846V126.923C248.453 129.447 250.499 131.493 253.023 131.493H311.579C314.102 131.493 316.148 129.447 316.148 126.923V126.846C316.148 124.322 314.102 122.276 311.579 122.276Z"
      fill="#30242A"/>
    <path id="Vector_110" d="M321.399 318.722L286.13 122.509L277.059 124.14L312.328 320.353L321.399 318.722Z" fill="#30242A"/>
    <path
      id="Vector_111"
      d="M253.1 122.276H253.023C250.499 122.276 248.453 124.322 248.453 126.846V126.923C248.453 129.447 250.499 131.493 253.023 131.493H253.1C255.624 131.493 257.67 129.447 257.67 126.923V126.846C257.67 124.322 255.624 122.276 253.1 122.276Z"
      stroke="#FF7235"
      stroke-width="4"
      stroke-miterlimit="10"/>
    <path
      id="Vector_112"
      d="M297.336 121.859C298.38 122.222 299.284 122.901 299.925 123.801C300.565 124.702 300.908 125.78 300.908 126.885V126.885C300.908 127.917 300.607 128.928 300.042 129.792C299.477 130.656 298.672 131.337 297.726 131.752"
      stroke="#FF7235"
      stroke-width="4"
      stroke-miterlimit="10"
      stroke-linecap="round"/>
    <path
      id="Vector_113"
      d="M303.522 121.859C304.565 122.222 305.47 122.901 306.11 123.801C306.751 124.702 307.094 125.78 307.094 126.885V126.885C307.094 127.917 306.793 128.928 306.228 129.792C305.663 130.656 304.858 131.337 303.912 131.752"
      stroke="#FF7235"
      stroke-width="4"
      stroke-miterlimit="10"
      stroke-linecap="round"/>
    <path id="Vector_114" d="M316.856 320.045H187.493V329.262H316.856V320.045Z" fill="#30242A"/>
    <path id="Vector_115" d="M195.465 340.601C201.73 340.601 206.808 335.523 206.808 329.258C206.808 322.994 201.73 317.915 195.465 317.915C189.2 317.915 184.122 322.994 184.122 329.258C184.122 335.523 189.2 340.601 195.465 340.601Z" fill="#30242A"/>
    <path id="Vector_116" d="M195.465 333.511C197.814 333.511 199.718 331.607 199.718 329.258C199.718 326.91 197.814 325.006 195.465 325.006C193.116 325.006 191.212 326.91 191.212 329.258C191.212 331.607 193.116 333.511 195.465 333.511Z" fill="#FFB7D5"/>
    <path
      id="Vector_117"
      d="M318.866 340.601C325.131 340.601 330.209 335.523 330.209 329.258C330.209 322.994 325.131 317.915 318.866 317.915C312.602 317.915 307.523 322.994 307.523 329.258C307.523 335.523 312.602 340.601 318.866 340.601Z"
      fill="#30242A"/>
    <path id="Vector_118" d="M318.866 333.511C321.215 333.511 323.119 331.607 323.119 329.258C323.119 326.91 321.215 325.006 318.866 325.006C316.518 325.006 314.614 326.91 314.614 329.258C314.614 331.607 316.518 333.511 318.866 333.511Z" fill="#FFB7D5"/>
    <path
      id="Vector_119"
      d="M213.187 329.258H177.747C177.816 324.604 179.713 320.163 183.028 316.896C186.344 313.629 190.812 311.798 195.467 311.798C200.122 311.798 204.59 313.629 207.906 316.896C211.221 320.163 213.118 324.604 213.187 329.258Z"
      fill="#FF7235"/>
    <path
      id="Vector_120"
      d="M336.584 329.258H301.144C301.213 324.604 303.11 320.163 306.426 316.896C309.741 313.629 314.209 311.798 318.864 311.798C323.519 311.798 327.987 313.629 331.303 316.896C334.618 320.163 336.516 324.604 336.584 329.258Z"
      fill="#FF7235"/>
    <path
      id="Vector_121"
      d="M230.484 289.21H263.632C264.018 283.41 265.116 275.315 266.466 264.196C269.311 240.717 271.445 219.373 268.6 202.3C265.754 185.228 240.656 126.525 240.656 126.525H193.385C189.674 158.555 220.672 194.978 230.538 210.106C241.209 226.471 232.317 237.141 226.626 253.147C220.935 269.152 230.538 275.914 230.538 275.914C230.244 280.34 230.226 284.781 230.484 289.21Z"
      fill="#4856DF"/>
    <path id="Vector_122" d="M235.842 315.793H282.513C279.216 308.061 269.102 304.237 265.754 301.191C263.693 299.319 263.214 295.67 263.632 289.206H230.484C231.207 301.577 233.963 310.79 235.842 315.793Z" fill="#30242A"/>
    <path id="Vector_123" d="M237.651 320.045H283.542C283.442 318.58 283.094 317.142 282.513 315.793H235.842C236.368 317.242 236.972 318.661 237.651 320.045Z" fill="#3EC1F3"/>
    <path id="Vector_124" d="M243.373 277.159V288.796" stroke="#3EC1F3" stroke-width="4" stroke-miterlimit="10" stroke-linecap="round"/>
    <path id="Vector_125" d="M235.34 277.159V288.796" stroke="#3EC1F3" stroke-width="4" stroke-miterlimit="10" stroke-linecap="round"/>
    <path id="Vector_126" d="M251.407 277.159V288.796" stroke="#3EC1F3" stroke-width="4" stroke-miterlimit="10" stroke-linecap="round"/>
    <path id="Vector_127" d="M259.441 277.159V288.796" stroke="#3EC1F3" stroke-width="4" stroke-miterlimit="10" stroke-linecap="round"/>
    <path id="Vector_128" d="M230.623 276.803H264.644" stroke="#3EC1F3" stroke-width="4" stroke-miterlimit="10" stroke-linecap="round"/>
    <path id="Vector_129" d="M251.983 154.04C250.823 151.171 249.718 148.395 248.654 145.786L231.257 142.732V142.794C230.913 144.75 231.361 146.764 232.501 148.391C233.642 150.017 235.382 151.125 237.338 151.469L251.983 154.04Z" fill="#3EC1F3"/>
    <path id="Vector_130" d="M258.377 298.778L263.871 296.528" stroke="white" stroke-width="4" stroke-linecap="round" stroke-linejoin="round"/>
    <path id="Vector_131" d="M261.215 304.098L265.804 300.394" stroke="white" stroke-width="4" stroke-linecap="round" stroke-linejoin="round"/>
    <path
      id="Vector_132"
      d="M318.275 72.2956C318.275 72.2956 324.36 72.5353 324.847 67.2194C324.847 67.2194 329.192 65.2207 328.056 61.2502C328.056 61.2502 332.03 60.1136 330.894 56.1392C330.82 55.888 333.151 55.4356 333.035 52.1611C332.865 47.3826 329.625 43.9418 328.21 43.5861C323.958 42.5229 325.574 49.4316 325.373 49.2576C322.895 47.1313 319.276 46.1648 317.985 47.2473C315.735 49.1339 317.297 51.6546 317.297 51.6546C317.297 51.6546 314.412 50.9742 313.001 53.058C311.285 55.5864 314.354 57.9447 314.354 57.9447C314.354 57.9447 311.138 58.3043 311.675 61.2811C312.271 64.6098 317.269 65.3521 319.639 68.8393L318.275 72.2956Z"
      fill="#EAA58B"/>
    <path id="Vector_133" d="M314.223 57.3339C317.61 58.6058 323.502 61.4242 325.176 66.0751" stroke="#A15842" stroke-width="4" stroke-linecap="round" stroke-linejoin="round"/>
    <path id="Vector_134" d="M318.02 51.4188C320.919 53 326.042 56.2475 328.35 60.4847" stroke="#A15842" stroke-width="4" stroke-linecap="round" stroke-linejoin="round"/>
    <path id="Vector_135" d="M325.922 48.7126C327.828 50.4059 329.896 52.6598 331.16 55.2849" stroke="#A15842" stroke-width="4" stroke-linecap="round" stroke-linejoin="round"/>
    <path
      id="Vector_136"
      d="M204.504 57.4151C204.504 57.4151 217.208 76.5483 213.721 94.9856C211.238 108.099 181.466 119.462 164.099 123.328V113.06C164.099 113.06 200.251 104.202 204.504 88.2509C207.082 78.5857 196.706 57.4151 196.706 57.4151"
      fill="#F5EBDD"/>
    <path
      id="Vector_137"
      d="M288.502 119.462C286.376 114.142 279.641 108.474 271.843 105.637C256.858 100.189 220.452 108.119 220.452 108.119L214.997 96.4702L188.154 109.615C192.02 117.158 196.66 123.498 201.4 127.882C203.013 125.884 205.179 124.404 207.627 123.626C210.075 122.848 212.697 122.806 215.169 123.507C217.64 124.207 219.851 125.618 221.527 127.564C223.203 129.511 224.27 131.907 224.596 134.454C239.438 133.295 255.853 126.51 260.508 122.323C260.508 122.323 263.342 124.805 266.531 125.156C266.531 126.22 261.571 140.397 270.432 137.207C270.432 137.207 272.91 140.397 276.456 136.855C276.456 136.855 278.938 140.397 282.483 137.207C282.483 137.207 284.416 138.417 287.087 135.436C290.273 131.833 291.216 126.223 288.502 119.462Z"
      fill="#EAA58B"/>
    <path id="Vector_138" d="M196.706 57.4151H195.828C188.634 57.4151 176.854 62.7348 178.273 76.5135C179.518 88.0477 182.866 99.2562 188.15 109.584L214.993 96.4393L196.706 57.4151Z" fill="#FFB7D5"/>
    <path
      id="Vector_139"
      d="M211.594 122.984C209.639 122.982 207.709 123.419 205.944 124.261C204.18 125.103 202.627 126.33 201.399 127.851C202.381 128.768 203.414 129.629 204.492 130.43C209.483 134.079 216.817 135.015 224.596 134.408C224.187 131.249 222.642 128.347 220.249 126.244C217.856 124.142 214.779 122.983 211.594 122.984Z"
      fill="#CA7358"/>
    <path id="Vector_140" d="M270.742 136.612C272.288 133.519 275.798 125.501 273.262 120.15" stroke="#A15842" stroke-width="4" stroke-linecap="round" stroke-linejoin="round"/>
    <path id="Vector_141" d="M211.239 109.162L219.593 107.45" stroke="#A15842" stroke-width="4" stroke-linecap="round" stroke-linejoin="round"/>
    <path id="Vector_142" d="M277.016 136.472C278.624 133.21 282.104 125.342 279.641 120.15" stroke="#A15842" stroke-width="4" stroke-linecap="round" stroke-linejoin="round"/>
    <path id="Vector_143" d="M283.202 136.859C284.748 133.743 288.185 125.47 285.668 120.15" stroke="#A15842" stroke-width="4" stroke-linecap="round" stroke-linejoin="round"/>
  </g>
</svg>
