<svg width="504" height="362" viewBox="0 0 504 362" fill="none" xmlns="http://www.w3.org/2000/svg">
  <g id="Singing">
    <path id="Vector" d="M221.977 119.462H25.5801V331.323H221.977V119.462Z" fill="#FFBE21"/>
    <path id="Vector_2" d="M233.575 319.724H13.9818V331.323H233.575V319.724Z" fill="#FFBE21"/>
    <path id="Vector_3" d="M210.378 131.06H37.1781V319.724H210.378V131.06Z" fill="#F5EBDD"/>
    <path id="Vector_4" d="M218.884 200.263H28.6728V211.861H218.884V200.263Z" fill="#FFBE21"/>
    <path
      id="Vector_5"
      d="M69.8313 217.757C69.8313 217.757 78.588 218.24 85.1178 214.567C91.3035 211.088 92.3009 205.637 90.1437 194.85C90.1437 194.85 94.0097 192.531 93.6231 190.211C93.3718 188.684 88.9838 187.118 88.9838 187.118C88.4349 184.172 87.739 179.718 86.6101 175.164C83.786 175.719 80.9169 176.014 78.039 176.046C69.4099 185.753 59.9883 186.345 59.9883 186.345C58.6238 184.307 56.7729 182.64 54.6028 181.497L41.7327 186.627C41.61 187.043 41.5093 187.465 41.4311 187.891C39.6411 198.04 52.2561 201.809 52.2561 201.809C49.7122 211.529 41.4311 215.34 35.2145 216.837L35.7402 221.665H70.4808L69.8313 217.757Z"
      fill="#EAA58B"/>
    <path
      id="Vector_6"
      d="M153.041 294.734C183.196 285.842 185.129 214.706 185.129 214.706L169.398 194.464C169.398 194.464 172.371 179.912 169.278 177.205C165.544 173.939 160.839 184.164 155.747 196.922C150.396 210.326 140.403 249.749 139.629 252.455C139.629 252.455 132.129 248.929 123.241 244.831L121.981 248.975L110.514 287.632C123.086 292.778 140.905 298.314 153.041 294.734Z"
      fill="#EAA58B"/>
    <path
      id="Vector_7"
      d="M52.2557 201.809C52.2557 201.809 39.6407 198.04 41.4307 187.891C41.509 187.465 41.6096 187.043 41.7323 186.627L32.357 190.35C32.357 190.617 32.3996 190.868 32.4189 191.123L35.2141 216.837C41.4423 215.34 49.7119 211.529 52.2557 201.809Z"
      fill="#A15842"/>
    <path
      id="Vector_8"
      d="M59.988 186.345C59.988 186.345 69.4096 185.753 78.0387 176.046C80.9167 176.014 83.7857 175.719 86.6098 175.164C86.1304 173.231 85.5698 171.279 84.9049 169.411L54.6026 181.497C56.7726 182.64 58.6236 184.306 59.988 186.345Z"
      fill="#A15842"/>
    <path id="Vector_9" d="M41.7323 186.627L54.6025 181.497C49.2867 178.798 43.4527 180.766 41.7323 186.627Z" fill="#30242A"/>
    <path
      id="Vector_10"
      d="M54.6027 181.497L84.905 169.411C83.8496 166.438 82.5351 163.69 80.8649 161.602C74.3931 153.51 58.5036 147.638 44.4774 157.887C30.9732 167.757 31.7967 183.441 32.3573 190.362L41.7325 186.623C43.4529 180.766 49.2868 178.798 54.6027 181.497Z"
      fill="#30242A"/>
    <path id="Vector_11" d="M90.7272 238.676L89.8071 230.72C79.1599 227.615 71.4664 227.464 71.4664 227.464L70.4999 221.665H35.74L36.2851 226.691C32.8406 226.681 29.4019 226.975 26.009 227.569L30.8726 238.676H90.7272Z" fill="#4756DF"/>
    <path id="Vector_12" d="M40.9904 261.872H93.4144L92.0728 250.274H35.9258L40.9904 261.872Z" fill="#4756DF"/>
    <path id="Vector_13" d="M46.0586 273.471L51.1232 285.069H96.016L95.556 280.677L95.5946 280.696L94.7557 273.471H46.0586Z" fill="#4756DF"/>
    <path id="Vector_14" d="M59.6014 302.714C59.6014 302.714 84.7966 304.392 98.2621 306.58L97.226 296.667H56.868L59.6014 302.714Z" fill="#4756DF"/>
    <path id="Vector_15" d="M92.0725 250.274L90.7271 238.676H30.861L35.9255 250.274H92.0725Z" fill="#FFB7D5"/>
    <path id="Vector_16" d="M40.9901 261.873L46.0585 273.471H94.7555L93.414 261.873H40.9901Z" fill="#FFB7D5"/>
    <path id="Vector_17" d="M52.256 286.476L56.8682 296.667H97.2262L96.0161 285.069H51.5988L52.256 286.476Z" fill="#FFB7D5"/>
    <path
      id="Vector_18"
      d="M123.214 244.815C118.822 242.789 114.094 240.609 109.768 238.676C105.975 236.967 102.488 235.421 99.8088 234.284C96.5487 232.898 93.209 231.708 89.8072 230.72L90.7274 238.676L92.0728 250.274L93.4143 261.872L94.7558 273.471L95.5948 280.696C95.9814 280.897 99.3874 282.734 104.549 285.069C106.265 285.842 108.175 286.677 110.228 287.52L110.506 287.632L121.981 248.971L123.241 244.827L123.214 244.815Z"
      fill="#4756DF"/>
    <path
      id="Vector_19"
      d="M56.868 296.667L52.2558 286.476L51.5985 285.069H51.123L52.1359 287.389L14.461 301.09C20.8091 313.732 27.9923 324.58 33.312 329.776C51.8692 347.947 100.466 336.627 100.466 336.627C100.466 336.627 105.994 340.988 113.34 342.534C126.484 368.437 133.714 359.437 133.714 359.437C133.714 359.437 138.353 364.463 141.833 359.05C148.792 359.437 148.405 355.184 142.219 340.493C149.178 348.998 156.106 349.134 156.253 346.787C156.64 340.601 139.243 320.111 123.276 313.43C113.672 309.414 98.2621 306.58 98.2621 306.58C84.7965 304.411 59.6013 302.714 59.6013 302.714L56.868 296.667Z"
      fill="#EAA58B"/>
    <path id="Vector_20" d="M26.0091 227.569C18.8375 228.798 9.64014 231.717 4.32815 238.676C1.96598 241.769 0.369291 245.635 0.0754692 250.522C-0.80213 264.598 6.09495 284.404 14.4727 301.09L52.136 287.389L26.0091 227.569Z" fill="#4756DF"/>
    <path id="Vector_21" d="M63.3515 222.191L64.1248 229.011" stroke="#30242A" stroke-width="4" stroke-linecap="round" stroke-linejoin="round"/>
    <path id="Vector_22" d="M56.7791 222.191L57.5523 229.011" stroke="#30242A" stroke-width="4" stroke-linecap="round" stroke-linejoin="round"/>
    <path id="Vector_23" d="M69.8541 218.572C67.3288 218.384 64.8604 217.729 62.5743 216.639" stroke="#A15842" stroke-width="4" stroke-miterlimit="10" stroke-linecap="round"/>
    <path id="Vector_24" d="M143.055 340.3C141.566 336.998 139.861 333.418 138.327 330.704" stroke="#A15842" stroke-width="4" stroke-miterlimit="10" stroke-linecap="round"/>
    <path id="Vector_25" d="M131.066 334.555C135.894 343.037 139.625 352.586 141.891 359.031" stroke="#A15842" stroke-width="4" stroke-miterlimit="10" stroke-linecap="round"/>
    <path id="Vector_26" d="M122.499 339.581C125.978 345.963 129.933 353.665 132.786 359.402" stroke="#A15842" stroke-width="4" stroke-miterlimit="10" stroke-linecap="round"/>
    <path id="Vector_27" d="M96.0585 280.534L94.6628 266.125" stroke="#30242A" stroke-width="4" stroke-linecap="round" stroke-linejoin="round"/>
    <path id="Vector_28" d="M138.756 252.3L136.15 262.507" stroke="#A15842" stroke-width="4" stroke-miterlimit="10" stroke-linecap="round"/>
    <path id="Vector_29" d="M36.1265 225.918H40.9243" stroke="#30242A" stroke-width="4" stroke-linecap="round" stroke-linejoin="round"/>
    <path id="Vector_30" d="M72.2898 227.503L73.0167 231.856" stroke="#30242A" stroke-width="4" stroke-linecap="round" stroke-linejoin="round"/>
    <path id="Vector_31" d="M80.5943 160.686L31.8817 179.243" stroke="#4756DF" stroke-width="4" stroke-miterlimit="10" stroke-linecap="round"/>
    <path id="Vector_32" d="M58.9443 301.798L48.39 301.167" stroke="#A15842" stroke-width="4" stroke-miterlimit="10" stroke-linecap="round"/>
    <path id="Vector_33" d="M59.3307 302.184L44.7904 269.991" stroke="#30242A" stroke-width="4" stroke-linecap="round" stroke-linejoin="round"/>
    <path id="Vector_34" d="M170.724 191.085C169.835 194.591 168.59 199.203 167.345 202.722C167.345 202.722 173.917 214.32 166.958 227.851" stroke="#A15842" stroke-width="4" stroke-miterlimit="10" stroke-linecap="round"/>
    <path
      id="Vector_35"
      d="M186.254 305.466H169.479C169.364 305.466 169.254 305.421 169.173 305.34C169.092 305.258 169.046 305.148 169.046 305.033V292.739C169.046 292.625 169.092 292.514 169.173 292.433C169.254 292.352 169.364 292.306 169.479 292.306H186.254C187.997 292.306 189.669 292.999 190.901 294.231C192.134 295.464 192.826 297.136 192.826 298.879C192.828 299.743 192.66 300.599 192.33 301.399C192.001 302.198 191.517 302.924 190.907 303.536C190.296 304.148 189.571 304.633 188.773 304.965C187.974 305.296 187.118 305.466 186.254 305.466V305.466Z"
      stroke="#A15842"
      stroke-width="8"
      stroke-miterlimit="10"/>
    <path id="Vector_36" d="M164.469 290.304C150.624 290.304 144.222 279.27 144.222 279.27L153.532 319.759H175.406L184.712 279.27C182.551 282.676 179.559 285.476 176.018 287.406C172.476 289.336 168.502 290.333 164.469 290.304Z" fill="#FF7235"/>
    <path id="Vector_37" d="M164.469 290.304C168.502 290.333 172.476 289.336 176.018 287.406C179.559 285.475 182.551 282.676 184.712 279.27H144.222C144.222 279.27 150.624 290.304 164.469 290.304Z" fill="#A15842"/>
    <path id="Vector_38" d="M54.8424 193.443L49.0433 189.19" stroke="#A15842" stroke-width="4" stroke-miterlimit="10" stroke-linecap="round"/>
    <path
      id="Vector_39"
      d="M82.1678 188.672C83.0539 188.672 83.7723 187.954 83.7723 187.068C83.7723 186.182 83.0539 185.463 82.1678 185.463C81.2817 185.463 80.5634 186.182 80.5634 187.068C80.5634 187.954 81.2817 188.672 82.1678 188.672Z"
      fill="#30242A"/>
    <path id="Vector_40" d="M21.8029 193.93L95.4709 165.998" stroke="#30242A" stroke-width="4" stroke-linecap="round" stroke-linejoin="round"/>
    <path id="Vector_41" d="M80.6253 197.993C81.0119 198.767 83.1653 200.545 85.2452 199.335" stroke="#A15842" stroke-width="4" stroke-miterlimit="10" stroke-linecap="round"/>
    <path
      id="Vector_42"
      d="M183.884 228.261C182.949 227.317 182.23 225.725 182.423 223.212C182.423 223.212 178.943 225.145 176.624 223.212C173.577 220.672 174.691 217.026 174.691 217.026C174.691 217.026 171.211 218.186 169.665 215.479C167.987 212.545 170.051 208.521 170.051 208.521C170.051 208.521 167.272 208.907 166.572 206.201C165.683 202.776 167.542 199.66 169.499 197.406"
      stroke="#A15842"
      stroke-width="8"
      stroke-miterlimit="10"
      stroke-linecap="round"/>
    <path
      id="Vector_43"
      d="M123.227 155.847L178.071 135.014C181.815 133.592 183.698 129.403 182.275 125.658L167.204 85.9828C165.781 82.2383 161.593 80.3558 157.848 81.7782L103.004 102.612C99.2596 104.034 97.3772 108.223 98.7996 111.967L113.871 151.643C115.293 155.387 119.482 157.27 123.227 155.847Z"
      fill="#30242A"/>
    <path
      id="Vector_44"
      d="M187.938 251.574C188.544 253.171 190.33 253.974 191.927 253.367C193.524 252.761 194.327 250.974 193.72 249.378L153.728 144.099C153.122 142.502 151.336 141.699 149.739 142.306C148.142 142.912 147.339 144.698 147.946 146.295L187.938 251.574Z"
      fill="#30242A"/>
    <path
      id="Vector_45"
      d="M147.021 106.503C145.244 105.741 143.237 105.715 141.441 106.431C139.645 107.147 138.206 108.547 137.441 110.322L136.598 112.286L134.634 111.44C132.864 110.705 130.876 110.698 129.1 111.418C127.324 112.139 125.903 113.53 125.145 115.29C124.386 117.051 124.352 119.039 125.048 120.824C125.745 122.61 127.116 124.05 128.866 124.832L130.83 125.678L144.218 131.447L149.99 118.054L150.833 116.094C151.214 115.214 151.418 114.268 151.432 113.309C151.447 112.351 151.272 111.398 150.918 110.507C150.564 109.616 150.037 108.804 149.369 108.117C148.7 107.429 147.902 106.881 147.021 106.503Z"
      fill="#FFB7D5"/>
    <path
      id="Vector_46"
      d="M180.215 190.396C183.814 192.558 183.041 196.745 183.041 196.745C183.041 196.745 190.282 195.751 190.07 203.155C190.07 203.155 195.842 205.807 193.194 211.579C193.194 211.579 197.164 212.615 195.181 218.959C193.248 225.145 189.293 229.046 186.675 229.397C185.291 229.583 182.036 228.238 182.423 223.212C182.423 223.212 178.943 225.145 176.624 223.212C173.577 220.672 174.69 217.026 174.69 217.026C174.69 217.026 171.211 218.186 169.665 215.48C167.987 212.545 170.051 208.521 170.051 208.521C170.051 208.521 167.271 208.907 166.572 206.201C165.087 200.491 171.246 195.643 172.757 194.216L171.598 191.123C171.598 191.123 176.624 188.239 180.215 190.396Z"
      fill="#EAA58B"/>
    <path id="Vector_47" d="M168.702 209.916C173.09 207.334 179.74 202.571 183.474 196.872" stroke="#A15842" stroke-width="4" stroke-miterlimit="10" stroke-linecap="round"/>
    <path id="Vector_48" d="M173.798 217.966C180.171 214.273 185.784 209.401 190.337 203.611" stroke="#A15842" stroke-width="4" stroke-miterlimit="10" stroke-linecap="round"/>
    <path id="Vector_49" d="M182.659 223.703C185.752 221.383 190.004 217.131 193.592 212.24" stroke="#A15842" stroke-width="4" stroke-miterlimit="10" stroke-linecap="round"/>
    <path id="Vector_50" d="M467.859 0H271.463V211.861H467.859V0Z" fill="#FFB7D5"/>
    <path id="Vector_51" d="M479.457 200.263H259.864V211.861H479.457V200.263Z" fill="#FFB7D5"/>
    <path id="Vector_52" d="M456.261 11.5983H283.061V200.263H456.261V11.5983Z" fill="#F5EBDD"/>
    <path id="Vector_53" d="M464.766 80.801H274.555V92.3992H464.766V80.801Z" fill="#FFB7D5"/>
    <path
      id="Vector_54"
      d="M351.886 69.9114L356.13 81.5323L309.283 98.6388C307.742 99.2015 306.04 99.129 304.553 98.4372C303.065 97.7454 301.913 96.4911 301.351 94.95C300.788 93.409 300.86 91.7075 301.552 90.22C302.244 88.7324 303.498 87.5806 305.039 87.0178L351.886 69.9114Z"
      fill="#30242A"/>
    <path
      id="Vector_55"
      d="M314.918 83.411L319.162 95.0319L309.284 98.6389C307.743 99.2016 306.042 99.1291 304.554 98.4373C303.066 97.7455 301.915 96.4911 301.352 94.9501C300.789 93.4091 300.862 91.7076 301.553 90.2201C302.245 88.7325 303.5 87.5806 305.041 87.0179L314.918 83.411Z"
      fill="#30242A"/>
    <path id="Vector_56" d="M360.923 86.7315C368.397 86.7315 374.455 80.6733 374.455 73.2002C374.455 65.7271 368.397 59.6689 360.923 59.6689C353.45 59.6689 347.392 65.7271 347.392 73.2002C347.392 80.6733 353.45 86.7315 360.923 86.7315Z" fill="#4756DF"/>
    <path
      id="Vector_57"
      d="M301.498 94.858C285.26 100.657 264.913 109.224 251.625 92.5384C235.001 71.6616 267.476 50.0116 276.368 77.4607C286.397 108.42 225.073 130.206 240.8 158.262C255.105 183.778 300.137 156.282 326.241 165.607C347.891 173.339 348.455 199.725 348.455 199.725"
      stroke="#30242A"
      stroke-width="4"
      stroke-miterlimit="10"
      stroke-linecap="round"/>
    <path
      id="Vector_58"
      d="M345.304 72.2957C344.531 67.6564 341.438 64.1769 339.505 63.7168C334.893 62.6266 332.345 66.8097 332.345 66.8097C332.345 66.8097 328.696 63.4655 323.593 67.9502C323.593 67.9502 317.747 66.1254 315.222 71.3755C315.222 71.3755 312.624 70.3935 309.74 75.7674C307.394 80.1477 305.488 86.7084 308.194 88.5255C309.354 89.2987 312.833 88.9121 313.993 86.2058C313.993 86.2058 315.037 88.1388 317.086 87.7522C321.339 86.979 321.725 83.4996 321.725 83.4996C321.725 83.4996 322.085 84.8102 324.431 85.046C328.236 85.4326 330.231 81.5665 330.231 81.5665C330.231 81.5665 331.673 82.5292 334.483 81.5665C338.237 80.2791 339.208 74.6617 339.208 74.6617L345.304 72.2957Z"
      fill="#A15842"/>
    <path id="Vector_59" d="M491.692 135.305C498.163 128.562 497.116 117.057 489.353 109.607C481.59 102.157 470.051 101.585 463.58 108.328C457.109 115.071 458.157 126.576 465.92 134.026C473.682 141.475 485.221 142.048 491.692 135.305Z" fill="#30242A"/>
    <g id="Group">
      <path id="Vector_60" d="M457.807 124.101C457.807 124.101 471.339 115.596 473.272 100.131" stroke="black" stroke-width="4" stroke-linecap="round" stroke-linejoin="round"/>
    </g>
    <path id="Vector_61" d="M416.85 111.468C420.1 101.211 415.512 90.6081 406.603 87.7854C397.694 84.9626 387.837 90.989 384.587 101.246C381.338 111.502 385.926 122.105 394.835 124.928C403.744 127.751 413.601 121.724 416.85 111.468Z" fill="#30242A"/>
    <path id="Vector_62" d="M469.448 105.629C469.096 104.403 490.383 117.517 486.072 121.866C482.005 125.949 471.219 111.822 469.448 105.629Z" fill="#4756DF"/>
    <path id="Vector_63" d="M469.618 106.391C468.922 104.894 487.275 86.1555 490.348 91.3786C493.302 96.4045 470.314 107.883 469.618 106.391Z" fill="#4756DF"/>
    <path
      id="Vector_64"
      d="M448.529 109.023C443.503 107.477 432.678 106.704 426.492 105.93C413.347 98.9715 416.827 80.801 416.827 80.801C417.6 80.4144 430.184 78.1295 428.448 68.3019C426.902 59.41 416.436 59.41 410.691 65.6885C410.691 65.6885 402.522 62.2438 400.203 51.0322C400.203 51.0322 393.306 51.8247 388.523 50.5605C387.483 55.1573 387.224 60.1948 386.285 65.3367C386.285 65.3367 381.259 65.7233 380.872 67.6563C380.486 69.6976 384.46 72.11 384.46 72.11C381.754 81.9376 382.14 90.845 388.218 94.3322C393.63 97.4251 400.203 96.2653 400.203 96.2653L399.429 105.544C392.659 105.8 385.986 107.239 379.712 109.797C366.881 115.023 336.799 134.926 336.799 134.926C339.119 127.194 348.633 102.807 352.263 87.3733C353.81 80.801 355.356 74.6153 351.49 74.2286C347.261 73.8034 341.052 86.9867 341.052 86.9867L314.762 96.6519C299.263 117.618 281.128 165.081 304.711 177.066C325.974 187.891 373.527 161.602 373.527 161.602L369.274 200.263H446.596L463.993 117.915C463.993 117.915 464.066 117.838 464.198 117.687C458.762 112.986 452.217 110.156 448.529 109.023Z"
      fill="#A15842"/>
    <path
      id="Vector_65"
      d="M438.477 101.43H399.774L399.43 105.544C396.415 105.629 393.413 105.981 390.46 106.595C389.474 106.793 388.431 107.025 387.344 107.299C384.746 107.955 382.196 108.789 379.713 109.797C379.168 110.017 378.584 110.272 377.977 110.543C376.856 111.053 375.657 111.641 374.347 112.294C365.625 116.721 353.632 124.128 345.564 129.258L356.041 150.209L361.299 160.724L364.101 166.326C369.854 163.62 373.527 161.602 373.527 161.602L369.274 200.263H446.596L463.993 117.915C464.921 116.88 465.78 115.785 466.564 114.637V114.525L438.477 101.43Z"
      fill="#FFBE21"/>
    <path
      id="Vector_66"
      d="M383.308 112.375L377.977 110.543C376.856 111.053 375.657 111.641 374.347 112.294L378.715 119.442L370.036 131.28L381.479 126.548L387.855 138.305L388.581 125.361L399.631 122.995L390.159 117.076L390.46 106.595C389.475 106.793 388.431 107.025 387.344 107.299L383.308 112.375Z"
      fill="#FF7235"/>
    <path id="Vector_67" d="M363.985 156.793L373.45 155.381L373.554 152.559L368.656 150.321L372.7 138.274L361.902 145.376L355.113 137.644L356.095 150.189L356.041 150.209L361.298 160.724L363.985 156.793Z" fill="#FF7235"/>
    <path id="Vector_68" d="M423.604 124.453L427.946 139.051L432.284 124.453L446.097 120.506L432.678 114.981V102.354L425.182 112.217L414.527 107.086L420.84 117.741L410.978 126.03L423.604 124.453Z" fill="#FF7235"/>
    <path id="Vector_69" d="M410.459 197.081L402.333 185.061L409.311 174.538L397.612 178.613L391.566 168.449L390.939 180.82L378.139 182.274L389.532 187.938L385.767 200.263H387.762L396.77 192.736L410.459 197.081Z" fill="#FF7235"/>
    <path id="Vector_70" d="M414.418 172.694L423.886 164.409L434.541 171.511L429.805 159.673L438.094 150.599L426.256 152.571L420.732 142.705L419.545 153.359L408.499 152.965L417.967 160.067L414.418 172.694Z" fill="#FF7235"/>
    <path
      id="Vector_71"
      d="M400.203 51.0322C402.522 62.2438 410.691 65.6885 410.691 65.6885C416.436 59.4216 426.882 59.4216 428.448 68.3019C430.184 78.1295 417.6 80.4144 416.827 80.801C416.827 80.801 413.347 98.9715 426.492 105.93C432.678 106.704 443.503 107.477 448.529 109.023C452.217 110.156 458.762 112.986 464.198 117.687C466.131 115.507 480.845 97.7885 467.086 80.4144C457.533 68.3445 441.833 70.4128 441.833 70.4128C442.354 64.142 443.379 47.9509 429.821 38.0267C416.262 28.1025 399 33.3256 392.733 41.1621C390.495 43.9573 389.293 47.1391 388.523 50.5605C393.306 51.8247 400.203 51.0322 400.203 51.0322Z"
      fill="#30242A"/>
    <path id="Vector_72" d="M340.336 86.6852C339.787 87.9533 339.223 89.3915 338.732 90.8528C338.732 90.8528 329.84 92.7859 327.447 98.7783" stroke="#30242A" stroke-width="4" stroke-miterlimit="10" stroke-linecap="round"/>
    <path id="Vector_73" d="M337.912 134.16L333.32 146.192" stroke="#30242A" stroke-width="4" stroke-linecap="round" stroke-linejoin="round"/>
    <path id="Vector_74" d="M374.3 147.297L372.692 161.764" stroke="#724342" stroke-width="4" stroke-linecap="round" stroke-linejoin="round"/>
    <path id="Vector_75" d="M398.656 97.4251C402.212 96.8655 405.68 95.8494 408.975 94.4018" stroke="#30242A" stroke-width="4" stroke-miterlimit="10" stroke-linecap="round"/>
    <path id="Vector_76" d="M415.934 72.4348L420.96 69.3419" stroke="#30242A" stroke-width="4" stroke-miterlimit="10" stroke-linecap="round"/>
    <path id="Vector_77" d="M442.42 70.2504C442.134 73.1152 441.748 76.699 441.372 79.529" stroke="black" stroke-width="4" stroke-miterlimit="10" stroke-linecap="round"/>
    <path
      id="Vector_78"
      d="M414.082 77.1359L412.675 85.6876C412.613 86.0634 412.648 86.4488 412.778 86.8068C412.908 87.1648 413.128 87.4835 413.416 87.7322C413.704 87.981 414.052 88.1515 414.425 88.2274C414.798 88.3034 415.184 88.2821 415.547 88.1658L423.078 85.7495C423.441 85.6331 423.768 85.4254 424.027 85.1464C424.287 84.8673 424.47 84.5263 424.56 84.156C424.649 83.7857 424.642 83.3985 424.539 83.0317C424.436 82.6649 424.241 82.3307 423.971 82.0613L417.867 75.9142C417.578 75.6194 417.212 75.4109 416.811 75.3121C416.41 75.2134 415.99 75.2283 415.597 75.3551C415.204 75.4819 414.854 75.7157 414.586 76.0303C414.319 76.3448 414.144 76.7277 414.082 77.1359Z"
      fill="#F4E6D8"/>
    <path id="Vector_79" d="M396 74.9787C395.648 80.0896 390.383 80.4376 389.146 76.8073L396 74.9787Z" stroke="#30242A" stroke-width="4" stroke-linecap="round" stroke-linejoin="round"/>
    <path id="Vector_80" d="M396.851 65.5493C395.915 66.0093 392.575 66.106 391.493 63.4345" stroke="#30242A" stroke-width="4" stroke-linecap="round" stroke-linejoin="round"/>
    <path
      id="Vector_81"
      d="M448.529 109.023L448.409 171.406C448.409 171.406 410.405 148.655 407.467 148.473C405.306 148.337 403.698 153.232 407.599 157.276C397.083 155.324 386.633 154.299 384.99 157.5C384 159.433 385.612 161.443 385.612 161.443C384.352 161.602 383.122 161.934 382.419 162.762C380.729 164.745 383.049 167.788 383.049 167.788C380.907 168.82 381.646 172.04 383.579 173.587C388.307 177.364 402.472 180.063 402.472 180.063C397.377 180.685 387.572 181.265 388.098 184.164C388.871 188.417 410.521 188.417 410.521 188.417C418.64 193.83 425.332 193.69 425.332 193.69C425.332 193.69 445.158 214.041 465.153 218.82C516.572 227.712 476.365 131.447 465.54 119.075C458.82 111.393 448.529 109.023 448.529 109.023Z"
      fill="#A15842"/>
    <path id="Vector_82" d="M399.341 180.944C402.047 180.917 404.977 180.905 407.935 180.944" stroke="#30242A" stroke-width="4" stroke-linecap="round" stroke-linejoin="round"/>
    <path id="Vector_83" d="M382.685 168.665C389.01 169.825 400.183 171.963 408.333 173.973" stroke="#30242A" stroke-width="4" stroke-linecap="round" stroke-linejoin="round"/>
    <path id="Vector_84" d="M385.229 161.629C393.066 162.7 404.316 164.335 411.414 165.855" stroke="#30242A" stroke-width="4" stroke-linecap="round" stroke-linejoin="round"/>
    <path id="Vector_85" d="M408.438 156.82C411.283 157.465 414.085 158.288 416.827 159.282" stroke="#30242A" stroke-width="4" stroke-linecap="round" stroke-linejoin="round"/>
    <path
      id="Vector_86"
      d="M471.315 136.186L470.588 149.13L464.213 137.385L452.77 142.117L461.449 130.279L454.765 119.338L466.042 123.204L467.352 121.534C466.797 120.675 466.186 119.854 465.524 119.075C458.805 111.393 448.513 109.023 448.513 109.023L448.424 155.378L451.85 158.737L461.318 148.368L456.531 162.611L457.37 163.23L483.459 157.624C480.972 150.08 478.073 142.678 474.775 135.452L471.315 136.186Z"
      fill="#FFBE21"/>
    <path id="Vector_87" d="M454.765 119.326L461.449 130.267L452.77 142.105L464.213 137.373L470.589 149.13L471.315 136.186L474.795 135.448C472.065 129.51 469.452 124.646 467.387 121.53L466.061 123.196L454.765 119.326Z" fill="#FF7235"/>
    <path id="Vector_88" d="M456.547 162.611L461.333 148.365L451.865 158.737L448.44 155.378L448.421 165.159L457.386 163.23L456.547 162.611Z" fill="#FF7235"/>
    <path id="Vector_89" d="M447.636 146.733V169.964" stroke="#724342" stroke-width="4" stroke-linecap="round" stroke-linejoin="round"/>
    <path id="Vector_90" d="M447.485 169.964C447.485 169.964 454.981 174.499 466.579 181.458" stroke="#30242A" stroke-width="4" stroke-linecap="round" stroke-linejoin="round"/>
    <path id="Vector_91" d="M314.391 71.7118C313.34 75.6127 312.404 81.1064 313.197 86.7431" stroke="#30242A" stroke-width="4" stroke-miterlimit="10" stroke-linecap="round"/>
    <path id="Vector_92" d="M322.583 68.2246C321.567 71.2788 320.492 76.5522 321.126 84.3848" stroke="#30242A" stroke-width="4" stroke-miterlimit="10" stroke-linecap="round"/>
    <path id="Vector_93" d="M331.502 66.7401C330.397 69.9838 328.916 75.0754 329.546 81.5782" stroke="#30242A" stroke-width="4" stroke-miterlimit="10" stroke-linecap="round"/>
    <path id="Vector_94" d="M340.329 69.86C340.329 69.86 340.217 72.257 340.027 74.8859" stroke="#30242A" stroke-width="4" stroke-miterlimit="10" stroke-linecap="round"/>
  </g>
</svg>
