<svg width="460px" height="338px" viewBox="0 0 460 338" fill="none" xmlns="http://www.w3.org/2000/svg">
  <g id="Yoga">
    <path
      id="Vector"
      d="M156.325 11.4321H163.736C180.583 11.4321 196.741 18.1247 208.654 30.0377C220.567 41.9506 227.259 58.1081 227.259 74.9556V200.286H92.801V74.9556C92.801 58.1081 99.4937 41.9506 111.407 30.0377C123.32 18.1247 139.477 11.4321 156.325 11.4321Z"
      fill="#FFB7D5"/>
    <path id="Vector_2" d="M184.477 125.663V202.25H124.746V125.663H184.477ZM186.024 124.117H123.2V203.796H186.024V124.117Z" fill="#CA7358"/>
    <path id="Vector_3" d="M186.024 124.117H123.2V140.59H186.024V124.117Z" fill="#CA7358"/>
    <path id="Vector_4" d="M122.898 84.2922V202.633H86.9167V84.2922H122.898ZM124.445 82.7457H85.3703V204.179H124.445V82.7457Z" fill="#CA7358"/>
    <path id="Vector_5" d="M233.797 60.3497V202.235H186.325V60.3497H233.797ZM235.343 58.8032H184.779V203.781H235.343V58.8032Z" fill="#CA7358"/>
    <path
      id="Vector_6"
      d="M205.188 78.149H205.926C207.606 78.149 209.216 78.8162 210.404 80.0038C211.592 81.1914 212.259 82.8021 212.259 84.4816V99.2152H198.855V84.4816C198.855 82.8021 199.522 81.1914 200.71 80.0038C201.898 78.8162 203.508 78.149 205.188 78.149Z"
      fill="#CA7358"/>
    <path id="Vector_7" d="M197.324 89.639H213.794" stroke="#FFB7D5" stroke-width="4" stroke-linecap="round" stroke-linejoin="round"/>
    <path
      id="Vector_8"
      d="M205.188 115.944H205.926C207.606 115.944 209.216 116.611 210.404 117.798C211.592 118.986 212.259 120.597 212.259 122.276V137.018H198.855V122.28C198.855 120.601 199.522 118.99 200.71 117.802C201.898 116.615 203.508 115.947 205.188 115.947V115.944Z"
      fill="#F5EBDD"/>
    <path id="Vector_9" d="M197.324 127.437H213.794" stroke="#FFB7D5" stroke-width="4" stroke-linecap="round" stroke-linejoin="round"/>
    <path
      id="Vector_10"
      d="M205.188 153.742H205.926C207.606 153.742 209.216 154.409 210.404 155.597C211.592 156.785 212.259 158.395 212.259 160.075V174.808H198.855V160.075C198.855 158.395 199.522 156.785 200.71 155.597C201.898 154.409 203.508 153.742 205.188 153.742Z"
      fill="#F5EBDD"/>
    <path id="Vector_11" d="M197.324 165.232H213.794" stroke="#FFB7D5" stroke-width="4" stroke-linecap="round" stroke-linejoin="round"/>
    <path
      id="Vector_12"
      d="M205.188 191.529H205.926C207.606 191.529 209.216 192.196 210.404 193.384C211.592 194.572 212.259 196.182 212.259 197.862V211.393H198.855V197.862C198.855 196.182 199.522 194.572 200.71 193.384C201.898 192.196 203.508 191.529 205.188 191.529Z"
      fill="#30242A"/>
    <path
      id="Vector_13"
      d="M96.9376 109.464H97.676C99.3555 109.464 100.966 110.131 102.154 111.319C103.341 112.506 104.009 114.117 104.009 115.797V130.53H90.605V115.797C90.605 114.117 91.2722 112.506 92.4598 111.319C93.6474 110.131 95.2581 109.464 96.9376 109.464Z"
      fill="#F5EBDD"/>
    <path id="Vector_14" d="M89.074 120.954H105.543" stroke="#FFB7D5" stroke-width="4" stroke-linecap="round" stroke-linejoin="round"/>
    <path
      id="Vector_15"
      d="M96.9376 147.259H97.676C99.3555 147.259 100.966 147.926 102.154 149.114C103.341 150.301 104.009 151.912 104.009 153.591V168.333H90.605V153.595C90.6045 152.763 90.7679 151.939 91.0859 151.171C91.4039 150.402 91.8703 149.703 92.4584 149.115C93.0465 148.526 93.7448 148.06 94.5133 147.741C95.2819 147.423 96.1057 147.259 96.9376 147.259Z"
      fill="#F5EBDD"/>
    <path id="Vector_16" d="M89.074 158.753H105.543" stroke="#FFB7D5" stroke-width="4" stroke-linecap="round" stroke-linejoin="round"/>
    <path
      id="Vector_17"
      d="M96.9376 185.058H97.676C99.3555 185.058 100.966 185.725 102.154 186.912C103.341 188.1 104.009 189.711 104.009 191.39V206.124H90.605V191.39C90.605 189.711 91.2722 188.1 92.4598 186.912C93.6474 185.725 95.2581 185.058 96.9376 185.058Z"
      fill="#CA7358"/>
    <path id="Vector_18" d="M89.074 196.548H105.543" stroke="#FFB7D5" stroke-width="4" stroke-linecap="round" stroke-linejoin="round"/>
    <path id="Vector_19" d="M235.343 58.8032H184.779V65.1243H235.343V58.8032Z" fill="#CA7358"/>
    <path id="Vector_20" d="M124.445 79.6797H85.3703V86.0008H124.445V79.6797Z" fill="#CA7358"/>
    <path id="Vector_21" d="M147.908 155.528H134.5V172.767H147.908V155.528Z" fill="#F5EBDD"/>
    <path id="Vector_22" d="M132.966 163.191H149.439" stroke="#FFB7D5" stroke-width="4" stroke-linecap="round" stroke-linejoin="round"/>
    <path id="Vector_23" d="M141.204 173.533V163.191" stroke="#FFB7D5" stroke-width="4" stroke-linecap="round" stroke-linejoin="round"/>
    <path id="Vector_24" d="M147.908 186.662H134.5V203.901H147.908V186.662Z" fill="#CA7358"/>
    <path id="Vector_25" d="M132.966 194.321H149.439" stroke="#FFB7D5" stroke-width="4" stroke-linecap="round" stroke-linejoin="round"/>
    <path id="Vector_26" d="M141.204 204.666V194.321" stroke="#FFB7D5" stroke-width="4" stroke-linecap="round" stroke-linejoin="round"/>
    <path id="Vector_27" d="M173.188 155.528H159.781V172.767H173.188V155.528Z" fill="#30242A"/>
    <path id="Vector_28" d="M158.25 163.191H174.723" stroke="#FFB7D5" stroke-width="4" stroke-linecap="round" stroke-linejoin="round"/>
    <path id="Vector_29" d="M166.485 173.533V163.191" stroke="#FFB7D5" stroke-width="4" stroke-linecap="round" stroke-linejoin="round"/>
    <path id="Vector_30" d="M173.188 186.662H159.781V203.901H173.188V186.662Z" fill="#F5EBDD"/>
    <path id="Vector_31" d="M158.25 194.321H174.723" stroke="#FFB7D5" stroke-width="4" stroke-linecap="round" stroke-linejoin="round"/>
    <path id="Vector_32" d="M166.485 204.666V194.321" stroke="#FFB7D5" stroke-width="4" stroke-linecap="round" stroke-linejoin="round"/>
    <path id="Vector_33" d="M132.103 58.227C137.604 58.227 142.062 53.7682 142.062 48.268C142.062 42.7678 137.604 38.309 132.103 38.309C126.603 38.309 122.144 42.7678 122.144 48.268C122.144 53.7682 126.603 58.227 132.103 58.227Z" fill="#F5EBDD"/>
    <path id="Vector_34" d="M244.498 200.348H75.5621V211.842H244.498V200.348Z" fill="#F5EBDD"/>
    <path
      id="Vector_35"
      d="M162.699 0H157.36C115.371 0 81.3108 34.0524 81.3108 76.0535V211.842H238.753V76.0535C238.753 34.0524 204.701 0 162.699 0ZM154.283 200.348H92.8124V104.581H154.283V200.348ZM154.283 93.0874H92.8124V76.4439C92.8123 59.8204 99.1861 43.8295 110.622 31.7641C122.057 19.6987 137.683 12.4772 154.283 11.5866V93.0874ZM227.259 200.348H165.788V104.581H227.259V200.348ZM227.259 93.0874H165.788V11.5866C182.388 12.4772 198.015 19.6987 209.45 31.7641C220.885 43.8295 227.259 59.8204 227.259 76.4439V93.0874Z"
      fill="#F5EBDD"/>
    <path
      id="Vector_36"
      d="M200.483 190.254C200.483 190.254 173.938 126.541 172.778 109.932C168.881 54.0324 229.525 85.8773 239.008 91.3748C245.913 95.3801 272.991 110.531 278.396 115.932C281.875 119.412 279.455 121.99 279.455 121.99C279.455 121.99 283.518 127.325 277.804 127.96C281.868 133.295 275.388 134.018 275.388 134.018C275.388 134.018 277.124 139.225 270.393 137.659C263.14 135.97 208.149 112.167 208.149 112.167C208.149 112.167 220.436 150.955 224.271 163.226L200.483 190.254Z"
      fill="#A15842"/>
    <path
      id="Vector_37"
      d="M259.761 133.217C261.068 132.958 261.949 132.204 261.694 130.584C260.863 125.265 251.975 120.239 251.975 120.239C251.975 120.239 255.539 111.66 248.542 105.034"
      stroke="#30242A"
      stroke-width="4"
      stroke-miterlimit="10"
      stroke-linecap="round"/>
    <path id="Vector_38" d="M275.299 133.743C272.11 131.876 260.418 125.037 257.647 123.614" stroke="#30242A" stroke-width="4" stroke-miterlimit="10" stroke-linecap="round"/>
    <path id="Vector_39" d="M277.913 127.785C273.923 125.396 264.203 119.346 260.19 117.243" stroke="#30242A" stroke-width="4" stroke-miterlimit="10" stroke-linecap="round"/>
    <path id="Vector_40" d="M279.362 121.252C274.336 117.919 264.857 111.745 261.107 109.851" stroke="#30242A" stroke-width="4" stroke-miterlimit="10" stroke-linecap="round"/>
    <path id="Vector_41" d="M257.198 122.879C258.536 120.459 260.824 115.65 260.948 107.941" stroke="#30242A" stroke-width="4" stroke-miterlimit="10" stroke-linecap="round"/>
    <path id="Vector_42" d="M208.002 113.071L198.948 108.958" stroke="#30242A" stroke-width="4" stroke-linecap="round" stroke-linejoin="round"/>
    <path id="Vector_43" d="M70.0491 293.856V301.306H134.462V293.856H70.0491Z" fill="#A15842"/>
    <path
      id="Vector_44"
      d="M145.07 332.506L129.115 236.762H138.889C139.934 236.762 140.937 236.347 141.677 235.607C142.416 234.868 142.832 233.865 142.832 232.819C142.832 231.773 142.416 230.77 141.677 230.031C140.937 229.291 139.934 228.876 138.889 228.876H65.7153C64.6695 228.876 63.6665 229.291 62.9269 230.031C62.1874 230.77 61.7719 231.773 61.7719 232.819C61.7719 233.865 62.1874 234.868 62.9269 235.607C63.6665 236.347 64.6695 236.762 65.7153 236.762H75.3805L59.4252 332.498C59.3442 332.973 59.3678 333.46 59.4945 333.925C59.6211 334.39 59.8477 334.821 60.1584 335.189C60.4692 335.557 60.8565 335.853 61.2935 336.056C61.7305 336.259 62.2064 336.364 62.6882 336.364C63.4439 336.364 64.1768 336.105 64.7653 335.631C65.3539 335.158 65.7628 334.497 65.9241 333.758L87.0754 236.762H117.436L138.568 333.755C138.728 334.493 139.136 335.154 139.724 335.628C140.312 336.102 141.044 336.361 141.8 336.36C142.281 336.361 142.757 336.257 143.194 336.055C143.631 335.854 144.018 335.559 144.33 335.192C144.641 334.825 144.869 334.395 144.997 333.931C145.124 333.467 145.15 332.981 145.07 332.506Z"
      fill="#FFBE21"/>
    <path
      id="Vector_45"
      d="M138.888 236.762C139.934 236.762 140.937 236.347 141.677 235.607C142.416 234.868 142.832 233.865 142.832 232.819C142.832 231.773 142.416 230.77 141.677 230.031C140.937 229.291 139.934 228.876 138.888 228.876H65.7151C64.6692 228.876 63.6662 229.291 62.9267 230.031C62.1872 230.77 61.7717 231.773 61.7717 232.819C61.7717 233.865 62.1872 234.868 62.9267 235.607C63.6662 236.347 64.6692 236.762 65.7151 236.762H75.3803L75.361 236.882H87.0326L87.0597 236.762H117.42L117.447 236.882H129.134L129.115 236.762H138.888Z"
      fill="#A15842"/>
    <path id="Vector_46" d="M108.389 329.456H17.5052L0.366876 276.715C-0.905063 272.802 1.23674 269.632 5.14535 269.632H81.8676C85.7801 269.632 89.9864 272.802 91.2506 276.715L108.389 329.456Z" fill="#FFB7D5"/>
    <path
      id="Vector_47"
      d="M165.63 329.455H76.2658C76.5227 330.248 76.5884 331.09 76.4575 331.912C76.3265 332.735 76.0027 333.515 75.5125 334.189C75.0222 334.862 74.3795 335.41 73.6369 335.787C72.8943 336.165 72.0729 336.361 71.2399 336.36H160.604C161.438 336.362 162.259 336.166 163.002 335.789C163.746 335.412 164.389 334.864 164.879 334.19C165.369 333.516 165.693 332.736 165.824 331.913C165.954 331.09 165.888 330.248 165.63 329.455Z"
      fill="#FFB7D5"/>
    <path
      id="Vector_48"
      d="M76.2658 329.455H17.5942L18.2785 331.566C18.7308 332.959 19.6126 334.174 20.7974 335.035C21.9822 335.896 23.4093 336.36 24.874 336.36H71.2669C72.0977 336.357 72.9159 336.157 73.655 335.778C74.3941 335.399 75.0333 334.851 75.5204 334.178C76.0076 333.505 76.329 332.726 76.4585 331.906C76.588 331.085 76.522 330.246 76.2658 329.455Z"
      fill="#CA7358"/>
    <path id="Vector_49" d="M102.195 329.455H24.4834L8.26523 279.602H85.9772L102.195 329.455Z" fill="#F5EBDD"/>
    <path
      id="Vector_50"
      d="M73.1227 319.558H49.1839C46.524 319.558 43.6709 317.401 42.8049 314.745L37.0328 296.961C36.1707 294.305 37.6243 292.148 40.2842 292.148H64.223C66.8789 292.148 69.7321 294.305 70.5981 296.961L76.3702 314.745C77.2323 317.401 75.7786 319.558 73.1227 319.558Z"
      fill="#3EC1F3"/>
    <path id="Vector_51" d="M17.946 328.69H107.639" stroke="#CA7358" stroke-width="4" stroke-miterlimit="10" stroke-linecap="round"/>
    <path id="Vector_52" d="M70.455 296.111L61.0141 306.193C59.1854 308.126 55.7021 308.126 52.6054 306.193L37.0173 296.366" stroke="#F5EBDD" stroke-width="4" stroke-miterlimit="10" stroke-linecap="round"/>
    <path id="Vector_53" d="M61.3853 305.899L76.2697 315.282" stroke="#F5EBDD" stroke-width="4" stroke-miterlimit="10" stroke-linecap="round"/>
    <path id="Vector_54" d="M43.0445 315.51L51.9442 306.004" stroke="#F5EBDD" stroke-width="4" stroke-miterlimit="10" stroke-linecap="round"/>
    <path
      id="Vector_55"
      d="M71.3714 299.068C68.3945 299.068 65.1857 296.633 64.2037 293.656C63.7475 292.248 63.8674 290.949 64.5439 290.025C65.1664 289.175 66.2141 288.703 67.4976 288.703C70.4745 288.703 73.6833 291.139 74.6614 294.135C75.1215 295.542 75.0017 296.841 74.3212 297.761C73.7027 298.597 72.655 299.068 71.3714 299.068Z"
      fill="#4756DF"/>
    <path
      id="Vector_56"
      d="M67.4975 289.457C70.1187 289.457 73.0646 291.699 73.9267 294.351C74.3134 295.511 74.2244 296.563 73.6986 297.289C73.4194 297.629 73.0634 297.897 72.6601 298.072C72.2568 298.247 71.8177 298.323 71.379 298.295C68.7539 298.295 65.8119 296.052 64.9497 293.396C64.5631 292.237 64.6521 291.189 65.1778 290.462C65.6495 289.813 66.473 289.457 67.4975 289.457ZM67.4975 287.91C64.2036 287.91 62.3981 290.582 63.469 293.876C64.5399 297.17 68.0774 299.841 71.3713 299.841C74.6652 299.841 76.4706 297.17 75.3997 293.876C74.3288 290.582 70.7914 287.91 67.4975 287.91Z"
      fill="#F5EBDD"/>
    <path id="Vector_57" d="M385.645 155.358H385.548C384.86 156.603 380.325 164.215 372.357 164.215C364.389 164.215 359.854 156.603 359.162 155.358H359.069L346.667 211.343H398.047L385.645 155.358Z" fill="#3EC1F3"/>
    <path id="Vector_58" d="M352.543 185.139C363.067 186.241 379.409 195.639 385.088 211.181" stroke="#F5EBDD" stroke-width="4" stroke-miterlimit="10" stroke-linecap="round"/>
    <path id="Vector_59" d="M359.363 211.633C360.542 198.971 370.575 178.044 388.629 171.499" stroke="#F5EBDD" stroke-width="4" stroke-miterlimit="10" stroke-linecap="round"/>
    <path id="Vector_60" d="M372.167 160.091C367.733 164.765 362.143 169.118 355.818 172.041" stroke="#F5EBDD" stroke-width="4" stroke-miterlimit="10" stroke-linecap="round"/>
    <path id="Vector_61" d="M372.357 164.215C380.325 164.215 384.86 156.603 385.548 155.358H359.162C359.854 156.603 364.385 164.215 372.357 164.215Z" fill="#30242A"/>
    <path
      id="Vector_62"
      d="M299.961 336.36C299.423 336.36 298.893 336.233 298.415 335.989C297.936 335.744 297.522 335.39 297.207 334.954C296.892 334.519 296.685 334.015 296.602 333.484C296.52 332.953 296.564 332.409 296.733 331.899L307.395 299.455C307.621 298.778 308.055 298.189 308.634 297.773C309.214 297.357 309.91 297.133 310.623 297.135H318.085C318.678 297.135 319.26 297.289 319.775 297.583C320.29 297.878 320.718 298.302 321.019 298.813C321.319 299.324 321.48 299.905 321.486 300.498C321.492 301.09 321.343 301.675 321.054 302.192L302.93 334.636C302.632 335.161 302.2 335.597 301.679 335.9C301.157 336.203 300.564 336.362 299.961 336.36Z"
      fill="#A15842"/>
    <path
      id="Vector_63"
      d="M442.607 336.36C443.145 336.36 443.675 336.233 444.153 335.989C444.632 335.744 445.046 335.39 445.361 334.954C445.676 334.519 445.883 334.015 445.966 333.484C446.048 332.952 446.004 332.409 445.836 331.899L435.173 299.455C434.946 298.778 434.513 298.19 433.933 297.774C433.354 297.357 432.658 297.134 431.945 297.135H424.479C423.887 297.135 423.305 297.29 422.791 297.585C422.277 297.879 421.848 298.303 421.549 298.814C421.249 299.326 421.088 299.906 421.082 300.499C421.076 301.091 421.225 301.675 421.514 302.192L439.638 334.636C439.936 335.161 440.368 335.597 440.889 335.9C441.411 336.203 442.004 336.362 442.607 336.36Z"
      fill="#A15842"/>
    <path id="Vector_64" d="M459.065 210.709H284.102V310.871H459.065V210.709Z" fill="#FFB7D5"/>
    <path id="Vector_65" d="M445.897 223.618V297.954H297.27V223.618H445.897ZM447.444 222.071H295.723V299.501H447.444V222.071Z" fill="#CA7358"/>
    <path id="Vector_66" d="M371.421 221.932V299.648" stroke="#CA7358" stroke-width="4" stroke-miterlimit="10"/>
    <path id="Vector_67" d="M389.004 265.294C391.492 265.294 393.508 263.277 393.508 260.79C393.508 258.302 391.492 256.286 389.004 256.286C386.517 256.286 384.5 258.302 384.5 260.79C384.5 263.277 386.517 265.294 389.004 265.294Z" fill="#30242A"/>
    <path id="Vector_68" d="M354.163 265.294C356.651 265.294 358.667 263.277 358.667 260.79C358.667 258.302 356.651 256.286 354.163 256.286C351.676 256.286 349.659 258.302 349.659 260.79C349.659 263.277 351.676 265.294 354.163 265.294Z" fill="#30242A"/>
    <path
      id="Vector_69"
      d="M113.639 180.782C116.64 180.782 119.518 181.974 121.641 184.096C123.763 186.218 124.955 189.097 124.955 192.098V228.984H102.323V192.098C102.323 189.097 103.515 186.218 105.637 184.096C107.76 181.974 110.638 180.782 113.639 180.782Z"
      fill="#4756DF"/>
    <path id="Vector_70" d="M124.959 195.237H102.323V216.326H124.959V195.237Z" fill="#3EC1F3"/>
    <path id="Vector_71" d="M118.669 174.913H108.609V182.038H118.669V174.913Z" fill="#30242A"/>
    <path id="Vector_72" d="M252.06 115.089C259.789 115.089 266.055 108.823 266.055 101.094C266.055 93.3646 259.789 87.0988 252.06 87.0988C244.331 87.0988 238.065 93.3646 238.065 101.094C238.065 108.823 244.331 115.089 252.06 115.089Z" fill="#30242A"/>
    <path id="Vector_73" d="M241.193 109.746C242.31 110.253 232.834 88.0963 228.087 91.6067C223.621 94.8967 235.54 107.175 241.193 109.746Z" fill="#FFBE21"/>
    <path id="Vector_74" d="M239.99 109.704C240.918 110.864 263.283 103.518 260.295 98.9639C257.426 94.5952 239.062 108.552 239.99 109.704Z" fill="#FFBE21"/>
    <path id="Vector_75" d="M267.401 93.617C272.378 93.617 276.413 89.5823 276.413 84.6052C276.413 79.6281 272.378 75.5934 267.401 75.5934C262.424 75.5934 258.389 79.6281 258.389 84.6052C258.389 89.5823 262.424 93.617 267.401 93.617Z" fill="#30242A"/>
    <path id="Vector_76" d="M205.853 244.324H251.871L254.299 232.819H198.851L205.853 244.324Z" fill="#CA7358"/>
    <path
      id="Vector_77"
      d="M205.451 206.36C205.451 206.36 214.849 194.089 232.486 192.937L244.196 167.78C241.069 167.281 238.815 166.964 238.815 166.964C239.279 165.843 240.856 162.132 242.762 157.554C239.314 155.262 233.681 150.754 232.378 145.067C236.515 144.444 244.749 140.54 241.498 133.708C237.516 125.331 226.977 131.775 226.977 131.775C223.778 128.146 221.734 123.645 221.108 118.847C219.829 118.979 216.163 118.588 213.562 117.181L213.388 117.08C211.995 119.814 210.746 122.618 209.645 125.481C209.355 126.216 209.077 126.927 208.783 127.604C208.783 127.604 205.145 126.985 204.399 128.489C203.475 130.345 206.243 132.742 206.243 132.742C204.032 136.902 202.072 140.308 202.783 144.622C203.409 148.43 207.001 153.058 215.464 153.831L211.211 167.25L195.36 194.773C198.468 196.594 202.644 200.062 205.451 206.36Z"
      fill="#CA7358"/>
    <path
      id="Vector_78"
      d="M317.443 152.482C312.452 146.254 294.633 120.823 288.684 116.052C284.848 112.982 282.548 115.665 282.548 115.665C282.548 115.665 276.795 112.213 276.795 117.966C271.043 114.513 271.043 121.031 271.043 121.031C271.043 121.031 265.673 119.872 267.977 126.401C270.455 133.422 298.271 184.099 298.271 184.099C298.271 184.099 269.508 173.363 258.389 170.502C256.348 169.976 253.846 169.458 251.322 168.986C249.694 172.798 247.15 179.038 243.048 189.476C237.481 203.607 240.188 217.734 256.297 223.339L259.154 209.808C259.154 209.808 288.923 220.997 305.547 220.544C361.926 219.013 324.348 161.107 317.443 152.482Z"
      fill="#CA7358"/>
    <path
      id="Vector_79"
      d="M221.108 118.847C221.732 123.659 223.781 128.173 226.992 131.81C226.992 131.81 237.531 125.346 241.513 133.743C244.765 140.575 236.53 144.479 232.393 145.102C233.696 150.789 239.329 155.297 242.778 157.589C245.608 150.789 249.157 142.071 250.827 137.099C253.297 129.73 254.573 118.31 243.481 110.06C233.101 102.355 221.205 107.465 218.522 110.149C216.929 111.741 215.429 113.241 213.403 117.107L213.577 117.208C216.164 118.573 219.829 118.963 221.108 118.847Z"
      fill="#30242A"/>
    <path
      id="Vector_80"
      d="M243.048 189.488C247.15 179.073 249.694 172.817 251.322 168.998C248.832 168.53 246.323 168.108 244.212 167.772L232.513 192.936C214.876 194.096 205.478 206.359 205.478 206.359C202.655 200.062 198.48 196.594 195.391 194.761L191.857 200.897C190.053 204.128 189.138 207.78 189.206 211.48C189.274 215.18 190.322 218.796 192.244 221.959L198.847 232.811H254.298L256.297 223.343C240.187 217.745 237.481 203.618 243.048 189.488Z"
      fill="#FFBE21"/>
    <path id="Vector_81" d="M215.703 154.624C218.11 154.611 220.502 154.257 222.809 153.572" stroke="#30242A" stroke-width="4" stroke-miterlimit="10" stroke-linecap="round"/>
    <path
      id="Vector_82"
      d="M272.152 134.253C272.434 133.271 273.13 132.634 274.495 132.73C279.865 133.117 285.614 141.553 285.614 141.553C285.614 141.553 293.868 137.3 301.055 143.698"
      stroke="#30242A"
      stroke-width="4"
      stroke-miterlimit="10"
      stroke-linecap="round"/>
    <path id="Vector_83" d="M271.823 120.823C274.824 125.551 280.398 134.354 281.779 136.565" stroke="#30242A" stroke-width="4" stroke-miterlimit="10" stroke-linecap="round"/>
    <path id="Vector_84" d="M277.36 117.54C280.452 122.095 285.865 129.865 287.918 133.117" stroke="#30242A" stroke-width="4" stroke-miterlimit="10" stroke-linecap="round"/>
    <path id="Vector_85" d="M283.414 115.754C287.28 120.687 293.203 128.342 295.202 131.605" stroke="#30242A" stroke-width="4" stroke-miterlimit="10" stroke-linecap="round"/>
    <path id="Vector_86" d="M282.548 136.565C284.868 135.019 289.449 132.348 297.119 131.582" stroke="#30242A" stroke-width="4" stroke-miterlimit="10" stroke-linecap="round"/>
    <path id="Vector_87" d="M238.726 166.145L231.929 165.329" stroke="#30242A" stroke-width="4" stroke-miterlimit="10" stroke-linecap="round"/>
    <path id="Vector_88" d="M214.671 240.489L214.288 239.724" stroke="#30242A" stroke-width="4" stroke-miterlimit="10" stroke-linecap="round"/>
    <path id="Vector_89" d="M258.775 210.551L254.936 209.043" stroke="#30242A" stroke-width="4" stroke-miterlimit="10" stroke-linecap="round"/>
    <path id="Vector_90" d="M307.09 186.801L298.372 183.376" stroke="#30242A" stroke-width="4" stroke-miterlimit="10" stroke-linecap="round"/>
    <path id="Vector_91" d="M254.299 232.819H198.851" stroke="#30242A" stroke-width="4" stroke-linecap="round" stroke-linejoin="round"/>
    <path id="Vector_92" d="M231.929 192.937L226.327 205.447C225.487 207.321 224.122 208.911 222.399 210.027C220.675 211.143 218.665 211.737 216.612 211.737H189.163" stroke="#30242A" stroke-width="4" stroke-linecap="round" stroke-linejoin="round"/>
    <path id="Vector_93" d="M208.339 137.404C209 137.973 211.683 138.746 213.117 136.809" stroke="#30242A" stroke-width="4" stroke-miterlimit="10" stroke-linecap="round"/>
    <path id="Vector_94" d="M235.579 136.202L230.723 138.085" stroke="#A15842" stroke-width="4" stroke-miterlimit="10" stroke-linecap="round"/>
    <path
      id="Vector_95"
      d="M217.466 128.605C217.097 128.697 216.712 128.713 216.336 128.651C215.96 128.589 215.601 128.45 215.28 128.243C214.96 128.037 214.686 127.767 214.474 127.45C214.262 127.133 214.117 126.776 214.049 126.401"
      stroke="#30242A"
      stroke-width="4"
      stroke-linecap="round"
      stroke-linejoin="round"/>
    <path
      id="Vector_96"
      d="M230.511 143.049L228.755 150.22C228.662 150.591 228.665 150.98 228.766 151.35C228.866 151.719 229.061 152.056 229.33 152.328C229.599 152.6 229.933 152.798 230.302 152.903C230.67 153.008 231.059 153.016 231.431 152.926L237.984 151.38C238.354 151.29 238.694 151.107 238.973 150.848C239.252 150.588 239.459 150.262 239.576 149.9C239.692 149.537 239.713 149.151 239.638 148.778C239.562 148.405 239.392 148.058 239.143 147.769L234.346 142.159C234.081 141.852 233.737 141.623 233.352 141.497C232.967 141.371 232.554 141.353 232.159 141.445C231.764 141.536 231.402 141.734 231.111 142.017C230.821 142.3 230.613 142.656 230.511 143.049Z"
      fill="#F4E6D8"/>
    <path id="Vector_97" d="M245.271 309.684C241.436 305.08 228.094 288.421 228.094 288.421" stroke="#30242A" stroke-width="4" stroke-linecap="round" stroke-linejoin="round"/>
    <path
      id="Vector_98"
      d="M348.882 272.33C347.475 268.526 344.892 262.151 341.707 254.496L307.515 264.475L303.595 265.712C305.358 277.113 306.711 282.672 306.711 282.672C306.711 282.672 269.898 248.925 251.875 244.325H205.837L190.114 336.36H327.398C366.531 336.36 355.408 289.96 348.882 272.33Z"
      fill="#4856DF"/>
    <path
      id="Vector_99"
      d="M311.656 184.373C311.21 183.313 310.412 182.44 309.395 181.902C308.379 181.364 307.208 181.195 306.081 181.423C299.265 182.946 298.735 195.851 297.119 203.29C294.436 215.565 288.683 220.165 288.301 228.218C287.914 235.95 300.189 238.954 300.189 238.954C300.606 243.003 301.03 246.763 301.461 250.232L335.629 240.018C326.258 217.927 315.158 192.407 311.656 184.373Z"
      fill="#A15842"/>
    <path id="Vector_100" d="M303.576 265.623V265.712L307.496 264.474L303.576 265.623Z" fill="#A15842"/>
    <path id="Vector_101" d="M341.714 254.485C341.614 254.249 341.517 254.009 341.417 253.769L307.515 264.475L341.714 254.485Z" fill="#3EC1F3"/>
    <path id="Vector_102" d="M341.417 253.773C339.634 249.497 337.67 244.839 335.618 240.021L301.449 250.236C302.18 256.205 302.903 261.327 303.564 265.627L307.5 264.467L341.417 253.773Z" fill="#3EC1F3"/>
    <path id="Vector_103" d="M237.825 244.204C250.081 257.059 313.453 322.222 333.166 315.65C347.56 310.852 326.366 263.581 324.348 257.361" stroke="#3EC1F3" stroke-width="4" stroke-linecap="round" stroke-linejoin="round"/>
    <path id="Vector_104" d="M323.366 296.532C318.924 292.55 310.994 285.448 306.78 281.698" stroke="#30242A" stroke-width="4" stroke-linecap="round" stroke-linejoin="round"/>
    <path id="Vector_105" d="M298.654 230.136L299.404 238.15" stroke="#30242A" stroke-width="4" stroke-linecap="round" stroke-linejoin="round"/>
    <path id="Vector_106" d="M308.288 182.104L309.742 186.179" stroke="#30242A" stroke-width="4" stroke-linecap="round" stroke-linejoin="round"/>
    <path id="Vector_107" d="M304.809 182.49L307.159 188.27" stroke="#30242A" stroke-width="4" stroke-linecap="round" stroke-linejoin="round"/>
    <path id="Vector_108" d="M215.707 295.465L215.491 295.399L223.49 244.247H205.837C205.837 244.247 135.293 271.17 119.187 296.86C103.962 321.143 131.841 336.36 139.894 336.36H210.129L215.707 295.465Z" fill="#4856DF"/>
    <path
      id="Vector_109"
      d="M289.831 336.36C299.037 336.36 295.971 326.003 289.445 322.554C282.919 319.106 275.256 315.65 267.203 304.913C259.15 294.177 249.562 296.86 243.427 304.527C243.427 304.527 238.749 302.845 231.875 300.564L226.493 336.356L289.831 336.36Z"
      fill="#CA7358"/>
    <path id="Vector_110" d="M216.38 295.666L215.707 295.465L210.128 336.36H226.497L231.879 300.553C227.41 299.087 222.017 297.351 216.38 295.666Z" fill="#3EC1F3"/>
    <path id="Vector_111" d="M285.614 332.142L291.277 335.587" stroke="#30242A" stroke-width="4" stroke-linecap="round" stroke-linejoin="round"/>
    <path id="Vector_112" d="M177.858 286.507C193.965 289.573 200.931 291.533 215.502 296.172" stroke="#30242A" stroke-width="4" stroke-linecap="round" stroke-linejoin="round"/>
    <path id="Vector_113" d="M281.013 334.06L284.319 335.974" stroke="#30242A" stroke-width="4" stroke-linecap="round" stroke-linejoin="round"/>
    <path id="Vector_114" d="M244.2 304.052L249.567 306.066" stroke="#30242A" stroke-width="4" stroke-linecap="round" stroke-linejoin="round"/>
    <path id="Vector_115" d="M373.575 159.541C374.394 154.701 378.121 135.502 387.241 125.114" stroke="#30242A" stroke-width="4" stroke-miterlimit="10" stroke-linecap="round"/>
    <path id="Vector_116" d="M392.852 141.86C400.815 138.417 406.643 134.175 405.868 132.383C405.094 130.592 398.011 131.93 390.048 135.373C382.085 138.816 376.257 143.059 377.032 144.85C377.806 146.641 384.889 145.303 392.852 141.86Z" fill="#30242A"/>
    <path
      id="Vector_117"
      d="M393.646 91.7495C396.525 87.9091 397.773 83.9818 396.434 82.9777C395.094 81.9735 391.675 84.2727 388.795 88.1131C385.916 91.9535 384.668 95.8808 386.007 96.885C387.346 97.8891 390.766 95.5899 393.646 91.7495Z"
      fill="#30242A"/>
    <path
      id="Vector_118"
      d="M409.193 117.641C408.632 115.816 404.998 115.228 400.397 115.998C403.765 111.447 405.157 107.005 403.49 105.602C401.824 104.199 397.691 106.317 393.763 110.396C393.763 105.733 392.561 102.246 390.67 102.003C388.258 101.689 385.614 106.773 384.763 113.353C384.512 115.233 384.442 117.132 384.554 119.025C385.667 118.676 386.85 118.611 387.994 118.835C389.139 119.059 390.21 119.566 391.109 120.308C392.008 121.051 392.708 122.006 393.144 123.088C393.581 124.17 393.74 125.343 393.609 126.502C395.434 126.291 397.235 125.912 398.99 125.369C405.327 123.428 409.896 119.968 409.193 117.641Z"
      fill="#FFBE21"/>
    <path
      id="Vector_119"
      d="M391.157 120.355C390.257 119.594 389.179 119.073 388.023 118.84C386.867 118.608 385.671 118.671 384.546 119.025C384.751 122.16 385.528 124.565 386.715 125.462C387.817 126.502 390.392 126.861 393.601 126.502C393.731 125.355 393.576 124.194 393.15 123.122C392.724 122.05 392.039 121.099 391.157 120.355Z"
      fill="#30242A"/>
    <path id="Vector_120" d="M371.046 158.927C370.779 153.429 369.183 126.452 363.198 110.519" stroke="#30242A" stroke-width="4" stroke-miterlimit="10" stroke-linecap="round"/>
    <path id="Vector_121" d="M351.31 143.454C361.593 141.494 369.649 138.433 369.303 136.617C368.957 134.8 360.34 134.917 350.056 136.877C339.772 138.836 331.716 141.898 332.063 143.714C332.409 145.53 341.026 145.414 351.31 143.454Z" fill="#30242A"/>
    <path
      id="Vector_122"
      d="M367.586 87.5782C365.723 87.1684 363.43 90.0525 361.841 94.4366C359.522 89.2716 356.336 85.881 354.302 86.6388C352.269 87.3965 352.072 92.0513 353.707 97.4638C349.636 95.1905 346.017 94.514 344.877 96.0449C343.419 97.978 346.551 102.791 351.871 106.762C353.386 107.902 355.007 108.895 356.711 109.727C356.953 108.586 357.476 107.523 358.232 106.635C358.989 105.748 359.955 105.063 361.043 104.643C362.132 104.223 363.307 104.082 364.464 104.232C365.621 104.382 366.722 104.818 367.667 105.501C368.376 103.807 368.929 102.051 369.318 100.255C370.737 93.7756 369.964 88.1001 367.586 87.5782Z"
      fill="#FFBE21"/>
    <path
      id="Vector_123"
      d="M361.114 104.62C360.009 105.031 359.025 105.715 358.255 106.609C357.485 107.503 356.954 108.577 356.711 109.731C359.545 111.088 362.019 111.59 363.384 110.999C364.83 110.543 366.407 108.474 367.667 105.505C366.733 104.829 365.645 104.395 364.502 104.24C363.359 104.086 362.195 104.216 361.114 104.62Z"
      fill="#30242A"/>
    <path
      id="Vector_124"
      d="M343.272 116.311V116.334C344.8 117.198 345.949 118.603 346.491 120.272C347.033 121.942 346.928 123.753 346.199 125.35C345.467 126.944 344.166 128.206 342.55 128.888C340.934 129.57 339.122 129.622 337.469 129.034V129.061C346.122 133.016 354.438 133.364 356.026 129.834C357.615 126.305 351.925 120.262 343.272 116.311Z"
      fill="#FFBE21"/>
    <path
      id="Vector_125"
      d="M343.968 128.075C343.222 127.657 342.66 126.973 342.395 126.16C342.13 125.346 342.182 124.463 342.539 123.685C342.897 122.908 343.534 122.294 344.324 121.965C345.114 121.637 345.999 121.618 346.802 121.913C346.715 120.764 346.346 119.654 345.729 118.681C345.111 117.708 344.264 116.902 343.261 116.334L337.462 129.034C338.542 129.42 339.7 129.534 340.835 129.367C341.969 129.2 343.045 128.756 343.968 128.075Z"
      fill="#F5EBDD"/>
    <path
      id="Vector_126"
      d="M342.538 123.695C342.183 124.472 342.134 125.353 342.399 126.164C342.664 126.976 343.224 127.658 343.968 128.075C344.925 127.373 345.686 126.439 346.182 125.361C346.678 124.283 346.891 123.096 346.802 121.913C345.997 121.619 345.112 121.64 344.321 121.97C343.531 122.3 342.894 122.916 342.538 123.695Z"
      fill="#30242A"/>
  </g>
</svg>
