<svg width="260px" height="62px" viewBox="0 0 260 62" fill="none" xmlns="http://www.w3.org/2000/svg">
<path d="M0 4.15627H3.24117V31.8618H0V35.7706H10.7179V31.8618H7.42591V4.15627H10.7179V0.247498H0V4.15627Z" fill="#52AE32"/>
<path d="M52.1803 10.1129H45.8926V9.64982C45.8926 7.48725 46.5527 3.85889 50.9701 3.85889C51.3346 3.8541 51.6987 3.88398 52.0576 3.94811L52.5696 4.06282V0.162545L52.2184 0.107312C51.6918 0.0286478 51.1597 -0.00687486 50.6274 0.00109581C47.949 0.00109581 41.7078 0.940051 41.7078 9.64982V10.1129H38.6148V13.771H41.7078V32.0105H37.0196C36.5414 32.0105 36.3637 31.8321 36.3637 31.352V19.545C36.3637 12.6961 33.588 9.50536 27.6388 9.50536C25.7793 9.48047 23.9435 9.92586 22.3004 10.8005C20.6573 11.6752 19.2599 12.9509 18.2369 14.5103V13.2994C18.2369 11.1751 17.086 10.1129 14.818 10.1129H10.9548V13.873H13.4428C13.8956 13.873 14.0987 14.0769 14.0987 14.5315V35.7749H18.2834V23.4537C18.2606 22.3621 18.3888 21.2725 18.6642 20.2163C19.1745 18.3155 20.2886 16.6339 21.8374 15.427C23.3862 14.22 25.2849 13.5535 27.2453 13.5289C31.3496 13.5289 32.1747 16.1758 32.1747 20.4499V32.3462C32.1747 34.6915 33.2622 35.7834 35.5936 35.7834H45.8926V13.771H52.1803V10.1129Z" fill="#52AE32"/>
<path d="M64.3368 9.52234C56.8008 9.52234 50.8982 15.3643 50.8982 22.8207C50.8982 26.4062 52.3167 29.8449 54.8417 32.3802C57.3667 34.9156 60.7913 36.3399 64.3622 36.3399C67.933 36.3399 71.3576 34.9156 73.8826 32.3802C76.4076 29.8449 77.8261 26.4062 77.8261 22.8207C77.8261 15.3643 71.9023 9.52234 64.3368 9.52234ZM64.3875 32.5076C59.2254 32.5076 55.1803 28.259 55.1803 22.8207C55.1572 21.5932 55.3784 20.3735 55.8311 19.233C56.2838 18.0926 56.9587 17.0544 57.8163 16.1794C58.674 15.3044 59.697 14.6102 60.8254 14.1375C61.9538 13.6649 63.1649 13.4233 64.3875 13.4269C69.5201 13.4269 73.5398 17.5523 73.5398 22.8207C73.5398 28.2505 69.5201 32.5076 64.3875 32.5076Z" fill="#52AE32"/>
<path d="M119.508 31.352V19.545C119.508 13.4311 117.3 9.93024 111.308 9.93024C109.356 9.96693 107.456 10.5744 105.842 11.6784C104.227 12.7824 102.969 14.3349 102.219 16.146H102.118C101.386 12.0546 99.0291 9.93448 94.455 9.93448C90.6469 9.93448 86.7456 12.8448 85.5186 16.197H85.4212C85.4862 15.6073 85.5186 15.0144 85.5186 14.4211V13.2994C85.5186 11.4258 84.5834 10.5378 82.5228 10.5378H79.0828V13.4481H81.1476C81.2931 13.4328 81.4401 13.4502 81.578 13.4992C81.7158 13.5483 81.8411 13.6276 81.9445 13.7314C82.0479 13.8353 82.1269 13.961 82.1757 14.0994C82.2245 14.2379 82.2419 14.3855 82.2266 14.5315V35.35H85.5693V23.6109C85.5485 22.4965 85.6795 21.3844 85.9586 20.3055C86.991 16.5072 89.9868 13.002 93.9981 13.002C98.6525 13.002 99.2068 16.6559 99.2068 20.4032V35.35H102.545V23.6109C102.506 22.3941 102.656 21.1786 102.99 20.0081C103.971 16.3585 107.064 13.002 110.796 13.002C115.315 13.002 116.153 16.3585 116.153 20.4032V32.3377C116.153 34.462 117.037 35.35 119.149 35.35H122.635V32.4354H120.592C120.445 32.4557 120.296 32.4417 120.155 32.3945C120.015 32.3473 119.888 32.2682 119.783 32.1633C119.678 32.0584 119.598 31.9306 119.551 31.7899C119.503 31.6492 119.489 31.4993 119.508 31.352Z" fill="#5C5C5C"/>
<path d="M135.532 9.9472C128.898 9.9472 123.346 14.8289 123.346 22.9694C123.346 30.617 128.948 35.9405 136.269 35.9405C139.656 35.9103 142.918 34.6484 145.45 32.3887L143.83 29.8735C141.829 31.7938 139.18 32.8861 136.412 32.9325C131.305 32.9325 126.934 29.3296 126.837 23.0671H145.797C145.797 23.0671 145.895 21.9794 145.895 21.3889C145.895 15.224 142.357 9.9472 135.532 9.9472ZM126.981 20.3947C127.827 15.411 131.403 12.7471 135.482 12.7471C139.116 12.7471 142.252 15.2665 142.455 20.3947H126.981Z" fill="#5C5C5C"/>
<path d="M171.689 31.352V19.545C171.689 13.4312 169.527 9.93026 163.387 9.93026C161.317 9.88476 159.279 10.4551 157.531 11.5694C155.783 12.6837 154.402 14.2923 153.562 16.1928H153.465C153.53 15.6031 153.562 15.0102 153.562 14.4169V13.2995C153.562 11.4258 152.627 10.5378 150.566 10.5378H147.126V13.4482H149.191C149.337 13.4328 149.484 13.4503 149.621 13.4993C149.759 13.5483 149.885 13.6276 149.988 13.7314C150.091 13.8353 150.17 13.961 150.219 14.0995C150.268 14.2379 150.285 14.3855 150.27 14.5316V35.35H153.596V23.4538C153.573 22.3238 153.704 21.1959 153.985 20.1016C154.515 18.1078 155.682 16.3436 157.306 15.079C158.93 13.8144 160.922 13.1191 162.977 13.0998C167.741 13.0998 168.333 16.5497 168.333 20.4457V32.342C168.333 34.4663 169.214 35.3543 171.325 35.3543H174.816V32.4354H172.751C172.606 32.4522 172.459 32.4355 172.321 32.3867C172.184 32.3379 172.059 32.2583 171.957 32.1539C171.854 32.0494 171.777 31.9229 171.731 31.784C171.684 31.6451 171.67 31.4973 171.689 31.352Z" fill="#5C5C5C"/>
<path d="M213.05 31.352V10.5335H209.711V22.4298C209.711 27.8044 206.224 32.7881 200.626 32.7881C195.858 32.7881 195.223 29.3339 195.223 25.4379V13.4481C195.223 11.4258 194.339 10.5378 192.223 10.5378H181.467V3.68469H178.175V10.5378H174.883V13.3462H178.137V26.3428C178.137 34.6277 183.883 35.5667 186.735 35.5667C187.211 35.5694 187.686 35.5368 188.157 35.469V32.4354C187.785 32.5082 187.406 32.5424 187.027 32.5374C185.161 32.5374 181.48 31.7981 181.48 25.9732V13.4524H190.814C190.96 13.437 191.107 13.4545 191.244 13.5035C191.382 13.5525 191.508 13.6318 191.611 13.7357C191.714 13.8395 191.793 13.9652 191.842 14.1037C191.891 14.2421 191.908 14.3897 191.893 14.5358V26.3428C191.893 32.8051 194.351 35.9618 200.195 35.9618C202.231 35.9628 204.224 35.3715 205.932 34.2594C207.64 33.1472 208.991 31.5618 209.821 29.695H209.918C209.853 30.2848 209.821 30.8776 209.821 31.471V32.6054C209.821 34.479 210.756 35.3712 212.817 35.3712H216.202V32.4354H214.141C213.994 32.4572 213.844 32.4443 213.702 32.3977C213.561 32.3512 213.432 32.2723 213.326 32.1672C213.22 32.0621 213.14 31.9338 213.092 31.7923C213.044 31.6509 213.03 31.5001 213.05 31.352Z" fill="#5C5C5C"/>
<path d="M257.66 32.4354C257.513 32.4557 257.364 32.4417 257.224 32.3945C257.083 32.3473 256.956 32.2682 256.851 32.1633C256.746 32.0584 256.667 31.9306 256.619 31.7899C256.572 31.6492 256.557 31.4993 256.577 31.352V19.545C256.577 13.4311 254.368 9.93024 248.372 9.93024C246.42 9.96668 244.521 10.5741 242.907 11.6782C241.294 12.7822 240.036 14.3349 239.288 16.146H239.186C238.45 12.0546 236.093 9.93448 231.523 9.93448C227.715 9.93448 223.814 12.8448 222.587 16.197H222.485C222.553 15.6075 222.587 15.0145 222.587 14.4211V13.2994C222.587 11.4258 221.652 10.5378 219.587 10.5378H216.151V13.4481H218.212C218.358 13.4321 218.505 13.449 218.643 13.4977C218.782 13.5465 218.908 13.6257 219.012 13.7296C219.115 13.8335 219.195 13.9595 219.244 14.0983C219.293 14.2371 219.31 14.3851 219.295 14.5315V35.35H222.633V23.6109C222.612 22.4962 222.744 21.3838 223.027 20.3055C224.059 16.5072 227.055 13.002 231.066 13.002C235.721 13.002 236.275 16.6559 236.275 20.4032V35.35H239.614V23.6109C239.568 22.3952 239.71 21.1797 240.037 20.0081C241.052 16.3585 244.145 13.002 247.882 13.002C252.401 13.002 253.238 16.3585 253.238 20.4032V32.3377C253.238 34.462 254.123 35.35 256.234 35.35H259.721V32.4354H257.66Z" fill="#5C5C5C"/>
<path d="M109.396 55.272L108.55 44.5059H106.7L103.739 51.24C103.434 51.924 103.112 52.8417 103.112 52.8417H103.078C103.078 52.8417 102.753 51.924 102.448 51.24L99.4861 44.5059H97.637L96.7907 55.272C96.7696 55.5269 96.6469 55.6714 96.393 55.6714H95.7837V57.2179H97.3197C98.1659 57.2179 98.4325 56.878 98.4875 56.0665L99.0122 49.3493C99.0629 48.5931 99.046 47.4587 99.046 47.4587H99.0841C99.0841 47.4587 99.4607 48.6823 99.7653 49.3493L102.329 54.9321H103.836L106.4 49.3493C106.705 48.6653 107.064 47.4757 107.064 47.4757H107.098C107.098 47.4757 107.098 48.5931 107.136 49.3493L107.64 56.0835C107.691 56.895 107.978 57.2349 108.786 57.2349H110.382V55.6586H109.789C109.54 55.6586 109.413 55.5269 109.396 55.272Z" fill="#52AE32"/>
<path d="M118.476 55.3272V51.4567C118.476 49.4386 117.685 47.8878 114.744 47.8878C113.864 47.8878 111.604 48.1045 111.604 49.5873V50.488H113.238V49.9654C113.238 49.3706 114.296 49.2644 114.727 49.2644C116.14 49.2644 116.733 49.838 116.733 51.444V51.5332H116.36C114.837 51.5332 110.889 51.7116 110.889 54.6474C110.889 56.4659 112.417 57.4218 113.974 57.4218C114.578 57.4363 115.173 57.2737 115.686 56.9537C116.2 56.6337 116.609 56.1704 116.864 55.6204H116.898C116.875 55.7993 116.864 55.9796 116.864 56.16C116.864 56.81 117.186 57.2051 117.994 57.2051H119.627V55.7096H118.899C118.845 55.7214 118.789 55.72 118.735 55.7056C118.681 55.6913 118.632 55.6643 118.59 55.627C118.549 55.5897 118.517 55.543 118.497 55.4909C118.477 55.4388 118.47 55.3827 118.476 55.3272ZM116.784 53.1307C116.784 54.4817 115.832 56.0283 114.359 56.0283C113.212 56.0283 112.667 55.3102 112.667 54.571C112.667 52.897 115.032 52.8248 116.344 52.8248H116.784V53.1307Z" fill="#52AE32"/>
<path d="M127.036 55.3654L125.69 52.897C125.386 52.3192 125.081 52.2129 125.081 52.2129V52.1747C125.356 51.9999 125.588 51.7663 125.762 51.4907L128.221 48.0917H126.228L124.112 51.0658C123.995 51.2008 123.849 51.307 123.685 51.3763C123.52 51.4455 123.342 51.4759 123.164 51.4652H122.356V45.5468C122.356 44.7395 122.013 44.5059 121.205 44.5059H119.483V45.9971H120.219C120.273 45.9902 120.328 45.9958 120.379 46.0134C120.431 46.031 120.478 46.0602 120.516 46.0988C120.554 46.1373 120.583 46.1842 120.601 46.2358C120.619 46.2875 120.624 46.3424 120.617 46.3965V57.2179H122.356V52.931H123.037C123.207 52.9094 123.379 52.933 123.536 52.9994C123.694 53.0658 123.831 53.1726 123.934 53.3091L125.585 56.3724C125.978 57.0734 126.249 57.2221 127.091 57.2221H128.36V55.7266H127.802C127.362 55.7223 127.18 55.6586 127.036 55.3654Z" fill="#52AE32"/>
<path d="M131.542 55.3272V49.2601C131.542 48.4486 131.204 48.1045 130.396 48.1045H128.703V49.6H129.439C129.493 49.5931 129.547 49.5985 129.598 49.6159C129.649 49.6333 129.695 49.6622 129.733 49.7004C129.771 49.7385 129.8 49.785 129.817 49.8361C129.834 49.8872 129.84 49.9416 129.833 49.9951V56.0835C129.833 56.895 130.176 57.2349 130.984 57.2349H132.676V55.7393H131.94C131.885 55.7477 131.828 55.7427 131.775 55.7247C131.722 55.7067 131.674 55.6763 131.636 55.636C131.597 55.5957 131.568 55.5467 131.552 55.493C131.535 55.4393 131.532 55.3824 131.542 55.3272Z" fill="#52AE32"/>
<path d="M131.419 44.5059H129.858V46.3243H131.419V44.5059Z" fill="#52AE32"/>
<path d="M142.171 55.3272V51.3845C142.171 49.0605 141.202 47.8878 139.049 47.8878C138.341 47.872 137.644 48.0606 137.04 48.4312C136.436 48.8018 135.951 49.3387 135.643 49.9782H135.604C135.63 49.8051 135.642 49.6305 135.643 49.4556V49.1157C135.643 48.4486 135.262 48.1045 134.492 48.1045H132.824V49.6H133.561C133.614 49.5931 133.668 49.5985 133.719 49.6159C133.77 49.6333 133.816 49.6622 133.854 49.7004C133.892 49.7386 133.921 49.785 133.938 49.8361C133.956 49.8872 133.961 49.9416 133.954 49.9952V57.2179H135.693V52.9692C135.68 52.5539 135.734 52.1392 135.854 51.7414C136.018 51.1021 136.39 50.5359 136.91 50.1321C137.43 49.7282 138.07 49.5097 138.727 49.5108C140.178 49.5108 140.42 50.5177 140.42 51.7966V56.0835C140.42 56.895 140.762 57.2349 141.571 57.2349H143.288V55.7394H142.556C142.502 55.7464 142.447 55.7404 142.395 55.7218C142.343 55.7031 142.296 55.6724 142.259 55.6322C142.221 55.592 142.194 55.5433 142.179 55.4903C142.163 55.4373 142.161 55.3814 142.171 55.3272Z" fill="#52AE32"/>
<path d="M150.503 49.0222V49.3111H150.465C150.465 49.3111 149.821 47.8878 147.562 47.8878C145.023 47.8878 143.58 49.8337 143.58 52.4466C143.58 55.0596 145.121 57.1202 147.634 57.1202C148.958 57.1202 149.8 56.6146 150.342 55.7309H150.376C150.355 55.9228 150.343 56.1156 150.342 56.3087V56.9332C150.342 58.7729 149.047 59.4824 147.469 59.4824C146.608 59.4679 145.762 59.2588 144.994 58.8706L144.405 60.2727C145.369 60.7576 146.429 61.0162 147.507 61.0289C149.8 61.0289 152.081 59.8776 152.081 56.8695V49.9612C152.079 49.9103 152.089 49.8598 152.108 49.8129C152.128 49.7661 152.158 49.7241 152.195 49.6898C152.232 49.6555 152.277 49.6297 152.325 49.6142C152.373 49.5987 152.424 49.5939 152.475 49.6H153.194V48.1045H151.501C150.79 48.1045 150.503 48.4826 150.503 49.0222ZM147.964 55.5991C146.331 55.5991 145.345 54.2991 145.345 52.4084C145.345 50.5177 146.242 49.4046 147.82 49.4046C149.221 49.4046 150.384 50.0886 150.384 52.4636C150.384 54.8386 149.229 55.5991 147.972 55.5991H147.964Z" fill="#52AE32"/>
<path d="M163.129 55.8881C162.703 55.9026 162.278 55.8284 161.882 55.6701C161.486 55.5118 161.127 55.2729 160.827 54.9684C160.527 54.6639 160.294 54.3003 160.141 53.9007C159.988 53.5011 159.919 53.074 159.939 52.6463C159.939 50.7174 161.263 49.3833 163.04 49.3833C163.704 49.3833 164.733 49.6723 164.733 50.3223V50.8236H166.29V49.8889C166.29 48.3382 164.119 47.8878 163.027 47.8878C160.104 47.8878 158.149 49.9782 158.149 52.6633C158.149 55.3485 160.137 57.4346 162.989 57.4346C163.68 57.4436 164.365 57.309 165.002 57.0392C165.638 56.7694 166.212 56.3702 166.687 55.8668L165.934 54.6262C165.198 55.3973 164.192 55.85 163.129 55.8881Z" fill="#52AE32"/>
<path d="M176.022 55.3272V51.3845C176.022 49.0604 175.053 47.8878 172.92 47.8878C172.222 47.8711 171.534 48.0534 170.934 48.4136C170.335 48.7738 169.85 49.2971 169.535 49.9229H169.497C169.523 49.6717 169.536 49.4192 169.535 49.1666V45.619C169.535 44.8458 169.192 44.5059 168.384 44.5059H166.662V45.9971H167.398C167.452 45.9902 167.507 45.9958 167.558 46.0134C167.61 46.031 167.656 46.0602 167.695 46.0988C167.733 46.1373 167.762 46.1842 167.78 46.2358C167.797 46.2875 167.803 46.3424 167.796 46.3965V57.2179H169.535V52.9692C169.521 52.5608 169.575 52.1529 169.696 51.7626C169.86 51.1222 170.23 50.5543 170.749 50.1471C171.268 49.7398 171.906 49.5161 172.565 49.5108C174.016 49.5108 174.287 50.5177 174.287 51.7966V56.0835C174.287 56.895 174.63 57.2349 175.434 57.2349H177.126V55.7393H176.39C176.337 55.7427 176.284 55.7339 176.235 55.7138C176.186 55.6936 176.142 55.6625 176.106 55.6228C176.071 55.5832 176.045 55.536 176.03 55.4848C176.016 55.4336 176.013 55.3797 176.022 55.3272Z" fill="#52AE32"/>
<path d="M185.246 55.3272V51.4567C185.246 49.4386 184.459 47.8878 181.514 47.8878C180.638 47.8878 178.378 48.1045 178.378 49.5873V50.488H180.007V49.9654C180.007 49.3706 181.065 49.2644 181.497 49.2644C182.914 49.2644 183.507 49.838 183.507 51.444V51.5332H183.113C181.586 51.5332 177.642 51.7116 177.642 54.6474C177.642 56.4659 179.165 57.4218 180.727 57.4218C181.33 57.4366 181.925 57.274 182.438 56.9539C182.95 56.6339 183.359 56.1704 183.612 55.6204H183.638C183.612 55.7991 183.599 55.9794 183.6 56.16C183.6 56.81 183.926 57.2051 184.73 57.2051H186.363V55.7096H185.627C185.575 55.7142 185.524 55.7074 185.476 55.6898C185.427 55.6722 185.384 55.6442 185.347 55.6077C185.311 55.5712 185.283 55.5272 185.265 55.4788C185.248 55.4303 185.241 55.3786 185.246 55.3272ZM183.524 53.1307C183.524 54.4817 182.576 56.0283 181.103 56.0283C179.957 56.0283 179.411 55.3102 179.411 54.571C179.411 52.897 181.78 52.8248 183.088 52.8248H183.536L183.524 53.1307Z" fill="#52AE32"/>
<path d="M195.765 55.3272V51.3845C195.765 49.0604 194.796 47.8878 192.642 47.8878C191.938 47.8766 191.246 48.0673 190.646 48.4376C190.047 48.8079 189.565 49.3423 189.257 49.9781H189.219C189.244 49.8051 189.257 49.6304 189.257 49.4556V49.1157C189.257 48.4486 188.88 48.1045 188.11 48.1045H186.439V49.6H187.175C187.229 49.5923 187.284 49.5972 187.335 49.6143C187.386 49.6314 187.433 49.6602 187.472 49.6984C187.51 49.7367 187.539 49.7834 187.557 49.8349C187.575 49.8863 187.58 49.9412 187.573 49.9951V57.2179H189.312V52.9692C189.297 52.5538 189.351 52.1387 189.473 51.7413C189.637 51.1028 190.008 50.5371 190.527 50.1334C191.047 49.7296 191.685 49.5106 192.342 49.5108C193.793 49.5108 194.034 50.5177 194.034 51.7966V56.0835C194.034 56.895 194.373 57.2349 195.181 57.2349H196.903V55.7393H196.167C196.111 55.7485 196.054 55.744 196.001 55.7264C195.947 55.7088 195.899 55.6785 195.859 55.6381C195.82 55.5976 195.791 55.5483 195.774 55.4942C195.758 55.4401 195.754 55.3828 195.765 55.3272Z" fill="#52AE32"/>
<path d="M204.117 49.0222V49.3111H204.079C204.079 49.3111 203.432 47.8878 201.172 47.8878C198.634 47.8878 197.191 49.8337 197.191 52.4466C197.191 55.0596 198.735 57.1202 201.244 57.1202C202.573 57.1202 203.415 56.6146 203.952 55.7309H203.99C203.967 55.9226 203.954 56.1155 203.952 56.3087V56.9332C203.952 58.7729 202.662 59.4824 201.083 59.4824C200.223 59.4679 199.377 59.2588 198.608 58.8706L198.016 60.2727C198.981 60.7572 200.043 61.0158 201.122 61.0289C203.415 61.0289 205.696 59.8776 205.696 56.8695V49.9612C205.694 49.9103 205.703 49.8598 205.723 49.8129C205.743 49.7661 205.772 49.7241 205.81 49.6898C205.847 49.6555 205.891 49.6297 205.94 49.6142C205.988 49.5987 206.039 49.5939 206.089 49.6H206.804V48.1045H205.112C204.401 48.1045 204.117 48.4826 204.117 49.0222ZM201.579 55.5991C199.945 55.5991 198.959 54.2991 198.959 52.4084C198.959 50.5177 199.856 49.4046 201.435 49.4046C202.835 49.4046 203.999 50.0886 203.999 52.4636C203.999 54.8386 202.844 55.5991 201.587 55.5991H201.579Z" fill="#52AE32"/>
<path d="M211.666 47.8878C209.085 47.8878 207.113 49.7615 207.113 52.6633C207.113 55.3655 209.068 57.4346 211.937 57.4346C213.224 57.4304 214.467 56.9563 215.432 56.1005L214.679 54.8599C213.947 55.5169 213.007 55.8932 212.026 55.922C211.62 55.9328 211.217 55.8622 210.84 55.7143C210.462 55.5664 210.118 55.3442 209.827 55.0608C209.536 54.7774 209.304 54.4385 209.146 54.064C208.987 53.6895 208.904 53.287 208.903 52.88H215.525C215.525 52.88 215.576 52.3914 215.576 52.1577C215.576 49.7997 214.213 47.8878 211.666 47.8878ZM208.975 51.6012C209.053 50.9498 209.37 50.3512 209.865 49.9229C210.36 49.4945 210.996 49.2672 211.649 49.2856C212.779 49.2856 213.731 50.0971 213.765 51.6096L208.975 51.6012Z" fill="#52AE32"/>
<path d="M232.632 49.0774L231.028 54.4987C230.934 54.8177 230.862 55.1428 230.813 55.4717H230.779C230.719 55.1434 230.641 54.8186 230.546 54.4987L228.574 48.1257H226.975L225.02 54.4987C224.876 54.9661 224.77 55.4717 224.77 55.4717H224.732C224.683 55.1431 224.612 54.8181 224.521 54.4987L222.904 49.0774C222.672 48.3042 222.367 48.1045 221.559 48.1045H220.467V49.6H220.717C221.004 49.6 221.182 49.6722 221.271 49.9612L223.657 57.2179H225.629L227.495 51.3675C227.639 50.8959 227.749 50.3733 227.749 50.3733H227.783C227.783 50.3733 227.889 50.8959 228.033 51.3675L229.916 57.2179H231.875L234.261 49.9612C234.354 49.6722 234.532 49.6 234.82 49.6H235.069V48.1045H233.99C233.191 48.1045 232.869 48.3042 232.632 49.0774Z" fill="#52AE32"/>
<path d="M239.973 47.8878C237.265 47.8878 235.095 49.8889 235.095 52.6463C235.095 53.9478 235.61 55.196 236.526 56.1162C237.443 57.0365 238.686 57.5535 239.982 57.5535C241.278 57.5535 242.521 57.0365 243.438 56.1162C244.354 55.196 244.869 53.9478 244.869 52.6463C244.869 49.8889 242.681 47.8878 239.973 47.8878ZM239.973 55.922C239.326 55.9474 238.687 55.7782 238.136 55.436C237.586 55.0938 237.149 54.5943 236.884 54.0015C236.618 53.4087 236.534 52.7497 236.644 52.1089C236.753 51.4682 237.051 50.8749 237.499 50.4053C237.947 49.9356 238.524 49.611 239.157 49.473C239.789 49.3349 240.449 49.3899 241.05 49.6307C241.652 49.8715 242.168 50.2872 242.532 50.8245C242.897 51.3618 243.093 51.9962 243.096 52.6463C243.114 53.0694 243.046 53.4918 242.897 53.888C242.748 54.2842 242.521 54.6461 242.23 54.9521C241.938 55.258 241.588 55.5016 241.2 55.6683C240.812 55.835 240.395 55.9213 239.973 55.922Z" fill="#52AE32"/>
<path d="M247.992 50.3733H247.954C247.977 50.1645 247.988 49.9546 247.987 49.7445V49.1667C247.987 48.4316 247.611 48.1045 246.82 48.1045H245.174V49.6H245.906C245.959 49.5923 246.014 49.5972 246.065 49.6143C246.117 49.6314 246.164 49.6602 246.202 49.6985C246.241 49.7367 246.27 49.7834 246.287 49.8349C246.305 49.8864 246.31 49.9412 246.303 49.9951V57.2179H248.042V53.4918C248.03 52.9373 248.103 52.3842 248.258 51.8518C248.681 50.5007 249.693 49.7275 250.797 49.7275C250.97 49.7278 251.143 49.7449 251.313 49.7785V48.0493C251.159 48.0281 251.003 48.0168 250.848 48.0153C249.464 48.011 248.423 49.0434 247.992 50.3733Z" fill="#52AE32"/>
<path d="M259.433 55.7223C258.984 55.7223 258.803 55.6501 258.659 55.3654L257.313 52.897C257.008 52.3192 256.704 52.2129 256.704 52.2129V52.1747C256.979 52.0014 257.212 51.7675 257.385 51.4907L259.843 48.0917H257.855L255.739 51.0658C255.621 51.2009 255.474 51.3071 255.309 51.3763C255.144 51.4456 254.966 51.4759 254.787 51.4652H253.979V45.5468C253.979 44.7395 253.64 44.5059 252.832 44.5059H251.127V45.9971H251.863C251.917 45.99 251.972 45.9955 252.023 46.0131C252.074 46.0308 252.121 46.0601 252.159 46.0987C252.197 46.1374 252.225 46.1844 252.242 46.2361C252.259 46.2877 252.264 46.3427 252.257 46.3965V57.2179H253.996V52.931H254.677C254.846 52.909 255.019 52.9324 255.176 52.9988C255.334 53.0652 255.471 53.1723 255.574 53.3091L257.224 56.3724C257.618 57.0734 257.889 57.2221 258.731 57.2221H260V55.7266L259.433 55.7223Z" fill="#52AE32"/>
<path d="M91.4339 50.8151L84.7654 44.1235L82.197 46.7024L86.2971 50.8194L82.197 54.9406L84.7654 57.5195L91.4339 50.8279L91.4255 50.8194L91.4339 50.8151Z" fill="#52AE32"/>
</svg>
