<svg width="200px" height="47px" viewBox="0 0 200 47" fill="none" xmlns="http://www.w3.org/2000/svg">
<g id="Logo_Print_CMYK">
<path id="Vector" d="M0 3.19718H2.49321V24.5091H0V27.5159H8.2445V24.5091H5.71224V3.19718H8.2445V0.19043H0V3.19718Z" fill="#52AE32"/>
<path id="Vector_2" d="M40.1386 7.77917H35.3019V7.42294C35.3019 5.75942 35.8097 2.96837 39.2078 2.96837C39.4881 2.9647 39.7682 2.98768 40.0442 3.03701L40.4381 3.12525V0.125035L40.1679 0.0825481C39.7629 0.0220368 39.3536 -0.00528835 38.9441 0.00084293C36.8838 0.00084293 32.0829 0.723116 32.0829 7.42294V7.77917H29.7036V10.5931H32.0829V24.6235H28.4766C28.1088 24.6235 27.9721 24.4862 27.9721 24.1169V15.0346C27.9721 9.76624 25.8369 7.31182 21.2606 7.31182C19.8302 7.29267 18.418 7.63528 17.1541 8.30808C15.8902 8.98089 14.8153 9.96225 14.0283 11.1618V10.2303C14.0283 8.59622 13.143 7.77917 11.3984 7.77917H8.42676V10.6715H10.3406C10.6889 10.6715 10.8451 10.8284 10.8451 11.1781V27.5191H14.0641V18.0413C14.0466 17.2016 14.1452 16.3635 14.3571 15.551C14.7496 14.0889 15.6066 12.7953 16.7979 11.8669C17.9893 10.9384 19.4499 10.4258 20.9579 10.4068C24.1151 10.4068 24.7498 12.4429 24.7498 15.7307V24.8817C24.7498 26.6857 25.5863 27.5257 27.3797 27.5257H35.3019V10.5931H40.1386V7.77917Z" fill="#52AE32"/>
<path id="Vector_3" d="M49.4897 7.32489C43.6928 7.32489 39.1523 11.8187 39.1523 17.5544C39.1523 20.3125 40.2435 22.9576 42.1858 24.9079C44.1281 26.8581 46.7624 27.9538 49.5092 27.9538C52.2561 27.9538 54.8904 26.8581 56.8327 24.9079C58.775 22.9576 59.8661 20.3125 59.8661 17.5544C59.8661 11.8187 55.3094 7.32489 49.4897 7.32489ZM49.5288 25.0059C45.5579 25.0059 42.4462 21.7377 42.4462 17.5544C42.4285 16.6102 42.5987 15.6719 42.9469 14.7946C43.2951 13.9174 43.8143 13.1188 44.474 12.4457C45.1337 11.7726 45.9207 11.2386 46.7887 10.875C47.6567 10.5114 48.5883 10.3256 49.5288 10.3284C53.4769 10.3284 56.569 13.5018 56.569 17.5544C56.569 21.7311 53.4769 25.0059 49.5288 25.0059Z" fill="#52AE32"/>
<path id="Vector_4" d="M91.9297 24.1169V15.0346C91.9297 10.3316 90.2307 7.63861 85.6219 7.63861C84.1197 7.66684 82.6584 8.13415 81.4167 8.98336C80.175 9.83257 79.2067 11.0268 78.6305 12.42H78.5523C77.9893 9.27271 76.1763 7.64188 72.6578 7.64188C69.7285 7.64188 66.7275 9.8806 65.7836 12.4592H65.7088C65.7587 12.0056 65.7837 11.5495 65.7836 11.0931V10.2303C65.7836 8.78902 65.0643 8.10596 63.4792 8.10596H60.833V10.3447H62.4214C62.5333 10.3329 62.6464 10.3463 62.7524 10.384C62.8585 10.4217 62.9548 10.4827 63.0343 10.5626C63.1139 10.6425 63.1747 10.7392 63.2122 10.8457C63.2497 10.9522 63.2631 11.0657 63.2514 11.1781V27.1923H65.8227V18.1622C65.8067 17.3049 65.9074 16.4495 66.1221 15.6196C66.9163 12.6978 69.2207 10.0015 72.3063 10.0015C75.8866 10.0015 76.313 12.8122 76.313 15.6947V27.1923H78.8811V18.1622C78.8509 17.2262 78.9662 16.2912 79.2228 15.3908C79.978 12.5834 82.3573 10.0015 85.228 10.0015C88.7042 10.0015 89.3486 12.5834 89.3486 15.6947V24.8751C89.3486 26.5092 90.0289 27.1923 91.6531 27.1923H94.335V24.9503H92.763C92.6502 24.9659 92.5353 24.9551 92.4274 24.9188C92.3194 24.8825 92.2213 24.8217 92.1406 24.741C92.06 24.6603 91.999 24.562 91.9624 24.4537C91.9258 24.3455 91.9146 24.2302 91.9297 24.1169Z" fill="#5C5C5C"/>
<path id="Vector_5" d="M104.256 7.65173C99.1522 7.65173 94.8818 11.4069 94.8818 17.6688C94.8818 23.5515 99.1912 27.6466 104.822 27.6466C107.428 27.6233 109.937 26.6527 111.885 24.9144L110.639 22.9796C109.099 24.4568 107.062 25.2971 104.933 25.3327C101.004 25.3327 97.6419 22.5613 97.5671 17.7439H112.152C112.152 17.7439 112.227 16.9073 112.227 16.453C112.227 11.7108 109.506 7.65173 104.256 7.65173ZM97.6777 15.6882C98.3287 11.8546 101.079 9.80548 104.217 9.80548C107.013 9.80548 109.424 11.7435 109.581 15.6882H97.6777Z" fill="#5C5C5C"/>
<path id="Vector_6" d="M132.068 24.1169V15.0346C132.068 10.3317 130.405 7.63866 125.682 7.63866C124.09 7.60366 122.522 8.04235 121.178 8.89953C119.833 9.7567 118.771 10.9941 118.124 12.456H118.05C118.1 12.0024 118.125 11.5463 118.124 11.0899V10.2303C118.124 8.78907 117.405 8.10601 115.82 8.10601H113.174V10.3447H114.762C114.874 10.3329 114.987 10.3463 115.093 10.3841C115.199 10.4218 115.296 10.4828 115.375 10.5627C115.455 10.6425 115.515 10.7392 115.553 10.8457C115.591 10.9522 115.604 11.0658 115.592 11.1781V27.1923H118.15V18.0414C118.133 17.1721 118.233 16.3045 118.45 15.4627C118.858 13.9291 119.755 12.572 121.004 11.5992C122.253 10.6264 123.786 10.0916 125.366 10.0767C129.031 10.0767 129.487 12.7305 129.487 15.7275V24.8784C129.487 26.5125 130.164 27.1956 131.788 27.1956H134.473V24.9503H132.885C132.774 24.9632 132.661 24.9504 132.555 24.9129C132.449 24.8753 132.353 24.8141 132.274 24.7337C132.195 24.6534 132.136 24.5561 132.1 24.4492C132.065 24.3424 132.054 24.2287 132.068 24.1169Z" fill="#5C5C5C"/>
<path id="Vector_7" d="M163.884 24.1169V8.1027H161.316V17.2537C161.316 21.3879 158.634 25.2216 154.328 25.2216C150.66 25.2216 150.172 22.5645 150.172 19.5676V10.3447C150.172 8.78902 149.491 8.10596 147.864 8.10596H139.59V2.83435H137.058V8.10596H134.526V10.2662H137.029V20.2637C137.029 26.6367 141.449 27.359 143.642 27.359C144.008 27.3611 144.374 27.3359 144.736 27.2838V24.9503C144.45 25.0063 144.159 25.0326 143.867 25.0287C142.432 25.0287 139.6 24.4601 139.6 19.9794V10.348H146.78C146.892 10.3361 147.005 10.3496 147.111 10.3873C147.217 10.425 147.314 10.486 147.393 10.5659C147.473 10.6457 147.533 10.7425 147.571 10.849C147.608 10.9554 147.622 11.069 147.61 11.1813V20.2637C147.61 25.2346 149.501 27.6629 153.996 27.6629C155.562 27.6637 157.095 27.2088 158.409 26.3533C159.723 25.4978 160.762 24.2783 161.401 22.8423H161.476C161.426 23.2959 161.401 23.752 161.401 24.2084V25.081C161.401 26.5223 162.12 27.2086 163.705 27.2086H166.309V24.9503H164.724C164.611 24.967 164.495 24.9571 164.386 24.9213C164.278 24.8855 164.179 24.8248 164.097 24.744C164.016 24.6631 163.954 24.5644 163.917 24.4556C163.88 24.3468 163.869 24.2308 163.884 24.1169Z" fill="#5C5C5C"/>
<path id="Vector_8" d="M198.2 24.9503C198.087 24.9659 197.972 24.9551 197.864 24.9188C197.756 24.8825 197.658 24.8217 197.578 24.741C197.497 24.6603 197.436 24.562 197.399 24.4537C197.363 24.3455 197.352 24.2302 197.367 24.1169V15.0346C197.367 10.3316 195.668 7.63861 191.056 7.63861C189.554 7.66664 188.093 8.13392 186.852 8.98319C185.61 9.83246 184.643 11.0268 184.067 12.42H183.989C183.423 9.27271 181.61 7.64188 178.095 7.64188C175.165 7.64188 172.165 9.8806 171.221 12.4592H171.143C171.195 12.0057 171.221 11.5496 171.221 11.0931V10.2303C171.221 8.78902 170.501 8.10596 168.913 8.10596H166.27V10.3447H167.855C167.967 10.3323 168.081 10.3454 168.187 10.3828C168.294 10.4203 168.39 10.4813 168.47 10.5612C168.55 10.6411 168.611 10.738 168.649 10.8448C168.687 10.9515 168.7 11.0654 168.688 11.1781V27.1923H171.256V18.1622C171.24 17.3047 171.342 16.449 171.559 15.6196C172.353 12.6978 174.658 10.0015 177.743 10.0015C181.324 10.0015 181.75 12.8122 181.75 15.6947V27.1923H184.318V18.1622C184.283 17.2271 184.392 16.292 184.644 15.3908C185.425 12.5834 187.804 10.0015 190.678 10.0015C194.154 10.0015 194.799 12.5834 194.799 15.6947V24.8751C194.799 26.5092 195.479 27.1923 197.103 27.1923H199.785V24.9503H198.2Z" fill="#5C5C5C"/>
<path id="Vector_9" d="M84.1505 42.5169L83.4995 34.2353H82.0772L79.7988 39.4154C79.5644 39.9416 79.3171 40.6475 79.3171 40.6475H79.291C79.291 40.6475 79.0404 39.9416 78.8061 39.4154L76.5277 34.2353H75.1053L74.4543 42.5169C74.4381 42.713 74.3437 42.8241 74.1484 42.8241H73.6797V44.0138H74.8612C75.5122 44.0138 75.7172 43.7523 75.7595 43.1281L76.1631 37.961C76.2022 37.3793 76.1892 36.5067 76.1892 36.5067H76.2185C76.2185 36.5067 76.5081 37.4479 76.7425 37.961L78.7149 42.2555H79.8736L81.8461 37.961C82.0804 37.4349 82.3571 36.5198 82.3571 36.5198H82.3831C82.3831 36.5198 82.3831 37.3793 82.4124 37.961L82.7997 43.1412C82.8388 43.7654 83.0601 44.0268 83.6818 44.0268H84.9089V42.8143H84.4532C84.2612 42.8143 84.1635 42.713 84.1505 42.5169Z" fill="#52AE32"/>
<path id="Vector_10" d="M91.1355 42.5594V39.5821C91.1355 38.0297 90.5268 36.8368 88.2647 36.8368C87.5877 36.8368 85.8496 37.0035 85.8496 38.1441V38.8369H87.106V38.4349C87.106 37.9774 87.9197 37.8957 88.2517 37.8957C89.3388 37.8957 89.7945 38.3369 89.7945 39.5723V39.6409H89.5081C88.3363 39.6409 85.2996 39.7782 85.2996 42.0365C85.2996 43.4353 86.4746 44.1706 87.6723 44.1706C88.137 44.1818 88.5947 44.0567 88.9896 43.8105C89.3845 43.5644 89.6992 43.208 89.8954 42.7849H89.9214C89.9038 42.9226 89.8951 43.0612 89.8954 43.2C89.8954 43.7 90.1428 44.004 90.7644 44.004H92.0208V42.8536H91.461C91.4192 42.8626 91.3759 42.8615 91.3346 42.8505C91.2933 42.8394 91.2551 42.8187 91.2234 42.79C91.1916 42.7613 91.1671 42.7254 91.1518 42.6853C91.1365 42.6452 91.1309 42.6021 91.1355 42.5594ZM89.8336 40.8698C89.8336 41.909 89.1012 43.0987 87.9685 43.0987C87.0865 43.0987 86.6666 42.5463 86.6666 41.9777C86.6666 40.69 88.486 40.6344 89.495 40.6344H89.8336V40.8698Z" fill="#52AE32"/>
<path id="Vector_11" d="M97.72 42.5888L96.685 40.69C96.4506 40.2455 96.2163 40.1638 96.2163 40.1638V40.1344C96.4275 39.9999 96.6064 39.8203 96.7403 39.6082L98.6314 36.9937H97.0984L95.4709 39.2814C95.381 39.3852 95.2684 39.467 95.142 39.5202C95.0156 39.5735 94.8787 39.5969 94.7419 39.5886H94.1202V35.036C94.1202 34.415 93.8566 34.2353 93.2349 34.2353H91.9102V35.3824H92.4765C92.5179 35.3771 92.56 35.3814 92.5996 35.3949C92.6391 35.4085 92.6751 35.4309 92.7046 35.4606C92.7341 35.4903 92.7565 35.5263 92.77 35.566C92.7835 35.6057 92.7878 35.648 92.7825 35.6896V44.0138H94.1202V40.7161H94.6442C94.7745 40.6996 94.9069 40.7177 95.028 40.7688C95.1491 40.8198 95.2548 40.902 95.3342 41.007L96.6036 43.3634C96.9063 43.9026 97.1146 44.017 97.7623 44.017H98.7388V42.8666H98.3092C97.9707 42.8633 97.8307 42.8143 97.72 42.5888Z" fill="#52AE32"/>
<path id="Vector_12" d="M101.186 42.5594V37.8924C101.186 37.2682 100.926 37.0035 100.304 37.0035H99.0024V38.1539H99.5688C99.6098 38.1485 99.6515 38.1527 99.6906 38.1661C99.7298 38.1795 99.7654 38.2017 99.7946 38.2311C99.8239 38.2604 99.846 38.2962 99.8593 38.3355C99.8726 38.3748 99.8768 38.4166 99.8715 38.4578V43.1412C99.8715 43.7654 100.135 44.0269 100.757 44.0269H102.059V42.8764H101.492C101.45 42.8829 101.406 42.879 101.366 42.8652C101.325 42.8514 101.288 42.828 101.258 42.797C101.228 42.766 101.206 42.7282 101.194 42.6869C101.181 42.6456 101.179 42.6019 101.186 42.5594Z" fill="#52AE32"/>
<path id="Vector_13" d="M101.092 34.2353H99.8909V35.6341H101.092V34.2353Z" fill="#52AE32"/>
<path id="Vector_14" d="M109.363 42.5594V39.5265C109.363 37.7388 108.617 36.8368 106.96 36.8368C106.416 36.8246 105.88 36.9697 105.415 37.2547C104.951 37.5398 104.578 37.9528 104.34 38.4447H104.311C104.33 38.3116 104.34 38.1773 104.34 38.0427V37.7813C104.34 37.2682 104.047 37.0034 103.455 37.0034H102.173V38.1539H102.739C102.78 38.1485 102.822 38.1527 102.861 38.1661C102.9 38.1794 102.936 38.2017 102.965 38.231C102.994 38.2604 103.016 38.2961 103.029 38.3354C103.043 38.3747 103.047 38.4166 103.042 38.4578V44.0137H104.379V40.7455C104.369 40.426 104.411 40.107 104.503 39.801C104.63 39.3093 104.915 38.8738 105.315 38.5631C105.716 38.2525 106.207 38.0843 106.713 38.0852C107.83 38.0852 108.015 38.8598 108.015 39.8435V43.1411C108.015 43.7654 108.279 44.0268 108.9 44.0268H110.222V42.8764H109.659C109.617 42.8818 109.574 42.8772 109.534 42.8629C109.495 42.8486 109.459 42.8249 109.43 42.794C109.401 42.763 109.38 42.7256 109.368 42.6848C109.356 42.644 109.354 42.6011 109.363 42.5594Z" fill="#52AE32"/>
<path id="Vector_15" d="M115.771 37.7094V37.9316H115.742C115.742 37.9316 115.247 36.8368 113.509 36.8368C111.556 36.8368 110.446 38.3336 110.446 40.3436C110.446 42.3535 111.631 43.9386 113.564 43.9386C114.583 43.9386 115.231 43.5497 115.648 42.8699H115.674C115.657 43.0175 115.649 43.1659 115.648 43.3144V43.7948C115.648 45.2099 114.652 45.7557 113.437 45.7557C112.776 45.7445 112.125 45.5837 111.533 45.2851L111.081 46.3636C111.822 46.7366 112.638 46.9355 113.467 46.9453C115.231 46.9453 116.985 46.0597 116.985 43.7458V38.4317C116.984 38.3926 116.991 38.3537 117.006 38.3177C117.022 38.2816 117.044 38.2493 117.073 38.2229C117.102 38.1965 117.136 38.1767 117.173 38.1648C117.21 38.1529 117.249 38.1491 117.288 38.1539H117.841V37.0035H116.539C115.993 37.0035 115.771 37.2943 115.771 37.7094ZM113.818 42.7686C112.562 42.7686 111.804 41.7685 111.804 40.3142C111.804 38.8598 112.494 38.0035 113.708 38.0035C114.785 38.0035 115.68 38.5297 115.68 40.3566C115.68 42.1836 114.791 42.7686 113.825 42.7686H113.818Z" fill="#52AE32"/>
<path id="Vector_16" d="M125.484 42.9908C125.156 43.002 124.829 42.9449 124.525 42.8231C124.22 42.7014 123.944 42.5176 123.713 42.2834C123.483 42.0491 123.303 41.7695 123.185 41.4621C123.068 41.1547 123.015 40.8262 123.03 40.4972C123.03 39.0134 124.048 37.9872 125.415 37.9872C125.926 37.9872 126.717 38.2094 126.717 38.7095V39.0951H127.915V38.3761C127.915 37.1832 126.245 36.8368 125.406 36.8368C123.157 36.8368 121.653 38.4447 121.653 40.5103C121.653 42.5758 123.183 44.1804 125.376 44.1804C125.908 44.1874 126.435 44.0839 126.924 43.8763C127.414 43.6688 127.855 43.3617 128.221 42.9745L127.642 42.0202C127.076 42.6133 126.301 42.9615 125.484 42.9908Z" fill="#52AE32"/>
<path id="Vector_17" d="M135.401 42.5594V39.5265C135.401 37.7388 134.656 36.8368 133.016 36.8368C132.479 36.8239 131.949 36.9641 131.488 37.2412C131.027 37.5183 130.654 37.9209 130.412 38.4023H130.382C130.402 38.209 130.412 38.0148 130.412 37.8205V35.0916C130.412 34.4967 130.148 34.2353 129.526 34.2353H128.202V35.3824H128.768C128.809 35.3771 128.852 35.3814 128.891 35.3949C128.931 35.4085 128.967 35.4309 128.996 35.4606C129.026 35.4903 129.048 35.5263 129.062 35.566C129.075 35.6057 129.079 35.648 129.074 35.6896V44.0138H130.412V40.7456C130.401 40.4314 130.443 40.1176 130.535 39.8174C130.662 39.3248 130.946 38.8879 131.346 38.5747C131.745 38.2614 132.236 38.0894 132.742 38.0852C133.859 38.0852 134.067 38.8598 134.067 39.8435V43.1412C134.067 43.7654 134.331 44.0268 134.949 44.0268H136.251V42.8764H135.685C135.644 42.879 135.603 42.8723 135.565 42.8568C135.527 42.8412 135.494 42.8173 135.466 42.7868C135.439 42.7563 135.419 42.72 135.408 42.6806C135.397 42.6412 135.394 42.5998 135.401 42.5594Z" fill="#52AE32"/>
<path id="Vector_18" d="M142.497 42.5594V39.5821C142.497 38.0297 141.892 36.8368 139.626 36.8368C138.952 36.8368 137.214 37.0035 137.214 38.1441V38.8369H138.467V38.4349C138.467 37.9774 139.281 37.8957 139.613 37.8957C140.703 37.8957 141.159 38.3369 141.159 39.5723V39.6409H140.856C139.681 39.6409 136.648 39.7782 136.648 42.0365C136.648 43.4353 137.82 44.1706 139.021 44.1706C139.485 44.182 139.942 44.0569 140.337 43.8107C140.731 43.5645 141.045 43.208 141.241 42.7849H141.26C141.24 42.9224 141.23 43.0611 141.231 43.2C141.231 43.7 141.481 44.004 142.1 44.004H143.356V42.8536H142.79C142.751 42.8571 142.711 42.8518 142.674 42.8383C142.637 42.8248 142.603 42.8032 142.575 42.7752C142.547 42.7471 142.526 42.7133 142.512 42.676C142.499 42.6387 142.493 42.5989 142.497 42.5594ZM141.172 40.8698C141.172 41.909 140.443 43.0987 139.31 43.0987C138.428 43.0987 138.008 42.5463 138.008 41.9777C138.008 40.69 139.831 40.6344 140.837 40.6344H141.182L141.172 40.8698Z" fill="#52AE32"/>
<path id="Vector_19" d="M150.588 42.5594V39.5265C150.588 37.7388 149.843 36.8368 148.186 36.8368C147.645 36.8282 147.112 36.9749 146.651 37.2597C146.19 37.5446 145.819 37.9557 145.582 38.4447H145.553C145.572 38.3116 145.582 38.1773 145.582 38.0428V37.7813C145.582 37.2682 145.293 37.0035 144.7 37.0035H143.415V38.1539H143.981C144.022 38.148 144.064 38.1517 144.104 38.1649C144.143 38.178 144.179 38.2002 144.209 38.2296C144.239 38.259 144.261 38.2949 144.275 38.3345C144.288 38.3741 144.292 38.4163 144.287 38.4578V44.0138H145.625V40.7456C145.613 40.426 145.655 40.1067 145.748 39.801C145.875 39.3098 146.16 38.8747 146.559 38.5641C146.959 38.2535 147.45 38.0851 147.955 38.0852C149.071 38.0852 149.257 38.8598 149.257 39.8435V43.1412C149.257 43.7654 149.517 44.0268 150.139 44.0268H151.464V42.8764H150.897C150.855 42.8834 150.811 42.88 150.77 42.8665C150.728 42.8529 150.691 42.8296 150.661 42.7985C150.631 42.7674 150.608 42.7295 150.595 42.6879C150.583 42.6463 150.58 42.6022 150.588 42.5594Z" fill="#52AE32"/>
<path id="Vector_20" d="M157.013 37.7094V37.9316H156.984C156.984 37.9316 156.486 36.8368 154.748 36.8368C152.795 36.8368 151.685 38.3336 151.685 40.3436C151.685 42.3535 152.873 43.9386 154.803 43.9386C155.825 43.9386 156.473 43.5497 156.887 42.8699H156.916C156.898 43.0174 156.888 43.1658 156.887 43.3144V43.7948C156.887 45.2099 155.894 45.7557 154.68 45.7557C154.018 45.7445 153.367 45.5837 152.776 45.2851L152.32 46.3636C153.062 46.7363 153.879 46.9352 154.709 46.9453C156.473 46.9453 158.228 46.0597 158.228 43.7458V38.4317C158.226 38.3926 158.234 38.3537 158.249 38.3177C158.264 38.2816 158.287 38.2493 158.315 38.2229C158.344 38.1965 158.378 38.1767 158.415 38.1648C158.452 38.1529 158.492 38.1491 158.53 38.1539H159.08V37.0035H157.778C157.232 37.0035 157.013 37.2943 157.013 37.7094ZM155.061 42.7686C153.804 42.7686 153.046 41.7685 153.046 40.3142C153.046 38.8598 153.736 38.0035 154.95 38.0035C156.027 38.0035 156.922 38.5297 156.922 40.3566C156.922 42.1836 156.034 42.7686 155.067 42.7686H155.061Z" fill="#52AE32"/>
<path id="Vector_21" d="M162.82 36.8368C160.835 36.8368 159.318 38.2781 159.318 40.5103C159.318 42.5888 160.822 44.1804 163.028 44.1804C164.019 44.1773 164.974 43.8125 165.717 43.1542L165.138 42.1999C164.574 42.7054 163.852 42.9947 163.097 43.017C162.785 43.0252 162.475 42.9709 162.184 42.8571C161.894 42.7434 161.629 42.5725 161.405 42.3545C161.182 42.1365 161.003 41.8758 160.881 41.5877C160.759 41.2996 160.696 40.99 160.695 40.6769H165.788C165.788 40.6769 165.828 40.3011 165.828 40.1213C165.828 38.3075 164.779 36.8368 162.82 36.8368ZM160.75 39.6932C160.81 39.1922 161.054 38.7317 161.435 38.4022C161.815 38.0727 162.305 37.8978 162.807 37.912C163.676 37.912 164.408 38.5363 164.434 39.6997L160.75 39.6932Z" fill="#52AE32"/>
<path id="Vector_22" d="M178.948 37.7519L177.714 41.9221C177.642 42.1675 177.586 42.4176 177.548 42.6705H177.522C177.476 42.418 177.416 42.1682 177.343 41.9221L175.826 37.0198H174.596L173.092 41.9221C172.982 42.2816 172.9 42.6705 172.9 42.6705H172.871C172.833 42.4178 172.779 42.1678 172.708 41.9221L171.465 37.7519C171.286 37.1571 171.052 37.0035 170.43 37.0035H169.59V38.1539H169.782C170.003 38.1539 170.14 38.2094 170.209 38.4317L172.044 44.0138H173.561L174.996 39.5135C175.107 39.1507 175.192 38.7487 175.192 38.7487H175.218C175.218 38.7487 175.299 39.1507 175.41 39.5135L176.858 44.0138H178.365L180.201 38.4317C180.272 38.2094 180.409 38.1539 180.631 38.1539H180.823V37.0035H179.993C179.377 37.0035 179.13 37.1571 178.948 37.7519Z" fill="#52AE32"/>
<path id="Vector_23" d="M184.595 36.8368C182.512 36.8368 180.842 38.3761 180.842 40.4972C180.842 41.4983 181.238 42.4584 181.943 43.1664C182.648 43.8743 183.604 44.272 184.601 44.272C185.598 44.272 186.555 43.8743 187.26 43.1664C187.965 42.4584 188.361 41.4983 188.361 40.4972C188.361 38.3761 186.678 36.8368 184.595 36.8368ZM184.595 43.017C184.097 43.0365 183.605 42.9063 183.182 42.6431C182.758 42.3799 182.423 41.9956 182.218 41.5396C182.014 41.0836 181.949 40.5767 182.034 40.0838C182.118 39.5909 182.347 39.1346 182.691 38.7733C183.036 38.412 183.48 38.1623 183.967 38.0561C184.453 37.95 184.96 37.9922 185.423 38.1774C185.886 38.3627 186.283 38.6825 186.563 39.0958C186.844 39.5091 186.995 39.9971 186.997 40.4972C187.011 40.8227 186.958 41.1475 186.844 41.4523C186.729 41.7571 186.555 42.0355 186.33 42.2708C186.106 42.5061 185.837 42.6935 185.538 42.8218C185.24 42.95 184.919 43.0164 184.595 43.017Z" fill="#52AE32"/>
<path id="Vector_24" d="M190.763 38.7487H190.733C190.751 38.5881 190.76 38.4266 190.759 38.265V37.8205C190.759 37.2551 190.47 37.0035 189.861 37.0035H188.595V38.1539H189.158C189.199 38.148 189.241 38.1517 189.281 38.1649C189.321 38.178 189.357 38.2001 189.386 38.2296C189.416 38.259 189.438 38.2949 189.452 38.3345C189.465 38.3741 189.469 38.4163 189.464 38.4578V44.0138H190.802V41.1475C190.792 40.721 190.848 40.2955 190.968 39.886C191.293 38.8467 192.071 38.2519 192.921 38.2519C193.054 38.2522 193.187 38.2653 193.318 38.2911V36.961C193.199 36.9447 193.079 36.936 192.96 36.9348C191.895 36.9316 191.095 37.7257 190.763 38.7487Z" fill="#52AE32"/>
<path id="Vector_25" d="M199.564 42.8633C199.219 42.8633 199.079 42.8078 198.968 42.5888L197.933 40.69C197.699 40.2455 197.464 40.1638 197.464 40.1638V40.1344C197.677 40.0011 197.856 39.8212 197.988 39.6082L199.88 36.9937H198.35L196.722 39.2814C196.632 39.3853 196.519 39.467 196.392 39.5203C196.265 39.5735 196.127 39.5969 195.99 39.5886H195.368V35.036C195.368 34.415 195.108 34.2353 194.486 34.2353H193.175V35.3824H193.741C193.782 35.377 193.824 35.3812 193.864 35.3947C193.903 35.4083 193.939 35.4308 193.968 35.4606C193.998 35.4903 194.02 35.5265 194.033 35.5662C194.046 35.606 194.049 35.6482 194.044 35.6896V44.0138H195.381V40.7161H195.905C196.036 40.6992 196.168 40.7172 196.289 40.7683C196.411 40.8194 196.516 40.9017 196.595 41.007L197.865 43.3634C198.167 43.9026 198.376 44.017 199.024 44.017H200V42.8666L199.564 42.8633Z" fill="#52AE32"/>
<path id="Vector_26" d="M70.3338 39.0886L65.2042 33.9412L63.2285 35.925L66.3825 39.0919L63.2285 42.262L65.2042 44.2458L70.3338 39.0984L70.3273 39.0919L70.3338 39.0886Z" fill="#52AE32"/>
</g>
</svg>
